%TF.GenerationSoftware,KiCad,Pcbnew,7.0.2-0*%
%TF.CreationDate,2023-06-17T13:30:50-07:00*%
%TF.ProjectId,camera-clicker,63616d65-7261-42d6-936c-69636b65722e,rev?*%
%TF.SameCoordinates,Original*%
%TF.FileFunction,Copper,L2,Bot*%
%TF.FilePolarity,Positive*%
%FSLAX46Y46*%
G04 Gerber Fmt 4.6, Leading zero omitted, Abs format (unit mm)*
G04 Created by KiCad (PCBNEW 7.0.2-0) date 2023-06-17 13:30:50*
%MOMM*%
%LPD*%
G01*
G04 APERTURE LIST*
G04 Aperture macros list*
%AMRoundRect*
0 Rectangle with rounded corners*
0 $1 Rounding radius*
0 $2 $3 $4 $5 $6 $7 $8 $9 X,Y pos of 4 corners*
0 Add a 4 corners polygon primitive as box body*
4,1,4,$2,$3,$4,$5,$6,$7,$8,$9,$2,$3,0*
0 Add four circle primitives for the rounded corners*
1,1,$1+$1,$2,$3*
1,1,$1+$1,$4,$5*
1,1,$1+$1,$6,$7*
1,1,$1+$1,$8,$9*
0 Add four rect primitives between the rounded corners*
20,1,$1+$1,$2,$3,$4,$5,0*
20,1,$1+$1,$4,$5,$6,$7,0*
20,1,$1+$1,$6,$7,$8,$9,0*
20,1,$1+$1,$8,$9,$2,$3,0*%
G04 Aperture macros list end*
%TA.AperFunction,ComponentPad*%
%ADD10O,3.500000X2.200000*%
%TD*%
%TA.AperFunction,ComponentPad*%
%ADD11R,2.500000X1.500000*%
%TD*%
%TA.AperFunction,ComponentPad*%
%ADD12O,2.500000X1.500000*%
%TD*%
%TA.AperFunction,ComponentPad*%
%ADD13O,1.100000X1.700000*%
%TD*%
%TA.AperFunction,ComponentPad*%
%ADD14R,1.700000X1.700000*%
%TD*%
%TA.AperFunction,ComponentPad*%
%ADD15O,1.700000X1.700000*%
%TD*%
%TA.AperFunction,SMDPad,CuDef*%
%ADD16R,6.350000X7.340000*%
%TD*%
%TA.AperFunction,SMDPad,CuDef*%
%ADD17RoundRect,0.250000X-0.625000X0.400000X-0.625000X-0.400000X0.625000X-0.400000X0.625000X0.400000X0*%
%TD*%
%TA.AperFunction,ViaPad*%
%ADD18C,0.800000*%
%TD*%
%TA.AperFunction,Conductor*%
%ADD19C,0.650000*%
%TD*%
%TA.AperFunction,Conductor*%
%ADD20C,0.250000*%
%TD*%
%TA.AperFunction,Conductor*%
%ADD21C,0.330000*%
%TD*%
G04 APERTURE END LIST*
D10*
%TO.P,SW1,*%
%TO.N,*%
X155500000Y-61700000D03*
X155500000Y-53500000D03*
D11*
%TO.P,SW1,1,A*%
%TO.N,unconnected-(SW1-A-Pad1)*%
X155500000Y-59600000D03*
D12*
%TO.P,SW1,2,B*%
%TO.N,Net-(BT1-+)*%
X155500000Y-57600000D03*
%TO.P,SW1,3,C*%
%TO.N,+BATT*%
X155500000Y-55600000D03*
%TD*%
D13*
%TO.P,J3,S1,SHIELD*%
%TO.N,GND*%
X139680000Y-131795000D03*
X139680000Y-135595000D03*
X148320000Y-131795000D03*
X148320000Y-135595000D03*
%TD*%
D14*
%TO.P,J2,1,Pin_1*%
%TO.N,+5V*%
X156000000Y-110450000D03*
D15*
%TO.P,J2,2,Pin_2*%
%TO.N,+BATT*%
X156000000Y-107910000D03*
%TO.P,J2,3,Pin_3*%
X156000000Y-105370000D03*
%TO.P,J2,4,Pin_4*%
%TO.N,/TX*%
X156000000Y-102830000D03*
%TO.P,J2,5,Pin_5*%
%TO.N,/RX*%
X156000000Y-100290000D03*
%TO.P,J2,6,Pin_6*%
%TO.N,GND*%
X156000000Y-97750000D03*
%TD*%
D16*
%TO.P,BT1,1,+*%
%TO.N,Net-(BT1-+)*%
X141200000Y-47270000D03*
%TO.P,BT1,2,-*%
%TO.N,GND*%
X141200000Y-125930000D03*
%TD*%
D17*
%TO.P,TH1,1*%
%TO.N,GND*%
X141200000Y-87250000D03*
%TO.P,TH1,2*%
%TO.N,Net-(R6-Pad2)*%
X141200000Y-90350000D03*
%TD*%
D18*
%TO.N,Net-(BT1-+)*%
X132820000Y-86100000D03*
%TO.N,GND*%
X142640000Y-63890000D03*
X136550000Y-89210000D03*
X146330000Y-66440000D03*
X139230000Y-88570000D03*
X141640000Y-83800000D03*
X133210000Y-90780000D03*
X137360000Y-94050000D03*
%TO.N,+5V*%
X145480000Y-121830000D03*
%TO.N,+BATT*%
X150970000Y-61150000D03*
%TO.N,Net-(R6-Pad2)*%
X137310000Y-92320000D03*
%TO.N,Net-(SW3-B)*%
X149070000Y-109460000D03*
X144730000Y-70170000D03*
%TO.N,Net-(SW2-A)*%
X133840000Y-83920000D03*
X137810000Y-100490000D03*
%TO.N,/SW2*%
X143460000Y-78340000D03*
X140810000Y-65750000D03*
%TD*%
D19*
%TO.N,Net-(BT1-+)*%
X134096842Y-47270000D02*
X131350000Y-50016842D01*
X141200000Y-47270000D02*
X134096842Y-47270000D01*
X131350000Y-84770000D02*
X131420000Y-84770000D01*
X131420000Y-84770000D02*
X132750000Y-86100000D01*
X131350000Y-50016842D02*
X131350000Y-84770000D01*
X151530000Y-57600000D02*
X141200000Y-47270000D01*
X132750000Y-86100000D02*
X132820000Y-86100000D01*
X155500000Y-57600000D02*
X151530000Y-57600000D01*
X132820000Y-86170000D02*
X132750000Y-86100000D01*
X132820000Y-86100000D02*
X132820000Y-86170000D01*
%TO.N,+5V*%
X156000000Y-110450000D02*
X156000000Y-111310000D01*
X156000000Y-111310000D02*
X145480000Y-121830000D01*
%TO.N,+BATT*%
X157375000Y-86234620D02*
X157375000Y-103995000D01*
X150970000Y-61150000D02*
X150970000Y-79829620D01*
X150970000Y-79829620D02*
X157375000Y-86234620D01*
X157375000Y-103995000D02*
X156000000Y-105370000D01*
D20*
%TO.N,Net-(R6-Pad2)*%
X141200000Y-90350000D02*
X139230000Y-92320000D01*
X137310000Y-92320000D02*
X139230000Y-92320000D01*
D21*
%TO.N,Net-(SW3-B)*%
X149070000Y-109380000D02*
X149070000Y-109460000D01*
X144730000Y-105040000D02*
X149070000Y-109380000D01*
X144730000Y-70170000D02*
X144730000Y-105040000D01*
X149070000Y-109460000D02*
X149150000Y-109460000D01*
X149150000Y-109460000D02*
X149070000Y-109380000D01*
%TO.N,Net-(SW2-A)*%
X137810000Y-100490000D02*
X137810000Y-100570000D01*
X133840000Y-86161874D02*
X131460000Y-88541874D01*
X131460000Y-94220000D02*
X137730000Y-100490000D01*
X131460000Y-88541874D02*
X131460000Y-94220000D01*
X137810000Y-100570000D02*
X137810000Y-100570000D01*
X137730000Y-100490000D02*
X137810000Y-100490000D01*
X133840000Y-83920000D02*
X133840000Y-86161874D01*
D20*
%TO.N,/SW2*%
X143450000Y-78340000D02*
X143460000Y-78340000D01*
X140810000Y-75700000D02*
X143450000Y-78340000D01*
X140810000Y-65750000D02*
X140810000Y-75700000D01*
%TD*%
%TA.AperFunction,Conductor*%
%TO.N,GND*%
G36*
X156004042Y-42000764D02*
G01*
X156083743Y-42005988D01*
X156261590Y-42018709D01*
X156276904Y-42020772D01*
X156389441Y-42043157D01*
X156530277Y-42073794D01*
X156543690Y-42077518D01*
X156657725Y-42116228D01*
X156661074Y-42117420D01*
X156788808Y-42165062D01*
X156800300Y-42170024D01*
X156910687Y-42224461D01*
X156915187Y-42226798D01*
X157032478Y-42290844D01*
X157041942Y-42296574D01*
X157145269Y-42365615D01*
X157150688Y-42369450D01*
X157256727Y-42448830D01*
X157264145Y-42454844D01*
X157357976Y-42537131D01*
X157363898Y-42542678D01*
X157457320Y-42636100D01*
X157462867Y-42642022D01*
X157545150Y-42735848D01*
X157551173Y-42743278D01*
X157588691Y-42793396D01*
X157630548Y-42849310D01*
X157634383Y-42854729D01*
X157703424Y-42958056D01*
X157709154Y-42967520D01*
X157773183Y-43084779D01*
X157775556Y-43089348D01*
X157783723Y-43105909D01*
X157829969Y-43199687D01*
X157834938Y-43211196D01*
X157882556Y-43338863D01*
X157883793Y-43342338D01*
X157922470Y-43456276D01*
X157926217Y-43469777D01*
X157956847Y-43610580D01*
X157979230Y-43723107D01*
X157981290Y-43738414D01*
X157994017Y-43916350D01*
X157999235Y-43995955D01*
X157999500Y-44004051D01*
X157999500Y-53444956D01*
X157982506Y-53502828D01*
X157996851Y-53529551D01*
X157999500Y-53555043D01*
X157999500Y-61644956D01*
X157982506Y-61702828D01*
X157996851Y-61729551D01*
X157999500Y-61755043D01*
X157999500Y-85392324D01*
X157979815Y-85459363D01*
X157927011Y-85505118D01*
X157857853Y-85515062D01*
X157794297Y-85486037D01*
X157787819Y-85480005D01*
X152819495Y-80511681D01*
X152786010Y-80450358D01*
X152790994Y-80380666D01*
X152832866Y-80324733D01*
X152898330Y-80300316D01*
X152907176Y-80300000D01*
X157300000Y-80300000D01*
X157300000Y-67100000D01*
X151919500Y-67100000D01*
X151852461Y-67080315D01*
X151806706Y-67027511D01*
X151795500Y-66976000D01*
X151795500Y-61543090D01*
X151801569Y-61504772D01*
X151819739Y-61448852D01*
X151855674Y-61338256D01*
X151875460Y-61150000D01*
X151855674Y-60961744D01*
X151814852Y-60836107D01*
X151797179Y-60781715D01*
X151702533Y-60617783D01*
X151575870Y-60477110D01*
X151422730Y-60365848D01*
X151249802Y-60288855D01*
X151064648Y-60249500D01*
X151064646Y-60249500D01*
X150977535Y-60249500D01*
X150910496Y-60229815D01*
X150864741Y-60177011D01*
X150854797Y-60107853D01*
X150868703Y-60066073D01*
X150904878Y-59999822D01*
X151001568Y-59822749D01*
X151100320Y-59557984D01*
X151160387Y-59281861D01*
X151180546Y-59000000D01*
X151160387Y-58718139D01*
X151120577Y-58535136D01*
X151125561Y-58465447D01*
X151167432Y-58409513D01*
X151232897Y-58385096D01*
X151268395Y-58387678D01*
X151340011Y-58403442D01*
X151343228Y-58404195D01*
X151417900Y-58422766D01*
X151417906Y-58422766D01*
X151418280Y-58422859D01*
X151439832Y-58425500D01*
X151440221Y-58425500D01*
X151517114Y-58425500D01*
X151520471Y-58425544D01*
X151597391Y-58427629D01*
X151597392Y-58427628D01*
X151597774Y-58427639D01*
X151620275Y-58425500D01*
X153695556Y-58425500D01*
X153762595Y-58445185D01*
X153808350Y-58497989D01*
X153818294Y-58567147D01*
X153811738Y-58592834D01*
X153806205Y-58607666D01*
X153806204Y-58607669D01*
X153772158Y-58698950D01*
X153755910Y-58742515D01*
X153755909Y-58742517D01*
X153749500Y-58802127D01*
X153749500Y-58805448D01*
X153749500Y-58805449D01*
X153749500Y-60394560D01*
X153749500Y-60394578D01*
X153749501Y-60397872D01*
X153749853Y-60401150D01*
X153749854Y-60401161D01*
X153756021Y-60458524D01*
X153743614Y-60527283D01*
X153720495Y-60556828D01*
X153721113Y-60557355D01*
X153551165Y-60756338D01*
X153420090Y-60970234D01*
X153419534Y-60971141D01*
X153405415Y-61005225D01*
X153323126Y-61203889D01*
X153264317Y-61448850D01*
X153244551Y-61699999D01*
X153264317Y-61951149D01*
X153323126Y-62196110D01*
X153371330Y-62312485D01*
X153419534Y-62428859D01*
X153551164Y-62643659D01*
X153714776Y-62835224D01*
X153906341Y-62998836D01*
X154121141Y-63130466D01*
X154353889Y-63226873D01*
X154598852Y-63285683D01*
X154787118Y-63300500D01*
X154789563Y-63300500D01*
X156210437Y-63300500D01*
X156212882Y-63300500D01*
X156401148Y-63285683D01*
X156646111Y-63226873D01*
X156878859Y-63130466D01*
X157093659Y-62998836D01*
X157285224Y-62835224D01*
X157448836Y-62643659D01*
X157580466Y-62428859D01*
X157676873Y-62196111D01*
X157735683Y-61951148D01*
X157751882Y-61745311D01*
X157769262Y-61699713D01*
X157756523Y-61679891D01*
X157751883Y-61654690D01*
X157735683Y-61448852D01*
X157676873Y-61203889D01*
X157580466Y-60971141D01*
X157448836Y-60756341D01*
X157285224Y-60564776D01*
X157285221Y-60564773D01*
X157278886Y-60557356D01*
X157280274Y-60556169D01*
X157248543Y-60507560D01*
X157243979Y-60458522D01*
X157250144Y-60401180D01*
X157250500Y-60397873D01*
X157250499Y-58802128D01*
X157244091Y-58742517D01*
X157193796Y-58607669D01*
X157107546Y-58492454D01*
X157107547Y-58492454D01*
X157107545Y-58492452D01*
X157068401Y-58463149D01*
X157026531Y-58407215D01*
X157021547Y-58337523D01*
X157039222Y-58295578D01*
X157105635Y-58194968D01*
X157194103Y-57987988D01*
X157244191Y-57768537D01*
X157254290Y-57543670D01*
X157224075Y-57320613D01*
X157154517Y-57106536D01*
X157047852Y-56908319D01*
X156907508Y-56732334D01*
X156863488Y-56693874D01*
X156825955Y-56634944D01*
X156826241Y-56565075D01*
X156855448Y-56514803D01*
X156863747Y-56506123D01*
X156981632Y-56382825D01*
X157105635Y-56194968D01*
X157194103Y-55987988D01*
X157244191Y-55768537D01*
X157254290Y-55543670D01*
X157224075Y-55320613D01*
X157154517Y-55106536D01*
X157069311Y-54948197D01*
X157054878Y-54879837D01*
X157079695Y-54814523D01*
X157097970Y-54795153D01*
X157285224Y-54635224D01*
X157448836Y-54443659D01*
X157580466Y-54228859D01*
X157676873Y-53996111D01*
X157735683Y-53751148D01*
X157751882Y-53545311D01*
X157769262Y-53499713D01*
X157756523Y-53479891D01*
X157751883Y-53454690D01*
X157735683Y-53248852D01*
X157676873Y-53003889D01*
X157580466Y-52771141D01*
X157448836Y-52556341D01*
X157285224Y-52364776D01*
X157093659Y-52201164D01*
X156878859Y-52069534D01*
X156762484Y-52021330D01*
X156646110Y-51973126D01*
X156401149Y-51914317D01*
X156215316Y-51899691D01*
X156215301Y-51899690D01*
X156212882Y-51899500D01*
X154787118Y-51899500D01*
X154784699Y-51899690D01*
X154784683Y-51899691D01*
X154598850Y-51914317D01*
X154353889Y-51973126D01*
X154121139Y-52069535D01*
X153906342Y-52201163D01*
X153714776Y-52364776D01*
X153551163Y-52556342D01*
X153419535Y-52771139D01*
X153323126Y-53003889D01*
X153264317Y-53248850D01*
X153244551Y-53500000D01*
X153264317Y-53751149D01*
X153323126Y-53996110D01*
X153371330Y-54112485D01*
X153419534Y-54228859D01*
X153551164Y-54443659D01*
X153714776Y-54635224D01*
X153902405Y-54795474D01*
X153940598Y-54853981D01*
X153941096Y-54923849D01*
X153925361Y-54958074D01*
X153894365Y-55005032D01*
X153805896Y-55212012D01*
X153755809Y-55431462D01*
X153745709Y-55656328D01*
X153775925Y-55879388D01*
X153811211Y-55987988D01*
X153845483Y-56093464D01*
X153952148Y-56291681D01*
X154092492Y-56467666D01*
X154136510Y-56506124D01*
X154174044Y-56565055D01*
X154173758Y-56634924D01*
X154144553Y-56685195D01*
X154125799Y-56704809D01*
X154095795Y-56736191D01*
X154035241Y-56771044D01*
X154006169Y-56774500D01*
X151923295Y-56774500D01*
X151856256Y-56754815D01*
X151835614Y-56738181D01*
X144911818Y-49814385D01*
X144878333Y-49753062D01*
X144875499Y-49726704D01*
X144875499Y-44000000D01*
X154644340Y-44000000D01*
X154664936Y-44235407D01*
X154726097Y-44463662D01*
X154726097Y-44463663D01*
X154825965Y-44677829D01*
X154961505Y-44871401D01*
X155128599Y-45038495D01*
X155322171Y-45174035D01*
X155536337Y-45273903D01*
X155764592Y-45335063D01*
X155941034Y-45350500D01*
X155943742Y-45350500D01*
X156056258Y-45350500D01*
X156058966Y-45350500D01*
X156235408Y-45335063D01*
X156463663Y-45273903D01*
X156677829Y-45174035D01*
X156871401Y-45038495D01*
X157038495Y-44871401D01*
X157174035Y-44677830D01*
X157273903Y-44463663D01*
X157335063Y-44235408D01*
X157355659Y-44000000D01*
X157335063Y-43764592D01*
X157273903Y-43536337D01*
X157174035Y-43322171D01*
X157038495Y-43128599D01*
X156871401Y-42961505D01*
X156677829Y-42825965D01*
X156463663Y-42726097D01*
X156463662Y-42726097D01*
X156235407Y-42664936D01*
X156061667Y-42649736D01*
X156061659Y-42649735D01*
X156058966Y-42649500D01*
X155941034Y-42649500D01*
X155938341Y-42649735D01*
X155938332Y-42649736D01*
X155764592Y-42664936D01*
X155536336Y-42726097D01*
X155322170Y-42825965D01*
X155128598Y-42961505D01*
X154961508Y-43128595D01*
X154961505Y-43128598D01*
X154961505Y-43128599D01*
X154887126Y-43234824D01*
X154825964Y-43322172D01*
X154726097Y-43536337D01*
X154664936Y-43764592D01*
X154644340Y-44000000D01*
X144875499Y-44000000D01*
X144875499Y-43555439D01*
X144875499Y-43552128D01*
X144869091Y-43492517D01*
X144818796Y-43357669D01*
X144732546Y-43242454D01*
X144617331Y-43156204D01*
X144482483Y-43105909D01*
X144422873Y-43099500D01*
X144419550Y-43099500D01*
X137980439Y-43099500D01*
X137980420Y-43099500D01*
X137977128Y-43099501D01*
X137973848Y-43099853D01*
X137973840Y-43099854D01*
X137917515Y-43105909D01*
X137782669Y-43156204D01*
X137667454Y-43242454D01*
X137581204Y-43357668D01*
X137530910Y-43492515D01*
X137530909Y-43492517D01*
X137524500Y-43552127D01*
X137524500Y-43555448D01*
X137524500Y-43555449D01*
X137524500Y-46320500D01*
X137504815Y-46387539D01*
X137452011Y-46433294D01*
X137400500Y-46444500D01*
X134135437Y-46444500D01*
X134125374Y-46444091D01*
X134123175Y-46443911D01*
X134074357Y-46439937D01*
X134074356Y-46439937D01*
X134074355Y-46439937D01*
X133998149Y-46450318D01*
X133994822Y-46450726D01*
X133917953Y-46459087D01*
X133896809Y-46464042D01*
X133824245Y-46490700D01*
X133821082Y-46491813D01*
X133747823Y-46516498D01*
X133728213Y-46525894D01*
X133663056Y-46567541D01*
X133660206Y-46569309D01*
X133593999Y-46609145D01*
X133576877Y-46622531D01*
X133522234Y-46677174D01*
X133519828Y-46679515D01*
X133463689Y-46732692D01*
X133449290Y-46750117D01*
X130793572Y-49405834D01*
X130786169Y-49412660D01*
X130747154Y-49445800D01*
X130700608Y-49507031D01*
X130698541Y-49509675D01*
X130650109Y-49569927D01*
X130638653Y-49588396D01*
X130606180Y-49658582D01*
X130604731Y-49661604D01*
X130570400Y-49730830D01*
X130563176Y-49751349D01*
X130546557Y-49826845D01*
X130545792Y-49830110D01*
X130527140Y-49905115D01*
X130524500Y-49926684D01*
X130524500Y-50003956D01*
X130524455Y-50007314D01*
X130522360Y-50084620D01*
X130524499Y-50107113D01*
X130524499Y-84692682D01*
X130522867Y-84712735D01*
X130520849Y-84725043D01*
X130524318Y-84789008D01*
X130524500Y-84795721D01*
X130524500Y-84814760D01*
X130524861Y-84818082D01*
X130524862Y-84818095D01*
X130526558Y-84833688D01*
X130527102Y-84840374D01*
X130530570Y-84904340D01*
X130533905Y-84916350D01*
X130537696Y-84936103D01*
X130539045Y-84948500D01*
X130539046Y-84948505D01*
X130559495Y-85009196D01*
X130561465Y-85015613D01*
X130578607Y-85077352D01*
X130584446Y-85088365D01*
X130592397Y-85106849D01*
X130596376Y-85118659D01*
X130629400Y-85173545D01*
X130632703Y-85179388D01*
X130658005Y-85227110D01*
X130662714Y-85235992D01*
X130665147Y-85238856D01*
X130670782Y-85245490D01*
X130682527Y-85261841D01*
X130688951Y-85272519D01*
X130732999Y-85319020D01*
X130737482Y-85324017D01*
X130755742Y-85345514D01*
X130778956Y-85372843D01*
X130786108Y-85378279D01*
X130788877Y-85380385D01*
X130803854Y-85393820D01*
X130812431Y-85402875D01*
X130857269Y-85433276D01*
X130865458Y-85438828D01*
X130870910Y-85442745D01*
X130921901Y-85481507D01*
X130933216Y-85486742D01*
X130950738Y-85496649D01*
X130961047Y-85503639D01*
X130961048Y-85503639D01*
X130961049Y-85503640D01*
X130964759Y-85505118D01*
X130979143Y-85510849D01*
X131020929Y-85538362D01*
X132038608Y-86556041D01*
X132058314Y-86581722D01*
X132087466Y-86632216D01*
X132170308Y-86724221D01*
X132200538Y-86787212D01*
X132191913Y-86856548D01*
X132165839Y-86894874D01*
X131006289Y-88054423D01*
X131000838Y-88059555D01*
X130958204Y-88097326D01*
X130925860Y-88144184D01*
X130921426Y-88150211D01*
X130886293Y-88195058D01*
X130882573Y-88203324D01*
X130871557Y-88222858D01*
X130866400Y-88230329D01*
X130846198Y-88283596D01*
X130843333Y-88290511D01*
X130819967Y-88342428D01*
X130818332Y-88351352D01*
X130812308Y-88372960D01*
X130809092Y-88381440D01*
X130802226Y-88437981D01*
X130801099Y-88445384D01*
X130790835Y-88501395D01*
X130794274Y-88558248D01*
X130794500Y-88565735D01*
X130794500Y-94196137D01*
X130794274Y-94203624D01*
X130790835Y-94260478D01*
X130801099Y-94316487D01*
X130802226Y-94323891D01*
X130809092Y-94380436D01*
X130812308Y-94388916D01*
X130818333Y-94410528D01*
X130819966Y-94419440D01*
X130843338Y-94471370D01*
X130846204Y-94478290D01*
X130866400Y-94531545D01*
X130871551Y-94539007D01*
X130882573Y-94558548D01*
X130886295Y-94566818D01*
X130921420Y-94611653D01*
X130925849Y-94617670D01*
X130958207Y-94664549D01*
X131000838Y-94702317D01*
X131006291Y-94707451D01*
X136887078Y-100588238D01*
X136920563Y-100649561D01*
X136922717Y-100662954D01*
X136924325Y-100678253D01*
X136982820Y-100858284D01*
X137077466Y-101022216D01*
X137204129Y-101162889D01*
X137357269Y-101274151D01*
X137530197Y-101351144D01*
X137715352Y-101390500D01*
X137715354Y-101390500D01*
X137904648Y-101390500D01*
X138028083Y-101364262D01*
X138089803Y-101351144D01*
X138262730Y-101274151D01*
X138415871Y-101162888D01*
X138542533Y-101022216D01*
X138637179Y-100858284D01*
X138695674Y-100678256D01*
X138715460Y-100490000D01*
X138695674Y-100301744D01*
X138637179Y-100121716D01*
X138637179Y-100121715D01*
X138542533Y-99957783D01*
X138415870Y-99817110D01*
X138262730Y-99705848D01*
X138089802Y-99628855D01*
X137904648Y-99589500D01*
X137904646Y-99589500D01*
X137822022Y-99589500D01*
X137754983Y-99569815D01*
X137734341Y-99553181D01*
X132161819Y-93980659D01*
X132128334Y-93919336D01*
X132125500Y-93892978D01*
X132125500Y-92320000D01*
X136404540Y-92320000D01*
X136424326Y-92508257D01*
X136482820Y-92688284D01*
X136577466Y-92852216D01*
X136704129Y-92992889D01*
X136857269Y-93104151D01*
X137030197Y-93181144D01*
X137215352Y-93220500D01*
X137215354Y-93220500D01*
X137404648Y-93220500D01*
X137528083Y-93194262D01*
X137589803Y-93181144D01*
X137762730Y-93104151D01*
X137915871Y-92992888D01*
X137921598Y-92986527D01*
X137981084Y-92949879D01*
X138013747Y-92945500D01*
X139147256Y-92945500D01*
X139167762Y-92947764D01*
X139170665Y-92947672D01*
X139170667Y-92947673D01*
X139237872Y-92945561D01*
X139241768Y-92945500D01*
X139265448Y-92945500D01*
X139269350Y-92945500D01*
X139273313Y-92944999D01*
X139284962Y-92944080D01*
X139328627Y-92942709D01*
X139347859Y-92937120D01*
X139366918Y-92933174D01*
X139373196Y-92932381D01*
X139386792Y-92930664D01*
X139427407Y-92914582D01*
X139438444Y-92910803D01*
X139480390Y-92898618D01*
X139497629Y-92888422D01*
X139515102Y-92879862D01*
X139533732Y-92872486D01*
X139569064Y-92846814D01*
X139578830Y-92840400D01*
X139616418Y-92818171D01*
X139616417Y-92818171D01*
X139616420Y-92818170D01*
X139630585Y-92804004D01*
X139645373Y-92791373D01*
X139661587Y-92779594D01*
X139689438Y-92745926D01*
X139697279Y-92737309D01*
X140897771Y-91536817D01*
X140959094Y-91503333D01*
X140985452Y-91500499D01*
X141871859Y-91500499D01*
X141875008Y-91500499D01*
X141977797Y-91489999D01*
X142144334Y-91434814D01*
X142293656Y-91342712D01*
X142417712Y-91218656D01*
X142509814Y-91069334D01*
X142564999Y-90902797D01*
X142575500Y-90800009D01*
X142575499Y-89899992D01*
X142564999Y-89797203D01*
X142509814Y-89630666D01*
X142417712Y-89481344D01*
X142417711Y-89481342D01*
X142293657Y-89357288D01*
X142144334Y-89265186D01*
X141977797Y-89210000D01*
X141878141Y-89199819D01*
X141878122Y-89199818D01*
X141875009Y-89199500D01*
X141871860Y-89199500D01*
X140528140Y-89199500D01*
X140528120Y-89199500D01*
X140524992Y-89199501D01*
X140521860Y-89199820D01*
X140521858Y-89199821D01*
X140422203Y-89210000D01*
X140255665Y-89265186D01*
X140106342Y-89357288D01*
X139982288Y-89481342D01*
X139890186Y-89630665D01*
X139835000Y-89797202D01*
X139824819Y-89896858D01*
X139824817Y-89896878D01*
X139824500Y-89899991D01*
X139824500Y-89903138D01*
X139824500Y-89903139D01*
X139824500Y-90789545D01*
X139804815Y-90856584D01*
X139788181Y-90877226D01*
X139007228Y-91658181D01*
X138945905Y-91691666D01*
X138919547Y-91694500D01*
X138013747Y-91694500D01*
X137946708Y-91674815D01*
X137921599Y-91653473D01*
X137915871Y-91647112D01*
X137762730Y-91535849D01*
X137762729Y-91535848D01*
X137762727Y-91535847D01*
X137589802Y-91458855D01*
X137404648Y-91419500D01*
X137404646Y-91419500D01*
X137215354Y-91419500D01*
X137215352Y-91419500D01*
X137030197Y-91458855D01*
X136857269Y-91535848D01*
X136704129Y-91647110D01*
X136577466Y-91787783D01*
X136482820Y-91951715D01*
X136424326Y-92131742D01*
X136404540Y-92320000D01*
X132125500Y-92320000D01*
X132125500Y-88868894D01*
X132145185Y-88801855D01*
X132161814Y-88781218D01*
X133443031Y-87500000D01*
X139825001Y-87500000D01*
X139825001Y-87696829D01*
X139825321Y-87703111D01*
X139835493Y-87802695D01*
X139890642Y-87969122D01*
X139982683Y-88118345D01*
X140106654Y-88242316D01*
X140255877Y-88334357D01*
X140422303Y-88389506D01*
X140521890Y-88399680D01*
X140528168Y-88399999D01*
X140949999Y-88399999D01*
X140950000Y-88399998D01*
X140950000Y-87500000D01*
X141450000Y-87500000D01*
X141450000Y-88399999D01*
X141871829Y-88399999D01*
X141878111Y-88399678D01*
X141977695Y-88389506D01*
X142144122Y-88334357D01*
X142293345Y-88242316D01*
X142417316Y-88118345D01*
X142509357Y-87969122D01*
X142564506Y-87802696D01*
X142574680Y-87703109D01*
X142575000Y-87696831D01*
X142575000Y-87500000D01*
X141450000Y-87500000D01*
X140950000Y-87500000D01*
X139825001Y-87500000D01*
X133443031Y-87500000D01*
X133943031Y-87000000D01*
X139825000Y-87000000D01*
X140950000Y-87000000D01*
X140950000Y-86100000D01*
X141450000Y-86100000D01*
X141450000Y-87000000D01*
X142574999Y-87000000D01*
X142574999Y-86803170D01*
X142574678Y-86796888D01*
X142564506Y-86697304D01*
X142509357Y-86530877D01*
X142417316Y-86381654D01*
X142293345Y-86257683D01*
X142144122Y-86165642D01*
X141977696Y-86110493D01*
X141878109Y-86100319D01*
X141871832Y-86100000D01*
X141450000Y-86100000D01*
X140950000Y-86100000D01*
X140528171Y-86100000D01*
X140521888Y-86100321D01*
X140422304Y-86110493D01*
X140255877Y-86165642D01*
X140106654Y-86257683D01*
X139982683Y-86381654D01*
X139890642Y-86530877D01*
X139835493Y-86697303D01*
X139825319Y-86796890D01*
X139825000Y-86803168D01*
X139825000Y-87000000D01*
X133943031Y-87000000D01*
X134293722Y-86649309D01*
X134299142Y-86644207D01*
X134341793Y-86606423D01*
X134374162Y-86559526D01*
X134378555Y-86553556D01*
X134413705Y-86508692D01*
X134417426Y-86500422D01*
X134428446Y-86480882D01*
X134433599Y-86473419D01*
X134453799Y-86420152D01*
X134456647Y-86413274D01*
X134480033Y-86361316D01*
X134481665Y-86352404D01*
X134487694Y-86330781D01*
X134490908Y-86322307D01*
X134497771Y-86265779D01*
X134498898Y-86258371D01*
X134509165Y-86202352D01*
X134505726Y-86145498D01*
X134505500Y-86138011D01*
X134505500Y-84574263D01*
X134525185Y-84507224D01*
X134537350Y-84491290D01*
X134572533Y-84452216D01*
X134626891Y-84358066D01*
X134667179Y-84288284D01*
X134667178Y-84288284D01*
X134725674Y-84108256D01*
X134745460Y-83920000D01*
X134725674Y-83731744D01*
X134667179Y-83551716D01*
X134667179Y-83551715D01*
X134572533Y-83387783D01*
X134445870Y-83247110D01*
X134292730Y-83135848D01*
X134119802Y-83058855D01*
X133934648Y-83019500D01*
X133934646Y-83019500D01*
X133745354Y-83019500D01*
X133745352Y-83019500D01*
X133560197Y-83058855D01*
X133387269Y-83135848D01*
X133234129Y-83247110D01*
X133107466Y-83387783D01*
X133012820Y-83551715D01*
X132954326Y-83731742D01*
X132934540Y-83919999D01*
X132954326Y-84108257D01*
X133012820Y-84288284D01*
X133107466Y-84452216D01*
X133142650Y-84491292D01*
X133172879Y-84554283D01*
X133174499Y-84574263D01*
X133174499Y-85057704D01*
X133154814Y-85124743D01*
X133102010Y-85170498D01*
X133032852Y-85180442D01*
X132969296Y-85151417D01*
X132962818Y-85145385D01*
X132609798Y-84792365D01*
X132211819Y-84394385D01*
X132178334Y-84333062D01*
X132175500Y-84306704D01*
X132175500Y-65749999D01*
X139904540Y-65749999D01*
X139924326Y-65938257D01*
X139982820Y-66118284D01*
X140077464Y-66282213D01*
X140152650Y-66365714D01*
X140182880Y-66428706D01*
X140184500Y-66448687D01*
X140184500Y-75617256D01*
X140182235Y-75637766D01*
X140184439Y-75707872D01*
X140184500Y-75711767D01*
X140184500Y-75739350D01*
X140184988Y-75743219D01*
X140184989Y-75743225D01*
X140185004Y-75743343D01*
X140185918Y-75754967D01*
X140187290Y-75798626D01*
X140192879Y-75817860D01*
X140196825Y-75836916D01*
X140199335Y-75856792D01*
X140215414Y-75897404D01*
X140219197Y-75908451D01*
X140231382Y-75950391D01*
X140241580Y-75967635D01*
X140250136Y-75985100D01*
X140257514Y-76003732D01*
X140257515Y-76003733D01*
X140283180Y-76039059D01*
X140289593Y-76048822D01*
X140311826Y-76086416D01*
X140311829Y-76086419D01*
X140311830Y-76086420D01*
X140325995Y-76100585D01*
X140338627Y-76115375D01*
X140350406Y-76131587D01*
X140384058Y-76159426D01*
X140392699Y-76167289D01*
X142522214Y-78296805D01*
X142555699Y-78358128D01*
X142557852Y-78371512D01*
X142572101Y-78507091D01*
X142574326Y-78528257D01*
X142632820Y-78708284D01*
X142727466Y-78872216D01*
X142854129Y-79012889D01*
X143007269Y-79124151D01*
X143180197Y-79201144D01*
X143365352Y-79240500D01*
X143365354Y-79240500D01*
X143554648Y-79240500D01*
X143680632Y-79213721D01*
X143739803Y-79201144D01*
X143844373Y-79154586D01*
X143890064Y-79134243D01*
X143959314Y-79124958D01*
X144022591Y-79154586D01*
X144059804Y-79213721D01*
X144064500Y-79247522D01*
X144064500Y-105016137D01*
X144064274Y-105023624D01*
X144060835Y-105080478D01*
X144071099Y-105136487D01*
X144072226Y-105143891D01*
X144079092Y-105200436D01*
X144082308Y-105208916D01*
X144088333Y-105230528D01*
X144089966Y-105239440D01*
X144113338Y-105291370D01*
X144116204Y-105298290D01*
X144136400Y-105351545D01*
X144141551Y-105359007D01*
X144152573Y-105378548D01*
X144156295Y-105386818D01*
X144191420Y-105431653D01*
X144195849Y-105437670D01*
X144228207Y-105484549D01*
X144270838Y-105522317D01*
X144276291Y-105527451D01*
X148128287Y-109379446D01*
X148161772Y-109440769D01*
X148163927Y-109454165D01*
X148164540Y-109459998D01*
X148164540Y-109460000D01*
X148173877Y-109548840D01*
X148184326Y-109648257D01*
X148242820Y-109828284D01*
X148337466Y-109992216D01*
X148464129Y-110132889D01*
X148617269Y-110244151D01*
X148790197Y-110321144D01*
X148975352Y-110360500D01*
X148975354Y-110360500D01*
X149164648Y-110360500D01*
X149288083Y-110334262D01*
X149349803Y-110321144D01*
X149522730Y-110244151D01*
X149675871Y-110132888D01*
X149802533Y-109992216D01*
X149897179Y-109828284D01*
X149955674Y-109648256D01*
X149975460Y-109460000D01*
X149955674Y-109271744D01*
X149897179Y-109091716D01*
X149897179Y-109091715D01*
X149802533Y-108927783D01*
X149675870Y-108787110D01*
X149522730Y-108675848D01*
X149349803Y-108598855D01*
X149233607Y-108574157D01*
X149172125Y-108540965D01*
X149171707Y-108540548D01*
X145431819Y-104800659D01*
X145398334Y-104739336D01*
X145395500Y-104712978D01*
X145395500Y-70824263D01*
X145415185Y-70757224D01*
X145427350Y-70741290D01*
X145462533Y-70702216D01*
X145557179Y-70538284D01*
X145615674Y-70358256D01*
X145635460Y-70170000D01*
X145615674Y-69981744D01*
X145557179Y-69801716D01*
X145557179Y-69801715D01*
X145462533Y-69637783D01*
X145335870Y-69497110D01*
X145182730Y-69385848D01*
X145009802Y-69308855D01*
X144824648Y-69269500D01*
X144824646Y-69269500D01*
X144635354Y-69269500D01*
X144635352Y-69269500D01*
X144450197Y-69308855D01*
X144277269Y-69385848D01*
X144124129Y-69497110D01*
X143997466Y-69637783D01*
X143902820Y-69801715D01*
X143844326Y-69981742D01*
X143824540Y-70169999D01*
X143844326Y-70358257D01*
X143902820Y-70538284D01*
X143997464Y-70702213D01*
X144032650Y-70741290D01*
X144062880Y-70804282D01*
X144064500Y-70824263D01*
X144064500Y-77432477D01*
X144044815Y-77499516D01*
X143992011Y-77545271D01*
X143922853Y-77555215D01*
X143890065Y-77545757D01*
X143739800Y-77478854D01*
X143554648Y-77439500D01*
X143554646Y-77439500D01*
X143485452Y-77439500D01*
X143418413Y-77419815D01*
X143397771Y-77403181D01*
X141471819Y-75477228D01*
X141438334Y-75415905D01*
X141435500Y-75389547D01*
X141435500Y-66448687D01*
X141455185Y-66381648D01*
X141467350Y-66365714D01*
X141542533Y-66282216D01*
X141637179Y-66118284D01*
X141695674Y-65938256D01*
X141715460Y-65750000D01*
X141695674Y-65561744D01*
X141637179Y-65381716D01*
X141637179Y-65381715D01*
X141542533Y-65217783D01*
X141415870Y-65077110D01*
X141262730Y-64965848D01*
X141089802Y-64888855D01*
X140904648Y-64849500D01*
X140904646Y-64849500D01*
X140715354Y-64849500D01*
X140715352Y-64849500D01*
X140530197Y-64888855D01*
X140357269Y-64965848D01*
X140204129Y-65077110D01*
X140077466Y-65217783D01*
X139982820Y-65381715D01*
X139924326Y-65561742D01*
X139904540Y-65749999D01*
X132175500Y-65749999D01*
X132175500Y-51956450D01*
X132195185Y-51889411D01*
X132247989Y-51843656D01*
X132317147Y-51833712D01*
X132367322Y-51852642D01*
X132461722Y-51914317D01*
X132509660Y-51945636D01*
X132729038Y-52041864D01*
X132961263Y-52100672D01*
X133140213Y-52115500D01*
X133142783Y-52115500D01*
X133257217Y-52115500D01*
X133259787Y-52115500D01*
X133438737Y-52100672D01*
X133670962Y-52041864D01*
X133890340Y-51945636D01*
X134090887Y-51814612D01*
X134267134Y-51652366D01*
X134414271Y-51463323D01*
X134528287Y-51252641D01*
X134606070Y-51026065D01*
X134645500Y-50789778D01*
X134645500Y-50550222D01*
X134606070Y-50313935D01*
X134528287Y-50087359D01*
X134414271Y-49876677D01*
X134267134Y-49687634D01*
X134149939Y-49579749D01*
X134090884Y-49525385D01*
X133890341Y-49394364D01*
X133762810Y-49338424D01*
X133670962Y-49298136D01*
X133670960Y-49298135D01*
X133670959Y-49298135D01*
X133535555Y-49263845D01*
X133475399Y-49228306D01*
X133444008Y-49165885D01*
X133451346Y-49096402D01*
X133478312Y-49055962D01*
X134402456Y-48131819D01*
X134463780Y-48098334D01*
X134490138Y-48095500D01*
X137400501Y-48095500D01*
X137467540Y-48115185D01*
X137513295Y-48167989D01*
X137524501Y-48219499D01*
X137524501Y-50987872D01*
X137524853Y-50991152D01*
X137524854Y-50991159D01*
X137528607Y-51026068D01*
X137530909Y-51047483D01*
X137581204Y-51182331D01*
X137667454Y-51297546D01*
X137782669Y-51383796D01*
X137917517Y-51434091D01*
X137977127Y-51440500D01*
X144151703Y-51440499D01*
X144218742Y-51460184D01*
X144239384Y-51476818D01*
X149592618Y-56830052D01*
X149626103Y-56891375D01*
X149621119Y-56961067D01*
X149579247Y-57017000D01*
X149513783Y-57041417D01*
X149490741Y-57039769D01*
X149490707Y-57040246D01*
X149481863Y-57039613D01*
X149481861Y-57039613D01*
X149307732Y-57027159D01*
X149272763Y-57024658D01*
X149272761Y-57024657D01*
X149270553Y-57024500D01*
X149129447Y-57024500D01*
X149127239Y-57024657D01*
X149127236Y-57024658D01*
X148918138Y-57039613D01*
X148642020Y-57099678D01*
X148545179Y-57135798D01*
X148377251Y-57198432D01*
X148315520Y-57232139D01*
X148129234Y-57333859D01*
X147903017Y-57503203D01*
X147703203Y-57703017D01*
X147533859Y-57929234D01*
X147432139Y-58115520D01*
X147398432Y-58177251D01*
X147368009Y-58258819D01*
X147299678Y-58442020D01*
X147239613Y-58718138D01*
X147219453Y-58999999D01*
X147239613Y-59281861D01*
X147299678Y-59557979D01*
X147299680Y-59557984D01*
X147398432Y-59822749D01*
X147482999Y-59977621D01*
X147533859Y-60070765D01*
X147703203Y-60296982D01*
X147903017Y-60496796D01*
X148129234Y-60666140D01*
X148129236Y-60666141D01*
X148377251Y-60801568D01*
X148642016Y-60900320D01*
X148642019Y-60900320D01*
X148642020Y-60900321D01*
X148681320Y-60908870D01*
X148918139Y-60960387D01*
X149129447Y-60975500D01*
X149131662Y-60975500D01*
X149268338Y-60975500D01*
X149270553Y-60975500D01*
X149481861Y-60960387D01*
X149757984Y-60900320D01*
X149916784Y-60841090D01*
X149986470Y-60836107D01*
X150047794Y-60869591D01*
X150081279Y-60930914D01*
X150083433Y-60970232D01*
X150064540Y-61150000D01*
X150084326Y-61338256D01*
X150120260Y-61448850D01*
X150138431Y-61504772D01*
X150144500Y-61543090D01*
X150144500Y-79791025D01*
X150144091Y-79801088D01*
X150139937Y-79852106D01*
X150150318Y-79928311D01*
X150150726Y-79931639D01*
X150159087Y-80008509D01*
X150164045Y-80029662D01*
X150190699Y-80102214D01*
X150191814Y-80105380D01*
X150216499Y-80178643D01*
X150225891Y-80198242D01*
X150267518Y-80263366D01*
X150269288Y-80266219D01*
X150309147Y-80332465D01*
X150322528Y-80349581D01*
X150322799Y-80349852D01*
X150322800Y-80349853D01*
X150377190Y-80404243D01*
X150379496Y-80406613D01*
X150432692Y-80462771D01*
X150450119Y-80477172D01*
X156513181Y-86540234D01*
X156546666Y-86601557D01*
X156549500Y-86627915D01*
X156549500Y-96338015D01*
X156529815Y-96405054D01*
X156477011Y-96450809D01*
X156407853Y-96460753D01*
X156393406Y-96457790D01*
X156250000Y-96419364D01*
X156250000Y-97314498D01*
X156142315Y-97265320D01*
X156035763Y-97250000D01*
X155964237Y-97250000D01*
X155857685Y-97265320D01*
X155750000Y-97314498D01*
X155750000Y-96419364D01*
X155749999Y-96419364D01*
X155536507Y-96476569D01*
X155322421Y-96576400D01*
X155128921Y-96711890D01*
X154961890Y-96878921D01*
X154826400Y-97072421D01*
X154726569Y-97286507D01*
X154669364Y-97499999D01*
X154669364Y-97500000D01*
X155566314Y-97500000D01*
X155540507Y-97540156D01*
X155500000Y-97678111D01*
X155500000Y-97821889D01*
X155540507Y-97959844D01*
X155566314Y-98000000D01*
X154669364Y-98000000D01*
X154726569Y-98213492D01*
X154826399Y-98427576D01*
X154961893Y-98621081D01*
X155128918Y-98788106D01*
X155314595Y-98918119D01*
X155358219Y-98972696D01*
X155365412Y-99042195D01*
X155333890Y-99104549D01*
X155314595Y-99121269D01*
X155128595Y-99251508D01*
X154961505Y-99418598D01*
X154825965Y-99612170D01*
X154726097Y-99826336D01*
X154664936Y-100054592D01*
X154644340Y-100290000D01*
X154664936Y-100525407D01*
X154698203Y-100649561D01*
X154726097Y-100753663D01*
X154825965Y-100967830D01*
X154961505Y-101161401D01*
X155128599Y-101328495D01*
X155314160Y-101458426D01*
X155357783Y-101513002D01*
X155364976Y-101582501D01*
X155333454Y-101644855D01*
X155314159Y-101661575D01*
X155128595Y-101791508D01*
X154961505Y-101958598D01*
X154825965Y-102152170D01*
X154726097Y-102366336D01*
X154664936Y-102594592D01*
X154644340Y-102830000D01*
X154664936Y-103065407D01*
X154709709Y-103232502D01*
X154726097Y-103293663D01*
X154825965Y-103507830D01*
X154961505Y-103701401D01*
X155128599Y-103868495D01*
X155314160Y-103998426D01*
X155357783Y-104053002D01*
X155364976Y-104122501D01*
X155333454Y-104184855D01*
X155314159Y-104201575D01*
X155128595Y-104331508D01*
X154961505Y-104498598D01*
X154825965Y-104692170D01*
X154726097Y-104906336D01*
X154664936Y-105134592D01*
X154644340Y-105370000D01*
X154664936Y-105605407D01*
X154709709Y-105772502D01*
X154726097Y-105833663D01*
X154825965Y-106047830D01*
X154961505Y-106241401D01*
X155128599Y-106408495D01*
X155314160Y-106538426D01*
X155357783Y-106593002D01*
X155364976Y-106662501D01*
X155333454Y-106724855D01*
X155314159Y-106741575D01*
X155128595Y-106871508D01*
X154961505Y-107038598D01*
X154825965Y-107232170D01*
X154726097Y-107446336D01*
X154664936Y-107674592D01*
X154644340Y-107909999D01*
X154664936Y-108145407D01*
X154709709Y-108312501D01*
X154726097Y-108373663D01*
X154825965Y-108587830D01*
X154961505Y-108781401D01*
X154961508Y-108781404D01*
X155083430Y-108903326D01*
X155116915Y-108964649D01*
X155111931Y-109034341D01*
X155070059Y-109090274D01*
X155039083Y-109107189D01*
X154907669Y-109156204D01*
X154792454Y-109242454D01*
X154706204Y-109357668D01*
X154655910Y-109492515D01*
X154655909Y-109492517D01*
X154649500Y-109552127D01*
X154649500Y-109555448D01*
X154649500Y-109555449D01*
X154649500Y-111344560D01*
X154649500Y-111344578D01*
X154649501Y-111347872D01*
X154649853Y-111351150D01*
X154649854Y-111351161D01*
X154657253Y-111419987D01*
X154644846Y-111488746D01*
X154621644Y-111520921D01*
X145168702Y-120973862D01*
X145131458Y-120999460D01*
X145027268Y-121045850D01*
X144874129Y-121157111D01*
X144747466Y-121297783D01*
X144652820Y-121461715D01*
X144594325Y-121641747D01*
X144593111Y-121653298D01*
X144566526Y-121717912D01*
X144509227Y-121757896D01*
X144456536Y-121763624D01*
X144426114Y-121760353D01*
X144419518Y-121760000D01*
X141450000Y-121760000D01*
X141450000Y-125680000D01*
X144875000Y-125680000D01*
X144875000Y-122737299D01*
X144894685Y-122670260D01*
X144947489Y-122624505D01*
X145016647Y-122614561D01*
X145049436Y-122624020D01*
X145200197Y-122691144D01*
X145385352Y-122730500D01*
X145385354Y-122730500D01*
X145574648Y-122730500D01*
X145698083Y-122704262D01*
X145759803Y-122691144D01*
X145932730Y-122614151D01*
X146085871Y-122502888D01*
X146212533Y-122362216D01*
X146307179Y-122198284D01*
X146311470Y-122185076D01*
X146341719Y-122135712D01*
X156556429Y-111921002D01*
X156563809Y-111914198D01*
X156602843Y-111881044D01*
X156626854Y-111849457D01*
X156683096Y-111808000D01*
X156725570Y-111800499D01*
X156894561Y-111800499D01*
X156897872Y-111800499D01*
X156957483Y-111794091D01*
X157092331Y-111743796D01*
X157207546Y-111657546D01*
X157293796Y-111542331D01*
X157344091Y-111407483D01*
X157350500Y-111347873D01*
X157350499Y-109552128D01*
X157344091Y-109492517D01*
X157293796Y-109357669D01*
X157207546Y-109242454D01*
X157092331Y-109156204D01*
X157030898Y-109133291D01*
X156960916Y-109107189D01*
X156904983Y-109065317D01*
X156880566Y-108999853D01*
X156895418Y-108931580D01*
X156916563Y-108903332D01*
X157038495Y-108781401D01*
X157174035Y-108587830D01*
X157273903Y-108373663D01*
X157335063Y-108145408D01*
X157355659Y-107910000D01*
X157335063Y-107674592D01*
X157273903Y-107446337D01*
X157174035Y-107232171D01*
X157038495Y-107038599D01*
X156871401Y-106871505D01*
X156685839Y-106741573D01*
X156642216Y-106686998D01*
X156635022Y-106617500D01*
X156666545Y-106555145D01*
X156685837Y-106538428D01*
X156871401Y-106408495D01*
X157038495Y-106241401D01*
X157174035Y-106047830D01*
X157273903Y-105833663D01*
X157335063Y-105605408D01*
X157355659Y-105370000D01*
X157345554Y-105254518D01*
X157359321Y-105186018D01*
X157381399Y-105156032D01*
X157787819Y-104749613D01*
X157849142Y-104716128D01*
X157918834Y-104721112D01*
X157974767Y-104762984D01*
X157999184Y-104828448D01*
X157999500Y-104837294D01*
X157999500Y-134995947D01*
X157999234Y-135004058D01*
X157994017Y-135083648D01*
X157981291Y-135261574D01*
X157979225Y-135276916D01*
X157956851Y-135389402D01*
X157926212Y-135530244D01*
X157922473Y-135543714D01*
X157883793Y-135657660D01*
X157882556Y-135661135D01*
X157834938Y-135788802D01*
X157829969Y-135800311D01*
X157775564Y-135910635D01*
X157773183Y-135915219D01*
X157709154Y-136032478D01*
X157703424Y-136041942D01*
X157634383Y-136145269D01*
X157630548Y-136150688D01*
X157551181Y-136256711D01*
X157545142Y-136264160D01*
X157462867Y-136357976D01*
X157457320Y-136363898D01*
X157363898Y-136457320D01*
X157357976Y-136462867D01*
X157264160Y-136545142D01*
X157256711Y-136551181D01*
X157150688Y-136630548D01*
X157145269Y-136634383D01*
X157041942Y-136703424D01*
X157032478Y-136709154D01*
X156915219Y-136773183D01*
X156910635Y-136775564D01*
X156800311Y-136829969D01*
X156788802Y-136834938D01*
X156661135Y-136882556D01*
X156657660Y-136883793D01*
X156543722Y-136922470D01*
X156530221Y-136926217D01*
X156389419Y-136956847D01*
X156342048Y-136966270D01*
X156276896Y-136979229D01*
X156261584Y-136981290D01*
X156083649Y-136994017D01*
X156060221Y-136995552D01*
X156004030Y-136999235D01*
X155995948Y-136999500D01*
X148975846Y-136999500D01*
X148908807Y-136979815D01*
X148863052Y-136927011D01*
X148853108Y-136857853D01*
X148882133Y-136794297D01*
X148897181Y-136779647D01*
X149036639Y-136665194D01*
X149036639Y-136665193D01*
X148506820Y-136135372D01*
X148579484Y-136055666D01*
X148620000Y-135951080D01*
X148620000Y-135595000D01*
X148673553Y-135595000D01*
X149313980Y-136235427D01*
X149354807Y-136100837D01*
X149369701Y-135949622D01*
X149370000Y-135943538D01*
X149370000Y-135246461D01*
X149369701Y-135240377D01*
X149354808Y-135089165D01*
X149327760Y-135000000D01*
X154644340Y-135000000D01*
X154664936Y-135235407D01*
X154706196Y-135389391D01*
X154726097Y-135463663D01*
X154825965Y-135677829D01*
X154961505Y-135871401D01*
X155128599Y-136038495D01*
X155322171Y-136174035D01*
X155536337Y-136273903D01*
X155764592Y-136335063D01*
X155941034Y-136350500D01*
X155943742Y-136350500D01*
X156056258Y-136350500D01*
X156058966Y-136350500D01*
X156235408Y-136335063D01*
X156463663Y-136273903D01*
X156677829Y-136174035D01*
X156871401Y-136038495D01*
X157038495Y-135871401D01*
X157174035Y-135677830D01*
X157273903Y-135463663D01*
X157335063Y-135235408D01*
X157355659Y-135000000D01*
X157335063Y-134764592D01*
X157273903Y-134536337D01*
X157174035Y-134322171D01*
X157038495Y-134128599D01*
X156871401Y-133961505D01*
X156677829Y-133825965D01*
X156463663Y-133726097D01*
X156463663Y-133726096D01*
X156235407Y-133664936D01*
X156061667Y-133649736D01*
X156061659Y-133649735D01*
X156058966Y-133649500D01*
X155941034Y-133649500D01*
X155938341Y-133649735D01*
X155938332Y-133649736D01*
X155764592Y-133664936D01*
X155536336Y-133726097D01*
X155322170Y-133825965D01*
X155128598Y-133961505D01*
X154961508Y-134128595D01*
X154961505Y-134128598D01*
X154961505Y-134128599D01*
X154827322Y-134320233D01*
X154825964Y-134322172D01*
X154726097Y-134536337D01*
X154664936Y-134764592D01*
X154644340Y-135000000D01*
X149327760Y-135000000D01*
X149313979Y-134954571D01*
X148673553Y-135594999D01*
X148673553Y-135595000D01*
X148620000Y-135595000D01*
X148620000Y-135267198D01*
X148604588Y-135184750D01*
X148545543Y-135089390D01*
X148503674Y-135057772D01*
X149036640Y-134524805D01*
X149036639Y-134524804D01*
X148906171Y-134417731D01*
X148723764Y-134320233D01*
X148525834Y-134260191D01*
X148320000Y-134239919D01*
X148114165Y-134260191D01*
X147916235Y-134320233D01*
X147733829Y-134417731D01*
X147603358Y-134524804D01*
X147603358Y-134524805D01*
X148133180Y-135054626D01*
X148060516Y-135134334D01*
X148020000Y-135238920D01*
X148020000Y-135922802D01*
X148035412Y-136005250D01*
X148094457Y-136100610D01*
X148136325Y-136132227D01*
X147603358Y-136665193D01*
X147603359Y-136665194D01*
X147742819Y-136779647D01*
X147782153Y-136837393D01*
X147784024Y-136907238D01*
X147747836Y-136967006D01*
X147685080Y-136997722D01*
X147664154Y-136999500D01*
X140335846Y-136999500D01*
X140268807Y-136979815D01*
X140223052Y-136927011D01*
X140213108Y-136857853D01*
X140242133Y-136794297D01*
X140257181Y-136779647D01*
X140396639Y-136665194D01*
X140396639Y-136665193D01*
X139866820Y-136135372D01*
X139939484Y-136055666D01*
X139980000Y-135951080D01*
X139980000Y-135595000D01*
X140033553Y-135595000D01*
X140673980Y-136235427D01*
X140714807Y-136100837D01*
X140729701Y-135949622D01*
X140730000Y-135943538D01*
X147270000Y-135943538D01*
X147270298Y-135949622D01*
X147285191Y-136100834D01*
X147326019Y-136235426D01*
X147966447Y-135595000D01*
X147326019Y-134954572D01*
X147285191Y-135089164D01*
X147270298Y-135240377D01*
X147270000Y-135246461D01*
X147270000Y-135943538D01*
X140730000Y-135943538D01*
X140730000Y-135246461D01*
X140729701Y-135240377D01*
X140714808Y-135089165D01*
X140673979Y-134954571D01*
X140033553Y-135594999D01*
X140033553Y-135595000D01*
X139980000Y-135595000D01*
X139980000Y-135267198D01*
X139964588Y-135184750D01*
X139905543Y-135089390D01*
X139863674Y-135057772D01*
X140396640Y-134524805D01*
X140396639Y-134524804D01*
X140266171Y-134417731D01*
X140083764Y-134320233D01*
X139885834Y-134260191D01*
X139680000Y-134239919D01*
X139474165Y-134260191D01*
X139276235Y-134320233D01*
X139093829Y-134417731D01*
X138963358Y-134524804D01*
X138963358Y-134524805D01*
X139493180Y-135054626D01*
X139420516Y-135134334D01*
X139380000Y-135238920D01*
X139380000Y-135922802D01*
X139395412Y-136005250D01*
X139454457Y-136100610D01*
X139496325Y-136132227D01*
X138963358Y-136665193D01*
X138963359Y-136665194D01*
X139102819Y-136779647D01*
X139142153Y-136837393D01*
X139144024Y-136907238D01*
X139107836Y-136967006D01*
X139045080Y-136997722D01*
X139024154Y-136999500D01*
X132004053Y-136999500D01*
X131995943Y-136999234D01*
X131916352Y-136994017D01*
X131738424Y-136981291D01*
X131723082Y-136979225D01*
X131661652Y-136967006D01*
X131610600Y-136956851D01*
X131469746Y-136926210D01*
X131456284Y-136922473D01*
X131456275Y-136922470D01*
X131385362Y-136898398D01*
X131342338Y-136883793D01*
X131338863Y-136882556D01*
X131211196Y-136834938D01*
X131199687Y-136829969D01*
X131134947Y-136798043D01*
X131089348Y-136775556D01*
X131084779Y-136773183D01*
X130967520Y-136709154D01*
X130958056Y-136703424D01*
X130854729Y-136634383D01*
X130849310Y-136630548D01*
X130793396Y-136588691D01*
X130743278Y-136551173D01*
X130735848Y-136545150D01*
X130642022Y-136462867D01*
X130636100Y-136457320D01*
X130542678Y-136363898D01*
X130537131Y-136357976D01*
X130505450Y-136321851D01*
X130454844Y-136264145D01*
X130448830Y-136256727D01*
X130369450Y-136150688D01*
X130365615Y-136145269D01*
X130296574Y-136041942D01*
X130290844Y-136032478D01*
X130245601Y-135949622D01*
X130226798Y-135915187D01*
X130224461Y-135910687D01*
X130170024Y-135800300D01*
X130165060Y-135788802D01*
X130117420Y-135661074D01*
X130116228Y-135657725D01*
X130077522Y-135543703D01*
X130073786Y-135530240D01*
X130043157Y-135389441D01*
X130020767Y-135276879D01*
X130018709Y-135261593D01*
X130005988Y-135083743D01*
X130000765Y-135004041D01*
X130000633Y-135000000D01*
X130644340Y-135000000D01*
X130664936Y-135235407D01*
X130706196Y-135389391D01*
X130726097Y-135463663D01*
X130825965Y-135677829D01*
X130961505Y-135871401D01*
X131128599Y-136038495D01*
X131322171Y-136174035D01*
X131536337Y-136273903D01*
X131764592Y-136335063D01*
X131941034Y-136350500D01*
X131943742Y-136350500D01*
X132056258Y-136350500D01*
X132058966Y-136350500D01*
X132235408Y-136335063D01*
X132463663Y-136273903D01*
X132677829Y-136174035D01*
X132871401Y-136038495D01*
X132966358Y-135943538D01*
X138630000Y-135943538D01*
X138630298Y-135949622D01*
X138645191Y-136100834D01*
X138686019Y-136235426D01*
X139326447Y-135595000D01*
X138686019Y-134954572D01*
X138645191Y-135089164D01*
X138630298Y-135240377D01*
X138630000Y-135246461D01*
X138630000Y-135943538D01*
X132966358Y-135943538D01*
X133038495Y-135871401D01*
X133174035Y-135677830D01*
X133273903Y-135463663D01*
X133335063Y-135235408D01*
X133355659Y-135000000D01*
X133335063Y-134764592D01*
X133273903Y-134536337D01*
X133174035Y-134322171D01*
X133038495Y-134128599D01*
X132871401Y-133961505D01*
X132677829Y-133825965D01*
X132463663Y-133726097D01*
X132463663Y-133726096D01*
X132235407Y-133664936D01*
X132061667Y-133649736D01*
X132061659Y-133649735D01*
X132058966Y-133649500D01*
X131941034Y-133649500D01*
X131938341Y-133649735D01*
X131938332Y-133649736D01*
X131764592Y-133664936D01*
X131536336Y-133726097D01*
X131322170Y-133825965D01*
X131128598Y-133961505D01*
X130961508Y-134128595D01*
X130961505Y-134128598D01*
X130961505Y-134128599D01*
X130827322Y-134320233D01*
X130825964Y-134322172D01*
X130726097Y-134536337D01*
X130664936Y-134764592D01*
X130644340Y-135000000D01*
X130000633Y-135000000D01*
X130000500Y-134995936D01*
X130000500Y-132865193D01*
X138963358Y-132865193D01*
X138963359Y-132865194D01*
X139093828Y-132972268D01*
X139276235Y-133069766D01*
X139474165Y-133129808D01*
X139680000Y-133150080D01*
X139885834Y-133129808D01*
X140083764Y-133069766D01*
X140266170Y-132972268D01*
X140396639Y-132865194D01*
X140396639Y-132865193D01*
X147603358Y-132865193D01*
X147603359Y-132865194D01*
X147733828Y-132972268D01*
X147916235Y-133069766D01*
X148114165Y-133129808D01*
X148320000Y-133150080D01*
X148525834Y-133129808D01*
X148723764Y-133069766D01*
X148906170Y-132972268D01*
X149036639Y-132865194D01*
X149036639Y-132865193D01*
X148506820Y-132335372D01*
X148579484Y-132255666D01*
X148620000Y-132151080D01*
X148620000Y-131795000D01*
X148673553Y-131795000D01*
X149313980Y-132435427D01*
X149354807Y-132300837D01*
X149369701Y-132149622D01*
X149370000Y-132143538D01*
X149370000Y-131446461D01*
X149369701Y-131440377D01*
X149354808Y-131289165D01*
X149313979Y-131154571D01*
X148673553Y-131794999D01*
X148673553Y-131795000D01*
X148620000Y-131795000D01*
X148620000Y-131467198D01*
X148604588Y-131384750D01*
X148545543Y-131289390D01*
X148503674Y-131257772D01*
X149036640Y-130724805D01*
X149036639Y-130724804D01*
X148906171Y-130617731D01*
X148723764Y-130520233D01*
X148525834Y-130460191D01*
X148320000Y-130439919D01*
X148114165Y-130460191D01*
X147916235Y-130520233D01*
X147733829Y-130617731D01*
X147603358Y-130724804D01*
X147603358Y-130724805D01*
X148133180Y-131254626D01*
X148060516Y-131334334D01*
X148020000Y-131438920D01*
X148020000Y-132122802D01*
X148035412Y-132205250D01*
X148094457Y-132300610D01*
X148136325Y-132332227D01*
X147603358Y-132865193D01*
X140396639Y-132865193D01*
X139866820Y-132335372D01*
X139939484Y-132255666D01*
X139980000Y-132151080D01*
X139980000Y-131794999D01*
X140033553Y-131794999D01*
X140673980Y-132435427D01*
X140714807Y-132300837D01*
X140729701Y-132149622D01*
X140730000Y-132143538D01*
X147270000Y-132143538D01*
X147270298Y-132149622D01*
X147285191Y-132300834D01*
X147326019Y-132435426D01*
X147966447Y-131795000D01*
X147326019Y-131154572D01*
X147285191Y-131289164D01*
X147270298Y-131440377D01*
X147270000Y-131446461D01*
X147270000Y-132143538D01*
X140730000Y-132143538D01*
X140730000Y-131446461D01*
X140729701Y-131440377D01*
X140714808Y-131289165D01*
X140673979Y-131154571D01*
X140033553Y-131794999D01*
X139980000Y-131794999D01*
X139980000Y-131467198D01*
X139964588Y-131384750D01*
X139905543Y-131289390D01*
X139863674Y-131257772D01*
X140396640Y-130724805D01*
X140396639Y-130724804D01*
X140266171Y-130617731D01*
X140083764Y-130520233D01*
X139885834Y-130460191D01*
X139680000Y-130439919D01*
X139474165Y-130460191D01*
X139276235Y-130520233D01*
X139093829Y-130617731D01*
X138963358Y-130724804D01*
X138963358Y-130724805D01*
X139493180Y-131254626D01*
X139420516Y-131334334D01*
X139380000Y-131438920D01*
X139380000Y-132122802D01*
X139395412Y-132205250D01*
X139454457Y-132300610D01*
X139496325Y-132332227D01*
X138963358Y-132865193D01*
X130000500Y-132865193D01*
X130000500Y-132143538D01*
X138630000Y-132143538D01*
X138630298Y-132149622D01*
X138645191Y-132300834D01*
X138686019Y-132435426D01*
X139326447Y-131795000D01*
X139326447Y-131794999D01*
X138686019Y-131154572D01*
X138645191Y-131289164D01*
X138630298Y-131440377D01*
X138630000Y-131446461D01*
X138630000Y-132143538D01*
X130000500Y-132143538D01*
X130000500Y-126180000D01*
X137525000Y-126180000D01*
X137525000Y-129644518D01*
X137525354Y-129651132D01*
X137531400Y-129707371D01*
X137581647Y-129842089D01*
X137667811Y-129957188D01*
X137782910Y-130043352D01*
X137917628Y-130093599D01*
X137973867Y-130099645D01*
X137980482Y-130100000D01*
X140950000Y-130100000D01*
X140950000Y-126180000D01*
X141450000Y-126180000D01*
X141450000Y-130100000D01*
X144419518Y-130100000D01*
X144426132Y-130099645D01*
X144482371Y-130093599D01*
X144617089Y-130043352D01*
X144732188Y-129957188D01*
X144818352Y-129842089D01*
X144868599Y-129707371D01*
X144874645Y-129651132D01*
X144875000Y-129644518D01*
X144875000Y-126180000D01*
X141450000Y-126180000D01*
X140950000Y-126180000D01*
X137525000Y-126180000D01*
X130000500Y-126180000D01*
X130000500Y-125680000D01*
X137525000Y-125680000D01*
X140950000Y-125680000D01*
X140950000Y-121760000D01*
X137980482Y-121760000D01*
X137973867Y-121760354D01*
X137917628Y-121766400D01*
X137782910Y-121816647D01*
X137667811Y-121902811D01*
X137581647Y-122017910D01*
X137531400Y-122152628D01*
X137525354Y-122208867D01*
X137525000Y-122215481D01*
X137525000Y-125680000D01*
X130000500Y-125680000D01*
X130000500Y-114199999D01*
X131219453Y-114199999D01*
X131239613Y-114481861D01*
X131299678Y-114757979D01*
X131299680Y-114757984D01*
X131398432Y-115022749D01*
X131482999Y-115177621D01*
X131533859Y-115270765D01*
X131703203Y-115496982D01*
X131903017Y-115696796D01*
X132129234Y-115866140D01*
X132129236Y-115866141D01*
X132377251Y-116001568D01*
X132642016Y-116100320D01*
X132642019Y-116100320D01*
X132642020Y-116100321D01*
X132681320Y-116108870D01*
X132918139Y-116160387D01*
X133129447Y-116175500D01*
X133131662Y-116175500D01*
X133268338Y-116175500D01*
X133270553Y-116175500D01*
X133481861Y-116160387D01*
X133757984Y-116100320D01*
X134022749Y-116001568D01*
X134270764Y-115866141D01*
X134496982Y-115696797D01*
X134696797Y-115496982D01*
X134866141Y-115270764D01*
X135001568Y-115022749D01*
X135100320Y-114757984D01*
X135160387Y-114481861D01*
X135180546Y-114200000D01*
X135160387Y-113918139D01*
X135100320Y-113642016D01*
X135001568Y-113377251D01*
X134866141Y-113129236D01*
X134696797Y-112903018D01*
X134496982Y-112703203D01*
X134270765Y-112533859D01*
X134177621Y-112482999D01*
X134022749Y-112398432D01*
X133757984Y-112299680D01*
X133757979Y-112299678D01*
X133481861Y-112239613D01*
X133272763Y-112224658D01*
X133272761Y-112224657D01*
X133270553Y-112224500D01*
X133129447Y-112224500D01*
X133127239Y-112224657D01*
X133127236Y-112224658D01*
X132918138Y-112239613D01*
X132642020Y-112299678D01*
X132545179Y-112335798D01*
X132377251Y-112398432D01*
X132315520Y-112432139D01*
X132129234Y-112533859D01*
X131903017Y-112703203D01*
X131703203Y-112903017D01*
X131533859Y-113129234D01*
X131432139Y-113315520D01*
X131398432Y-113377251D01*
X131335798Y-113545179D01*
X131299678Y-113642020D01*
X131239613Y-113918138D01*
X131219453Y-114199999D01*
X130000500Y-114199999D01*
X130000500Y-44004065D01*
X130000633Y-44000000D01*
X130644340Y-44000000D01*
X130664936Y-44235407D01*
X130726097Y-44463662D01*
X130726097Y-44463663D01*
X130825965Y-44677829D01*
X130961505Y-44871401D01*
X131128599Y-45038495D01*
X131322171Y-45174035D01*
X131536337Y-45273903D01*
X131764592Y-45335063D01*
X131941034Y-45350500D01*
X131943742Y-45350500D01*
X132056258Y-45350500D01*
X132058966Y-45350500D01*
X132235408Y-45335063D01*
X132463663Y-45273903D01*
X132677829Y-45174035D01*
X132871401Y-45038495D01*
X133038495Y-44871401D01*
X133174035Y-44677830D01*
X133273903Y-44463663D01*
X133335063Y-44235408D01*
X133355659Y-44000000D01*
X133335063Y-43764592D01*
X133273903Y-43536337D01*
X133174035Y-43322171D01*
X133038495Y-43128599D01*
X132871401Y-42961505D01*
X132677829Y-42825965D01*
X132463663Y-42726097D01*
X132235407Y-42664936D01*
X132061667Y-42649736D01*
X132061659Y-42649735D01*
X132058966Y-42649500D01*
X131941034Y-42649500D01*
X131938341Y-42649735D01*
X131938332Y-42649736D01*
X131764592Y-42664936D01*
X131536336Y-42726097D01*
X131322170Y-42825965D01*
X131128598Y-42961505D01*
X130961508Y-43128595D01*
X130961505Y-43128598D01*
X130961505Y-43128599D01*
X130887126Y-43234824D01*
X130825964Y-43322172D01*
X130726097Y-43536337D01*
X130664936Y-43764592D01*
X130644340Y-44000000D01*
X130000633Y-44000000D01*
X130000765Y-43995955D01*
X130005982Y-43916359D01*
X130005983Y-43916350D01*
X130018709Y-43738407D01*
X130020770Y-43723101D01*
X130043163Y-43610523D01*
X130073795Y-43469717D01*
X130077515Y-43456318D01*
X130116243Y-43342230D01*
X130117404Y-43338967D01*
X130165068Y-43211177D01*
X130170017Y-43199713D01*
X130224481Y-43089272D01*
X130226777Y-43084851D01*
X130290855Y-42967501D01*
X130296562Y-42958075D01*
X130365639Y-42854694D01*
X130369425Y-42849344D01*
X130448850Y-42743246D01*
X130454823Y-42735878D01*
X130537161Y-42641989D01*
X130542648Y-42636131D01*
X130636131Y-42542648D01*
X130641989Y-42537161D01*
X130735878Y-42454823D01*
X130743246Y-42448850D01*
X130849344Y-42369425D01*
X130854694Y-42365639D01*
X130958075Y-42296562D01*
X130967501Y-42290855D01*
X131084851Y-42226777D01*
X131089272Y-42224481D01*
X131199713Y-42170017D01*
X131211177Y-42165068D01*
X131338967Y-42117404D01*
X131342230Y-42116243D01*
X131456305Y-42077519D01*
X131469754Y-42073787D01*
X131610546Y-42043159D01*
X131723125Y-42020766D01*
X131738402Y-42018709D01*
X131916208Y-42005991D01*
X131992267Y-42001006D01*
X131995958Y-42000765D01*
X132004063Y-42000500D01*
X155995935Y-42000500D01*
X156004042Y-42000764D01*
G37*
%TD.AperFunction*%
%TD*%
M02*
