%TF.GenerationSoftware,KiCad,Pcbnew,7.0.2-0*%
%TF.CreationDate,2023-05-31T17:16:31-07:00*%
%TF.ProjectId,camera-clicker,63616d65-7261-42d6-936c-69636b65722e,rev?*%
%TF.SameCoordinates,Original*%
%TF.FileFunction,Copper,L2,Bot*%
%TF.FilePolarity,Positive*%
%FSLAX46Y46*%
G04 Gerber Fmt 4.6, Leading zero omitted, Abs format (unit mm)*
G04 Created by KiCad (PCBNEW 7.0.2-0) date 2023-05-31 17:16:31*
%MOMM*%
%LPD*%
G01*
G04 APERTURE LIST*
G04 Aperture macros list*
%AMRoundRect*
0 Rectangle with rounded corners*
0 $1 Rounding radius*
0 $2 $3 $4 $5 $6 $7 $8 $9 X,Y pos of 4 corners*
0 Add a 4 corners polygon primitive as box body*
4,1,4,$2,$3,$4,$5,$6,$7,$8,$9,$2,$3,0*
0 Add four circle primitives for the rounded corners*
1,1,$1+$1,$2,$3*
1,1,$1+$1,$4,$5*
1,1,$1+$1,$6,$7*
1,1,$1+$1,$8,$9*
0 Add four rect primitives between the rounded corners*
20,1,$1+$1,$2,$3,$4,$5,0*
20,1,$1+$1,$4,$5,$6,$7,0*
20,1,$1+$1,$6,$7,$8,$9,0*
20,1,$1+$1,$8,$9,$2,$3,0*%
G04 Aperture macros list end*
%TA.AperFunction,ComponentPad*%
%ADD10O,3.500000X2.200000*%
%TD*%
%TA.AperFunction,ComponentPad*%
%ADD11R,2.500000X1.500000*%
%TD*%
%TA.AperFunction,ComponentPad*%
%ADD12O,2.500000X1.500000*%
%TD*%
%TA.AperFunction,ComponentPad*%
%ADD13R,1.700000X1.700000*%
%TD*%
%TA.AperFunction,ComponentPad*%
%ADD14O,1.700000X1.700000*%
%TD*%
%TA.AperFunction,ComponentPad*%
%ADD15C,2.000000*%
%TD*%
%TA.AperFunction,ComponentPad*%
%ADD16O,0.900000X1.700000*%
%TD*%
%TA.AperFunction,ComponentPad*%
%ADD17O,0.900000X2.400000*%
%TD*%
%TA.AperFunction,ComponentPad*%
%ADD18C,0.700000*%
%TD*%
%TA.AperFunction,SMDPad,CuDef*%
%ADD19R,6.350000X7.340000*%
%TD*%
%TA.AperFunction,SMDPad,CuDef*%
%ADD20RoundRect,0.250000X-0.625000X0.400000X-0.625000X-0.400000X0.625000X-0.400000X0.625000X0.400000X0*%
%TD*%
%TA.AperFunction,ViaPad*%
%ADD21C,0.800000*%
%TD*%
%TA.AperFunction,Conductor*%
%ADD22C,0.250000*%
%TD*%
%TA.AperFunction,Conductor*%
%ADD23C,0.650000*%
%TD*%
%TA.AperFunction,Conductor*%
%ADD24C,0.200000*%
%TD*%
G04 APERTURE END LIST*
D10*
%TO.P,SW1,*%
%TO.N,*%
X155500000Y-61700000D03*
X155500000Y-53500000D03*
D11*
%TO.P,SW1,1,A*%
%TO.N,unconnected-(SW1-A-Pad1)*%
X155500000Y-59600000D03*
D12*
%TO.P,SW1,2,B*%
%TO.N,Net-(BT1-+)*%
X155500000Y-57600000D03*
%TO.P,SW1,3,C*%
%TO.N,+BATT*%
X155500000Y-55600000D03*
%TD*%
D13*
%TO.P,J2,1,Pin_1*%
%TO.N,+5V*%
X156000000Y-110450000D03*
D14*
%TO.P,J2,2,Pin_2*%
%TO.N,+3.3V*%
X156000000Y-107910000D03*
%TO.P,J2,3,Pin_3*%
%TO.N,+BATT*%
X156000000Y-105370000D03*
%TO.P,J2,4,Pin_4*%
%TO.N,/TX*%
X156000000Y-102830000D03*
%TO.P,J2,5,Pin_5*%
%TO.N,/RX*%
X156000000Y-100290000D03*
%TO.P,J2,6,Pin_6*%
%TO.N,GND*%
X156000000Y-97750000D03*
%TD*%
D15*
%TO.P,SW3,2,B*%
%TO.N,Net-(SW3-B)*%
X148500000Y-133700000D03*
X155000000Y-133700000D03*
%TO.P,SW3,1,A*%
%TO.N,GND*%
X148500000Y-138200000D03*
X155000000Y-138200000D03*
%TD*%
D16*
%TO.P,J1,S1,SHIELD*%
%TO.N,GND*%
X148325000Y-146110000D03*
D17*
X148325000Y-142730000D03*
D16*
X139675000Y-146110000D03*
D17*
X139675000Y-142730000D03*
D18*
%TO.P,J1,B12,GND*%
X141025000Y-143100000D03*
%TO.P,J1,B9,VBUS*%
%TO.N,+5V*%
X141875000Y-143100000D03*
%TO.P,J1,B8,SBU2*%
%TO.N,unconnected-(J1-SBU2-PadB8)*%
X142725000Y-143100000D03*
%TO.P,J1,B7,D-*%
%TO.N,/D-*%
X143575000Y-143100000D03*
%TO.P,J1,B6,D+*%
%TO.N,/D+*%
X144425000Y-143100000D03*
%TO.P,J1,B5,CC2*%
%TO.N,Net-(J1-CC2)*%
X145275000Y-143100000D03*
%TO.P,J1,B4,VBUS*%
%TO.N,+5V*%
X146125000Y-143100000D03*
%TO.P,J1,B1,GND*%
%TO.N,GND*%
X146975000Y-143100000D03*
%TO.P,J1,A12,GND*%
X146975000Y-141750000D03*
%TO.P,J1,A9,VBUS*%
%TO.N,+5V*%
X146125000Y-141750000D03*
%TO.P,J1,A8,SBU1*%
%TO.N,unconnected-(J1-SBU1-PadA8)*%
X145275000Y-141750000D03*
%TO.P,J1,A7,D-*%
%TO.N,/D-*%
X144425000Y-141750000D03*
%TO.P,J1,A6,D+*%
%TO.N,/D+*%
X143575000Y-141750000D03*
%TO.P,J1,A5,CC1*%
%TO.N,Net-(J1-CC1)*%
X142725000Y-141750000D03*
%TO.P,J1,A4,VBUS*%
%TO.N,+5V*%
X141875000Y-141750000D03*
%TO.P,J1,A1,GND*%
%TO.N,GND*%
X141025000Y-141750000D03*
%TD*%
D15*
%TO.P,SW2,2,B*%
%TO.N,GND*%
X132950000Y-133850000D03*
X139450000Y-133850000D03*
%TO.P,SW2,1,A*%
%TO.N,Net-(SW2-A)*%
X132950000Y-138350000D03*
X139450000Y-138350000D03*
%TD*%
D19*
%TO.P,BT1,1,+*%
%TO.N,Net-(BT1-+)*%
X141200000Y-47270000D03*
%TO.P,BT1,2,-*%
%TO.N,GND*%
X141200000Y-125930000D03*
%TD*%
D20*
%TO.P,TH1,1*%
%TO.N,GND*%
X141200000Y-87250000D03*
%TO.P,TH1,2*%
%TO.N,Net-(R6-Pad2)*%
X141200000Y-90350000D03*
%TD*%
D21*
%TO.N,GND*%
X135180000Y-92530000D03*
X133210000Y-90160000D03*
X139380000Y-88980000D03*
%TO.N,/TX*%
X143980000Y-102800000D03*
%TO.N,/RX*%
X144810000Y-101930000D03*
%TO.N,/SW2*%
X143460000Y-78340000D03*
X140810000Y-65750000D03*
%TO.N,+3.3V*%
X149740000Y-106650000D03*
X144330000Y-112410000D03*
%TO.N,+5V*%
X142300000Y-140170000D03*
X145480000Y-121830000D03*
%TO.N,/D+*%
X146230000Y-140700000D03*
%TO.N,+BATT*%
X147120000Y-132240000D03*
X143450000Y-132180000D03*
%TO.N,GND*%
X136560000Y-89260000D03*
%TO.N,Net-(BT1-+)*%
X132820000Y-86100000D03*
%TO.N,+BATT*%
X150970000Y-61150000D03*
%TO.N,Net-(R6-Pad2)*%
X137310000Y-92320000D03*
%TD*%
D22*
%TO.N,/TX*%
X143980000Y-102800000D02*
X143970000Y-102830000D01*
%TO.N,/RX*%
X144740000Y-101930000D02*
X144770000Y-101900000D01*
X144810000Y-101930000D02*
X144740000Y-101930000D01*
X144810000Y-101860000D02*
X144810000Y-101930000D01*
%TO.N,/TX*%
X156000000Y-102830000D02*
X143980000Y-102800000D01*
%TO.N,/RX*%
X146380000Y-100290000D02*
X144810000Y-101860000D01*
X156000000Y-100290000D02*
X146380000Y-100290000D01*
%TO.N,/SW2*%
X143460000Y-78350000D02*
X143430000Y-78320000D01*
X143460000Y-78340000D02*
X143460000Y-78350000D01*
X143450000Y-78340000D02*
X143460000Y-78340000D01*
X140810000Y-75700000D02*
X143450000Y-78340000D01*
X140810000Y-65750000D02*
X140810000Y-75700000D01*
D23*
%TO.N,+3.3V*%
X149740000Y-106650000D02*
X148830000Y-107560000D01*
X148830000Y-107560000D02*
X148830000Y-107910000D01*
X148830000Y-107910000D02*
X144330000Y-112410000D01*
D22*
%TO.N,+5V*%
X141875000Y-143100000D02*
X141875000Y-143594974D01*
X145554595Y-143775000D02*
X146125000Y-143204595D01*
X141875000Y-143594974D02*
X142055026Y-143775000D01*
X142055026Y-143775000D02*
X145554595Y-143775000D01*
X146125000Y-143204595D02*
X146125000Y-143100000D01*
D23*
X142300000Y-140170000D02*
X142300000Y-140937563D01*
X142300000Y-140937563D02*
X141850000Y-141387563D01*
X156000000Y-110450000D02*
X156000000Y-111310000D01*
X156000000Y-111310000D02*
X145480000Y-121830000D01*
D24*
%TO.N,/D+*%
X146230000Y-140700000D02*
X146210000Y-140720000D01*
X143575000Y-141255026D02*
X144110026Y-140720000D01*
X143575000Y-141750000D02*
X143575000Y-141255026D01*
X144110026Y-140720000D02*
X146230000Y-140700000D01*
D23*
%TO.N,+BATT*%
X147055000Y-132175000D02*
X143470000Y-132175000D01*
X147120000Y-132240000D02*
X147055000Y-132175000D01*
X147185000Y-132175000D02*
X147120000Y-132240000D01*
X143460000Y-132175000D02*
X143465000Y-132175000D01*
X143450000Y-132180000D02*
X143460000Y-132175000D01*
X143470000Y-132175000D02*
X143450000Y-132180000D01*
X156000000Y-105370000D02*
X157610000Y-106980000D01*
X157610000Y-128933324D02*
X154368324Y-132175000D01*
X157610000Y-106980000D02*
X157610000Y-128933324D01*
X154368324Y-132175000D02*
X147185000Y-132175000D01*
%TO.N,Net-(BT1-+)*%
X132820000Y-86170000D02*
X132750000Y-86100000D01*
X132820000Y-86100000D02*
X132820000Y-86170000D01*
X132750000Y-86100000D02*
X132820000Y-86100000D01*
X131420000Y-84770000D02*
X132750000Y-86100000D01*
X141200000Y-47270000D02*
X134096842Y-47270000D01*
X131350000Y-50016842D02*
X131350000Y-84770000D01*
X134096842Y-47270000D02*
X131350000Y-50016842D01*
X131350000Y-84770000D02*
X131420000Y-84770000D01*
%TO.N,+BATT*%
X150970000Y-61150000D02*
X150970000Y-79829620D01*
X150970000Y-79829620D02*
X157375000Y-86234620D01*
X157375000Y-86234620D02*
X157375000Y-103995000D01*
X157375000Y-103995000D02*
X156000000Y-105370000D01*
D22*
%TO.N,Net-(R6-Pad2)*%
X137310000Y-92320000D02*
X137270000Y-92320000D01*
X139230000Y-92320000D02*
X137310000Y-92320000D01*
X141200000Y-90350000D02*
X139230000Y-92320000D01*
D24*
%TO.N,/D+*%
X143575000Y-141750000D02*
X143575000Y-142180761D01*
X144425000Y-143030761D02*
X144425000Y-143100000D01*
X143575000Y-142180761D02*
X144425000Y-143030761D01*
D23*
%TO.N,Net-(BT1-+)*%
X155500000Y-57600000D02*
X151530000Y-57600000D01*
X151530000Y-57600000D02*
X141200000Y-47270000D01*
%TD*%
%TA.AperFunction,Conductor*%
%TO.N,GND*%
G36*
X156004042Y-42000764D02*
G01*
X156083743Y-42005988D01*
X156261590Y-42018709D01*
X156276904Y-42020772D01*
X156389441Y-42043157D01*
X156530277Y-42073794D01*
X156543690Y-42077518D01*
X156657725Y-42116228D01*
X156661074Y-42117420D01*
X156788808Y-42165062D01*
X156800300Y-42170024D01*
X156910687Y-42224461D01*
X156915187Y-42226798D01*
X157032478Y-42290844D01*
X157041942Y-42296574D01*
X157145269Y-42365615D01*
X157150688Y-42369450D01*
X157256727Y-42448830D01*
X157264145Y-42454844D01*
X157357976Y-42537131D01*
X157363898Y-42542678D01*
X157457320Y-42636100D01*
X157462867Y-42642022D01*
X157545150Y-42735848D01*
X157551173Y-42743278D01*
X157588691Y-42793396D01*
X157630548Y-42849310D01*
X157634383Y-42854729D01*
X157703424Y-42958056D01*
X157709154Y-42967520D01*
X157773183Y-43084779D01*
X157775556Y-43089348D01*
X157783723Y-43105909D01*
X157829969Y-43199687D01*
X157834938Y-43211196D01*
X157882556Y-43338863D01*
X157883793Y-43342338D01*
X157922470Y-43456276D01*
X157926217Y-43469777D01*
X157956847Y-43610580D01*
X157979230Y-43723107D01*
X157981290Y-43738414D01*
X157994017Y-43916350D01*
X157999235Y-43995955D01*
X157999500Y-44004051D01*
X157999500Y-53444956D01*
X157982506Y-53502828D01*
X157996851Y-53529551D01*
X157999500Y-53555043D01*
X157999500Y-61644956D01*
X157982506Y-61702828D01*
X157996851Y-61729551D01*
X157999500Y-61755043D01*
X157999500Y-85392324D01*
X157979815Y-85459363D01*
X157927011Y-85505118D01*
X157857853Y-85515062D01*
X157794297Y-85486037D01*
X157787819Y-85480005D01*
X152819495Y-80511681D01*
X152786010Y-80450358D01*
X152790994Y-80380666D01*
X152832866Y-80324733D01*
X152898330Y-80300316D01*
X152907176Y-80300000D01*
X157300000Y-80300000D01*
X157300000Y-67100000D01*
X151919500Y-67100000D01*
X151852461Y-67080315D01*
X151806706Y-67027511D01*
X151795500Y-66976000D01*
X151795500Y-61543090D01*
X151801569Y-61504772D01*
X151819739Y-61448852D01*
X151855674Y-61338256D01*
X151875460Y-61150000D01*
X151855674Y-60961744D01*
X151814852Y-60836107D01*
X151797179Y-60781715D01*
X151702533Y-60617783D01*
X151575870Y-60477110D01*
X151422730Y-60365848D01*
X151249802Y-60288855D01*
X151064648Y-60249500D01*
X151064646Y-60249500D01*
X150977535Y-60249500D01*
X150910496Y-60229815D01*
X150864741Y-60177011D01*
X150854797Y-60107853D01*
X150868703Y-60066073D01*
X150904878Y-59999822D01*
X151001568Y-59822749D01*
X151100320Y-59557984D01*
X151160387Y-59281861D01*
X151180546Y-59000000D01*
X151160387Y-58718139D01*
X151120577Y-58535136D01*
X151125561Y-58465447D01*
X151167432Y-58409513D01*
X151232897Y-58385096D01*
X151268395Y-58387678D01*
X151340011Y-58403442D01*
X151343228Y-58404195D01*
X151417900Y-58422766D01*
X151417906Y-58422766D01*
X151418280Y-58422859D01*
X151439832Y-58425500D01*
X151440221Y-58425500D01*
X151517114Y-58425500D01*
X151520471Y-58425544D01*
X151597391Y-58427629D01*
X151597392Y-58427628D01*
X151597774Y-58427639D01*
X151620275Y-58425500D01*
X153695556Y-58425500D01*
X153762595Y-58445185D01*
X153808350Y-58497989D01*
X153818294Y-58567147D01*
X153811738Y-58592834D01*
X153806205Y-58607666D01*
X153806204Y-58607669D01*
X153772158Y-58698950D01*
X153755910Y-58742515D01*
X153755909Y-58742517D01*
X153749500Y-58802127D01*
X153749500Y-58805448D01*
X153749500Y-58805449D01*
X153749500Y-60394560D01*
X153749500Y-60394578D01*
X153749501Y-60397872D01*
X153749853Y-60401150D01*
X153749854Y-60401161D01*
X153756021Y-60458524D01*
X153743614Y-60527283D01*
X153720495Y-60556828D01*
X153721113Y-60557355D01*
X153551165Y-60756338D01*
X153420090Y-60970234D01*
X153419534Y-60971141D01*
X153405415Y-61005225D01*
X153323126Y-61203889D01*
X153264317Y-61448850D01*
X153244551Y-61699999D01*
X153264317Y-61951149D01*
X153323126Y-62196110D01*
X153371330Y-62312485D01*
X153419534Y-62428859D01*
X153551164Y-62643659D01*
X153714776Y-62835224D01*
X153906341Y-62998836D01*
X154121141Y-63130466D01*
X154353889Y-63226873D01*
X154598852Y-63285683D01*
X154787118Y-63300500D01*
X154789563Y-63300500D01*
X156210437Y-63300500D01*
X156212882Y-63300500D01*
X156401148Y-63285683D01*
X156646111Y-63226873D01*
X156878859Y-63130466D01*
X157093659Y-62998836D01*
X157285224Y-62835224D01*
X157448836Y-62643659D01*
X157580466Y-62428859D01*
X157676873Y-62196111D01*
X157735683Y-61951148D01*
X157751882Y-61745311D01*
X157769262Y-61699713D01*
X157756523Y-61679891D01*
X157751883Y-61654690D01*
X157735683Y-61448852D01*
X157676873Y-61203889D01*
X157580466Y-60971141D01*
X157448836Y-60756341D01*
X157285224Y-60564776D01*
X157285221Y-60564773D01*
X157278886Y-60557356D01*
X157280274Y-60556169D01*
X157248543Y-60507560D01*
X157243979Y-60458522D01*
X157250144Y-60401180D01*
X157250500Y-60397873D01*
X157250499Y-58802128D01*
X157244091Y-58742517D01*
X157193796Y-58607669D01*
X157107546Y-58492454D01*
X157107547Y-58492454D01*
X157107545Y-58492452D01*
X157068401Y-58463149D01*
X157026531Y-58407215D01*
X157021547Y-58337523D01*
X157039222Y-58295578D01*
X157105635Y-58194968D01*
X157194103Y-57987988D01*
X157244191Y-57768537D01*
X157254290Y-57543670D01*
X157224075Y-57320613D01*
X157154517Y-57106536D01*
X157047852Y-56908319D01*
X156907508Y-56732334D01*
X156863488Y-56693874D01*
X156825955Y-56634944D01*
X156826241Y-56565075D01*
X156855448Y-56514803D01*
X156863747Y-56506123D01*
X156981632Y-56382825D01*
X157105635Y-56194968D01*
X157194103Y-55987988D01*
X157244191Y-55768537D01*
X157254290Y-55543670D01*
X157224075Y-55320613D01*
X157154517Y-55106536D01*
X157069311Y-54948197D01*
X157054878Y-54879837D01*
X157079695Y-54814523D01*
X157097970Y-54795153D01*
X157285224Y-54635224D01*
X157448836Y-54443659D01*
X157580466Y-54228859D01*
X157676873Y-53996111D01*
X157735683Y-53751148D01*
X157751882Y-53545311D01*
X157769262Y-53499713D01*
X157756523Y-53479891D01*
X157751883Y-53454690D01*
X157735683Y-53248852D01*
X157676873Y-53003889D01*
X157580466Y-52771141D01*
X157448836Y-52556341D01*
X157285224Y-52364776D01*
X157093659Y-52201164D01*
X156878859Y-52069534D01*
X156762484Y-52021330D01*
X156646110Y-51973126D01*
X156401149Y-51914317D01*
X156215316Y-51899691D01*
X156215301Y-51899690D01*
X156212882Y-51899500D01*
X154787118Y-51899500D01*
X154784699Y-51899690D01*
X154784683Y-51899691D01*
X154598850Y-51914317D01*
X154353889Y-51973126D01*
X154121139Y-52069535D01*
X153906342Y-52201163D01*
X153714776Y-52364776D01*
X153551163Y-52556342D01*
X153419535Y-52771139D01*
X153323126Y-53003889D01*
X153264317Y-53248850D01*
X153244551Y-53500000D01*
X153264317Y-53751149D01*
X153323126Y-53996110D01*
X153371330Y-54112485D01*
X153419534Y-54228859D01*
X153551164Y-54443659D01*
X153714776Y-54635224D01*
X153902405Y-54795474D01*
X153940598Y-54853981D01*
X153941096Y-54923849D01*
X153925361Y-54958074D01*
X153894365Y-55005032D01*
X153805896Y-55212012D01*
X153755809Y-55431462D01*
X153745709Y-55656328D01*
X153775925Y-55879388D01*
X153811211Y-55987988D01*
X153845483Y-56093464D01*
X153952148Y-56291681D01*
X154092492Y-56467666D01*
X154136510Y-56506124D01*
X154174044Y-56565055D01*
X154173758Y-56634924D01*
X154144553Y-56685195D01*
X154125799Y-56704809D01*
X154095795Y-56736191D01*
X154035241Y-56771044D01*
X154006169Y-56774500D01*
X151923295Y-56774500D01*
X151856256Y-56754815D01*
X151835614Y-56738181D01*
X144911818Y-49814385D01*
X144878333Y-49753062D01*
X144875499Y-49726704D01*
X144875499Y-44000000D01*
X154644340Y-44000000D01*
X154664936Y-44235407D01*
X154726097Y-44463662D01*
X154726097Y-44463663D01*
X154825965Y-44677829D01*
X154961505Y-44871401D01*
X155128599Y-45038495D01*
X155322171Y-45174035D01*
X155536337Y-45273903D01*
X155764592Y-45335063D01*
X155941034Y-45350500D01*
X155943742Y-45350500D01*
X156056258Y-45350500D01*
X156058966Y-45350500D01*
X156235408Y-45335063D01*
X156463663Y-45273903D01*
X156677829Y-45174035D01*
X156871401Y-45038495D01*
X157038495Y-44871401D01*
X157174035Y-44677830D01*
X157273903Y-44463663D01*
X157335063Y-44235408D01*
X157355659Y-44000000D01*
X157335063Y-43764592D01*
X157273903Y-43536337D01*
X157174035Y-43322171D01*
X157038495Y-43128599D01*
X156871401Y-42961505D01*
X156677829Y-42825965D01*
X156463663Y-42726097D01*
X156463662Y-42726097D01*
X156235407Y-42664936D01*
X156061667Y-42649736D01*
X156061659Y-42649735D01*
X156058966Y-42649500D01*
X155941034Y-42649500D01*
X155938341Y-42649735D01*
X155938332Y-42649736D01*
X155764592Y-42664936D01*
X155536336Y-42726097D01*
X155322170Y-42825965D01*
X155128598Y-42961505D01*
X154961508Y-43128595D01*
X154961505Y-43128598D01*
X154961505Y-43128599D01*
X154887126Y-43234824D01*
X154825964Y-43322172D01*
X154726097Y-43536337D01*
X154664936Y-43764592D01*
X154644340Y-44000000D01*
X144875499Y-44000000D01*
X144875499Y-43555439D01*
X144875499Y-43552128D01*
X144869091Y-43492517D01*
X144818796Y-43357669D01*
X144732546Y-43242454D01*
X144617331Y-43156204D01*
X144482483Y-43105909D01*
X144422873Y-43099500D01*
X144419550Y-43099500D01*
X137980439Y-43099500D01*
X137980420Y-43099500D01*
X137977128Y-43099501D01*
X137973848Y-43099853D01*
X137973840Y-43099854D01*
X137917515Y-43105909D01*
X137782669Y-43156204D01*
X137667454Y-43242454D01*
X137581204Y-43357668D01*
X137530910Y-43492515D01*
X137530909Y-43492517D01*
X137524500Y-43552127D01*
X137524500Y-43555448D01*
X137524500Y-43555449D01*
X137524500Y-46320500D01*
X137504815Y-46387539D01*
X137452011Y-46433294D01*
X137400500Y-46444500D01*
X134135437Y-46444500D01*
X134125374Y-46444091D01*
X134123175Y-46443911D01*
X134074357Y-46439937D01*
X134074356Y-46439937D01*
X134074355Y-46439937D01*
X133998149Y-46450318D01*
X133994822Y-46450726D01*
X133917953Y-46459087D01*
X133896809Y-46464042D01*
X133824245Y-46490700D01*
X133821082Y-46491813D01*
X133747823Y-46516498D01*
X133728213Y-46525894D01*
X133663056Y-46567541D01*
X133660206Y-46569309D01*
X133593999Y-46609145D01*
X133576877Y-46622531D01*
X133522234Y-46677174D01*
X133519828Y-46679515D01*
X133463689Y-46732692D01*
X133449290Y-46750117D01*
X130793572Y-49405834D01*
X130786169Y-49412660D01*
X130747154Y-49445800D01*
X130700608Y-49507031D01*
X130698541Y-49509675D01*
X130650109Y-49569927D01*
X130638653Y-49588396D01*
X130606180Y-49658582D01*
X130604731Y-49661604D01*
X130570400Y-49730830D01*
X130563176Y-49751349D01*
X130546557Y-49826845D01*
X130545792Y-49830110D01*
X130527140Y-49905115D01*
X130524500Y-49926684D01*
X130524500Y-50003956D01*
X130524455Y-50007314D01*
X130522360Y-50084620D01*
X130524499Y-50107113D01*
X130524499Y-84692682D01*
X130522867Y-84712735D01*
X130520849Y-84725043D01*
X130524318Y-84789008D01*
X130524500Y-84795721D01*
X130524500Y-84814760D01*
X130524861Y-84818082D01*
X130524862Y-84818095D01*
X130526558Y-84833688D01*
X130527102Y-84840374D01*
X130530570Y-84904340D01*
X130533905Y-84916350D01*
X130537696Y-84936103D01*
X130539045Y-84948500D01*
X130539046Y-84948505D01*
X130559495Y-85009196D01*
X130561465Y-85015613D01*
X130578607Y-85077352D01*
X130584446Y-85088365D01*
X130592397Y-85106849D01*
X130596376Y-85118659D01*
X130629400Y-85173545D01*
X130632703Y-85179388D01*
X130658005Y-85227110D01*
X130662714Y-85235992D01*
X130665147Y-85238856D01*
X130670782Y-85245490D01*
X130682527Y-85261841D01*
X130688951Y-85272519D01*
X130732999Y-85319020D01*
X130737482Y-85324017D01*
X130755742Y-85345514D01*
X130778956Y-85372843D01*
X130786108Y-85378279D01*
X130788877Y-85380385D01*
X130803854Y-85393820D01*
X130812431Y-85402875D01*
X130848175Y-85427110D01*
X130865458Y-85438828D01*
X130870910Y-85442745D01*
X130921901Y-85481507D01*
X130933216Y-85486742D01*
X130950738Y-85496649D01*
X130961047Y-85503639D01*
X130961048Y-85503639D01*
X130961049Y-85503640D01*
X130964759Y-85505118D01*
X130979143Y-85510849D01*
X131020929Y-85538362D01*
X132038608Y-86556041D01*
X132058314Y-86581722D01*
X132087466Y-86632216D01*
X132214129Y-86772889D01*
X132367269Y-86884151D01*
X132540197Y-86961144D01*
X132725352Y-87000500D01*
X132725354Y-87000500D01*
X132914648Y-87000500D01*
X132917000Y-87000000D01*
X139825000Y-87000000D01*
X140950000Y-87000000D01*
X140950000Y-86100000D01*
X141450000Y-86100000D01*
X141450000Y-87000000D01*
X142574999Y-87000000D01*
X142574999Y-86803170D01*
X142574678Y-86796888D01*
X142564506Y-86697304D01*
X142509357Y-86530877D01*
X142417316Y-86381654D01*
X142293345Y-86257683D01*
X142144122Y-86165642D01*
X141977696Y-86110493D01*
X141878109Y-86100319D01*
X141871832Y-86100000D01*
X141450000Y-86100000D01*
X140950000Y-86100000D01*
X140528171Y-86100000D01*
X140521888Y-86100321D01*
X140422304Y-86110493D01*
X140255877Y-86165642D01*
X140106654Y-86257683D01*
X139982683Y-86381654D01*
X139890642Y-86530877D01*
X139835493Y-86697303D01*
X139825319Y-86796890D01*
X139825000Y-86803168D01*
X139825000Y-87000000D01*
X132917000Y-87000000D01*
X133038084Y-86974262D01*
X133099803Y-86961144D01*
X133272730Y-86884151D01*
X133272729Y-86884150D01*
X133425870Y-86772889D01*
X133552533Y-86632216D01*
X133647179Y-86468284D01*
X133675327Y-86381654D01*
X133705674Y-86288256D01*
X133725460Y-86100000D01*
X133705674Y-85911744D01*
X133647179Y-85731716D01*
X133647179Y-85731715D01*
X133552533Y-85567783D01*
X133425870Y-85427110D01*
X133272732Y-85315849D01*
X133157445Y-85264520D01*
X133099803Y-85238856D01*
X133080466Y-85234745D01*
X133018986Y-85201552D01*
X133018570Y-85201137D01*
X132211819Y-84394385D01*
X132178334Y-84333062D01*
X132175500Y-84306704D01*
X132175500Y-65749999D01*
X139904540Y-65749999D01*
X139924326Y-65938257D01*
X139982820Y-66118284D01*
X140077464Y-66282213D01*
X140152650Y-66365714D01*
X140182880Y-66428706D01*
X140184500Y-66448687D01*
X140184500Y-75617256D01*
X140182235Y-75637766D01*
X140184439Y-75707872D01*
X140184500Y-75711767D01*
X140184500Y-75739350D01*
X140184988Y-75743219D01*
X140184989Y-75743225D01*
X140185004Y-75743343D01*
X140185918Y-75754967D01*
X140187290Y-75798626D01*
X140192879Y-75817860D01*
X140196825Y-75836916D01*
X140199335Y-75856792D01*
X140215414Y-75897404D01*
X140219197Y-75908451D01*
X140231382Y-75950391D01*
X140241580Y-75967635D01*
X140250136Y-75985100D01*
X140257514Y-76003732D01*
X140257515Y-76003733D01*
X140283180Y-76039059D01*
X140289593Y-76048822D01*
X140311826Y-76086416D01*
X140311829Y-76086419D01*
X140311830Y-76086420D01*
X140325995Y-76100585D01*
X140338627Y-76115375D01*
X140350406Y-76131587D01*
X140384058Y-76159426D01*
X140392699Y-76167289D01*
X142522214Y-78296805D01*
X142555699Y-78358128D01*
X142557852Y-78371512D01*
X142572101Y-78507091D01*
X142574326Y-78528257D01*
X142632820Y-78708284D01*
X142727466Y-78872216D01*
X142854129Y-79012889D01*
X143007269Y-79124151D01*
X143180197Y-79201144D01*
X143365352Y-79240500D01*
X143365354Y-79240500D01*
X143554648Y-79240500D01*
X143678083Y-79214262D01*
X143739803Y-79201144D01*
X143912730Y-79124151D01*
X144065871Y-79012888D01*
X144192533Y-78872216D01*
X144287179Y-78708284D01*
X144345674Y-78528256D01*
X144365460Y-78340000D01*
X144345674Y-78151744D01*
X144287179Y-77971716D01*
X144287179Y-77971715D01*
X144192533Y-77807783D01*
X144065870Y-77667110D01*
X143912730Y-77555848D01*
X143739802Y-77478855D01*
X143554648Y-77439500D01*
X143554646Y-77439500D01*
X143485452Y-77439500D01*
X143418413Y-77419815D01*
X143397771Y-77403181D01*
X141471819Y-75477228D01*
X141438334Y-75415905D01*
X141435500Y-75389547D01*
X141435500Y-66448687D01*
X141455185Y-66381648D01*
X141467350Y-66365714D01*
X141542533Y-66282216D01*
X141637179Y-66118284D01*
X141695674Y-65938256D01*
X141715460Y-65750000D01*
X141695674Y-65561744D01*
X141637179Y-65381716D01*
X141637179Y-65381715D01*
X141542533Y-65217783D01*
X141415870Y-65077110D01*
X141262730Y-64965848D01*
X141089802Y-64888855D01*
X140904648Y-64849500D01*
X140904646Y-64849500D01*
X140715354Y-64849500D01*
X140715352Y-64849500D01*
X140530197Y-64888855D01*
X140357269Y-64965848D01*
X140204129Y-65077110D01*
X140077466Y-65217783D01*
X139982820Y-65381715D01*
X139924326Y-65561742D01*
X139904540Y-65749999D01*
X132175500Y-65749999D01*
X132175500Y-51956450D01*
X132195185Y-51889411D01*
X132247989Y-51843656D01*
X132317147Y-51833712D01*
X132367322Y-51852642D01*
X132461722Y-51914317D01*
X132509660Y-51945636D01*
X132729038Y-52041864D01*
X132961263Y-52100672D01*
X133140213Y-52115500D01*
X133142783Y-52115500D01*
X133257217Y-52115500D01*
X133259787Y-52115500D01*
X133438737Y-52100672D01*
X133670962Y-52041864D01*
X133890340Y-51945636D01*
X134090887Y-51814612D01*
X134267134Y-51652366D01*
X134414271Y-51463323D01*
X134528287Y-51252641D01*
X134606070Y-51026065D01*
X134645500Y-50789778D01*
X134645500Y-50550222D01*
X134606070Y-50313935D01*
X134528287Y-50087359D01*
X134414271Y-49876677D01*
X134267134Y-49687634D01*
X134149939Y-49579749D01*
X134090884Y-49525385D01*
X133890341Y-49394364D01*
X133762810Y-49338424D01*
X133670962Y-49298136D01*
X133670960Y-49298135D01*
X133670959Y-49298135D01*
X133535555Y-49263845D01*
X133475399Y-49228306D01*
X133444008Y-49165885D01*
X133451346Y-49096402D01*
X133478312Y-49055962D01*
X134402456Y-48131819D01*
X134463780Y-48098334D01*
X134490138Y-48095500D01*
X137400501Y-48095500D01*
X137467540Y-48115185D01*
X137513295Y-48167989D01*
X137524501Y-48219499D01*
X137524501Y-50987872D01*
X137524853Y-50991152D01*
X137524854Y-50991159D01*
X137528607Y-51026068D01*
X137530909Y-51047483D01*
X137581204Y-51182331D01*
X137667454Y-51297546D01*
X137782669Y-51383796D01*
X137917517Y-51434091D01*
X137977127Y-51440500D01*
X144151703Y-51440499D01*
X144218742Y-51460184D01*
X144239384Y-51476818D01*
X149592618Y-56830052D01*
X149626103Y-56891375D01*
X149621119Y-56961067D01*
X149579247Y-57017000D01*
X149513783Y-57041417D01*
X149490741Y-57039769D01*
X149490707Y-57040246D01*
X149481863Y-57039613D01*
X149481861Y-57039613D01*
X149307732Y-57027159D01*
X149272763Y-57024658D01*
X149272761Y-57024657D01*
X149270553Y-57024500D01*
X149129447Y-57024500D01*
X149127239Y-57024657D01*
X149127236Y-57024658D01*
X148918138Y-57039613D01*
X148642020Y-57099678D01*
X148545179Y-57135798D01*
X148377251Y-57198432D01*
X148315520Y-57232139D01*
X148129234Y-57333859D01*
X147903017Y-57503203D01*
X147703203Y-57703017D01*
X147533859Y-57929234D01*
X147432139Y-58115520D01*
X147398432Y-58177251D01*
X147368009Y-58258819D01*
X147299678Y-58442020D01*
X147239613Y-58718138D01*
X147219453Y-58999999D01*
X147239613Y-59281861D01*
X147299678Y-59557979D01*
X147299680Y-59557984D01*
X147398432Y-59822749D01*
X147482999Y-59977621D01*
X147533859Y-60070765D01*
X147703203Y-60296982D01*
X147903017Y-60496796D01*
X148129234Y-60666140D01*
X148129236Y-60666141D01*
X148377251Y-60801568D01*
X148642016Y-60900320D01*
X148642019Y-60900320D01*
X148642020Y-60900321D01*
X148681320Y-60908870D01*
X148918139Y-60960387D01*
X149129447Y-60975500D01*
X149131662Y-60975500D01*
X149268338Y-60975500D01*
X149270553Y-60975500D01*
X149481861Y-60960387D01*
X149757984Y-60900320D01*
X149916784Y-60841090D01*
X149986470Y-60836107D01*
X150047794Y-60869591D01*
X150081279Y-60930914D01*
X150083433Y-60970232D01*
X150064540Y-61150000D01*
X150084326Y-61338256D01*
X150120260Y-61448850D01*
X150138431Y-61504772D01*
X150144500Y-61543090D01*
X150144500Y-79791025D01*
X150144091Y-79801088D01*
X150139937Y-79852106D01*
X150150318Y-79928311D01*
X150150726Y-79931639D01*
X150159087Y-80008509D01*
X150164045Y-80029662D01*
X150190699Y-80102214D01*
X150191814Y-80105380D01*
X150216499Y-80178643D01*
X150225891Y-80198242D01*
X150267518Y-80263366D01*
X150269288Y-80266219D01*
X150309147Y-80332465D01*
X150322528Y-80349581D01*
X150322799Y-80349852D01*
X150322800Y-80349853D01*
X150377190Y-80404243D01*
X150379496Y-80406613D01*
X150432692Y-80462771D01*
X150450119Y-80477172D01*
X156513181Y-86540234D01*
X156546666Y-86601557D01*
X156549500Y-86627915D01*
X156549500Y-96338015D01*
X156529815Y-96405054D01*
X156477011Y-96450809D01*
X156407853Y-96460753D01*
X156393406Y-96457790D01*
X156250000Y-96419364D01*
X156250000Y-97314498D01*
X156142315Y-97265320D01*
X156035763Y-97250000D01*
X155964237Y-97250000D01*
X155857685Y-97265320D01*
X155750000Y-97314498D01*
X155750000Y-96419364D01*
X155749999Y-96419364D01*
X155536507Y-96476569D01*
X155322421Y-96576400D01*
X155128921Y-96711890D01*
X154961890Y-96878921D01*
X154826400Y-97072421D01*
X154726569Y-97286507D01*
X154669364Y-97499999D01*
X154669364Y-97500000D01*
X155566314Y-97500000D01*
X155540507Y-97540156D01*
X155500000Y-97678111D01*
X155500000Y-97821889D01*
X155540507Y-97959844D01*
X155566314Y-98000000D01*
X154669364Y-98000000D01*
X154726569Y-98213492D01*
X154826399Y-98427576D01*
X154961893Y-98621081D01*
X155128918Y-98788106D01*
X155314595Y-98918119D01*
X155358219Y-98972696D01*
X155365412Y-99042195D01*
X155333890Y-99104549D01*
X155314595Y-99121269D01*
X155128595Y-99251508D01*
X154961505Y-99418598D01*
X154826349Y-99611623D01*
X154771772Y-99655248D01*
X154724774Y-99664500D01*
X146462740Y-99664500D01*
X146442236Y-99662236D01*
X146372144Y-99664439D01*
X146368250Y-99664500D01*
X146340650Y-99664500D01*
X146336799Y-99664986D01*
X146336768Y-99664988D01*
X146336640Y-99665005D01*
X146325028Y-99665918D01*
X146281372Y-99667290D01*
X146262135Y-99672879D01*
X146243094Y-99676822D01*
X146223208Y-99679335D01*
X146182582Y-99695419D01*
X146171537Y-99699200D01*
X146129613Y-99711381D01*
X146112365Y-99721581D01*
X146094903Y-99730135D01*
X146082915Y-99734881D01*
X146076265Y-99737515D01*
X146040926Y-99763189D01*
X146031168Y-99769599D01*
X145993579Y-99791829D01*
X145979410Y-99805998D01*
X145964622Y-99818628D01*
X145948413Y-99830405D01*
X145920572Y-99864058D01*
X145912711Y-99872696D01*
X144792228Y-100993181D01*
X144730905Y-101026666D01*
X144726413Y-101027148D01*
X144530197Y-101068855D01*
X144357269Y-101145848D01*
X144204129Y-101257110D01*
X144077466Y-101397783D01*
X143982820Y-101561715D01*
X143924326Y-101741742D01*
X143917674Y-101805035D01*
X143891089Y-101869649D01*
X143833791Y-101909633D01*
X143820134Y-101913362D01*
X143700197Y-101938855D01*
X143527269Y-102015848D01*
X143374129Y-102127110D01*
X143247466Y-102267783D01*
X143152820Y-102431715D01*
X143094326Y-102611742D01*
X143074540Y-102799999D01*
X143094326Y-102988257D01*
X143152820Y-103168284D01*
X143247466Y-103332216D01*
X143374129Y-103472889D01*
X143527269Y-103584151D01*
X143700197Y-103661144D01*
X143885352Y-103700500D01*
X143885354Y-103700500D01*
X144074648Y-103700500D01*
X144198084Y-103674262D01*
X144259803Y-103661144D01*
X144432730Y-103584151D01*
X144585871Y-103472888D01*
X144590015Y-103468285D01*
X144649499Y-103431635D01*
X144682473Y-103427255D01*
X154722851Y-103452314D01*
X154789842Y-103472166D01*
X154824117Y-103505190D01*
X154825963Y-103507827D01*
X154825965Y-103507830D01*
X154961505Y-103701401D01*
X155128599Y-103868495D01*
X155314160Y-103998426D01*
X155357783Y-104053002D01*
X155364976Y-104122501D01*
X155333454Y-104184855D01*
X155314159Y-104201575D01*
X155128595Y-104331508D01*
X154961505Y-104498598D01*
X154825965Y-104692170D01*
X154726097Y-104906336D01*
X154664936Y-105134592D01*
X154644340Y-105370000D01*
X154664936Y-105605407D01*
X154703546Y-105749500D01*
X154726097Y-105833663D01*
X154825965Y-106047830D01*
X154961505Y-106241401D01*
X155128599Y-106408495D01*
X155314160Y-106538426D01*
X155357783Y-106593002D01*
X155364976Y-106662501D01*
X155333454Y-106724855D01*
X155314158Y-106741575D01*
X155259854Y-106779600D01*
X155128595Y-106871508D01*
X154961505Y-107038598D01*
X154825965Y-107232170D01*
X154726097Y-107446336D01*
X154664936Y-107674592D01*
X154644340Y-107909999D01*
X154664936Y-108145407D01*
X154697051Y-108265260D01*
X154726097Y-108373663D01*
X154825965Y-108587830D01*
X154961505Y-108781401D01*
X154961508Y-108781404D01*
X155083430Y-108903326D01*
X155116915Y-108964649D01*
X155111931Y-109034341D01*
X155070059Y-109090274D01*
X155039083Y-109107189D01*
X154907669Y-109156204D01*
X154792454Y-109242454D01*
X154706204Y-109357668D01*
X154706203Y-109357669D01*
X154706204Y-109357669D01*
X154655909Y-109492517D01*
X154649500Y-109552127D01*
X154649500Y-109555448D01*
X154649500Y-109555449D01*
X154649500Y-111344560D01*
X154649500Y-111344578D01*
X154649501Y-111347872D01*
X154649853Y-111351150D01*
X154649854Y-111351161D01*
X154657253Y-111419987D01*
X154644846Y-111488746D01*
X154621644Y-111520921D01*
X145168702Y-120973862D01*
X145131458Y-120999460D01*
X145027268Y-121045850D01*
X144874129Y-121157111D01*
X144747466Y-121297783D01*
X144652820Y-121461715D01*
X144594325Y-121641747D01*
X144593111Y-121653298D01*
X144566526Y-121717912D01*
X144509227Y-121757896D01*
X144456536Y-121763624D01*
X144426114Y-121760353D01*
X144419518Y-121760000D01*
X141450000Y-121760000D01*
X141450000Y-125680000D01*
X144875000Y-125680000D01*
X144875000Y-122737299D01*
X144894685Y-122670260D01*
X144947489Y-122624505D01*
X145016647Y-122614561D01*
X145049436Y-122624020D01*
X145200197Y-122691144D01*
X145385352Y-122730500D01*
X145385354Y-122730500D01*
X145574648Y-122730500D01*
X145698083Y-122704262D01*
X145759803Y-122691144D01*
X145932730Y-122614151D01*
X146085871Y-122502888D01*
X146212533Y-122362216D01*
X146307179Y-122198284D01*
X146311470Y-122185076D01*
X146341719Y-122135712D01*
X156556429Y-111921002D01*
X156563808Y-111914199D01*
X156580228Y-111900252D01*
X156644067Y-111871858D01*
X156713124Y-111882484D01*
X156765473Y-111928759D01*
X156784500Y-111994764D01*
X156784500Y-128540028D01*
X156764815Y-128607067D01*
X156748181Y-128627709D01*
X154062709Y-131313181D01*
X154001386Y-131346666D01*
X153975028Y-131349500D01*
X147274725Y-131349500D01*
X147248944Y-131346790D01*
X147214647Y-131339500D01*
X147214646Y-131339500D01*
X147025354Y-131339500D01*
X147025353Y-131339500D01*
X146996115Y-131345714D01*
X146988095Y-131347278D01*
X146964725Y-131349500D01*
X143824987Y-131349500D01*
X143774551Y-131338779D01*
X143729802Y-131318855D01*
X143544648Y-131279500D01*
X143544646Y-131279500D01*
X143355354Y-131279500D01*
X143355352Y-131279500D01*
X143170197Y-131318855D01*
X142997269Y-131395848D01*
X142844129Y-131507110D01*
X142717466Y-131647783D01*
X142622820Y-131811715D01*
X142564326Y-131991742D01*
X142544540Y-132180000D01*
X142564326Y-132368257D01*
X142622820Y-132548284D01*
X142717466Y-132712216D01*
X142844129Y-132852889D01*
X142997269Y-132964151D01*
X143170197Y-133041144D01*
X143355352Y-133080500D01*
X143355354Y-133080500D01*
X143544648Y-133080500D01*
X143668084Y-133054262D01*
X143729803Y-133041144D01*
X143776877Y-133020185D01*
X143797011Y-133011221D01*
X143847447Y-133000500D01*
X146594427Y-133000500D01*
X146661466Y-133020185D01*
X146667263Y-133024148D01*
X146840197Y-133101144D01*
X146964259Y-133127514D01*
X147025741Y-133160706D01*
X147059518Y-133221869D01*
X147058685Y-133279244D01*
X147014891Y-133452183D01*
X146994356Y-133700000D01*
X147014891Y-133947816D01*
X147014891Y-133947819D01*
X147014892Y-133947821D01*
X147075937Y-134188881D01*
X147082373Y-134203553D01*
X147175825Y-134416604D01*
X147175827Y-134416607D01*
X147311836Y-134624785D01*
X147480256Y-134807738D01*
X147480259Y-134807740D01*
X147676485Y-134960470D01*
X147676487Y-134960471D01*
X147676491Y-134960474D01*
X147895190Y-135078828D01*
X148130386Y-135159571D01*
X148375665Y-135200500D01*
X148624335Y-135200500D01*
X148869614Y-135159571D01*
X149104810Y-135078828D01*
X149323509Y-134960474D01*
X149519744Y-134807738D01*
X149688164Y-134624785D01*
X149824173Y-134416607D01*
X149924063Y-134188881D01*
X149985108Y-133947821D01*
X150005643Y-133700000D01*
X149985108Y-133452179D01*
X149924063Y-133211119D01*
X149907916Y-133174309D01*
X149899014Y-133105010D01*
X149928991Y-133041898D01*
X149988331Y-133005011D01*
X150021473Y-133000500D01*
X153478527Y-133000500D01*
X153545566Y-133020185D01*
X153591321Y-133072989D01*
X153601265Y-133142147D01*
X153592083Y-133174310D01*
X153575937Y-133211117D01*
X153514891Y-133452183D01*
X153494356Y-133700000D01*
X153514891Y-133947816D01*
X153514891Y-133947819D01*
X153514892Y-133947821D01*
X153575937Y-134188881D01*
X153582373Y-134203553D01*
X153675825Y-134416604D01*
X153675827Y-134416607D01*
X153811836Y-134624785D01*
X153980256Y-134807738D01*
X153980259Y-134807740D01*
X154176485Y-134960470D01*
X154176487Y-134960471D01*
X154176491Y-134960474D01*
X154395190Y-135078828D01*
X154630386Y-135159571D01*
X154875665Y-135200500D01*
X155124335Y-135200500D01*
X155369614Y-135159571D01*
X155604810Y-135078828D01*
X155823509Y-134960474D01*
X156019744Y-134807738D01*
X156188164Y-134624785D01*
X156324173Y-134416607D01*
X156424063Y-134188881D01*
X156485108Y-133947821D01*
X156505643Y-133700000D01*
X156485108Y-133452179D01*
X156424063Y-133211119D01*
X156324173Y-132983393D01*
X156188164Y-132775215D01*
X156019744Y-132592262D01*
X155823509Y-132439526D01*
X155823508Y-132439525D01*
X155611411Y-132324743D01*
X155561821Y-132275524D01*
X155546713Y-132207307D01*
X155570884Y-132141752D01*
X155582741Y-132128015D01*
X157787821Y-129922935D01*
X157849142Y-129889452D01*
X157918834Y-129894436D01*
X157974767Y-129936308D01*
X157999184Y-130001772D01*
X157999500Y-130010618D01*
X157999500Y-145995947D01*
X157999234Y-146004058D01*
X157994017Y-146083648D01*
X157981291Y-146261574D01*
X157979225Y-146276916D01*
X157956851Y-146389402D01*
X157926212Y-146530244D01*
X157922473Y-146543714D01*
X157883793Y-146657660D01*
X157882556Y-146661135D01*
X157834938Y-146788802D01*
X157829969Y-146800311D01*
X157775564Y-146910635D01*
X157773183Y-146915219D01*
X157709154Y-147032478D01*
X157703424Y-147041942D01*
X157634383Y-147145269D01*
X157630548Y-147150688D01*
X157551181Y-147256711D01*
X157545142Y-147264160D01*
X157462867Y-147357976D01*
X157457320Y-147363898D01*
X157363898Y-147457320D01*
X157357976Y-147462867D01*
X157264160Y-147545142D01*
X157256711Y-147551181D01*
X157150688Y-147630548D01*
X157145269Y-147634383D01*
X157041942Y-147703424D01*
X157032478Y-147709154D01*
X156915219Y-147773183D01*
X156910635Y-147775564D01*
X156800311Y-147829969D01*
X156788802Y-147834938D01*
X156661135Y-147882556D01*
X156657660Y-147883793D01*
X156543722Y-147922470D01*
X156530221Y-147926217D01*
X156389419Y-147956847D01*
X156342048Y-147966270D01*
X156276896Y-147979229D01*
X156261584Y-147981290D01*
X156083649Y-147994017D01*
X156060221Y-147995552D01*
X156004030Y-147999235D01*
X155995948Y-147999500D01*
X132004053Y-147999500D01*
X131995943Y-147999234D01*
X131916352Y-147994017D01*
X131738424Y-147981291D01*
X131723082Y-147979225D01*
X131665195Y-147967710D01*
X131610600Y-147956851D01*
X131469746Y-147926210D01*
X131456284Y-147922473D01*
X131456275Y-147922470D01*
X131385362Y-147898398D01*
X131342338Y-147883793D01*
X131338863Y-147882556D01*
X131211196Y-147834938D01*
X131199687Y-147829969D01*
X131134947Y-147798043D01*
X131089348Y-147775556D01*
X131084779Y-147773183D01*
X130967520Y-147709154D01*
X130958056Y-147703424D01*
X130854729Y-147634383D01*
X130849310Y-147630548D01*
X130793396Y-147588691D01*
X130743278Y-147551173D01*
X130735848Y-147545150D01*
X130642022Y-147462867D01*
X130636100Y-147457320D01*
X130542678Y-147363898D01*
X130537131Y-147357976D01*
X130505450Y-147321851D01*
X130454844Y-147264145D01*
X130448830Y-147256727D01*
X130369450Y-147150688D01*
X130365615Y-147145269D01*
X130296574Y-147041942D01*
X130290844Y-147032478D01*
X130226798Y-146915187D01*
X130224461Y-146910687D01*
X130170024Y-146800300D01*
X130165060Y-146788802D01*
X130117420Y-146661074D01*
X130116228Y-146657725D01*
X130077522Y-146543703D01*
X130073786Y-146530240D01*
X130043157Y-146389441D01*
X130020767Y-146276879D01*
X130018709Y-146261593D01*
X130005988Y-146083743D01*
X130000765Y-146004041D01*
X130000633Y-146000000D01*
X130644340Y-146000000D01*
X130664936Y-146235407D01*
X130698321Y-146360000D01*
X130726097Y-146463663D01*
X130825965Y-146677829D01*
X130961505Y-146871401D01*
X131128599Y-147038495D01*
X131322171Y-147174035D01*
X131536337Y-147273903D01*
X131764592Y-147335063D01*
X131941034Y-147350500D01*
X131943742Y-147350500D01*
X132056258Y-147350500D01*
X132058966Y-147350500D01*
X132235408Y-147335063D01*
X132463663Y-147273903D01*
X132677829Y-147174035D01*
X132871401Y-147038495D01*
X133038495Y-146871401D01*
X133174035Y-146677830D01*
X133231296Y-146555033D01*
X138725000Y-146555033D01*
X138725317Y-146561298D01*
X138739648Y-146702222D01*
X138797488Y-146886569D01*
X138891253Y-147055503D01*
X139017105Y-147202104D01*
X139169892Y-147320370D01*
X139343358Y-147405458D01*
X139425000Y-147426595D01*
X139425000Y-146676110D01*
X139449457Y-146715610D01*
X139538962Y-146783201D01*
X139646840Y-146813895D01*
X139758521Y-146803546D01*
X139858922Y-146753552D01*
X139925000Y-146681069D01*
X139925000Y-147430470D01*
X140095527Y-147367314D01*
X140259501Y-147265109D01*
X140399535Y-147131996D01*
X140509912Y-146973414D01*
X140586106Y-146795862D01*
X140625000Y-146606604D01*
X140625000Y-146555033D01*
X147375000Y-146555033D01*
X147375317Y-146561298D01*
X147389648Y-146702222D01*
X147447488Y-146886569D01*
X147541253Y-147055503D01*
X147667105Y-147202104D01*
X147819892Y-147320370D01*
X147993358Y-147405458D01*
X148075000Y-147426595D01*
X148075000Y-146676110D01*
X148099457Y-146715610D01*
X148188962Y-146783201D01*
X148296840Y-146813895D01*
X148408521Y-146803546D01*
X148508922Y-146753552D01*
X148575000Y-146681069D01*
X148575000Y-147430470D01*
X148745527Y-147367314D01*
X148909501Y-147265109D01*
X149049535Y-147131996D01*
X149159912Y-146973414D01*
X149236106Y-146795862D01*
X149275000Y-146606604D01*
X149275000Y-146360000D01*
X148625000Y-146360000D01*
X148625000Y-145999999D01*
X154644340Y-145999999D01*
X154664936Y-146235407D01*
X154698321Y-146360000D01*
X154726097Y-146463663D01*
X154825965Y-146677829D01*
X154961505Y-146871401D01*
X155128599Y-147038495D01*
X155322171Y-147174035D01*
X155536337Y-147273903D01*
X155764592Y-147335063D01*
X155941034Y-147350500D01*
X155943742Y-147350500D01*
X156056258Y-147350500D01*
X156058966Y-147350500D01*
X156235408Y-147335063D01*
X156463663Y-147273903D01*
X156677829Y-147174035D01*
X156871401Y-147038495D01*
X157038495Y-146871401D01*
X157174035Y-146677830D01*
X157273903Y-146463663D01*
X157335063Y-146235408D01*
X157355659Y-146000000D01*
X157355303Y-145995936D01*
X157335063Y-145764592D01*
X157312986Y-145682198D01*
X157273903Y-145536337D01*
X157174035Y-145322171D01*
X157038495Y-145128599D01*
X156871401Y-144961505D01*
X156677829Y-144825965D01*
X156463663Y-144726097D01*
X156235407Y-144664936D01*
X156061667Y-144649736D01*
X156061659Y-144649735D01*
X156058966Y-144649500D01*
X155941034Y-144649500D01*
X155938341Y-144649735D01*
X155938332Y-144649736D01*
X155764592Y-144664936D01*
X155536336Y-144726097D01*
X155322170Y-144825965D01*
X155128598Y-144961505D01*
X154961508Y-145128595D01*
X154961505Y-145128598D01*
X154961505Y-145128599D01*
X154878891Y-145246585D01*
X154825964Y-145322172D01*
X154726097Y-145536337D01*
X154664936Y-145764592D01*
X154644340Y-145999999D01*
X148625000Y-145999999D01*
X148625000Y-145860000D01*
X149275000Y-145860000D01*
X149275000Y-145664966D01*
X149274682Y-145658701D01*
X149260351Y-145517777D01*
X149202511Y-145333430D01*
X149108746Y-145164496D01*
X148982894Y-145017895D01*
X148830109Y-144899631D01*
X148656641Y-144814541D01*
X148575000Y-144793403D01*
X148575000Y-145543889D01*
X148550543Y-145504390D01*
X148461038Y-145436799D01*
X148353160Y-145406105D01*
X148241479Y-145416454D01*
X148141078Y-145466448D01*
X148075000Y-145538930D01*
X148075000Y-144789528D01*
X148074999Y-144789528D01*
X147904469Y-144852685D01*
X147740498Y-144954890D01*
X147600464Y-145088003D01*
X147490087Y-145246585D01*
X147413893Y-145424137D01*
X147375000Y-145613395D01*
X147375000Y-145860000D01*
X148025000Y-145860000D01*
X148025000Y-146360000D01*
X147375000Y-146360000D01*
X147375000Y-146555033D01*
X140625000Y-146555033D01*
X140625000Y-146360000D01*
X139975000Y-146360000D01*
X139975000Y-145860000D01*
X140625000Y-145860000D01*
X140625000Y-145664966D01*
X140624682Y-145658701D01*
X140610351Y-145517777D01*
X140552511Y-145333430D01*
X140458746Y-145164496D01*
X140332894Y-145017895D01*
X140180109Y-144899631D01*
X140006641Y-144814541D01*
X139925000Y-144793403D01*
X139925000Y-145543889D01*
X139900543Y-145504390D01*
X139811038Y-145436799D01*
X139703160Y-145406105D01*
X139591479Y-145416454D01*
X139491078Y-145466448D01*
X139425000Y-145538930D01*
X139425000Y-144789528D01*
X139424999Y-144789528D01*
X139254469Y-144852685D01*
X139090498Y-144954890D01*
X138950464Y-145088003D01*
X138840087Y-145246585D01*
X138763893Y-145424137D01*
X138725000Y-145613395D01*
X138725000Y-145860000D01*
X139375000Y-145860000D01*
X139375000Y-146360000D01*
X138725000Y-146360000D01*
X138725000Y-146555033D01*
X133231296Y-146555033D01*
X133273903Y-146463663D01*
X133335063Y-146235408D01*
X133355659Y-146000000D01*
X133335063Y-145764592D01*
X133273903Y-145536337D01*
X133174035Y-145322171D01*
X133038495Y-145128599D01*
X132871401Y-144961505D01*
X132677829Y-144825965D01*
X132463663Y-144726097D01*
X132235407Y-144664936D01*
X132061667Y-144649736D01*
X132061659Y-144649735D01*
X132058966Y-144649500D01*
X131941034Y-144649500D01*
X131938341Y-144649735D01*
X131938332Y-144649736D01*
X131764592Y-144664936D01*
X131536336Y-144726097D01*
X131322170Y-144825965D01*
X131128598Y-144961505D01*
X130961508Y-145128595D01*
X130961505Y-145128598D01*
X130961505Y-145128599D01*
X130878891Y-145246585D01*
X130825964Y-145322172D01*
X130726097Y-145536337D01*
X130664936Y-145764592D01*
X130644340Y-146000000D01*
X130000633Y-146000000D01*
X130000500Y-145995936D01*
X130000500Y-143525033D01*
X138725000Y-143525033D01*
X138725317Y-143531298D01*
X138739648Y-143672222D01*
X138797488Y-143856569D01*
X138891253Y-144025503D01*
X139017105Y-144172104D01*
X139169892Y-144290370D01*
X139343358Y-144375458D01*
X139425000Y-144396595D01*
X139425000Y-143646110D01*
X139449457Y-143685610D01*
X139538962Y-143753201D01*
X139646840Y-143783895D01*
X139758521Y-143773546D01*
X139858922Y-143723552D01*
X139925000Y-143651069D01*
X139925000Y-144400470D01*
X140095527Y-144337314D01*
X140259501Y-144235109D01*
X140399535Y-144101996D01*
X140509912Y-143943414D01*
X140511619Y-143939438D01*
X140556146Y-143885594D01*
X140622714Y-143864371D01*
X140676006Y-143875059D01*
X140760889Y-143912851D01*
X140935659Y-143950000D01*
X141114339Y-143950000D01*
X141243867Y-143922467D01*
X141313534Y-143927782D01*
X141369268Y-143969919D01*
X141376380Y-143980634D01*
X141376828Y-143981391D01*
X141376830Y-143981394D01*
X141390995Y-143995559D01*
X141403627Y-144010349D01*
X141415405Y-144026560D01*
X141449051Y-144054394D01*
X141457693Y-144062257D01*
X141554226Y-144158791D01*
X141567122Y-144174888D01*
X141569239Y-144176876D01*
X141569240Y-144176877D01*
X141590069Y-144196437D01*
X141618251Y-144222902D01*
X141621047Y-144225612D01*
X141640555Y-144245120D01*
X141643735Y-144247587D01*
X141652597Y-144255155D01*
X141684444Y-144285062D01*
X141701996Y-144294711D01*
X141718264Y-144305397D01*
X141734090Y-144317673D01*
X141774172Y-144335017D01*
X141784659Y-144340155D01*
X141822933Y-144361197D01*
X141831436Y-144363379D01*
X141842334Y-144366178D01*
X141860739Y-144372478D01*
X141879130Y-144380437D01*
X141922276Y-144387270D01*
X141933694Y-144389635D01*
X141976007Y-144400500D01*
X141996042Y-144400500D01*
X142015441Y-144402027D01*
X142035222Y-144405160D01*
X142078700Y-144401050D01*
X142090370Y-144400500D01*
X145471851Y-144400500D01*
X145492357Y-144402764D01*
X145495260Y-144402672D01*
X145495262Y-144402673D01*
X145562467Y-144400561D01*
X145566363Y-144400500D01*
X145590043Y-144400500D01*
X145593945Y-144400500D01*
X145597908Y-144399999D01*
X145609557Y-144399080D01*
X145653222Y-144397709D01*
X145672454Y-144392120D01*
X145691513Y-144388174D01*
X145698694Y-144387267D01*
X145711387Y-144385664D01*
X145752002Y-144369582D01*
X145763039Y-144365803D01*
X145804985Y-144353618D01*
X145822224Y-144343422D01*
X145839697Y-144334862D01*
X145858327Y-144327486D01*
X145893659Y-144301814D01*
X145903425Y-144295400D01*
X145905217Y-144294340D01*
X145941015Y-144273170D01*
X145955180Y-144259004D01*
X145969968Y-144246373D01*
X145986182Y-144234594D01*
X146014033Y-144200926D01*
X146021874Y-144192309D01*
X146251019Y-143963164D01*
X146312340Y-143929681D01*
X146312743Y-143929593D01*
X146389267Y-143913329D01*
X146500179Y-143863947D01*
X146569428Y-143854663D01*
X146601049Y-143863947D01*
X146710891Y-143912852D01*
X146885659Y-143950000D01*
X147064341Y-143950000D01*
X147239108Y-143912852D01*
X147327500Y-143873496D01*
X147396750Y-143864210D01*
X147460027Y-143893838D01*
X147486356Y-143926597D01*
X147541254Y-144025505D01*
X147667105Y-144172104D01*
X147819892Y-144290370D01*
X147993358Y-144375458D01*
X148075000Y-144396595D01*
X148075000Y-143646110D01*
X148099457Y-143685610D01*
X148188962Y-143753201D01*
X148296840Y-143783895D01*
X148408521Y-143773546D01*
X148508922Y-143723552D01*
X148575000Y-143651069D01*
X148575000Y-144400470D01*
X148745527Y-144337314D01*
X148909501Y-144235109D01*
X149049535Y-144101996D01*
X149159912Y-143943414D01*
X149236106Y-143765862D01*
X149275000Y-143576604D01*
X149275000Y-142980000D01*
X148625000Y-142980000D01*
X148625000Y-142480000D01*
X149275000Y-142480000D01*
X149275000Y-141934966D01*
X149274682Y-141928701D01*
X149260351Y-141787777D01*
X149202511Y-141603430D01*
X149108746Y-141434496D01*
X148982894Y-141287895D01*
X148830109Y-141169631D01*
X148656641Y-141084541D01*
X148575000Y-141063403D01*
X148575000Y-141813889D01*
X148550543Y-141774390D01*
X148461038Y-141706799D01*
X148353160Y-141676105D01*
X148241479Y-141686454D01*
X148141078Y-141736448D01*
X148075000Y-141808930D01*
X148075000Y-141059528D01*
X148074999Y-141059528D01*
X147904470Y-141122685D01*
X147740500Y-141224889D01*
X147724113Y-141240464D01*
X147723797Y-141265401D01*
X147726905Y-141271093D01*
X147721921Y-141340785D01*
X147693420Y-141385132D01*
X147186873Y-141891679D01*
X147125550Y-141925164D01*
X147080192Y-141921920D01*
X147135387Y-141877905D01*
X147175000Y-141795649D01*
X147175000Y-141704351D01*
X147135387Y-141622095D01*
X147064008Y-141565173D01*
X146997532Y-141550000D01*
X146954285Y-141550000D01*
X146945187Y-141522003D01*
X146943193Y-141452164D01*
X146975438Y-141396006D01*
X147374166Y-140997279D01*
X147374165Y-140997278D01*
X147239108Y-140937148D01*
X147222550Y-140933628D01*
X147161069Y-140900434D01*
X147127295Y-140839269D01*
X147125014Y-140799385D01*
X147135460Y-140700000D01*
X147115674Y-140511744D01*
X147065803Y-140358257D01*
X147057179Y-140331715D01*
X146962533Y-140167783D01*
X146835870Y-140027110D01*
X146682730Y-139915848D01*
X146509802Y-139838855D01*
X146324648Y-139799500D01*
X146324646Y-139799500D01*
X146135354Y-139799500D01*
X146135352Y-139799500D01*
X145950197Y-139838855D01*
X145777269Y-139915848D01*
X145624128Y-140027111D01*
X145589698Y-140065350D01*
X145530211Y-140101998D01*
X145498719Y-140106371D01*
X144155280Y-140119045D01*
X144137927Y-140117990D01*
X144110027Y-140114317D01*
X144069879Y-140119603D01*
X144067227Y-140119876D01*
X144065002Y-140119898D01*
X144060993Y-140120464D01*
X144060982Y-140120465D01*
X144028844Y-140125005D01*
X143950407Y-140135331D01*
X143877601Y-140166296D01*
X143804520Y-140196567D01*
X143742179Y-140245344D01*
X143716457Y-140265081D01*
X143716446Y-140265090D01*
X143713241Y-140267550D01*
X143711668Y-140269121D01*
X143709621Y-140270818D01*
X143677721Y-140295777D01*
X143660797Y-140318269D01*
X143649397Y-140331392D01*
X143340628Y-140640161D01*
X143279305Y-140673646D01*
X143209613Y-140668662D01*
X143153680Y-140626790D01*
X143129263Y-140561326D01*
X143135015Y-140514166D01*
X143185674Y-140358256D01*
X143205460Y-140170000D01*
X143185674Y-139981744D01*
X143139246Y-139838855D01*
X143127179Y-139801715D01*
X143032533Y-139637783D01*
X142905870Y-139497110D01*
X142752730Y-139385848D01*
X142579802Y-139308855D01*
X142394648Y-139269500D01*
X142394646Y-139269500D01*
X142205354Y-139269500D01*
X142205352Y-139269500D01*
X142020197Y-139308855D01*
X141847269Y-139385848D01*
X141694129Y-139497110D01*
X141567466Y-139637783D01*
X141472820Y-139801715D01*
X141414326Y-139981742D01*
X141394540Y-140170000D01*
X141414326Y-140358257D01*
X141463814Y-140510565D01*
X141465809Y-140580406D01*
X141433564Y-140636564D01*
X141237019Y-140833109D01*
X141237010Y-140833118D01*
X141234633Y-140835496D01*
X141232524Y-140838118D01*
X141232521Y-140838123D01*
X141220012Y-140853686D01*
X141162669Y-140893606D01*
X141123364Y-140900000D01*
X140935659Y-140900000D01*
X140760891Y-140937147D01*
X140625832Y-140997279D01*
X140986265Y-141357712D01*
X141019750Y-141419035D01*
X141022539Y-141448749D01*
X141022370Y-141454958D01*
X141037291Y-141532715D01*
X141038025Y-141550000D01*
X141002468Y-141550000D01*
X140935992Y-141565173D01*
X140864613Y-141622095D01*
X140825000Y-141704351D01*
X140825000Y-141795649D01*
X140864613Y-141877905D01*
X140919801Y-141921915D01*
X140896085Y-141927908D01*
X140829844Y-141905685D01*
X140813126Y-141891679D01*
X140306578Y-141385132D01*
X140273093Y-141323809D01*
X140276325Y-141278613D01*
X140274023Y-141242325D01*
X140180109Y-141169631D01*
X140006641Y-141084541D01*
X139925000Y-141063403D01*
X139925000Y-141813889D01*
X139900543Y-141774390D01*
X139811038Y-141706799D01*
X139703160Y-141676105D01*
X139591479Y-141686454D01*
X139491078Y-141736448D01*
X139425000Y-141808930D01*
X139425000Y-141059528D01*
X139424999Y-141059528D01*
X139254469Y-141122685D01*
X139090498Y-141224890D01*
X138950464Y-141358003D01*
X138840087Y-141516585D01*
X138763893Y-141694137D01*
X138725000Y-141883395D01*
X138725000Y-142480000D01*
X139375000Y-142480000D01*
X139375000Y-142980000D01*
X138725000Y-142980000D01*
X138725000Y-143525033D01*
X130000500Y-143525033D01*
X130000500Y-138349999D01*
X131444356Y-138349999D01*
X131464891Y-138597816D01*
X131464891Y-138597819D01*
X131464892Y-138597821D01*
X131525937Y-138838881D01*
X131559927Y-138916370D01*
X131625825Y-139066604D01*
X131625827Y-139066607D01*
X131761836Y-139274785D01*
X131930256Y-139457738D01*
X131933233Y-139460055D01*
X132126485Y-139610470D01*
X132126487Y-139610471D01*
X132126491Y-139610474D01*
X132345190Y-139728828D01*
X132580386Y-139809571D01*
X132825665Y-139850500D01*
X133074335Y-139850500D01*
X133319614Y-139809571D01*
X133554810Y-139728828D01*
X133773509Y-139610474D01*
X133969744Y-139457738D01*
X134138164Y-139274785D01*
X134274173Y-139066607D01*
X134374063Y-138838881D01*
X134435108Y-138597821D01*
X134455643Y-138350000D01*
X134455643Y-138349999D01*
X137944356Y-138349999D01*
X137964891Y-138597816D01*
X137964891Y-138597819D01*
X137964892Y-138597821D01*
X138025937Y-138838881D01*
X138059927Y-138916370D01*
X138125825Y-139066604D01*
X138125827Y-139066607D01*
X138261836Y-139274785D01*
X138430256Y-139457738D01*
X138433233Y-139460055D01*
X138626485Y-139610470D01*
X138626487Y-139610471D01*
X138626491Y-139610474D01*
X138845190Y-139728828D01*
X139080386Y-139809571D01*
X139325665Y-139850500D01*
X139574335Y-139850500D01*
X139819614Y-139809571D01*
X140054810Y-139728828D01*
X140273509Y-139610474D01*
X140469744Y-139457738D01*
X140638164Y-139274785D01*
X140774173Y-139066607D01*
X140874063Y-138838881D01*
X140935108Y-138597821D01*
X140955643Y-138350000D01*
X140943214Y-138199999D01*
X146994858Y-138199999D01*
X147015386Y-138447732D01*
X147076413Y-138688721D01*
X147176268Y-138916370D01*
X147276563Y-139069882D01*
X147276564Y-139069882D01*
X147974070Y-138372376D01*
X147976884Y-138385915D01*
X148046442Y-138520156D01*
X148149638Y-138630652D01*
X148278819Y-138709209D01*
X148330002Y-138723549D01*
X147629942Y-139423609D01*
X147629942Y-139423610D01*
X147676766Y-139460055D01*
X147895393Y-139578368D01*
X148130506Y-139659083D01*
X148375707Y-139700000D01*
X148624293Y-139700000D01*
X148869493Y-139659083D01*
X149104606Y-139578368D01*
X149323233Y-139460053D01*
X149370056Y-139423609D01*
X148671568Y-138725121D01*
X148788458Y-138674349D01*
X148905739Y-138578934D01*
X148992928Y-138455415D01*
X149023354Y-138369802D01*
X149723434Y-139069882D01*
X149823730Y-138916369D01*
X149923586Y-138688721D01*
X149984613Y-138447732D01*
X150005141Y-138200000D01*
X153494858Y-138200000D01*
X153515386Y-138447732D01*
X153576413Y-138688721D01*
X153676268Y-138916370D01*
X153776563Y-139069882D01*
X153776564Y-139069882D01*
X154474070Y-138372376D01*
X154476884Y-138385915D01*
X154546442Y-138520156D01*
X154649638Y-138630652D01*
X154778819Y-138709209D01*
X154830002Y-138723549D01*
X154129942Y-139423609D01*
X154129942Y-139423610D01*
X154176766Y-139460055D01*
X154395393Y-139578368D01*
X154630506Y-139659083D01*
X154875707Y-139700000D01*
X155124293Y-139700000D01*
X155369493Y-139659083D01*
X155604606Y-139578368D01*
X155823233Y-139460053D01*
X155870056Y-139423609D01*
X155171568Y-138725121D01*
X155288458Y-138674349D01*
X155405739Y-138578934D01*
X155492928Y-138455415D01*
X155523354Y-138369802D01*
X156223434Y-139069882D01*
X156323730Y-138916369D01*
X156423586Y-138688721D01*
X156484613Y-138447732D01*
X156505141Y-138199999D01*
X156484613Y-137952267D01*
X156423586Y-137711278D01*
X156323730Y-137483630D01*
X156223434Y-137330116D01*
X155525929Y-138027622D01*
X155523116Y-138014085D01*
X155453558Y-137879844D01*
X155350362Y-137769348D01*
X155221181Y-137690791D01*
X155169997Y-137676450D01*
X155870057Y-136976390D01*
X155870056Y-136976388D01*
X155823235Y-136939947D01*
X155604606Y-136821631D01*
X155369493Y-136740916D01*
X155124293Y-136700000D01*
X154875707Y-136700000D01*
X154630506Y-136740916D01*
X154395393Y-136821631D01*
X154176764Y-136939946D01*
X154129942Y-136976388D01*
X154129942Y-136976390D01*
X154828431Y-137674878D01*
X154711542Y-137725651D01*
X154594261Y-137821066D01*
X154507072Y-137944585D01*
X154476645Y-138030197D01*
X153776564Y-137330116D01*
X153676266Y-137483634D01*
X153576413Y-137711278D01*
X153515386Y-137952267D01*
X153494858Y-138200000D01*
X150005141Y-138200000D01*
X150005141Y-138199999D01*
X149984613Y-137952267D01*
X149923586Y-137711278D01*
X149823730Y-137483630D01*
X149723434Y-137330116D01*
X149025929Y-138027622D01*
X149023116Y-138014085D01*
X148953558Y-137879844D01*
X148850362Y-137769348D01*
X148721181Y-137690791D01*
X148669997Y-137676450D01*
X149370057Y-136976390D01*
X149370056Y-136976388D01*
X149323235Y-136939947D01*
X149104606Y-136821631D01*
X148869493Y-136740916D01*
X148624293Y-136700000D01*
X148375707Y-136700000D01*
X148130506Y-136740916D01*
X147895393Y-136821631D01*
X147676764Y-136939946D01*
X147629942Y-136976388D01*
X147629942Y-136976390D01*
X148328431Y-137674878D01*
X148211542Y-137725651D01*
X148094261Y-137821066D01*
X148007072Y-137944585D01*
X147976645Y-138030197D01*
X147276564Y-137330116D01*
X147176266Y-137483634D01*
X147076413Y-137711278D01*
X147015386Y-137952267D01*
X146994858Y-138199999D01*
X140943214Y-138199999D01*
X140935108Y-138102179D01*
X140874063Y-137861119D01*
X140774173Y-137633393D01*
X140638164Y-137425215D01*
X140469744Y-137242262D01*
X140447612Y-137225036D01*
X140273514Y-137089529D01*
X140273510Y-137089526D01*
X140273509Y-137089526D01*
X140054810Y-136971172D01*
X140054806Y-136971170D01*
X140054805Y-136971170D01*
X139819615Y-136890429D01*
X139574335Y-136849500D01*
X139325665Y-136849500D01*
X139080384Y-136890429D01*
X138845194Y-136971170D01*
X138626485Y-137089529D01*
X138430259Y-137242259D01*
X138261837Y-137425214D01*
X138125825Y-137633395D01*
X138043506Y-137821066D01*
X138025937Y-137861119D01*
X138002855Y-137952267D01*
X137964891Y-138102183D01*
X137944356Y-138349999D01*
X134455643Y-138349999D01*
X134435108Y-138102179D01*
X134374063Y-137861119D01*
X134274173Y-137633393D01*
X134138164Y-137425215D01*
X133969744Y-137242262D01*
X133947612Y-137225036D01*
X133773514Y-137089529D01*
X133773510Y-137089526D01*
X133773509Y-137089526D01*
X133554810Y-136971172D01*
X133554806Y-136971170D01*
X133554805Y-136971170D01*
X133319615Y-136890429D01*
X133074335Y-136849500D01*
X132825665Y-136849500D01*
X132580384Y-136890429D01*
X132345194Y-136971170D01*
X132126485Y-137089529D01*
X131930259Y-137242259D01*
X131761837Y-137425214D01*
X131625825Y-137633395D01*
X131543506Y-137821066D01*
X131525937Y-137861119D01*
X131502855Y-137952267D01*
X131464891Y-138102183D01*
X131444356Y-138349999D01*
X130000500Y-138349999D01*
X130000500Y-133849999D01*
X131444858Y-133849999D01*
X131465386Y-134097732D01*
X131526413Y-134338721D01*
X131626268Y-134566370D01*
X131726563Y-134719882D01*
X131726564Y-134719882D01*
X132424070Y-134022375D01*
X132426884Y-134035915D01*
X132496442Y-134170156D01*
X132599638Y-134280652D01*
X132728819Y-134359209D01*
X132780002Y-134373549D01*
X132079942Y-135073609D01*
X132079942Y-135073610D01*
X132126766Y-135110055D01*
X132345393Y-135228368D01*
X132580506Y-135309083D01*
X132825707Y-135350000D01*
X133074293Y-135350000D01*
X133319493Y-135309083D01*
X133554606Y-135228368D01*
X133773233Y-135110053D01*
X133820056Y-135073609D01*
X133121568Y-134375121D01*
X133238458Y-134324349D01*
X133355739Y-134228934D01*
X133442928Y-134105415D01*
X133473354Y-134019802D01*
X134173434Y-134719882D01*
X134273730Y-134566369D01*
X134373586Y-134338721D01*
X134434613Y-134097732D01*
X134455141Y-133850000D01*
X137944858Y-133850000D01*
X137965386Y-134097732D01*
X138026413Y-134338721D01*
X138126268Y-134566370D01*
X138226563Y-134719882D01*
X138226564Y-134719882D01*
X138924070Y-134022376D01*
X138926884Y-134035915D01*
X138996442Y-134170156D01*
X139099638Y-134280652D01*
X139228819Y-134359209D01*
X139280002Y-134373549D01*
X138579942Y-135073609D01*
X138579942Y-135073610D01*
X138626766Y-135110055D01*
X138845393Y-135228368D01*
X139080506Y-135309083D01*
X139325707Y-135350000D01*
X139574293Y-135350000D01*
X139819493Y-135309083D01*
X140054606Y-135228368D01*
X140273233Y-135110053D01*
X140320056Y-135073609D01*
X139621568Y-134375121D01*
X139738458Y-134324349D01*
X139855739Y-134228934D01*
X139942928Y-134105415D01*
X139973354Y-134019802D01*
X140673434Y-134719882D01*
X140773730Y-134566369D01*
X140873586Y-134338721D01*
X140934613Y-134097732D01*
X140955141Y-133849999D01*
X140934613Y-133602267D01*
X140873586Y-133361278D01*
X140773730Y-133133630D01*
X140673434Y-132980116D01*
X139975929Y-133677622D01*
X139973116Y-133664085D01*
X139903558Y-133529844D01*
X139800362Y-133419348D01*
X139671181Y-133340791D01*
X139619995Y-133326449D01*
X140320056Y-132626389D01*
X140320056Y-132626387D01*
X140273235Y-132589947D01*
X140054606Y-132471631D01*
X139819493Y-132390916D01*
X139574293Y-132350000D01*
X139325707Y-132350000D01*
X139080506Y-132390916D01*
X138845393Y-132471631D01*
X138626764Y-132589946D01*
X138579942Y-132626388D01*
X138579941Y-132626389D01*
X139278431Y-133324878D01*
X139161542Y-133375651D01*
X139044261Y-133471066D01*
X138957072Y-133594585D01*
X138926645Y-133680197D01*
X138226564Y-132980116D01*
X138126266Y-133133634D01*
X138026413Y-133361278D01*
X137965386Y-133602267D01*
X137944858Y-133850000D01*
X134455141Y-133850000D01*
X134434613Y-133602267D01*
X134373586Y-133361278D01*
X134273730Y-133133630D01*
X134173434Y-132980116D01*
X133475929Y-133677622D01*
X133473116Y-133664085D01*
X133403558Y-133529844D01*
X133300362Y-133419348D01*
X133171181Y-133340791D01*
X133119997Y-133326450D01*
X133820057Y-132626390D01*
X133820056Y-132626388D01*
X133773235Y-132589947D01*
X133554606Y-132471631D01*
X133319493Y-132390916D01*
X133074293Y-132350000D01*
X132825707Y-132350000D01*
X132580506Y-132390916D01*
X132345393Y-132471631D01*
X132126764Y-132589946D01*
X132079942Y-132626388D01*
X132079942Y-132626390D01*
X132778431Y-133324878D01*
X132661542Y-133375651D01*
X132544261Y-133471066D01*
X132457072Y-133594585D01*
X132426645Y-133680197D01*
X131726564Y-132980116D01*
X131626266Y-133133634D01*
X131526413Y-133361278D01*
X131465386Y-133602267D01*
X131444858Y-133849999D01*
X130000500Y-133849999D01*
X130000500Y-126180000D01*
X137525000Y-126180000D01*
X137525000Y-129644518D01*
X137525354Y-129651132D01*
X137531400Y-129707371D01*
X137581647Y-129842089D01*
X137667811Y-129957188D01*
X137782910Y-130043352D01*
X137917628Y-130093599D01*
X137973867Y-130099645D01*
X137980482Y-130100000D01*
X140950000Y-130100000D01*
X140950000Y-126180000D01*
X141450000Y-126180000D01*
X141450000Y-130100000D01*
X144419518Y-130100000D01*
X144426132Y-130099645D01*
X144482371Y-130093599D01*
X144617089Y-130043352D01*
X144732188Y-129957188D01*
X144818352Y-129842089D01*
X144868599Y-129707371D01*
X144874645Y-129651132D01*
X144875000Y-129644518D01*
X144875000Y-126180000D01*
X141450000Y-126180000D01*
X140950000Y-126180000D01*
X137525000Y-126180000D01*
X130000500Y-126180000D01*
X130000500Y-125680000D01*
X137525000Y-125680000D01*
X140950000Y-125680000D01*
X140950000Y-121760000D01*
X137980482Y-121760000D01*
X137973867Y-121760354D01*
X137917628Y-121766400D01*
X137782910Y-121816647D01*
X137667811Y-121902811D01*
X137581647Y-122017910D01*
X137531400Y-122152628D01*
X137525354Y-122208867D01*
X137525000Y-122215481D01*
X137525000Y-125680000D01*
X130000500Y-125680000D01*
X130000500Y-114199999D01*
X131219453Y-114199999D01*
X131239613Y-114481861D01*
X131299678Y-114757979D01*
X131299680Y-114757984D01*
X131398432Y-115022749D01*
X131482999Y-115177621D01*
X131533859Y-115270765D01*
X131703203Y-115496982D01*
X131903017Y-115696796D01*
X132129234Y-115866140D01*
X132129236Y-115866141D01*
X132377251Y-116001568D01*
X132642016Y-116100320D01*
X132642019Y-116100320D01*
X132642020Y-116100321D01*
X132681320Y-116108870D01*
X132918139Y-116160387D01*
X133129447Y-116175500D01*
X133131662Y-116175500D01*
X133268338Y-116175500D01*
X133270553Y-116175500D01*
X133481861Y-116160387D01*
X133757984Y-116100320D01*
X134022749Y-116001568D01*
X134270764Y-115866141D01*
X134496982Y-115696797D01*
X134696797Y-115496982D01*
X134866141Y-115270764D01*
X135001568Y-115022749D01*
X135100320Y-114757984D01*
X135160387Y-114481861D01*
X135180546Y-114200000D01*
X135160387Y-113918139D01*
X135100320Y-113642016D01*
X135001568Y-113377251D01*
X134866141Y-113129236D01*
X134831446Y-113082889D01*
X134696796Y-112903017D01*
X134496982Y-112703203D01*
X134270765Y-112533859D01*
X134177621Y-112482999D01*
X134043932Y-112409999D01*
X143424540Y-112409999D01*
X143444326Y-112598257D01*
X143502820Y-112778284D01*
X143597466Y-112942216D01*
X143724129Y-113082889D01*
X143877269Y-113194151D01*
X144050197Y-113271144D01*
X144235352Y-113310500D01*
X144235354Y-113310500D01*
X144424648Y-113310500D01*
X144548083Y-113284262D01*
X144609803Y-113271144D01*
X144782730Y-113194151D01*
X144935871Y-113082888D01*
X145062533Y-112942216D01*
X145157179Y-112778284D01*
X145161470Y-112765076D01*
X145191719Y-112715712D01*
X149386435Y-108520997D01*
X149393815Y-108514193D01*
X149432843Y-108481044D01*
X149479409Y-108419785D01*
X149481414Y-108417219D01*
X149529653Y-108357209D01*
X149529653Y-108357207D01*
X149529896Y-108356906D01*
X149541344Y-108338450D01*
X149541505Y-108338101D01*
X149541507Y-108338099D01*
X149573831Y-108268230D01*
X149575255Y-108265260D01*
X149609432Y-108196350D01*
X149609432Y-108196347D01*
X149609604Y-108196002D01*
X149616816Y-108175522D01*
X149616901Y-108175138D01*
X149633454Y-108099931D01*
X149634183Y-108096820D01*
X149652766Y-108022100D01*
X149652766Y-108022093D01*
X149652860Y-108021716D01*
X149655500Y-108000169D01*
X149655500Y-107953294D01*
X149675185Y-107886255D01*
X149691815Y-107865617D01*
X150051297Y-107506134D01*
X150088538Y-107480539D01*
X150192730Y-107434151D01*
X150345871Y-107322888D01*
X150472533Y-107182216D01*
X150567179Y-107018284D01*
X150625674Y-106838256D01*
X150645460Y-106650000D01*
X150625674Y-106461744D01*
X150587509Y-106344284D01*
X150567179Y-106281715D01*
X150472533Y-106117783D01*
X150345870Y-105977110D01*
X150192730Y-105865848D01*
X150019802Y-105788855D01*
X149834648Y-105749500D01*
X149834646Y-105749500D01*
X149645354Y-105749500D01*
X149645352Y-105749500D01*
X149460197Y-105788855D01*
X149287269Y-105865848D01*
X149134129Y-105977110D01*
X149007466Y-106117783D01*
X148912820Y-106281716D01*
X148908529Y-106294924D01*
X148878280Y-106344284D01*
X148273572Y-106948992D01*
X148266169Y-106955818D01*
X148227154Y-106988958D01*
X148180608Y-107050189D01*
X148178541Y-107052833D01*
X148130109Y-107113085D01*
X148118653Y-107131554D01*
X148086180Y-107201740D01*
X148084731Y-107204762D01*
X148050400Y-107273988D01*
X148043176Y-107294507D01*
X148026557Y-107370003D01*
X148025792Y-107373268D01*
X148007140Y-107448273D01*
X148004500Y-107469842D01*
X148004500Y-107516703D01*
X147984815Y-107583742D01*
X147968181Y-107604384D01*
X144018702Y-111553862D01*
X143981458Y-111579460D01*
X143877268Y-111625850D01*
X143724129Y-111737111D01*
X143597466Y-111877783D01*
X143502820Y-112041715D01*
X143444326Y-112221742D01*
X143424540Y-112409999D01*
X134043932Y-112409999D01*
X134022749Y-112398432D01*
X133757984Y-112299680D01*
X133757979Y-112299678D01*
X133481861Y-112239613D01*
X133272763Y-112224658D01*
X133272761Y-112224657D01*
X133270553Y-112224500D01*
X133129447Y-112224500D01*
X133127239Y-112224657D01*
X133127236Y-112224658D01*
X132918138Y-112239613D01*
X132642020Y-112299678D01*
X132545179Y-112335798D01*
X132377251Y-112398432D01*
X132356068Y-112409999D01*
X132129234Y-112533859D01*
X131903017Y-112703203D01*
X131703203Y-112903017D01*
X131533859Y-113129234D01*
X131456371Y-113271144D01*
X131398432Y-113377251D01*
X131335798Y-113545179D01*
X131299678Y-113642020D01*
X131239613Y-113918138D01*
X131219453Y-114199999D01*
X130000500Y-114199999D01*
X130000500Y-92320000D01*
X136404540Y-92320000D01*
X136424326Y-92508257D01*
X136482820Y-92688284D01*
X136577466Y-92852216D01*
X136704129Y-92992889D01*
X136857269Y-93104151D01*
X137030197Y-93181144D01*
X137215352Y-93220500D01*
X137215354Y-93220500D01*
X137404648Y-93220500D01*
X137528083Y-93194262D01*
X137589803Y-93181144D01*
X137762730Y-93104151D01*
X137915871Y-92992888D01*
X137921598Y-92986527D01*
X137981084Y-92949879D01*
X138013747Y-92945500D01*
X139147256Y-92945500D01*
X139167762Y-92947764D01*
X139170665Y-92947672D01*
X139170667Y-92947673D01*
X139237872Y-92945561D01*
X139241768Y-92945500D01*
X139265448Y-92945500D01*
X139269350Y-92945500D01*
X139273313Y-92944999D01*
X139284962Y-92944080D01*
X139328627Y-92942709D01*
X139347859Y-92937120D01*
X139366918Y-92933174D01*
X139373196Y-92932381D01*
X139386792Y-92930664D01*
X139427407Y-92914582D01*
X139438444Y-92910803D01*
X139480390Y-92898618D01*
X139497629Y-92888422D01*
X139515102Y-92879862D01*
X139533732Y-92872486D01*
X139569064Y-92846814D01*
X139578830Y-92840400D01*
X139616418Y-92818171D01*
X139616417Y-92818171D01*
X139616420Y-92818170D01*
X139630585Y-92804004D01*
X139645373Y-92791373D01*
X139661587Y-92779594D01*
X139689438Y-92745926D01*
X139697279Y-92737309D01*
X140897771Y-91536817D01*
X140959094Y-91503333D01*
X140985452Y-91500499D01*
X141871859Y-91500499D01*
X141875008Y-91500499D01*
X141977797Y-91489999D01*
X142144334Y-91434814D01*
X142293656Y-91342712D01*
X142417712Y-91218656D01*
X142509814Y-91069334D01*
X142564999Y-90902797D01*
X142575500Y-90800009D01*
X142575499Y-89899992D01*
X142564999Y-89797203D01*
X142509814Y-89630666D01*
X142417712Y-89481344D01*
X142417711Y-89481342D01*
X142293657Y-89357288D01*
X142144334Y-89265186D01*
X141977797Y-89210000D01*
X141878141Y-89199819D01*
X141878122Y-89199818D01*
X141875009Y-89199500D01*
X141871860Y-89199500D01*
X140528140Y-89199500D01*
X140528120Y-89199500D01*
X140524992Y-89199501D01*
X140521860Y-89199820D01*
X140521858Y-89199821D01*
X140422203Y-89210000D01*
X140255665Y-89265186D01*
X140106342Y-89357288D01*
X139982288Y-89481342D01*
X139890186Y-89630665D01*
X139835000Y-89797202D01*
X139824819Y-89896858D01*
X139824817Y-89896878D01*
X139824500Y-89899991D01*
X139824500Y-89903138D01*
X139824500Y-89903139D01*
X139824500Y-90789545D01*
X139804815Y-90856584D01*
X139788181Y-90877226D01*
X139007228Y-91658181D01*
X138945905Y-91691666D01*
X138919547Y-91694500D01*
X138013747Y-91694500D01*
X137946708Y-91674815D01*
X137921599Y-91653473D01*
X137915871Y-91647112D01*
X137762730Y-91535849D01*
X137762729Y-91535848D01*
X137762727Y-91535847D01*
X137589802Y-91458855D01*
X137404648Y-91419500D01*
X137404646Y-91419500D01*
X137215354Y-91419500D01*
X137215352Y-91419500D01*
X137030197Y-91458855D01*
X136857269Y-91535848D01*
X136704129Y-91647110D01*
X136577466Y-91787783D01*
X136482820Y-91951715D01*
X136424326Y-92131742D01*
X136404540Y-92320000D01*
X130000500Y-92320000D01*
X130000500Y-87500000D01*
X139825001Y-87500000D01*
X139825001Y-87696829D01*
X139825321Y-87703111D01*
X139835493Y-87802695D01*
X139890642Y-87969122D01*
X139982683Y-88118345D01*
X140106654Y-88242316D01*
X140255877Y-88334357D01*
X140422303Y-88389506D01*
X140521890Y-88399680D01*
X140528168Y-88399999D01*
X140949999Y-88399999D01*
X140950000Y-88399998D01*
X140950000Y-87500000D01*
X141450000Y-87500000D01*
X141450000Y-88399999D01*
X141871829Y-88399999D01*
X141878111Y-88399678D01*
X141977695Y-88389506D01*
X142144122Y-88334357D01*
X142293345Y-88242316D01*
X142417316Y-88118345D01*
X142509357Y-87969122D01*
X142564506Y-87802696D01*
X142574680Y-87703109D01*
X142575000Y-87696831D01*
X142575000Y-87500000D01*
X141450000Y-87500000D01*
X140950000Y-87500000D01*
X139825001Y-87500000D01*
X130000500Y-87500000D01*
X130000500Y-44004065D01*
X130000633Y-44000000D01*
X130644340Y-44000000D01*
X130664936Y-44235407D01*
X130726097Y-44463662D01*
X130726097Y-44463663D01*
X130825965Y-44677829D01*
X130961505Y-44871401D01*
X131128599Y-45038495D01*
X131322171Y-45174035D01*
X131536337Y-45273903D01*
X131764592Y-45335063D01*
X131941034Y-45350500D01*
X131943742Y-45350500D01*
X132056258Y-45350500D01*
X132058966Y-45350500D01*
X132235408Y-45335063D01*
X132463663Y-45273903D01*
X132677829Y-45174035D01*
X132871401Y-45038495D01*
X133038495Y-44871401D01*
X133174035Y-44677830D01*
X133273903Y-44463663D01*
X133335063Y-44235408D01*
X133355659Y-44000000D01*
X133335063Y-43764592D01*
X133273903Y-43536337D01*
X133174035Y-43322171D01*
X133038495Y-43128599D01*
X132871401Y-42961505D01*
X132677829Y-42825965D01*
X132463663Y-42726097D01*
X132235407Y-42664936D01*
X132061667Y-42649736D01*
X132061659Y-42649735D01*
X132058966Y-42649500D01*
X131941034Y-42649500D01*
X131938341Y-42649735D01*
X131938332Y-42649736D01*
X131764592Y-42664936D01*
X131536336Y-42726097D01*
X131322170Y-42825965D01*
X131128598Y-42961505D01*
X130961508Y-43128595D01*
X130961505Y-43128598D01*
X130961505Y-43128599D01*
X130887126Y-43234824D01*
X130825964Y-43322172D01*
X130726097Y-43536337D01*
X130664936Y-43764592D01*
X130644340Y-44000000D01*
X130000633Y-44000000D01*
X130000765Y-43995955D01*
X130005982Y-43916359D01*
X130005983Y-43916350D01*
X130018709Y-43738407D01*
X130020770Y-43723101D01*
X130043163Y-43610523D01*
X130073795Y-43469717D01*
X130077515Y-43456318D01*
X130116243Y-43342230D01*
X130117404Y-43338967D01*
X130165068Y-43211177D01*
X130170017Y-43199713D01*
X130224481Y-43089272D01*
X130226777Y-43084851D01*
X130290855Y-42967501D01*
X130296562Y-42958075D01*
X130365639Y-42854694D01*
X130369425Y-42849344D01*
X130448850Y-42743246D01*
X130454823Y-42735878D01*
X130537161Y-42641989D01*
X130542648Y-42636131D01*
X130636131Y-42542648D01*
X130641989Y-42537161D01*
X130735878Y-42454823D01*
X130743246Y-42448850D01*
X130849344Y-42369425D01*
X130854694Y-42365639D01*
X130958075Y-42296562D01*
X130967501Y-42290855D01*
X131084851Y-42226777D01*
X131089272Y-42224481D01*
X131199713Y-42170017D01*
X131211177Y-42165068D01*
X131338967Y-42117404D01*
X131342230Y-42116243D01*
X131456305Y-42077519D01*
X131469754Y-42073787D01*
X131610546Y-42043159D01*
X131723125Y-42020766D01*
X131738402Y-42018709D01*
X131916208Y-42005991D01*
X131992267Y-42001006D01*
X131995958Y-42000765D01*
X132004063Y-42000500D01*
X155995935Y-42000500D01*
X156004042Y-42000764D01*
G37*
%TD.AperFunction*%
%TD*%
M02*
