%TF.GenerationSoftware,KiCad,Pcbnew,7.0.2-0*%
%TF.CreationDate,2023-05-31T17:16:31-07:00*%
%TF.ProjectId,camera-clicker,63616d65-7261-42d6-936c-69636b65722e,rev?*%
%TF.SameCoordinates,Original*%
%TF.FileFunction,Soldermask,Top*%
%TF.FilePolarity,Negative*%
%FSLAX46Y46*%
G04 Gerber Fmt 4.6, Leading zero omitted, Abs format (unit mm)*
G04 Created by KiCad (PCBNEW 7.0.2-0) date 2023-05-31 17:16:31*
%MOMM*%
%LPD*%
G01*
G04 APERTURE LIST*
G04 Aperture macros list*
%AMRoundRect*
0 Rectangle with rounded corners*
0 $1 Rounding radius*
0 $2 $3 $4 $5 $6 $7 $8 $9 X,Y pos of 4 corners*
0 Add a 4 corners polygon primitive as box body*
4,1,4,$2,$3,$4,$5,$6,$7,$8,$9,$2,$3,0*
0 Add four circle primitives for the rounded corners*
1,1,$1+$1,$2,$3*
1,1,$1+$1,$4,$5*
1,1,$1+$1,$6,$7*
1,1,$1+$1,$8,$9*
0 Add four rect primitives between the rounded corners*
20,1,$1+$1,$2,$3,$4,$5,0*
20,1,$1+$1,$4,$5,$6,$7,0*
20,1,$1+$1,$6,$7,$8,$9,0*
20,1,$1+$1,$8,$9,$2,$3,0*%
%AMFreePoly0*
4,1,6,0.500000,-0.100000,0.500000,-0.500000,-0.500000,-0.500000,-0.500000,0.500000,-0.100000,0.500000,0.500000,-0.100000,0.500000,-0.100000,$1*%
%AMFreePoly1*
4,1,9,3.862500,-0.866500,0.737500,-0.866500,0.737500,-0.450000,-0.737500,-0.450000,-0.737500,0.450000,0.737500,0.450000,0.737500,0.866500,3.862500,0.866500,3.862500,-0.866500,3.862500,-0.866500,$1*%
G04 Aperture macros list end*
%ADD10C,2.200000*%
%ADD11RoundRect,0.250000X-0.625000X0.375000X-0.625000X-0.375000X0.625000X-0.375000X0.625000X0.375000X0*%
%ADD12R,0.400000X0.800000*%
%ADD13R,0.800000X0.400000*%
%ADD14FreePoly0,0.000000*%
%ADD15R,1.000000X1.000000*%
%ADD16R,0.500000X0.250000*%
%ADD17R,0.900000X1.600000*%
%ADD18O,3.500000X2.200000*%
%ADD19R,2.500000X1.500000*%
%ADD20O,2.500000X1.500000*%
%ADD21RoundRect,0.250000X0.625000X-0.312500X0.625000X0.312500X-0.625000X0.312500X-0.625000X-0.312500X0*%
%ADD22RoundRect,0.140000X-0.140000X-0.170000X0.140000X-0.170000X0.140000X0.170000X-0.140000X0.170000X0*%
%ADD23R,1.700000X1.700000*%
%ADD24O,1.700000X1.700000*%
%ADD25RoundRect,0.137500X-0.137500X-0.212500X0.137500X-0.212500X0.137500X0.212500X-0.137500X0.212500X0*%
%ADD26C,2.000000*%
%ADD27R,0.900000X1.300000*%
%ADD28FreePoly1,90.000000*%
%ADD29RoundRect,0.250000X-0.312500X-0.625000X0.312500X-0.625000X0.312500X0.625000X-0.312500X0.625000X0*%
%ADD30RoundRect,0.250000X0.325000X0.650000X-0.325000X0.650000X-0.325000X-0.650000X0.325000X-0.650000X0*%
%ADD31RoundRect,0.135000X-0.135000X-0.185000X0.135000X-0.185000X0.135000X0.185000X-0.135000X0.185000X0*%
%ADD32RoundRect,0.250000X0.650000X-0.325000X0.650000X0.325000X-0.650000X0.325000X-0.650000X-0.325000X0*%
%ADD33O,0.900000X1.700000*%
%ADD34O,0.900000X2.400000*%
%ADD35C,0.700000*%
%ADD36RoundRect,0.135000X-0.185000X0.135000X-0.185000X-0.135000X0.185000X-0.135000X0.185000X0.135000X0*%
%ADD37RoundRect,0.140000X0.140000X0.170000X-0.140000X0.170000X-0.140000X-0.170000X0.140000X-0.170000X0*%
%ADD38RoundRect,0.100000X-0.100000X0.637500X-0.100000X-0.637500X0.100000X-0.637500X0.100000X0.637500X0*%
%ADD39RoundRect,0.250000X-0.625000X0.312500X-0.625000X-0.312500X0.625000X-0.312500X0.625000X0.312500X0*%
%ADD40RoundRect,0.250000X-0.650000X0.325000X-0.650000X-0.325000X0.650000X-0.325000X0.650000X0.325000X0*%
%ADD41C,2.390000*%
%ADD42C,3.450000*%
G04 APERTURE END LIST*
D10*
%TO.C,H4*%
X132000000Y-146000000D03*
%TD*%
%TO.C,H3*%
X132000000Y-44000000D03*
%TD*%
%TO.C,H2*%
X156000000Y-146000000D03*
%TD*%
%TO.C,H1*%
X156000000Y-44000000D03*
%TD*%
D11*
%TO.C,D1*%
X143970000Y-94900000D03*
X143970000Y-97700000D03*
%TD*%
D12*
%TO.C,U2*%
X149900000Y-67800000D03*
X149100000Y-67800000D03*
X148300000Y-67800000D03*
X147500000Y-67800000D03*
X146700000Y-67800000D03*
X145900000Y-67800000D03*
X145100000Y-67800000D03*
X144300000Y-67800000D03*
X143500000Y-67800000D03*
X142700000Y-67800000D03*
X141900000Y-67800000D03*
X141100000Y-67800000D03*
X140300000Y-67800000D03*
D13*
X139050000Y-68500000D03*
X139050000Y-69300000D03*
X139050000Y-70100000D03*
X139050000Y-70900000D03*
X139050000Y-71700000D03*
X139050000Y-72500000D03*
X139050000Y-73300000D03*
X139050000Y-74100000D03*
X139050000Y-74900000D03*
X139050000Y-75700000D03*
X139050000Y-76500000D03*
X139050000Y-77300000D03*
X139050000Y-78100000D03*
X139050000Y-78900000D03*
D12*
X140300000Y-79600000D03*
X141100000Y-79600000D03*
X141900000Y-79600000D03*
X142700000Y-79600000D03*
X143500000Y-79600000D03*
X144300000Y-79600000D03*
X145100000Y-79600000D03*
X145900000Y-79600000D03*
X146700000Y-79600000D03*
X147500000Y-79600000D03*
X148300000Y-79600000D03*
X149100000Y-79600000D03*
X149900000Y-79600000D03*
D13*
X151150000Y-78900000D03*
X151150000Y-78100000D03*
X151150000Y-77300000D03*
X151150000Y-76500000D03*
X151150000Y-75700000D03*
X151150000Y-74900000D03*
X151150000Y-74100000D03*
X151150000Y-73300000D03*
X151150000Y-72500000D03*
X151150000Y-71700000D03*
X151150000Y-70900000D03*
X151150000Y-70100000D03*
X151150000Y-69300000D03*
X151150000Y-68500000D03*
D14*
X146600000Y-72200000D03*
D15*
X145100000Y-72200000D03*
X143600000Y-72200000D03*
X146600000Y-73700000D03*
X145100000Y-73700000D03*
X143600000Y-73700000D03*
X146600000Y-75200000D03*
X145100000Y-75200000D03*
X143600000Y-75200000D03*
%TD*%
D16*
%TO.C,U1*%
X135610000Y-88550000D03*
X135610000Y-89050000D03*
X135610000Y-89550000D03*
X135610000Y-90050000D03*
X137510000Y-90050000D03*
X137510000Y-89550000D03*
X137510000Y-89050000D03*
X137510000Y-88550000D03*
D17*
X136560000Y-89300000D03*
%TD*%
D18*
%TO.C,SW1*%
X155500000Y-61700000D03*
X155500000Y-53500000D03*
D19*
X155500000Y-59600000D03*
D20*
X155500000Y-57600000D03*
X155500000Y-55600000D03*
%TD*%
D21*
%TO.C,R9*%
X140400000Y-105475000D03*
X140400000Y-108400000D03*
%TD*%
%TO.C,R7*%
X151000000Y-143737500D03*
X151000000Y-146662500D03*
%TD*%
D22*
%TO.C,C1*%
X135640000Y-87300000D03*
X134680000Y-87300000D03*
%TD*%
D23*
%TO.C,J2*%
X156000000Y-110450000D03*
D24*
X156000000Y-107910000D03*
X156000000Y-105370000D03*
X156000000Y-102830000D03*
X156000000Y-100290000D03*
X156000000Y-97750000D03*
%TD*%
D25*
%TO.C,SW4*%
X142565000Y-56750000D03*
X142565000Y-57850000D03*
X145615000Y-56750000D03*
X145615000Y-57850000D03*
%TD*%
D26*
%TO.C,SW3*%
X148500000Y-133700000D03*
X155000000Y-133700000D03*
X148500000Y-138200000D03*
X155000000Y-138200000D03*
%TD*%
D11*
%TO.C,D2*%
X143970000Y-92500000D03*
X143970000Y-89700000D03*
%TD*%
D27*
%TO.C,U4*%
X142000000Y-120150000D03*
D28*
X143500000Y-120062500D03*
D27*
X145000000Y-120150000D03*
%TD*%
D29*
%TO.C,R10*%
X150337500Y-130600000D03*
X153262500Y-130600000D03*
%TD*%
D30*
%TO.C,C5*%
X147125000Y-100200000D03*
X144175000Y-100200000D03*
%TD*%
D31*
%TO.C,R6*%
X136260000Y-91400000D03*
X137280000Y-91400000D03*
%TD*%
D30*
%TO.C,C6*%
X147775000Y-62600000D03*
X144825000Y-62600000D03*
%TD*%
D32*
%TO.C,C4*%
X147650000Y-120225000D03*
X147650000Y-117275000D03*
%TD*%
D21*
%TO.C,R3*%
X146670000Y-97662500D03*
X146670000Y-94737500D03*
%TD*%
D31*
%TO.C,R5*%
X135070000Y-91400000D03*
X134050000Y-91400000D03*
%TD*%
D33*
%TO.C,J1*%
X148325000Y-146110000D03*
D34*
X148325000Y-142730000D03*
D33*
X139675000Y-146110000D03*
D34*
X139675000Y-142730000D03*
D35*
X141025000Y-143100000D03*
X141875000Y-143100000D03*
X142725000Y-143100000D03*
X143575000Y-143100000D03*
X144425000Y-143100000D03*
X145275000Y-143100000D03*
X146125000Y-143100000D03*
X146975000Y-143100000D03*
X146975000Y-141750000D03*
X146125000Y-141750000D03*
X145275000Y-141750000D03*
X144425000Y-141750000D03*
X143575000Y-141750000D03*
X142725000Y-141750000D03*
X141875000Y-141750000D03*
X141025000Y-141750000D03*
%TD*%
D36*
%TO.C,R2*%
X134160000Y-90120000D03*
X134160000Y-89100000D03*
%TD*%
D30*
%TO.C,C7*%
X147775000Y-65300000D03*
X144825000Y-65300000D03*
%TD*%
D37*
%TO.C,C2*%
X138130000Y-87300000D03*
X137170000Y-87300000D03*
%TD*%
D38*
%TO.C,U3*%
X147150000Y-109900000D03*
X146500000Y-109900000D03*
X145850000Y-109900000D03*
X145200000Y-109900000D03*
X144550000Y-109900000D03*
X143900000Y-109900000D03*
X143250000Y-109900000D03*
X143250000Y-104175000D03*
X143900000Y-104175000D03*
X144550000Y-104175000D03*
X145200000Y-104175000D03*
X145850000Y-104175000D03*
X146500000Y-104175000D03*
X147150000Y-104175000D03*
%TD*%
D26*
%TO.C,SW2*%
X132950000Y-133850000D03*
X139450000Y-133850000D03*
X132950000Y-138350000D03*
X139450000Y-138350000D03*
%TD*%
D39*
%TO.C,R8*%
X136900000Y-146662500D03*
X136900000Y-143737500D03*
%TD*%
%TO.C,R11*%
X142800000Y-134237500D03*
X142800000Y-137162500D03*
%TD*%
D31*
%TO.C,R1*%
X138850000Y-90100000D03*
X139870000Y-90100000D03*
%TD*%
D40*
%TO.C,C3*%
X139350000Y-117275000D03*
X139350000Y-120225000D03*
%TD*%
D21*
%TO.C,R4*%
X146670000Y-92562500D03*
X146670000Y-89637500D03*
%TD*%
D41*
%TO.C,BT1*%
X133200000Y-50670000D03*
D42*
X149200000Y-59000000D03*
X133200000Y-114200000D03*
%TD*%
M02*
