M48
; DRILL file {KiCad 7.0.2-0} date 2023 June 17, Saturday 13:30:46
; FORMAT={-:-/ absolute / inch / decimal}
; #@! TF.CreationDate,2023-06-17T13:30:46-07:00
; #@! TF.GenerationSoftware,Kicad,Pcbnew,7.0.2-0
; #@! TF.FileFunction,Plated,1,2,PTH
FMAT,2
INCH
; #@! TA.AperFunction,Plated,PTH,ViaDrill
T1C0.0157
; #@! TA.AperFunction,Plated,PTH,ComponentDrill
T2C0.0236
; #@! TA.AperFunction,Plated,PTH,ComponentDrill
T3C0.0354
; #@! TA.AperFunction,Plated,PTH,ComponentDrill
T4C0.0394
; #@! TA.AperFunction,Plated,PTH,ComponentDrill
T5C0.0591
%
G90
G05
T1
X5.2291Y-3.3898
X5.2445Y-3.574
X5.2693Y-3.3039
X5.376Y-3.5122
X5.4059Y-3.6346
X5.4079Y-3.7028
X5.4256Y-3.9563
X5.4815Y-3.487
X5.5437Y-2.5886
X5.5764Y-3.2992
X5.6157Y-2.5154
X5.648Y-3.0843
X5.698Y-2.7626
X5.7276Y-4.7965
X5.761Y-2.6157
X5.8689Y-4.3094
X5.9437Y-2.4075
T3
X6.122Y-2.189
X6.122Y-2.2677
X6.122Y-2.3465
T4
X6.1417Y-3.8484
X6.1417Y-3.9484
X6.1417Y-4.0484
X6.1417Y-4.1484
X6.1417Y-4.2484
X6.1417Y-4.3484
T5
X6.122Y-2.1063
X6.122Y-2.4291
T2
G00X5.4992Y-5.177
M15
G01X5.4992Y-5.2006
M16
G05
G00X5.4992Y-5.3266
M15
G01X5.4992Y-5.3502
M16
G05
G00X5.8394Y-5.177
M15
G01X5.8394Y-5.2006
M16
G05
G00X5.8394Y-5.3266
M15
G01X5.8394Y-5.3502
M16
G05
T0
M30
