M48
; DRILL file {KiCad 7.0.2-0} date 2023 May 31, Wednesday 17:16:28
; FORMAT={-:-/ absolute / inch / decimal}
; #@! TF.CreationDate,2023-05-31T17:16:28-07:00
; #@! TF.GenerationSoftware,Kicad,Pcbnew,7.0.2-0
; #@! TF.FileFunction,Plated,1,2,PTH
FMAT,2
INCH
; #@! TA.AperFunction,Plated,PTH,ViaDrill
T1C0.0157
; #@! TA.AperFunction,Plated,PTH,ComponentDrill
T2C0.0157
; #@! TA.AperFunction,Plated,PTH,ComponentDrill
T3C0.0236
; #@! TA.AperFunction,Plated,PTH,ComponentDrill
T4C0.0354
; #@! TA.AperFunction,Plated,PTH,ComponentDrill
T5C0.0394
; #@! TA.AperFunction,Plated,PTH,ComponentDrill
T6C0.0433
; #@! TA.AperFunction,Plated,PTH,ComponentDrill
T7C0.0591
%
G90
G05
T1
X5.2291Y-3.3898
X5.2445Y-3.5496
X5.322Y-3.6429
X5.3764Y-3.5142
X5.4059Y-3.6346
X5.4874Y-3.5031
X5.5437Y-2.5886
X5.6024Y-5.5185
X5.6476Y-5.2039
X5.648Y-3.0843
X5.6685Y-4.0472
X5.6823Y-4.4256
X5.7012Y-4.013
X5.7276Y-4.7965
X5.7571Y-5.5394
X5.7921Y-5.2063
X5.8953Y-4.1988
X5.9437Y-2.4075
T2
X5.5522Y-5.5807
X5.5522Y-5.6339
X5.5856Y-5.5807
X5.5856Y-5.6339
X5.6191Y-5.5807
X5.6191Y-5.6339
X5.6526Y-5.5807
X5.6526Y-5.6339
X5.686Y-5.5807
X5.686Y-5.6339
X5.7195Y-5.5807
X5.7195Y-5.6339
X5.753Y-5.5807
X5.753Y-5.6339
X5.7864Y-5.5807
X5.7864Y-5.6339
T4
X6.122Y-2.189
X6.122Y-2.2677
X6.122Y-2.3465
T5
X6.1417Y-3.8484
X6.1417Y-3.9484
X6.1417Y-4.0484
X6.1417Y-4.1484
X6.1417Y-4.2484
X6.1417Y-4.3484
T6
X5.2343Y-5.2697
X5.2343Y-5.4469
X5.4902Y-5.2697
X5.4902Y-5.4469
X5.8465Y-5.2638
X5.8465Y-5.4409
X6.1024Y-5.2638
X6.1024Y-5.4409
T7
X6.122Y-2.1063
X6.122Y-2.4291
T3
G00X5.499Y-5.5898
M15
G01X5.499Y-5.6488
M16
G05
G00X5.499Y-5.7366
M15
G01X5.499Y-5.7681
M16
G05
G00X5.8396Y-5.5898
M15
G01X5.8396Y-5.6488
M16
G05
G00X5.8396Y-5.7366
M15
G01X5.8396Y-5.7681
M16
G05
T0
M30
