%TF.GenerationSoftware,KiCad,Pcbnew,7.0.2-0*%
%TF.CreationDate,2023-06-17T13:30:50-07:00*%
%TF.ProjectId,camera-clicker,63616d65-7261-42d6-936c-69636b65722e,rev?*%
%TF.SameCoordinates,Original*%
%TF.FileFunction,Paste,Top*%
%TF.FilePolarity,Positive*%
%FSLAX46Y46*%
G04 Gerber Fmt 4.6, Leading zero omitted, Abs format (unit mm)*
G04 Created by KiCad (PCBNEW 7.0.2-0) date 2023-06-17 13:30:50*
%MOMM*%
%LPD*%
G01*
G04 APERTURE LIST*
G04 Aperture macros list*
%AMRoundRect*
0 Rectangle with rounded corners*
0 $1 Rounding radius*
0 $2 $3 $4 $5 $6 $7 $8 $9 X,Y pos of 4 corners*
0 Add a 4 corners polygon primitive as box body*
4,1,4,$2,$3,$4,$5,$6,$7,$8,$9,$2,$3,0*
0 Add four circle primitives for the rounded corners*
1,1,$1+$1,$2,$3*
1,1,$1+$1,$4,$5*
1,1,$1+$1,$6,$7*
1,1,$1+$1,$8,$9*
0 Add four rect primitives between the rounded corners*
20,1,$1+$1,$2,$3,$4,$5,0*
20,1,$1+$1,$4,$5,$6,$7,0*
20,1,$1+$1,$6,$7,$8,$9,0*
20,1,$1+$1,$8,$9,$2,$3,0*%
%AMFreePoly0*
4,1,6,0.500000,-0.100000,0.500000,-0.500000,-0.500000,-0.500000,-0.500000,0.500000,-0.100000,0.500000,0.500000,-0.100000,0.500000,-0.100000,$1*%
G04 Aperture macros list end*
%ADD10RoundRect,0.250000X-0.625000X0.375000X-0.625000X-0.375000X0.625000X-0.375000X0.625000X0.375000X0*%
%ADD11R,0.400000X0.800000*%
%ADD12R,0.800000X0.400000*%
%ADD13FreePoly0,0.000000*%
%ADD14R,1.000000X1.000000*%
%ADD15R,0.750000X0.650000*%
%ADD16R,0.500000X0.250000*%
%ADD17R,0.700000X1.200000*%
%ADD18R,0.760000X1.200000*%
%ADD19R,0.800000X1.200000*%
%ADD20RoundRect,0.250000X-0.625000X0.312500X-0.625000X-0.312500X0.625000X-0.312500X0.625000X0.312500X0*%
%ADD21RoundRect,0.140000X-0.140000X-0.170000X0.140000X-0.170000X0.140000X0.170000X-0.140000X0.170000X0*%
%ADD22RoundRect,0.137500X-0.137500X-0.212500X0.137500X-0.212500X0.137500X0.212500X-0.137500X0.212500X0*%
%ADD23R,1.000000X0.700000*%
%ADD24RoundRect,0.135000X-0.135000X-0.185000X0.135000X-0.185000X0.135000X0.185000X-0.135000X0.185000X0*%
%ADD25RoundRect,0.250000X0.325000X0.650000X-0.325000X0.650000X-0.325000X-0.650000X0.325000X-0.650000X0*%
%ADD26RoundRect,0.250000X0.625000X-0.312500X0.625000X0.312500X-0.625000X0.312500X-0.625000X-0.312500X0*%
%ADD27RoundRect,0.135000X-0.185000X0.135000X-0.185000X-0.135000X0.185000X-0.135000X0.185000X0.135000X0*%
%ADD28RoundRect,0.140000X0.140000X0.170000X-0.140000X0.170000X-0.140000X-0.170000X0.140000X-0.170000X0*%
G04 APERTURE END LIST*
D10*
%TO.C,D1*%
X143970000Y-94900000D03*
X143970000Y-97700000D03*
%TD*%
D11*
%TO.C,U2*%
X149900000Y-67800000D03*
X149100000Y-67800000D03*
X148300000Y-67800000D03*
X147500000Y-67800000D03*
X146700000Y-67800000D03*
X145900000Y-67800000D03*
X145100000Y-67800000D03*
X144300000Y-67800000D03*
X143500000Y-67800000D03*
X142700000Y-67800000D03*
X141900000Y-67800000D03*
X141100000Y-67800000D03*
X140300000Y-67800000D03*
D12*
X139050000Y-68500000D03*
X139050000Y-69300000D03*
X139050000Y-70100000D03*
X139050000Y-70900000D03*
X139050000Y-71700000D03*
X139050000Y-72500000D03*
X139050000Y-73300000D03*
X139050000Y-74100000D03*
X139050000Y-74900000D03*
X139050000Y-75700000D03*
X139050000Y-76500000D03*
X139050000Y-77300000D03*
X139050000Y-78100000D03*
X139050000Y-78900000D03*
D11*
X140300000Y-79600000D03*
X141100000Y-79600000D03*
X141900000Y-79600000D03*
X142700000Y-79600000D03*
X143500000Y-79600000D03*
X144300000Y-79600000D03*
X145100000Y-79600000D03*
X145900000Y-79600000D03*
X146700000Y-79600000D03*
X147500000Y-79600000D03*
X148300000Y-79600000D03*
X149100000Y-79600000D03*
X149900000Y-79600000D03*
D12*
X151150000Y-78900000D03*
X151150000Y-78100000D03*
X151150000Y-77300000D03*
X151150000Y-76500000D03*
X151150000Y-75700000D03*
X151150000Y-74900000D03*
X151150000Y-74100000D03*
X151150000Y-73300000D03*
X151150000Y-72500000D03*
X151150000Y-71700000D03*
X151150000Y-70900000D03*
X151150000Y-70100000D03*
X151150000Y-69300000D03*
X151150000Y-68500000D03*
D13*
X146600000Y-72200000D03*
D14*
X145100000Y-72200000D03*
X143600000Y-72200000D03*
X146600000Y-73700000D03*
X145100000Y-73700000D03*
X143600000Y-73700000D03*
X146600000Y-75200000D03*
X145100000Y-75200000D03*
X143600000Y-75200000D03*
%TD*%
D15*
%TO.C,U1*%
X136560000Y-88900000D03*
X136560000Y-89700000D03*
D16*
X135610000Y-88550000D03*
X135610000Y-89050000D03*
X135610000Y-89550000D03*
X135610000Y-90050000D03*
X137510000Y-90050000D03*
X137510000Y-89550000D03*
X137510000Y-89050000D03*
X137510000Y-88550000D03*
%TD*%
D17*
%TO.C,J3*%
X144500000Y-131795000D03*
D18*
X145520000Y-131795000D03*
D19*
X146750000Y-131795000D03*
D17*
X143500000Y-131795000D03*
D18*
X142480000Y-131795000D03*
D19*
X141250000Y-131795000D03*
%TD*%
D20*
%TO.C,R7*%
X137240000Y-131677500D03*
X137240000Y-134602500D03*
%TD*%
D21*
%TO.C,C1*%
X134680000Y-87300000D03*
X135640000Y-87300000D03*
%TD*%
D22*
%TO.C,SW4*%
X142565000Y-54450000D03*
X142565000Y-55550000D03*
X145615000Y-54450000D03*
X145615000Y-55550000D03*
%TD*%
D23*
%TO.C,SW3*%
X147000000Y-114890000D03*
X141000000Y-114890000D03*
X147000000Y-111190000D03*
X141000000Y-111190000D03*
%TD*%
D10*
%TO.C,D2*%
X143970000Y-89700000D03*
X143970000Y-92500000D03*
%TD*%
D20*
%TO.C,R10*%
X138300000Y-110847500D03*
X138300000Y-113772500D03*
%TD*%
D24*
%TO.C,R6*%
X136260000Y-91400000D03*
X137280000Y-91400000D03*
%TD*%
D25*
%TO.C,C6*%
X147775000Y-62600000D03*
X144825000Y-62600000D03*
%TD*%
D26*
%TO.C,R3*%
X146670000Y-97662500D03*
X146670000Y-94737500D03*
%TD*%
D24*
%TO.C,R5*%
X134050000Y-91400000D03*
X135070000Y-91400000D03*
%TD*%
D27*
%TO.C,R2*%
X134160000Y-89100000D03*
X134160000Y-90120000D03*
%TD*%
D25*
%TO.C,C7*%
X147775000Y-65300000D03*
X144825000Y-65300000D03*
%TD*%
D28*
%TO.C,C2*%
X138130000Y-87300000D03*
X137170000Y-87300000D03*
%TD*%
D23*
%TO.C,SW2*%
X147000000Y-106880000D03*
X141000000Y-106880000D03*
X147000000Y-103180000D03*
X141000000Y-103180000D03*
%TD*%
D20*
%TO.C,R8*%
X150930000Y-131717500D03*
X150930000Y-134642500D03*
%TD*%
D26*
%TO.C,R11*%
X138190000Y-105802500D03*
X138190000Y-102877500D03*
%TD*%
D24*
%TO.C,R1*%
X138850000Y-90100000D03*
X139870000Y-90100000D03*
%TD*%
D26*
%TO.C,R4*%
X146670000Y-92562500D03*
X146670000Y-89637500D03*
%TD*%
M02*
