%TF.GenerationSoftware,KiCad,Pcbnew,7.0.2-0*%
%TF.CreationDate,2023-05-31T17:16:31-07:00*%
%TF.ProjectId,camera-clicker,63616d65-7261-42d6-936c-69636b65722e,rev?*%
%TF.SameCoordinates,Original*%
%TF.FileFunction,Legend,Top*%
%TF.FilePolarity,Positive*%
%FSLAX46Y46*%
G04 Gerber Fmt 4.6, Leading zero omitted, Abs format (unit mm)*
G04 Created by KiCad (PCBNEW 7.0.2-0) date 2023-05-31 17:16:31*
%MOMM*%
%LPD*%
G01*
G04 APERTURE LIST*
%ADD10C,0.150000*%
%ADD11C,0.120000*%
%ADD12C,0.130000*%
G04 APERTURE END LIST*
D10*
X151708095Y-110634166D02*
X152470000Y-110634166D01*
X152089047Y-111015119D02*
X152089047Y-110253214D01*
X153422380Y-110015119D02*
X152946190Y-110015119D01*
X152946190Y-110015119D02*
X152898571Y-110491309D01*
X152898571Y-110491309D02*
X152946190Y-110443690D01*
X152946190Y-110443690D02*
X153041428Y-110396071D01*
X153041428Y-110396071D02*
X153279523Y-110396071D01*
X153279523Y-110396071D02*
X153374761Y-110443690D01*
X153374761Y-110443690D02*
X153422380Y-110491309D01*
X153422380Y-110491309D02*
X153469999Y-110586547D01*
X153469999Y-110586547D02*
X153469999Y-110824642D01*
X153469999Y-110824642D02*
X153422380Y-110919880D01*
X153422380Y-110919880D02*
X153374761Y-110967500D01*
X153374761Y-110967500D02*
X153279523Y-111015119D01*
X153279523Y-111015119D02*
X153041428Y-111015119D01*
X153041428Y-111015119D02*
X152946190Y-110967500D01*
X152946190Y-110967500D02*
X152898571Y-110919880D01*
X153803333Y-110348452D02*
X154041428Y-111015119D01*
X154041428Y-111015119D02*
X154279523Y-110348452D01*
X150279524Y-108094166D02*
X151041429Y-108094166D01*
X150660476Y-108475119D02*
X150660476Y-107713214D01*
X151422381Y-107475119D02*
X152041428Y-107475119D01*
X152041428Y-107475119D02*
X151708095Y-107856071D01*
X151708095Y-107856071D02*
X151850952Y-107856071D01*
X151850952Y-107856071D02*
X151946190Y-107903690D01*
X151946190Y-107903690D02*
X151993809Y-107951309D01*
X151993809Y-107951309D02*
X152041428Y-108046547D01*
X152041428Y-108046547D02*
X152041428Y-108284642D01*
X152041428Y-108284642D02*
X151993809Y-108379880D01*
X151993809Y-108379880D02*
X151946190Y-108427500D01*
X151946190Y-108427500D02*
X151850952Y-108475119D01*
X151850952Y-108475119D02*
X151565238Y-108475119D01*
X151565238Y-108475119D02*
X151470000Y-108427500D01*
X151470000Y-108427500D02*
X151422381Y-108379880D01*
X152470000Y-108379880D02*
X152517619Y-108427500D01*
X152517619Y-108427500D02*
X152470000Y-108475119D01*
X152470000Y-108475119D02*
X152422381Y-108427500D01*
X152422381Y-108427500D02*
X152470000Y-108379880D01*
X152470000Y-108379880D02*
X152470000Y-108475119D01*
X152850952Y-107475119D02*
X153469999Y-107475119D01*
X153469999Y-107475119D02*
X153136666Y-107856071D01*
X153136666Y-107856071D02*
X153279523Y-107856071D01*
X153279523Y-107856071D02*
X153374761Y-107903690D01*
X153374761Y-107903690D02*
X153422380Y-107951309D01*
X153422380Y-107951309D02*
X153469999Y-108046547D01*
X153469999Y-108046547D02*
X153469999Y-108284642D01*
X153469999Y-108284642D02*
X153422380Y-108379880D01*
X153422380Y-108379880D02*
X153374761Y-108427500D01*
X153374761Y-108427500D02*
X153279523Y-108475119D01*
X153279523Y-108475119D02*
X152993809Y-108475119D01*
X152993809Y-108475119D02*
X152898571Y-108427500D01*
X152898571Y-108427500D02*
X152850952Y-108379880D01*
X153803333Y-107808452D02*
X154041428Y-108475119D01*
X154041428Y-108475119D02*
X154279523Y-107808452D01*
X150041428Y-105554166D02*
X150803333Y-105554166D01*
X150422380Y-105935119D02*
X150422380Y-105173214D01*
X151612856Y-105411309D02*
X151755713Y-105458928D01*
X151755713Y-105458928D02*
X151803332Y-105506547D01*
X151803332Y-105506547D02*
X151850951Y-105601785D01*
X151850951Y-105601785D02*
X151850951Y-105744642D01*
X151850951Y-105744642D02*
X151803332Y-105839880D01*
X151803332Y-105839880D02*
X151755713Y-105887500D01*
X151755713Y-105887500D02*
X151660475Y-105935119D01*
X151660475Y-105935119D02*
X151279523Y-105935119D01*
X151279523Y-105935119D02*
X151279523Y-104935119D01*
X151279523Y-104935119D02*
X151612856Y-104935119D01*
X151612856Y-104935119D02*
X151708094Y-104982738D01*
X151708094Y-104982738D02*
X151755713Y-105030357D01*
X151755713Y-105030357D02*
X151803332Y-105125595D01*
X151803332Y-105125595D02*
X151803332Y-105220833D01*
X151803332Y-105220833D02*
X151755713Y-105316071D01*
X151755713Y-105316071D02*
X151708094Y-105363690D01*
X151708094Y-105363690D02*
X151612856Y-105411309D01*
X151612856Y-105411309D02*
X151279523Y-105411309D01*
X152231904Y-105649404D02*
X152708094Y-105649404D01*
X152136666Y-105935119D02*
X152469999Y-104935119D01*
X152469999Y-104935119D02*
X152803332Y-105935119D01*
X152993809Y-104935119D02*
X153565237Y-104935119D01*
X153279523Y-105935119D02*
X153279523Y-104935119D01*
X153755714Y-104935119D02*
X154327142Y-104935119D01*
X154041428Y-105935119D02*
X154041428Y-104935119D01*
X153279523Y-103395119D02*
X152946190Y-102918928D01*
X152708095Y-103395119D02*
X152708095Y-102395119D01*
X152708095Y-102395119D02*
X153089047Y-102395119D01*
X153089047Y-102395119D02*
X153184285Y-102442738D01*
X153184285Y-102442738D02*
X153231904Y-102490357D01*
X153231904Y-102490357D02*
X153279523Y-102585595D01*
X153279523Y-102585595D02*
X153279523Y-102728452D01*
X153279523Y-102728452D02*
X153231904Y-102823690D01*
X153231904Y-102823690D02*
X153184285Y-102871309D01*
X153184285Y-102871309D02*
X153089047Y-102918928D01*
X153089047Y-102918928D02*
X152708095Y-102918928D01*
X153612857Y-102395119D02*
X154279523Y-103395119D01*
X154279523Y-102395119D02*
X153612857Y-103395119D01*
X152803333Y-99855119D02*
X153374761Y-99855119D01*
X153089047Y-100855119D02*
X153089047Y-99855119D01*
X153612857Y-99855119D02*
X154279523Y-100855119D01*
X154279523Y-99855119D02*
X153612857Y-100855119D01*
X152136666Y-97362738D02*
X152041428Y-97315119D01*
X152041428Y-97315119D02*
X151898571Y-97315119D01*
X151898571Y-97315119D02*
X151755714Y-97362738D01*
X151755714Y-97362738D02*
X151660476Y-97457976D01*
X151660476Y-97457976D02*
X151612857Y-97553214D01*
X151612857Y-97553214D02*
X151565238Y-97743690D01*
X151565238Y-97743690D02*
X151565238Y-97886547D01*
X151565238Y-97886547D02*
X151612857Y-98077023D01*
X151612857Y-98077023D02*
X151660476Y-98172261D01*
X151660476Y-98172261D02*
X151755714Y-98267500D01*
X151755714Y-98267500D02*
X151898571Y-98315119D01*
X151898571Y-98315119D02*
X151993809Y-98315119D01*
X151993809Y-98315119D02*
X152136666Y-98267500D01*
X152136666Y-98267500D02*
X152184285Y-98219880D01*
X152184285Y-98219880D02*
X152184285Y-97886547D01*
X152184285Y-97886547D02*
X151993809Y-97886547D01*
X152612857Y-98315119D02*
X152612857Y-97315119D01*
X152612857Y-97315119D02*
X153184285Y-98315119D01*
X153184285Y-98315119D02*
X153184285Y-97315119D01*
X153660476Y-98315119D02*
X153660476Y-97315119D01*
X153660476Y-97315119D02*
X153898571Y-97315119D01*
X153898571Y-97315119D02*
X154041428Y-97362738D01*
X154041428Y-97362738D02*
X154136666Y-97457976D01*
X154136666Y-97457976D02*
X154184285Y-97553214D01*
X154184285Y-97553214D02*
X154231904Y-97743690D01*
X154231904Y-97743690D02*
X154231904Y-97886547D01*
X154231904Y-97886547D02*
X154184285Y-98077023D01*
X154184285Y-98077023D02*
X154136666Y-98172261D01*
X154136666Y-98172261D02*
X154041428Y-98267500D01*
X154041428Y-98267500D02*
X153898571Y-98315119D01*
X153898571Y-98315119D02*
X153660476Y-98315119D01*
%TO.C,H4*%
X123238095Y-144462619D02*
X123238095Y-143462619D01*
X123238095Y-143938809D02*
X123809523Y-143938809D01*
X123809523Y-144462619D02*
X123809523Y-143462619D01*
X124714285Y-143795952D02*
X124714285Y-144462619D01*
X124476190Y-143415000D02*
X124238095Y-144129285D01*
X124238095Y-144129285D02*
X124857142Y-144129285D01*
%TO.C,H3*%
X131238095Y-41262619D02*
X131238095Y-40262619D01*
X131238095Y-40738809D02*
X131809523Y-40738809D01*
X131809523Y-41262619D02*
X131809523Y-40262619D01*
X132190476Y-40262619D02*
X132809523Y-40262619D01*
X132809523Y-40262619D02*
X132476190Y-40643571D01*
X132476190Y-40643571D02*
X132619047Y-40643571D01*
X132619047Y-40643571D02*
X132714285Y-40691190D01*
X132714285Y-40691190D02*
X132761904Y-40738809D01*
X132761904Y-40738809D02*
X132809523Y-40834047D01*
X132809523Y-40834047D02*
X132809523Y-41072142D01*
X132809523Y-41072142D02*
X132761904Y-41167380D01*
X132761904Y-41167380D02*
X132714285Y-41215000D01*
X132714285Y-41215000D02*
X132619047Y-41262619D01*
X132619047Y-41262619D02*
X132333333Y-41262619D01*
X132333333Y-41262619D02*
X132238095Y-41215000D01*
X132238095Y-41215000D02*
X132190476Y-41167380D01*
%TO.C,H2*%
X160238095Y-146462619D02*
X160238095Y-145462619D01*
X160238095Y-145938809D02*
X160809523Y-145938809D01*
X160809523Y-146462619D02*
X160809523Y-145462619D01*
X161238095Y-145557857D02*
X161285714Y-145510238D01*
X161285714Y-145510238D02*
X161380952Y-145462619D01*
X161380952Y-145462619D02*
X161619047Y-145462619D01*
X161619047Y-145462619D02*
X161714285Y-145510238D01*
X161714285Y-145510238D02*
X161761904Y-145557857D01*
X161761904Y-145557857D02*
X161809523Y-145653095D01*
X161809523Y-145653095D02*
X161809523Y-145748333D01*
X161809523Y-145748333D02*
X161761904Y-145891190D01*
X161761904Y-145891190D02*
X161190476Y-146462619D01*
X161190476Y-146462619D02*
X161809523Y-146462619D01*
%TO.C,H1*%
X155238095Y-41262619D02*
X155238095Y-40262619D01*
X155238095Y-40738809D02*
X155809523Y-40738809D01*
X155809523Y-41262619D02*
X155809523Y-40262619D01*
X156809523Y-41262619D02*
X156238095Y-41262619D01*
X156523809Y-41262619D02*
X156523809Y-40262619D01*
X156523809Y-40262619D02*
X156428571Y-40405476D01*
X156428571Y-40405476D02*
X156333333Y-40500714D01*
X156333333Y-40500714D02*
X156238095Y-40548333D01*
%TO.C,D1*%
X142532619Y-96738094D02*
X141532619Y-96738094D01*
X141532619Y-96738094D02*
X141532619Y-96499999D01*
X141532619Y-96499999D02*
X141580238Y-96357142D01*
X141580238Y-96357142D02*
X141675476Y-96261904D01*
X141675476Y-96261904D02*
X141770714Y-96214285D01*
X141770714Y-96214285D02*
X141961190Y-96166666D01*
X141961190Y-96166666D02*
X142104047Y-96166666D01*
X142104047Y-96166666D02*
X142294523Y-96214285D01*
X142294523Y-96214285D02*
X142389761Y-96261904D01*
X142389761Y-96261904D02*
X142485000Y-96357142D01*
X142485000Y-96357142D02*
X142532619Y-96499999D01*
X142532619Y-96499999D02*
X142532619Y-96738094D01*
X142532619Y-95214285D02*
X142532619Y-95785713D01*
X142532619Y-95499999D02*
X141532619Y-95499999D01*
X141532619Y-95499999D02*
X141675476Y-95595237D01*
X141675476Y-95595237D02*
X141770714Y-95690475D01*
X141770714Y-95690475D02*
X141818333Y-95785713D01*
%TO.C,U2*%
X147962619Y-78361904D02*
X148772142Y-78361904D01*
X148772142Y-78361904D02*
X148867380Y-78314285D01*
X148867380Y-78314285D02*
X148915000Y-78266666D01*
X148915000Y-78266666D02*
X148962619Y-78171428D01*
X148962619Y-78171428D02*
X148962619Y-77980952D01*
X148962619Y-77980952D02*
X148915000Y-77885714D01*
X148915000Y-77885714D02*
X148867380Y-77838095D01*
X148867380Y-77838095D02*
X148772142Y-77790476D01*
X148772142Y-77790476D02*
X147962619Y-77790476D01*
X148057857Y-77361904D02*
X148010238Y-77314285D01*
X148010238Y-77314285D02*
X147962619Y-77219047D01*
X147962619Y-77219047D02*
X147962619Y-76980952D01*
X147962619Y-76980952D02*
X148010238Y-76885714D01*
X148010238Y-76885714D02*
X148057857Y-76838095D01*
X148057857Y-76838095D02*
X148153095Y-76790476D01*
X148153095Y-76790476D02*
X148248333Y-76790476D01*
X148248333Y-76790476D02*
X148391190Y-76838095D01*
X148391190Y-76838095D02*
X148962619Y-77409523D01*
X148962619Y-77409523D02*
X148962619Y-76790476D01*
X155026904Y-78461905D02*
X155026904Y-77985715D01*
X155312619Y-78557143D02*
X154312619Y-78223810D01*
X154312619Y-78223810D02*
X155312619Y-77890477D01*
X154645952Y-77557143D02*
X155312619Y-77557143D01*
X154741190Y-77557143D02*
X154693571Y-77509524D01*
X154693571Y-77509524D02*
X154645952Y-77414286D01*
X154645952Y-77414286D02*
X154645952Y-77271429D01*
X154645952Y-77271429D02*
X154693571Y-77176191D01*
X154693571Y-77176191D02*
X154788809Y-77128572D01*
X154788809Y-77128572D02*
X155312619Y-77128572D01*
X154645952Y-76795238D02*
X154645952Y-76414286D01*
X154312619Y-76652381D02*
X155169761Y-76652381D01*
X155169761Y-76652381D02*
X155265000Y-76604762D01*
X155265000Y-76604762D02*
X155312619Y-76509524D01*
X155312619Y-76509524D02*
X155312619Y-76414286D01*
X155265000Y-75700000D02*
X155312619Y-75795238D01*
X155312619Y-75795238D02*
X155312619Y-75985714D01*
X155312619Y-75985714D02*
X155265000Y-76080952D01*
X155265000Y-76080952D02*
X155169761Y-76128571D01*
X155169761Y-76128571D02*
X154788809Y-76128571D01*
X154788809Y-76128571D02*
X154693571Y-76080952D01*
X154693571Y-76080952D02*
X154645952Y-75985714D01*
X154645952Y-75985714D02*
X154645952Y-75795238D01*
X154645952Y-75795238D02*
X154693571Y-75700000D01*
X154693571Y-75700000D02*
X154788809Y-75652381D01*
X154788809Y-75652381D02*
X154884047Y-75652381D01*
X154884047Y-75652381D02*
X154979285Y-76128571D01*
X154645952Y-75223809D02*
X155312619Y-75223809D01*
X154741190Y-75223809D02*
X154693571Y-75176190D01*
X154693571Y-75176190D02*
X154645952Y-75080952D01*
X154645952Y-75080952D02*
X154645952Y-74938095D01*
X154645952Y-74938095D02*
X154693571Y-74842857D01*
X154693571Y-74842857D02*
X154788809Y-74795238D01*
X154788809Y-74795238D02*
X155312619Y-74795238D01*
X154645952Y-74319047D02*
X155312619Y-74319047D01*
X154741190Y-74319047D02*
X154693571Y-74271428D01*
X154693571Y-74271428D02*
X154645952Y-74176190D01*
X154645952Y-74176190D02*
X154645952Y-74033333D01*
X154645952Y-74033333D02*
X154693571Y-73938095D01*
X154693571Y-73938095D02*
X154788809Y-73890476D01*
X154788809Y-73890476D02*
X155312619Y-73890476D01*
X155312619Y-72985714D02*
X154788809Y-72985714D01*
X154788809Y-72985714D02*
X154693571Y-73033333D01*
X154693571Y-73033333D02*
X154645952Y-73128571D01*
X154645952Y-73128571D02*
X154645952Y-73319047D01*
X154645952Y-73319047D02*
X154693571Y-73414285D01*
X155265000Y-72985714D02*
X155312619Y-73080952D01*
X155312619Y-73080952D02*
X155312619Y-73319047D01*
X155312619Y-73319047D02*
X155265000Y-73414285D01*
X155265000Y-73414285D02*
X155169761Y-73461904D01*
X155169761Y-73461904D02*
X155074523Y-73461904D01*
X155074523Y-73461904D02*
X154979285Y-73414285D01*
X154979285Y-73414285D02*
X154931666Y-73319047D01*
X154931666Y-73319047D02*
X154931666Y-73080952D01*
X154931666Y-73080952D02*
X154884047Y-72985714D01*
X155026904Y-71795237D02*
X155026904Y-71319047D01*
X155312619Y-71890475D02*
X154312619Y-71557142D01*
X154312619Y-71557142D02*
X155312619Y-71223809D01*
X155312619Y-70890475D02*
X154645952Y-70890475D01*
X154836428Y-70890475D02*
X154741190Y-70842856D01*
X154741190Y-70842856D02*
X154693571Y-70795237D01*
X154693571Y-70795237D02*
X154645952Y-70699999D01*
X154645952Y-70699999D02*
X154645952Y-70604761D01*
X155265000Y-69890475D02*
X155312619Y-69985713D01*
X155312619Y-69985713D02*
X155312619Y-70176189D01*
X155312619Y-70176189D02*
X155265000Y-70271427D01*
X155265000Y-70271427D02*
X155169761Y-70319046D01*
X155169761Y-70319046D02*
X154788809Y-70319046D01*
X154788809Y-70319046D02*
X154693571Y-70271427D01*
X154693571Y-70271427D02*
X154645952Y-70176189D01*
X154645952Y-70176189D02*
X154645952Y-69985713D01*
X154645952Y-69985713D02*
X154693571Y-69890475D01*
X154693571Y-69890475D02*
X154788809Y-69842856D01*
X154788809Y-69842856D02*
X154884047Y-69842856D01*
X154884047Y-69842856D02*
X154979285Y-70319046D01*
X155312619Y-68985713D02*
X154788809Y-68985713D01*
X154788809Y-68985713D02*
X154693571Y-69033332D01*
X154693571Y-69033332D02*
X154645952Y-69128570D01*
X154645952Y-69128570D02*
X154645952Y-69319046D01*
X154645952Y-69319046D02*
X154693571Y-69414284D01*
X155265000Y-68985713D02*
X155312619Y-69080951D01*
X155312619Y-69080951D02*
X155312619Y-69319046D01*
X155312619Y-69319046D02*
X155265000Y-69414284D01*
X155265000Y-69414284D02*
X155169761Y-69461903D01*
X155169761Y-69461903D02*
X155074523Y-69461903D01*
X155074523Y-69461903D02*
X154979285Y-69414284D01*
X154979285Y-69414284D02*
X154931666Y-69319046D01*
X154931666Y-69319046D02*
X154931666Y-69080951D01*
X154931666Y-69080951D02*
X154884047Y-68985713D01*
%TO.C,U1*%
X132298095Y-86962619D02*
X132298095Y-87772142D01*
X132298095Y-87772142D02*
X132345714Y-87867380D01*
X132345714Y-87867380D02*
X132393333Y-87915000D01*
X132393333Y-87915000D02*
X132488571Y-87962619D01*
X132488571Y-87962619D02*
X132679047Y-87962619D01*
X132679047Y-87962619D02*
X132774285Y-87915000D01*
X132774285Y-87915000D02*
X132821904Y-87867380D01*
X132821904Y-87867380D02*
X132869523Y-87772142D01*
X132869523Y-87772142D02*
X132869523Y-86962619D01*
X133869523Y-87962619D02*
X133298095Y-87962619D01*
X133583809Y-87962619D02*
X133583809Y-86962619D01*
X133583809Y-86962619D02*
X133488571Y-87105476D01*
X133488571Y-87105476D02*
X133393333Y-87200714D01*
X133393333Y-87200714D02*
X133298095Y-87248333D01*
%TO.C,SW1*%
X152315000Y-59533332D02*
X152362619Y-59390475D01*
X152362619Y-59390475D02*
X152362619Y-59152380D01*
X152362619Y-59152380D02*
X152315000Y-59057142D01*
X152315000Y-59057142D02*
X152267380Y-59009523D01*
X152267380Y-59009523D02*
X152172142Y-58961904D01*
X152172142Y-58961904D02*
X152076904Y-58961904D01*
X152076904Y-58961904D02*
X151981666Y-59009523D01*
X151981666Y-59009523D02*
X151934047Y-59057142D01*
X151934047Y-59057142D02*
X151886428Y-59152380D01*
X151886428Y-59152380D02*
X151838809Y-59342856D01*
X151838809Y-59342856D02*
X151791190Y-59438094D01*
X151791190Y-59438094D02*
X151743571Y-59485713D01*
X151743571Y-59485713D02*
X151648333Y-59533332D01*
X151648333Y-59533332D02*
X151553095Y-59533332D01*
X151553095Y-59533332D02*
X151457857Y-59485713D01*
X151457857Y-59485713D02*
X151410238Y-59438094D01*
X151410238Y-59438094D02*
X151362619Y-59342856D01*
X151362619Y-59342856D02*
X151362619Y-59104761D01*
X151362619Y-59104761D02*
X151410238Y-58961904D01*
X151362619Y-58628570D02*
X152362619Y-58390475D01*
X152362619Y-58390475D02*
X151648333Y-58199999D01*
X151648333Y-58199999D02*
X152362619Y-58009523D01*
X152362619Y-58009523D02*
X151362619Y-57771428D01*
X152362619Y-56866666D02*
X152362619Y-57438094D01*
X152362619Y-57152380D02*
X151362619Y-57152380D01*
X151362619Y-57152380D02*
X151505476Y-57247618D01*
X151505476Y-57247618D02*
X151600714Y-57342856D01*
X151600714Y-57342856D02*
X151648333Y-57438094D01*
%TO.C,R9*%
X138982619Y-107066666D02*
X138506428Y-107399999D01*
X138982619Y-107638094D02*
X137982619Y-107638094D01*
X137982619Y-107638094D02*
X137982619Y-107257142D01*
X137982619Y-107257142D02*
X138030238Y-107161904D01*
X138030238Y-107161904D02*
X138077857Y-107114285D01*
X138077857Y-107114285D02*
X138173095Y-107066666D01*
X138173095Y-107066666D02*
X138315952Y-107066666D01*
X138315952Y-107066666D02*
X138411190Y-107114285D01*
X138411190Y-107114285D02*
X138458809Y-107161904D01*
X138458809Y-107161904D02*
X138506428Y-107257142D01*
X138506428Y-107257142D02*
X138506428Y-107638094D01*
X138982619Y-106590475D02*
X138982619Y-106399999D01*
X138982619Y-106399999D02*
X138935000Y-106304761D01*
X138935000Y-106304761D02*
X138887380Y-106257142D01*
X138887380Y-106257142D02*
X138744523Y-106161904D01*
X138744523Y-106161904D02*
X138554047Y-106114285D01*
X138554047Y-106114285D02*
X138173095Y-106114285D01*
X138173095Y-106114285D02*
X138077857Y-106161904D01*
X138077857Y-106161904D02*
X138030238Y-106209523D01*
X138030238Y-106209523D02*
X137982619Y-106304761D01*
X137982619Y-106304761D02*
X137982619Y-106495237D01*
X137982619Y-106495237D02*
X138030238Y-106590475D01*
X138030238Y-106590475D02*
X138077857Y-106638094D01*
X138077857Y-106638094D02*
X138173095Y-106685713D01*
X138173095Y-106685713D02*
X138411190Y-106685713D01*
X138411190Y-106685713D02*
X138506428Y-106638094D01*
X138506428Y-106638094D02*
X138554047Y-106590475D01*
X138554047Y-106590475D02*
X138601666Y-106495237D01*
X138601666Y-106495237D02*
X138601666Y-106304761D01*
X138601666Y-106304761D02*
X138554047Y-106209523D01*
X138554047Y-106209523D02*
X138506428Y-106161904D01*
X138506428Y-106161904D02*
X138411190Y-106114285D01*
%TO.C,R7*%
X153332619Y-145266666D02*
X152856428Y-145599999D01*
X153332619Y-145838094D02*
X152332619Y-145838094D01*
X152332619Y-145838094D02*
X152332619Y-145457142D01*
X152332619Y-145457142D02*
X152380238Y-145361904D01*
X152380238Y-145361904D02*
X152427857Y-145314285D01*
X152427857Y-145314285D02*
X152523095Y-145266666D01*
X152523095Y-145266666D02*
X152665952Y-145266666D01*
X152665952Y-145266666D02*
X152761190Y-145314285D01*
X152761190Y-145314285D02*
X152808809Y-145361904D01*
X152808809Y-145361904D02*
X152856428Y-145457142D01*
X152856428Y-145457142D02*
X152856428Y-145838094D01*
X152332619Y-144933332D02*
X152332619Y-144266666D01*
X152332619Y-144266666D02*
X153332619Y-144695237D01*
%TO.C,C1*%
X134993333Y-86507380D02*
X134945714Y-86555000D01*
X134945714Y-86555000D02*
X134802857Y-86602619D01*
X134802857Y-86602619D02*
X134707619Y-86602619D01*
X134707619Y-86602619D02*
X134564762Y-86555000D01*
X134564762Y-86555000D02*
X134469524Y-86459761D01*
X134469524Y-86459761D02*
X134421905Y-86364523D01*
X134421905Y-86364523D02*
X134374286Y-86174047D01*
X134374286Y-86174047D02*
X134374286Y-86031190D01*
X134374286Y-86031190D02*
X134421905Y-85840714D01*
X134421905Y-85840714D02*
X134469524Y-85745476D01*
X134469524Y-85745476D02*
X134564762Y-85650238D01*
X134564762Y-85650238D02*
X134707619Y-85602619D01*
X134707619Y-85602619D02*
X134802857Y-85602619D01*
X134802857Y-85602619D02*
X134945714Y-85650238D01*
X134945714Y-85650238D02*
X134993333Y-85697857D01*
X135945714Y-86602619D02*
X135374286Y-86602619D01*
X135660000Y-86602619D02*
X135660000Y-85602619D01*
X135660000Y-85602619D02*
X135564762Y-85745476D01*
X135564762Y-85745476D02*
X135469524Y-85840714D01*
X135469524Y-85840714D02*
X135374286Y-85888333D01*
%TO.C,J2*%
X155666666Y-112242619D02*
X155666666Y-112956904D01*
X155666666Y-112956904D02*
X155619047Y-113099761D01*
X155619047Y-113099761D02*
X155523809Y-113195000D01*
X155523809Y-113195000D02*
X155380952Y-113242619D01*
X155380952Y-113242619D02*
X155285714Y-113242619D01*
X156095238Y-112337857D02*
X156142857Y-112290238D01*
X156142857Y-112290238D02*
X156238095Y-112242619D01*
X156238095Y-112242619D02*
X156476190Y-112242619D01*
X156476190Y-112242619D02*
X156571428Y-112290238D01*
X156571428Y-112290238D02*
X156619047Y-112337857D01*
X156619047Y-112337857D02*
X156666666Y-112433095D01*
X156666666Y-112433095D02*
X156666666Y-112528333D01*
X156666666Y-112528333D02*
X156619047Y-112671190D01*
X156619047Y-112671190D02*
X156047619Y-113242619D01*
X156047619Y-113242619D02*
X156666666Y-113242619D01*
%TO.C,SW4*%
X143076667Y-55365000D02*
X143219524Y-55412619D01*
X143219524Y-55412619D02*
X143457619Y-55412619D01*
X143457619Y-55412619D02*
X143552857Y-55365000D01*
X143552857Y-55365000D02*
X143600476Y-55317380D01*
X143600476Y-55317380D02*
X143648095Y-55222142D01*
X143648095Y-55222142D02*
X143648095Y-55126904D01*
X143648095Y-55126904D02*
X143600476Y-55031666D01*
X143600476Y-55031666D02*
X143552857Y-54984047D01*
X143552857Y-54984047D02*
X143457619Y-54936428D01*
X143457619Y-54936428D02*
X143267143Y-54888809D01*
X143267143Y-54888809D02*
X143171905Y-54841190D01*
X143171905Y-54841190D02*
X143124286Y-54793571D01*
X143124286Y-54793571D02*
X143076667Y-54698333D01*
X143076667Y-54698333D02*
X143076667Y-54603095D01*
X143076667Y-54603095D02*
X143124286Y-54507857D01*
X143124286Y-54507857D02*
X143171905Y-54460238D01*
X143171905Y-54460238D02*
X143267143Y-54412619D01*
X143267143Y-54412619D02*
X143505238Y-54412619D01*
X143505238Y-54412619D02*
X143648095Y-54460238D01*
X143981429Y-54412619D02*
X144219524Y-55412619D01*
X144219524Y-55412619D02*
X144410000Y-54698333D01*
X144410000Y-54698333D02*
X144600476Y-55412619D01*
X144600476Y-55412619D02*
X144838572Y-54412619D01*
X145648095Y-54745952D02*
X145648095Y-55412619D01*
X145410000Y-54365000D02*
X145171905Y-55079285D01*
X145171905Y-55079285D02*
X145790952Y-55079285D01*
%TO.C,SW3*%
X150536667Y-136315000D02*
X150679524Y-136362619D01*
X150679524Y-136362619D02*
X150917619Y-136362619D01*
X150917619Y-136362619D02*
X151012857Y-136315000D01*
X151012857Y-136315000D02*
X151060476Y-136267380D01*
X151060476Y-136267380D02*
X151108095Y-136172142D01*
X151108095Y-136172142D02*
X151108095Y-136076904D01*
X151108095Y-136076904D02*
X151060476Y-135981666D01*
X151060476Y-135981666D02*
X151012857Y-135934047D01*
X151012857Y-135934047D02*
X150917619Y-135886428D01*
X150917619Y-135886428D02*
X150727143Y-135838809D01*
X150727143Y-135838809D02*
X150631905Y-135791190D01*
X150631905Y-135791190D02*
X150584286Y-135743571D01*
X150584286Y-135743571D02*
X150536667Y-135648333D01*
X150536667Y-135648333D02*
X150536667Y-135553095D01*
X150536667Y-135553095D02*
X150584286Y-135457857D01*
X150584286Y-135457857D02*
X150631905Y-135410238D01*
X150631905Y-135410238D02*
X150727143Y-135362619D01*
X150727143Y-135362619D02*
X150965238Y-135362619D01*
X150965238Y-135362619D02*
X151108095Y-135410238D01*
X151441429Y-135362619D02*
X151679524Y-136362619D01*
X151679524Y-136362619D02*
X151870000Y-135648333D01*
X151870000Y-135648333D02*
X152060476Y-136362619D01*
X152060476Y-136362619D02*
X152298572Y-135362619D01*
X152584286Y-135362619D02*
X153203333Y-135362619D01*
X153203333Y-135362619D02*
X152870000Y-135743571D01*
X152870000Y-135743571D02*
X153012857Y-135743571D01*
X153012857Y-135743571D02*
X153108095Y-135791190D01*
X153108095Y-135791190D02*
X153155714Y-135838809D01*
X153155714Y-135838809D02*
X153203333Y-135934047D01*
X153203333Y-135934047D02*
X153203333Y-136172142D01*
X153203333Y-136172142D02*
X153155714Y-136267380D01*
X153155714Y-136267380D02*
X153108095Y-136315000D01*
X153108095Y-136315000D02*
X153012857Y-136362619D01*
X153012857Y-136362619D02*
X152727143Y-136362619D01*
X152727143Y-136362619D02*
X152631905Y-136315000D01*
X152631905Y-136315000D02*
X152584286Y-136267380D01*
X151522380Y-140962619D02*
X151189047Y-140486428D01*
X150950952Y-140962619D02*
X150950952Y-139962619D01*
X150950952Y-139962619D02*
X151331904Y-139962619D01*
X151331904Y-139962619D02*
X151427142Y-140010238D01*
X151427142Y-140010238D02*
X151474761Y-140057857D01*
X151474761Y-140057857D02*
X151522380Y-140153095D01*
X151522380Y-140153095D02*
X151522380Y-140295952D01*
X151522380Y-140295952D02*
X151474761Y-140391190D01*
X151474761Y-140391190D02*
X151427142Y-140438809D01*
X151427142Y-140438809D02*
X151331904Y-140486428D01*
X151331904Y-140486428D02*
X150950952Y-140486428D01*
X151903333Y-140915000D02*
X152046190Y-140962619D01*
X152046190Y-140962619D02*
X152284285Y-140962619D01*
X152284285Y-140962619D02*
X152379523Y-140915000D01*
X152379523Y-140915000D02*
X152427142Y-140867380D01*
X152427142Y-140867380D02*
X152474761Y-140772142D01*
X152474761Y-140772142D02*
X152474761Y-140676904D01*
X152474761Y-140676904D02*
X152427142Y-140581666D01*
X152427142Y-140581666D02*
X152379523Y-140534047D01*
X152379523Y-140534047D02*
X152284285Y-140486428D01*
X152284285Y-140486428D02*
X152093809Y-140438809D01*
X152093809Y-140438809D02*
X151998571Y-140391190D01*
X151998571Y-140391190D02*
X151950952Y-140343571D01*
X151950952Y-140343571D02*
X151903333Y-140248333D01*
X151903333Y-140248333D02*
X151903333Y-140153095D01*
X151903333Y-140153095D02*
X151950952Y-140057857D01*
X151950952Y-140057857D02*
X151998571Y-140010238D01*
X151998571Y-140010238D02*
X152093809Y-139962619D01*
X152093809Y-139962619D02*
X152331904Y-139962619D01*
X152331904Y-139962619D02*
X152474761Y-140010238D01*
X152760476Y-139962619D02*
X153331904Y-139962619D01*
X153046190Y-140962619D02*
X153046190Y-139962619D01*
%TO.C,D2*%
X142032619Y-93438094D02*
X141032619Y-93438094D01*
X141032619Y-93438094D02*
X141032619Y-93199999D01*
X141032619Y-93199999D02*
X141080238Y-93057142D01*
X141080238Y-93057142D02*
X141175476Y-92961904D01*
X141175476Y-92961904D02*
X141270714Y-92914285D01*
X141270714Y-92914285D02*
X141461190Y-92866666D01*
X141461190Y-92866666D02*
X141604047Y-92866666D01*
X141604047Y-92866666D02*
X141794523Y-92914285D01*
X141794523Y-92914285D02*
X141889761Y-92961904D01*
X141889761Y-92961904D02*
X141985000Y-93057142D01*
X141985000Y-93057142D02*
X142032619Y-93199999D01*
X142032619Y-93199999D02*
X142032619Y-93438094D01*
X141127857Y-92485713D02*
X141080238Y-92438094D01*
X141080238Y-92438094D02*
X141032619Y-92342856D01*
X141032619Y-92342856D02*
X141032619Y-92104761D01*
X141032619Y-92104761D02*
X141080238Y-92009523D01*
X141080238Y-92009523D02*
X141127857Y-91961904D01*
X141127857Y-91961904D02*
X141223095Y-91914285D01*
X141223095Y-91914285D02*
X141318333Y-91914285D01*
X141318333Y-91914285D02*
X141461190Y-91961904D01*
X141461190Y-91961904D02*
X142032619Y-92533332D01*
X142032619Y-92533332D02*
X142032619Y-91914285D01*
%TO.C,U4*%
X142508095Y-114762619D02*
X142508095Y-115572142D01*
X142508095Y-115572142D02*
X142555714Y-115667380D01*
X142555714Y-115667380D02*
X142603333Y-115715000D01*
X142603333Y-115715000D02*
X142698571Y-115762619D01*
X142698571Y-115762619D02*
X142889047Y-115762619D01*
X142889047Y-115762619D02*
X142984285Y-115715000D01*
X142984285Y-115715000D02*
X143031904Y-115667380D01*
X143031904Y-115667380D02*
X143079523Y-115572142D01*
X143079523Y-115572142D02*
X143079523Y-114762619D01*
X143984285Y-115095952D02*
X143984285Y-115762619D01*
X143746190Y-114715000D02*
X143508095Y-115429285D01*
X143508095Y-115429285D02*
X144127142Y-115429285D01*
%TO.C,R10*%
X151157142Y-129242619D02*
X150823809Y-128766428D01*
X150585714Y-129242619D02*
X150585714Y-128242619D01*
X150585714Y-128242619D02*
X150966666Y-128242619D01*
X150966666Y-128242619D02*
X151061904Y-128290238D01*
X151061904Y-128290238D02*
X151109523Y-128337857D01*
X151109523Y-128337857D02*
X151157142Y-128433095D01*
X151157142Y-128433095D02*
X151157142Y-128575952D01*
X151157142Y-128575952D02*
X151109523Y-128671190D01*
X151109523Y-128671190D02*
X151061904Y-128718809D01*
X151061904Y-128718809D02*
X150966666Y-128766428D01*
X150966666Y-128766428D02*
X150585714Y-128766428D01*
X152109523Y-129242619D02*
X151538095Y-129242619D01*
X151823809Y-129242619D02*
X151823809Y-128242619D01*
X151823809Y-128242619D02*
X151728571Y-128385476D01*
X151728571Y-128385476D02*
X151633333Y-128480714D01*
X151633333Y-128480714D02*
X151538095Y-128528333D01*
X152728571Y-128242619D02*
X152823809Y-128242619D01*
X152823809Y-128242619D02*
X152919047Y-128290238D01*
X152919047Y-128290238D02*
X152966666Y-128337857D01*
X152966666Y-128337857D02*
X153014285Y-128433095D01*
X153014285Y-128433095D02*
X153061904Y-128623571D01*
X153061904Y-128623571D02*
X153061904Y-128861666D01*
X153061904Y-128861666D02*
X153014285Y-129052142D01*
X153014285Y-129052142D02*
X152966666Y-129147380D01*
X152966666Y-129147380D02*
X152919047Y-129195000D01*
X152919047Y-129195000D02*
X152823809Y-129242619D01*
X152823809Y-129242619D02*
X152728571Y-129242619D01*
X152728571Y-129242619D02*
X152633333Y-129195000D01*
X152633333Y-129195000D02*
X152585714Y-129147380D01*
X152585714Y-129147380D02*
X152538095Y-129052142D01*
X152538095Y-129052142D02*
X152490476Y-128861666D01*
X152490476Y-128861666D02*
X152490476Y-128623571D01*
X152490476Y-128623571D02*
X152538095Y-128433095D01*
X152538095Y-128433095D02*
X152585714Y-128337857D01*
X152585714Y-128337857D02*
X152633333Y-128290238D01*
X152633333Y-128290238D02*
X152728571Y-128242619D01*
%TO.C,C5*%
X148883333Y-100567380D02*
X148835714Y-100615000D01*
X148835714Y-100615000D02*
X148692857Y-100662619D01*
X148692857Y-100662619D02*
X148597619Y-100662619D01*
X148597619Y-100662619D02*
X148454762Y-100615000D01*
X148454762Y-100615000D02*
X148359524Y-100519761D01*
X148359524Y-100519761D02*
X148311905Y-100424523D01*
X148311905Y-100424523D02*
X148264286Y-100234047D01*
X148264286Y-100234047D02*
X148264286Y-100091190D01*
X148264286Y-100091190D02*
X148311905Y-99900714D01*
X148311905Y-99900714D02*
X148359524Y-99805476D01*
X148359524Y-99805476D02*
X148454762Y-99710238D01*
X148454762Y-99710238D02*
X148597619Y-99662619D01*
X148597619Y-99662619D02*
X148692857Y-99662619D01*
X148692857Y-99662619D02*
X148835714Y-99710238D01*
X148835714Y-99710238D02*
X148883333Y-99757857D01*
X149788095Y-99662619D02*
X149311905Y-99662619D01*
X149311905Y-99662619D02*
X149264286Y-100138809D01*
X149264286Y-100138809D02*
X149311905Y-100091190D01*
X149311905Y-100091190D02*
X149407143Y-100043571D01*
X149407143Y-100043571D02*
X149645238Y-100043571D01*
X149645238Y-100043571D02*
X149740476Y-100091190D01*
X149740476Y-100091190D02*
X149788095Y-100138809D01*
X149788095Y-100138809D02*
X149835714Y-100234047D01*
X149835714Y-100234047D02*
X149835714Y-100472142D01*
X149835714Y-100472142D02*
X149788095Y-100567380D01*
X149788095Y-100567380D02*
X149740476Y-100615000D01*
X149740476Y-100615000D02*
X149645238Y-100662619D01*
X149645238Y-100662619D02*
X149407143Y-100662619D01*
X149407143Y-100662619D02*
X149311905Y-100615000D01*
X149311905Y-100615000D02*
X149264286Y-100567380D01*
%TO.C,R6*%
X137293333Y-93042619D02*
X136960000Y-92566428D01*
X136721905Y-93042619D02*
X136721905Y-92042619D01*
X136721905Y-92042619D02*
X137102857Y-92042619D01*
X137102857Y-92042619D02*
X137198095Y-92090238D01*
X137198095Y-92090238D02*
X137245714Y-92137857D01*
X137245714Y-92137857D02*
X137293333Y-92233095D01*
X137293333Y-92233095D02*
X137293333Y-92375952D01*
X137293333Y-92375952D02*
X137245714Y-92471190D01*
X137245714Y-92471190D02*
X137198095Y-92518809D01*
X137198095Y-92518809D02*
X137102857Y-92566428D01*
X137102857Y-92566428D02*
X136721905Y-92566428D01*
X138150476Y-92042619D02*
X137960000Y-92042619D01*
X137960000Y-92042619D02*
X137864762Y-92090238D01*
X137864762Y-92090238D02*
X137817143Y-92137857D01*
X137817143Y-92137857D02*
X137721905Y-92280714D01*
X137721905Y-92280714D02*
X137674286Y-92471190D01*
X137674286Y-92471190D02*
X137674286Y-92852142D01*
X137674286Y-92852142D02*
X137721905Y-92947380D01*
X137721905Y-92947380D02*
X137769524Y-92995000D01*
X137769524Y-92995000D02*
X137864762Y-93042619D01*
X137864762Y-93042619D02*
X138055238Y-93042619D01*
X138055238Y-93042619D02*
X138150476Y-92995000D01*
X138150476Y-92995000D02*
X138198095Y-92947380D01*
X138198095Y-92947380D02*
X138245714Y-92852142D01*
X138245714Y-92852142D02*
X138245714Y-92614047D01*
X138245714Y-92614047D02*
X138198095Y-92518809D01*
X138198095Y-92518809D02*
X138150476Y-92471190D01*
X138150476Y-92471190D02*
X138055238Y-92423571D01*
X138055238Y-92423571D02*
X137864762Y-92423571D01*
X137864762Y-92423571D02*
X137769524Y-92471190D01*
X137769524Y-92471190D02*
X137721905Y-92518809D01*
X137721905Y-92518809D02*
X137674286Y-92614047D01*
%TO.C,C6*%
X149433333Y-63167380D02*
X149385714Y-63215000D01*
X149385714Y-63215000D02*
X149242857Y-63262619D01*
X149242857Y-63262619D02*
X149147619Y-63262619D01*
X149147619Y-63262619D02*
X149004762Y-63215000D01*
X149004762Y-63215000D02*
X148909524Y-63119761D01*
X148909524Y-63119761D02*
X148861905Y-63024523D01*
X148861905Y-63024523D02*
X148814286Y-62834047D01*
X148814286Y-62834047D02*
X148814286Y-62691190D01*
X148814286Y-62691190D02*
X148861905Y-62500714D01*
X148861905Y-62500714D02*
X148909524Y-62405476D01*
X148909524Y-62405476D02*
X149004762Y-62310238D01*
X149004762Y-62310238D02*
X149147619Y-62262619D01*
X149147619Y-62262619D02*
X149242857Y-62262619D01*
X149242857Y-62262619D02*
X149385714Y-62310238D01*
X149385714Y-62310238D02*
X149433333Y-62357857D01*
X150290476Y-62262619D02*
X150100000Y-62262619D01*
X150100000Y-62262619D02*
X150004762Y-62310238D01*
X150004762Y-62310238D02*
X149957143Y-62357857D01*
X149957143Y-62357857D02*
X149861905Y-62500714D01*
X149861905Y-62500714D02*
X149814286Y-62691190D01*
X149814286Y-62691190D02*
X149814286Y-63072142D01*
X149814286Y-63072142D02*
X149861905Y-63167380D01*
X149861905Y-63167380D02*
X149909524Y-63215000D01*
X149909524Y-63215000D02*
X150004762Y-63262619D01*
X150004762Y-63262619D02*
X150195238Y-63262619D01*
X150195238Y-63262619D02*
X150290476Y-63215000D01*
X150290476Y-63215000D02*
X150338095Y-63167380D01*
X150338095Y-63167380D02*
X150385714Y-63072142D01*
X150385714Y-63072142D02*
X150385714Y-62834047D01*
X150385714Y-62834047D02*
X150338095Y-62738809D01*
X150338095Y-62738809D02*
X150290476Y-62691190D01*
X150290476Y-62691190D02*
X150195238Y-62643571D01*
X150195238Y-62643571D02*
X150004762Y-62643571D01*
X150004762Y-62643571D02*
X149909524Y-62691190D01*
X149909524Y-62691190D02*
X149861905Y-62738809D01*
X149861905Y-62738809D02*
X149814286Y-62834047D01*
%TO.C,C4*%
X149937380Y-118566666D02*
X149985000Y-118614285D01*
X149985000Y-118614285D02*
X150032619Y-118757142D01*
X150032619Y-118757142D02*
X150032619Y-118852380D01*
X150032619Y-118852380D02*
X149985000Y-118995237D01*
X149985000Y-118995237D02*
X149889761Y-119090475D01*
X149889761Y-119090475D02*
X149794523Y-119138094D01*
X149794523Y-119138094D02*
X149604047Y-119185713D01*
X149604047Y-119185713D02*
X149461190Y-119185713D01*
X149461190Y-119185713D02*
X149270714Y-119138094D01*
X149270714Y-119138094D02*
X149175476Y-119090475D01*
X149175476Y-119090475D02*
X149080238Y-118995237D01*
X149080238Y-118995237D02*
X149032619Y-118852380D01*
X149032619Y-118852380D02*
X149032619Y-118757142D01*
X149032619Y-118757142D02*
X149080238Y-118614285D01*
X149080238Y-118614285D02*
X149127857Y-118566666D01*
X149365952Y-117709523D02*
X150032619Y-117709523D01*
X148985000Y-117947618D02*
X149699285Y-118185713D01*
X149699285Y-118185713D02*
X149699285Y-117566666D01*
%TO.C,R3*%
X149032619Y-96366666D02*
X148556428Y-96699999D01*
X149032619Y-96938094D02*
X148032619Y-96938094D01*
X148032619Y-96938094D02*
X148032619Y-96557142D01*
X148032619Y-96557142D02*
X148080238Y-96461904D01*
X148080238Y-96461904D02*
X148127857Y-96414285D01*
X148127857Y-96414285D02*
X148223095Y-96366666D01*
X148223095Y-96366666D02*
X148365952Y-96366666D01*
X148365952Y-96366666D02*
X148461190Y-96414285D01*
X148461190Y-96414285D02*
X148508809Y-96461904D01*
X148508809Y-96461904D02*
X148556428Y-96557142D01*
X148556428Y-96557142D02*
X148556428Y-96938094D01*
X148032619Y-96033332D02*
X148032619Y-95414285D01*
X148032619Y-95414285D02*
X148413571Y-95747618D01*
X148413571Y-95747618D02*
X148413571Y-95604761D01*
X148413571Y-95604761D02*
X148461190Y-95509523D01*
X148461190Y-95509523D02*
X148508809Y-95461904D01*
X148508809Y-95461904D02*
X148604047Y-95414285D01*
X148604047Y-95414285D02*
X148842142Y-95414285D01*
X148842142Y-95414285D02*
X148937380Y-95461904D01*
X148937380Y-95461904D02*
X148985000Y-95509523D01*
X148985000Y-95509523D02*
X149032619Y-95604761D01*
X149032619Y-95604761D02*
X149032619Y-95890475D01*
X149032619Y-95890475D02*
X148985000Y-95985713D01*
X148985000Y-95985713D02*
X148937380Y-96033332D01*
%TO.C,R5*%
X134463333Y-93132619D02*
X134130000Y-92656428D01*
X133891905Y-93132619D02*
X133891905Y-92132619D01*
X133891905Y-92132619D02*
X134272857Y-92132619D01*
X134272857Y-92132619D02*
X134368095Y-92180238D01*
X134368095Y-92180238D02*
X134415714Y-92227857D01*
X134415714Y-92227857D02*
X134463333Y-92323095D01*
X134463333Y-92323095D02*
X134463333Y-92465952D01*
X134463333Y-92465952D02*
X134415714Y-92561190D01*
X134415714Y-92561190D02*
X134368095Y-92608809D01*
X134368095Y-92608809D02*
X134272857Y-92656428D01*
X134272857Y-92656428D02*
X133891905Y-92656428D01*
X135368095Y-92132619D02*
X134891905Y-92132619D01*
X134891905Y-92132619D02*
X134844286Y-92608809D01*
X134844286Y-92608809D02*
X134891905Y-92561190D01*
X134891905Y-92561190D02*
X134987143Y-92513571D01*
X134987143Y-92513571D02*
X135225238Y-92513571D01*
X135225238Y-92513571D02*
X135320476Y-92561190D01*
X135320476Y-92561190D02*
X135368095Y-92608809D01*
X135368095Y-92608809D02*
X135415714Y-92704047D01*
X135415714Y-92704047D02*
X135415714Y-92942142D01*
X135415714Y-92942142D02*
X135368095Y-93037380D01*
X135368095Y-93037380D02*
X135320476Y-93085000D01*
X135320476Y-93085000D02*
X135225238Y-93132619D01*
X135225238Y-93132619D02*
X134987143Y-93132619D01*
X134987143Y-93132619D02*
X134891905Y-93085000D01*
X134891905Y-93085000D02*
X134844286Y-93037380D01*
%TO.C,J1*%
X143666666Y-139412619D02*
X143666666Y-140126904D01*
X143666666Y-140126904D02*
X143619047Y-140269761D01*
X143619047Y-140269761D02*
X143523809Y-140365000D01*
X143523809Y-140365000D02*
X143380952Y-140412619D01*
X143380952Y-140412619D02*
X143285714Y-140412619D01*
X144666666Y-140412619D02*
X144095238Y-140412619D01*
X144380952Y-140412619D02*
X144380952Y-139412619D01*
X144380952Y-139412619D02*
X144285714Y-139555476D01*
X144285714Y-139555476D02*
X144190476Y-139650714D01*
X144190476Y-139650714D02*
X144095238Y-139698333D01*
%TO.C,R2*%
X133362619Y-89806666D02*
X132886428Y-90139999D01*
X133362619Y-90378094D02*
X132362619Y-90378094D01*
X132362619Y-90378094D02*
X132362619Y-89997142D01*
X132362619Y-89997142D02*
X132410238Y-89901904D01*
X132410238Y-89901904D02*
X132457857Y-89854285D01*
X132457857Y-89854285D02*
X132553095Y-89806666D01*
X132553095Y-89806666D02*
X132695952Y-89806666D01*
X132695952Y-89806666D02*
X132791190Y-89854285D01*
X132791190Y-89854285D02*
X132838809Y-89901904D01*
X132838809Y-89901904D02*
X132886428Y-89997142D01*
X132886428Y-89997142D02*
X132886428Y-90378094D01*
X132457857Y-89425713D02*
X132410238Y-89378094D01*
X132410238Y-89378094D02*
X132362619Y-89282856D01*
X132362619Y-89282856D02*
X132362619Y-89044761D01*
X132362619Y-89044761D02*
X132410238Y-88949523D01*
X132410238Y-88949523D02*
X132457857Y-88901904D01*
X132457857Y-88901904D02*
X132553095Y-88854285D01*
X132553095Y-88854285D02*
X132648333Y-88854285D01*
X132648333Y-88854285D02*
X132791190Y-88901904D01*
X132791190Y-88901904D02*
X133362619Y-89473332D01*
X133362619Y-89473332D02*
X133362619Y-88854285D01*
%TO.C,C7*%
X149433333Y-65967380D02*
X149385714Y-66015000D01*
X149385714Y-66015000D02*
X149242857Y-66062619D01*
X149242857Y-66062619D02*
X149147619Y-66062619D01*
X149147619Y-66062619D02*
X149004762Y-66015000D01*
X149004762Y-66015000D02*
X148909524Y-65919761D01*
X148909524Y-65919761D02*
X148861905Y-65824523D01*
X148861905Y-65824523D02*
X148814286Y-65634047D01*
X148814286Y-65634047D02*
X148814286Y-65491190D01*
X148814286Y-65491190D02*
X148861905Y-65300714D01*
X148861905Y-65300714D02*
X148909524Y-65205476D01*
X148909524Y-65205476D02*
X149004762Y-65110238D01*
X149004762Y-65110238D02*
X149147619Y-65062619D01*
X149147619Y-65062619D02*
X149242857Y-65062619D01*
X149242857Y-65062619D02*
X149385714Y-65110238D01*
X149385714Y-65110238D02*
X149433333Y-65157857D01*
X149766667Y-65062619D02*
X150433333Y-65062619D01*
X150433333Y-65062619D02*
X150004762Y-66062619D01*
%TO.C,C2*%
X137363333Y-86467380D02*
X137315714Y-86515000D01*
X137315714Y-86515000D02*
X137172857Y-86562619D01*
X137172857Y-86562619D02*
X137077619Y-86562619D01*
X137077619Y-86562619D02*
X136934762Y-86515000D01*
X136934762Y-86515000D02*
X136839524Y-86419761D01*
X136839524Y-86419761D02*
X136791905Y-86324523D01*
X136791905Y-86324523D02*
X136744286Y-86134047D01*
X136744286Y-86134047D02*
X136744286Y-85991190D01*
X136744286Y-85991190D02*
X136791905Y-85800714D01*
X136791905Y-85800714D02*
X136839524Y-85705476D01*
X136839524Y-85705476D02*
X136934762Y-85610238D01*
X136934762Y-85610238D02*
X137077619Y-85562619D01*
X137077619Y-85562619D02*
X137172857Y-85562619D01*
X137172857Y-85562619D02*
X137315714Y-85610238D01*
X137315714Y-85610238D02*
X137363333Y-85657857D01*
X137744286Y-85657857D02*
X137791905Y-85610238D01*
X137791905Y-85610238D02*
X137887143Y-85562619D01*
X137887143Y-85562619D02*
X138125238Y-85562619D01*
X138125238Y-85562619D02*
X138220476Y-85610238D01*
X138220476Y-85610238D02*
X138268095Y-85657857D01*
X138268095Y-85657857D02*
X138315714Y-85753095D01*
X138315714Y-85753095D02*
X138315714Y-85848333D01*
X138315714Y-85848333D02*
X138268095Y-85991190D01*
X138268095Y-85991190D02*
X137696667Y-86562619D01*
X137696667Y-86562619D02*
X138315714Y-86562619D01*
%TO.C,U3*%
X148112619Y-107799404D02*
X148922142Y-107799404D01*
X148922142Y-107799404D02*
X149017380Y-107751785D01*
X149017380Y-107751785D02*
X149065000Y-107704166D01*
X149065000Y-107704166D02*
X149112619Y-107608928D01*
X149112619Y-107608928D02*
X149112619Y-107418452D01*
X149112619Y-107418452D02*
X149065000Y-107323214D01*
X149065000Y-107323214D02*
X149017380Y-107275595D01*
X149017380Y-107275595D02*
X148922142Y-107227976D01*
X148922142Y-107227976D02*
X148112619Y-107227976D01*
X148112619Y-106847023D02*
X148112619Y-106227976D01*
X148112619Y-106227976D02*
X148493571Y-106561309D01*
X148493571Y-106561309D02*
X148493571Y-106418452D01*
X148493571Y-106418452D02*
X148541190Y-106323214D01*
X148541190Y-106323214D02*
X148588809Y-106275595D01*
X148588809Y-106275595D02*
X148684047Y-106227976D01*
X148684047Y-106227976D02*
X148922142Y-106227976D01*
X148922142Y-106227976D02*
X149017380Y-106275595D01*
X149017380Y-106275595D02*
X149065000Y-106323214D01*
X149065000Y-106323214D02*
X149112619Y-106418452D01*
X149112619Y-106418452D02*
X149112619Y-106704166D01*
X149112619Y-106704166D02*
X149065000Y-106799404D01*
X149065000Y-106799404D02*
X149017380Y-106847023D01*
%TO.C,SW2*%
X134866667Y-136515000D02*
X135009524Y-136562619D01*
X135009524Y-136562619D02*
X135247619Y-136562619D01*
X135247619Y-136562619D02*
X135342857Y-136515000D01*
X135342857Y-136515000D02*
X135390476Y-136467380D01*
X135390476Y-136467380D02*
X135438095Y-136372142D01*
X135438095Y-136372142D02*
X135438095Y-136276904D01*
X135438095Y-136276904D02*
X135390476Y-136181666D01*
X135390476Y-136181666D02*
X135342857Y-136134047D01*
X135342857Y-136134047D02*
X135247619Y-136086428D01*
X135247619Y-136086428D02*
X135057143Y-136038809D01*
X135057143Y-136038809D02*
X134961905Y-135991190D01*
X134961905Y-135991190D02*
X134914286Y-135943571D01*
X134914286Y-135943571D02*
X134866667Y-135848333D01*
X134866667Y-135848333D02*
X134866667Y-135753095D01*
X134866667Y-135753095D02*
X134914286Y-135657857D01*
X134914286Y-135657857D02*
X134961905Y-135610238D01*
X134961905Y-135610238D02*
X135057143Y-135562619D01*
X135057143Y-135562619D02*
X135295238Y-135562619D01*
X135295238Y-135562619D02*
X135438095Y-135610238D01*
X135771429Y-135562619D02*
X136009524Y-136562619D01*
X136009524Y-136562619D02*
X136200000Y-135848333D01*
X136200000Y-135848333D02*
X136390476Y-136562619D01*
X136390476Y-136562619D02*
X136628572Y-135562619D01*
X136961905Y-135657857D02*
X137009524Y-135610238D01*
X137009524Y-135610238D02*
X137104762Y-135562619D01*
X137104762Y-135562619D02*
X137342857Y-135562619D01*
X137342857Y-135562619D02*
X137438095Y-135610238D01*
X137438095Y-135610238D02*
X137485714Y-135657857D01*
X137485714Y-135657857D02*
X137533333Y-135753095D01*
X137533333Y-135753095D02*
X137533333Y-135848333D01*
X137533333Y-135848333D02*
X137485714Y-135991190D01*
X137485714Y-135991190D02*
X136914286Y-136562619D01*
X136914286Y-136562619D02*
X137533333Y-136562619D01*
X134912857Y-140538809D02*
X135055714Y-140586428D01*
X135055714Y-140586428D02*
X135103333Y-140634047D01*
X135103333Y-140634047D02*
X135150952Y-140729285D01*
X135150952Y-140729285D02*
X135150952Y-140872142D01*
X135150952Y-140872142D02*
X135103333Y-140967380D01*
X135103333Y-140967380D02*
X135055714Y-141015000D01*
X135055714Y-141015000D02*
X134960476Y-141062619D01*
X134960476Y-141062619D02*
X134579524Y-141062619D01*
X134579524Y-141062619D02*
X134579524Y-140062619D01*
X134579524Y-140062619D02*
X134912857Y-140062619D01*
X134912857Y-140062619D02*
X135008095Y-140110238D01*
X135008095Y-140110238D02*
X135055714Y-140157857D01*
X135055714Y-140157857D02*
X135103333Y-140253095D01*
X135103333Y-140253095D02*
X135103333Y-140348333D01*
X135103333Y-140348333D02*
X135055714Y-140443571D01*
X135055714Y-140443571D02*
X135008095Y-140491190D01*
X135008095Y-140491190D02*
X134912857Y-140538809D01*
X134912857Y-140538809D02*
X134579524Y-140538809D01*
X135770000Y-140062619D02*
X135960476Y-140062619D01*
X135960476Y-140062619D02*
X136055714Y-140110238D01*
X136055714Y-140110238D02*
X136150952Y-140205476D01*
X136150952Y-140205476D02*
X136198571Y-140395952D01*
X136198571Y-140395952D02*
X136198571Y-140729285D01*
X136198571Y-140729285D02*
X136150952Y-140919761D01*
X136150952Y-140919761D02*
X136055714Y-141015000D01*
X136055714Y-141015000D02*
X135960476Y-141062619D01*
X135960476Y-141062619D02*
X135770000Y-141062619D01*
X135770000Y-141062619D02*
X135674762Y-141015000D01*
X135674762Y-141015000D02*
X135579524Y-140919761D01*
X135579524Y-140919761D02*
X135531905Y-140729285D01*
X135531905Y-140729285D02*
X135531905Y-140395952D01*
X135531905Y-140395952D02*
X135579524Y-140205476D01*
X135579524Y-140205476D02*
X135674762Y-140110238D01*
X135674762Y-140110238D02*
X135770000Y-140062619D01*
X136817619Y-140062619D02*
X137008095Y-140062619D01*
X137008095Y-140062619D02*
X137103333Y-140110238D01*
X137103333Y-140110238D02*
X137198571Y-140205476D01*
X137198571Y-140205476D02*
X137246190Y-140395952D01*
X137246190Y-140395952D02*
X137246190Y-140729285D01*
X137246190Y-140729285D02*
X137198571Y-140919761D01*
X137198571Y-140919761D02*
X137103333Y-141015000D01*
X137103333Y-141015000D02*
X137008095Y-141062619D01*
X137008095Y-141062619D02*
X136817619Y-141062619D01*
X136817619Y-141062619D02*
X136722381Y-141015000D01*
X136722381Y-141015000D02*
X136627143Y-140919761D01*
X136627143Y-140919761D02*
X136579524Y-140729285D01*
X136579524Y-140729285D02*
X136579524Y-140395952D01*
X136579524Y-140395952D02*
X136627143Y-140205476D01*
X136627143Y-140205476D02*
X136722381Y-140110238D01*
X136722381Y-140110238D02*
X136817619Y-140062619D01*
X137531905Y-140062619D02*
X138103333Y-140062619D01*
X137817619Y-141062619D02*
X137817619Y-140062619D01*
%TO.C,R8*%
X135632619Y-145266666D02*
X135156428Y-145599999D01*
X135632619Y-145838094D02*
X134632619Y-145838094D01*
X134632619Y-145838094D02*
X134632619Y-145457142D01*
X134632619Y-145457142D02*
X134680238Y-145361904D01*
X134680238Y-145361904D02*
X134727857Y-145314285D01*
X134727857Y-145314285D02*
X134823095Y-145266666D01*
X134823095Y-145266666D02*
X134965952Y-145266666D01*
X134965952Y-145266666D02*
X135061190Y-145314285D01*
X135061190Y-145314285D02*
X135108809Y-145361904D01*
X135108809Y-145361904D02*
X135156428Y-145457142D01*
X135156428Y-145457142D02*
X135156428Y-145838094D01*
X135061190Y-144695237D02*
X135013571Y-144790475D01*
X135013571Y-144790475D02*
X134965952Y-144838094D01*
X134965952Y-144838094D02*
X134870714Y-144885713D01*
X134870714Y-144885713D02*
X134823095Y-144885713D01*
X134823095Y-144885713D02*
X134727857Y-144838094D01*
X134727857Y-144838094D02*
X134680238Y-144790475D01*
X134680238Y-144790475D02*
X134632619Y-144695237D01*
X134632619Y-144695237D02*
X134632619Y-144504761D01*
X134632619Y-144504761D02*
X134680238Y-144409523D01*
X134680238Y-144409523D02*
X134727857Y-144361904D01*
X134727857Y-144361904D02*
X134823095Y-144314285D01*
X134823095Y-144314285D02*
X134870714Y-144314285D01*
X134870714Y-144314285D02*
X134965952Y-144361904D01*
X134965952Y-144361904D02*
X135013571Y-144409523D01*
X135013571Y-144409523D02*
X135061190Y-144504761D01*
X135061190Y-144504761D02*
X135061190Y-144695237D01*
X135061190Y-144695237D02*
X135108809Y-144790475D01*
X135108809Y-144790475D02*
X135156428Y-144838094D01*
X135156428Y-144838094D02*
X135251666Y-144885713D01*
X135251666Y-144885713D02*
X135442142Y-144885713D01*
X135442142Y-144885713D02*
X135537380Y-144838094D01*
X135537380Y-144838094D02*
X135585000Y-144790475D01*
X135585000Y-144790475D02*
X135632619Y-144695237D01*
X135632619Y-144695237D02*
X135632619Y-144504761D01*
X135632619Y-144504761D02*
X135585000Y-144409523D01*
X135585000Y-144409523D02*
X135537380Y-144361904D01*
X135537380Y-144361904D02*
X135442142Y-144314285D01*
X135442142Y-144314285D02*
X135251666Y-144314285D01*
X135251666Y-144314285D02*
X135156428Y-144361904D01*
X135156428Y-144361904D02*
X135108809Y-144409523D01*
X135108809Y-144409523D02*
X135061190Y-144504761D01*
%TO.C,R11*%
X145082619Y-136342857D02*
X144606428Y-136676190D01*
X145082619Y-136914285D02*
X144082619Y-136914285D01*
X144082619Y-136914285D02*
X144082619Y-136533333D01*
X144082619Y-136533333D02*
X144130238Y-136438095D01*
X144130238Y-136438095D02*
X144177857Y-136390476D01*
X144177857Y-136390476D02*
X144273095Y-136342857D01*
X144273095Y-136342857D02*
X144415952Y-136342857D01*
X144415952Y-136342857D02*
X144511190Y-136390476D01*
X144511190Y-136390476D02*
X144558809Y-136438095D01*
X144558809Y-136438095D02*
X144606428Y-136533333D01*
X144606428Y-136533333D02*
X144606428Y-136914285D01*
X145082619Y-135390476D02*
X145082619Y-135961904D01*
X145082619Y-135676190D02*
X144082619Y-135676190D01*
X144082619Y-135676190D02*
X144225476Y-135771428D01*
X144225476Y-135771428D02*
X144320714Y-135866666D01*
X144320714Y-135866666D02*
X144368333Y-135961904D01*
X145082619Y-134438095D02*
X145082619Y-135009523D01*
X145082619Y-134723809D02*
X144082619Y-134723809D01*
X144082619Y-134723809D02*
X144225476Y-134819047D01*
X144225476Y-134819047D02*
X144320714Y-134914285D01*
X144320714Y-134914285D02*
X144368333Y-135009523D01*
%TO.C,R1*%
X139773333Y-89162619D02*
X139440000Y-88686428D01*
X139201905Y-89162619D02*
X139201905Y-88162619D01*
X139201905Y-88162619D02*
X139582857Y-88162619D01*
X139582857Y-88162619D02*
X139678095Y-88210238D01*
X139678095Y-88210238D02*
X139725714Y-88257857D01*
X139725714Y-88257857D02*
X139773333Y-88353095D01*
X139773333Y-88353095D02*
X139773333Y-88495952D01*
X139773333Y-88495952D02*
X139725714Y-88591190D01*
X139725714Y-88591190D02*
X139678095Y-88638809D01*
X139678095Y-88638809D02*
X139582857Y-88686428D01*
X139582857Y-88686428D02*
X139201905Y-88686428D01*
X140725714Y-89162619D02*
X140154286Y-89162619D01*
X140440000Y-89162619D02*
X140440000Y-88162619D01*
X140440000Y-88162619D02*
X140344762Y-88305476D01*
X140344762Y-88305476D02*
X140249524Y-88400714D01*
X140249524Y-88400714D02*
X140154286Y-88448333D01*
%TO.C,C3*%
X137737380Y-118966666D02*
X137785000Y-119014285D01*
X137785000Y-119014285D02*
X137832619Y-119157142D01*
X137832619Y-119157142D02*
X137832619Y-119252380D01*
X137832619Y-119252380D02*
X137785000Y-119395237D01*
X137785000Y-119395237D02*
X137689761Y-119490475D01*
X137689761Y-119490475D02*
X137594523Y-119538094D01*
X137594523Y-119538094D02*
X137404047Y-119585713D01*
X137404047Y-119585713D02*
X137261190Y-119585713D01*
X137261190Y-119585713D02*
X137070714Y-119538094D01*
X137070714Y-119538094D02*
X136975476Y-119490475D01*
X136975476Y-119490475D02*
X136880238Y-119395237D01*
X136880238Y-119395237D02*
X136832619Y-119252380D01*
X136832619Y-119252380D02*
X136832619Y-119157142D01*
X136832619Y-119157142D02*
X136880238Y-119014285D01*
X136880238Y-119014285D02*
X136927857Y-118966666D01*
X136832619Y-118633332D02*
X136832619Y-118014285D01*
X136832619Y-118014285D02*
X137213571Y-118347618D01*
X137213571Y-118347618D02*
X137213571Y-118204761D01*
X137213571Y-118204761D02*
X137261190Y-118109523D01*
X137261190Y-118109523D02*
X137308809Y-118061904D01*
X137308809Y-118061904D02*
X137404047Y-118014285D01*
X137404047Y-118014285D02*
X137642142Y-118014285D01*
X137642142Y-118014285D02*
X137737380Y-118061904D01*
X137737380Y-118061904D02*
X137785000Y-118109523D01*
X137785000Y-118109523D02*
X137832619Y-118204761D01*
X137832619Y-118204761D02*
X137832619Y-118490475D01*
X137832619Y-118490475D02*
X137785000Y-118585713D01*
X137785000Y-118585713D02*
X137737380Y-118633332D01*
%TO.C,R4*%
X149132619Y-91366666D02*
X148656428Y-91699999D01*
X149132619Y-91938094D02*
X148132619Y-91938094D01*
X148132619Y-91938094D02*
X148132619Y-91557142D01*
X148132619Y-91557142D02*
X148180238Y-91461904D01*
X148180238Y-91461904D02*
X148227857Y-91414285D01*
X148227857Y-91414285D02*
X148323095Y-91366666D01*
X148323095Y-91366666D02*
X148465952Y-91366666D01*
X148465952Y-91366666D02*
X148561190Y-91414285D01*
X148561190Y-91414285D02*
X148608809Y-91461904D01*
X148608809Y-91461904D02*
X148656428Y-91557142D01*
X148656428Y-91557142D02*
X148656428Y-91938094D01*
X148465952Y-90509523D02*
X149132619Y-90509523D01*
X148085000Y-90747618D02*
X148799285Y-90985713D01*
X148799285Y-90985713D02*
X148799285Y-90366666D01*
D11*
%TO.C,D1*%
X145105000Y-94015000D02*
X142835000Y-94015000D01*
X142835000Y-94015000D02*
X142835000Y-97900000D01*
X145105000Y-97900000D02*
X145105000Y-94015000D01*
%TO.C,U2*%
X138800000Y-66800000D02*
X138000000Y-66800000D01*
X138000000Y-66800000D02*
X138000000Y-67600000D01*
X157300000Y-67100000D02*
X157300000Y-80300000D01*
X151900000Y-67100000D02*
X151900000Y-80300000D01*
X138300000Y-67100000D02*
X157300000Y-67100000D01*
X157600000Y-67775000D02*
X157600000Y-66800000D01*
X157600000Y-79850000D02*
X157600000Y-80600000D01*
X157300000Y-80300000D02*
X138300000Y-80300000D01*
X138300000Y-80300000D02*
X138300000Y-67100000D01*
X157600000Y-80600000D02*
X157000000Y-80600000D01*
X138800000Y-80600000D02*
X138000000Y-80600000D01*
X138000000Y-80600000D02*
X138000000Y-79800000D01*
%TO.C,U1*%
X135060000Y-88180000D02*
X137060000Y-88180000D01*
X137060000Y-90420000D02*
X136060000Y-90420000D01*
D10*
%TO.C,SW1*%
X153200000Y-61900000D02*
X153200000Y-53300000D01*
X157800000Y-61900000D02*
X157800000Y-59700000D01*
X157800000Y-55600000D02*
X157800000Y-53300000D01*
D11*
%TO.C,R9*%
X141310000Y-107664564D02*
X141310000Y-106210436D01*
X139490000Y-107664564D02*
X139490000Y-106210436D01*
%TO.C,R7*%
X151910000Y-145927064D02*
X151910000Y-144472936D01*
X150090000Y-145927064D02*
X150090000Y-144472936D01*
%TO.C,C1*%
X135052164Y-87660000D02*
X135267836Y-87660000D01*
X135052164Y-86940000D02*
X135267836Y-86940000D01*
%TO.C,J2*%
X157330000Y-111780000D02*
X156000000Y-111780000D01*
X157330000Y-110450000D02*
X157330000Y-111780000D01*
X157330000Y-109180000D02*
X157330000Y-96420000D01*
X157330000Y-109180000D02*
X154670000Y-109180000D01*
X157330000Y-96420000D02*
X154670000Y-96420000D01*
X154670000Y-109180000D02*
X154670000Y-96420000D01*
%TO.C,SW4*%
X142590000Y-56000000D02*
X145590000Y-56000000D01*
D12*
X142305000Y-56120000D02*
G75*
G03*
X142305000Y-56120000I-65000J0D01*
G01*
D11*
%TO.C,SW3*%
X148250000Y-135200000D02*
X148250000Y-136700000D01*
X149500000Y-139200000D02*
X154000000Y-139200000D01*
X154000000Y-132700000D02*
X149500000Y-132700000D01*
X155250000Y-136700000D02*
X155250000Y-135200000D01*
%TO.C,D2*%
X145105000Y-92700000D02*
X145105000Y-88815000D01*
X142835000Y-88815000D02*
X142835000Y-92700000D01*
X145105000Y-88815000D02*
X142835000Y-88815000D01*
%TO.C,U4*%
X141370000Y-120700000D02*
X141370000Y-119560000D01*
X141140000Y-119560000D02*
X141370000Y-119560000D01*
X141140000Y-119560000D02*
X141140000Y-116840000D01*
X145860000Y-119560000D02*
X145630000Y-119560000D01*
X141140000Y-116840000D02*
X142450000Y-116840000D01*
X144550000Y-116840000D02*
X145860000Y-116840000D01*
X145860000Y-116840000D02*
X145860000Y-119560000D01*
%TO.C,R10*%
X151072936Y-129690000D02*
X152527064Y-129690000D01*
X151072936Y-131510000D02*
X152527064Y-131510000D01*
%TO.C,C5*%
X146361252Y-101110000D02*
X144938748Y-101110000D01*
X146361252Y-99290000D02*
X144938748Y-99290000D01*
%TO.C,R6*%
X136616359Y-91020000D02*
X136923641Y-91020000D01*
X136616359Y-91780000D02*
X136923641Y-91780000D01*
%TO.C,C6*%
X147011252Y-63510000D02*
X145588748Y-63510000D01*
X147011252Y-61690000D02*
X145588748Y-61690000D01*
%TO.C,C4*%
X146740000Y-119461252D02*
X146740000Y-118038748D01*
X148560000Y-119461252D02*
X148560000Y-118038748D01*
%TO.C,R3*%
X145760000Y-96927064D02*
X145760000Y-95472936D01*
X147580000Y-96927064D02*
X147580000Y-95472936D01*
%TO.C,R5*%
X134406359Y-91780000D02*
X134713641Y-91780000D01*
X134406359Y-91020000D02*
X134713641Y-91020000D01*
%TO.C,J1*%
X148595000Y-147750000D02*
X148595000Y-150480000D01*
X148595000Y-144150000D02*
X148595000Y-145050000D01*
X139525000Y-141070000D02*
X148475000Y-141070000D01*
X139405000Y-150480000D02*
X148595000Y-150480000D01*
X139405000Y-147750000D02*
X139405000Y-150480000D01*
X139405000Y-144150000D02*
X139405000Y-145050000D01*
%TO.C,R2*%
X133780000Y-89456359D02*
X133780000Y-89763641D01*
X134540000Y-89456359D02*
X134540000Y-89763641D01*
%TO.C,C7*%
X147011252Y-66210000D02*
X145588748Y-66210000D01*
X147011252Y-64390000D02*
X145588748Y-64390000D01*
%TO.C,C2*%
X137757836Y-87660000D02*
X137542164Y-87660000D01*
X137757836Y-86940000D02*
X137542164Y-86940000D01*
%TO.C,U3*%
X142590000Y-107037500D02*
X142590000Y-109237500D01*
X142590000Y-107037500D02*
X142590000Y-104837500D01*
X147810000Y-107037500D02*
X147810000Y-109237500D01*
X147810000Y-107037500D02*
X147810000Y-103437500D01*
%TO.C,SW2*%
X132700000Y-135350000D02*
X132700000Y-136850000D01*
X133950000Y-139350000D02*
X138450000Y-139350000D01*
X138450000Y-132850000D02*
X133950000Y-132850000D01*
X139700000Y-136850000D02*
X139700000Y-135350000D01*
%TO.C,R8*%
X135990000Y-144472936D02*
X135990000Y-145927064D01*
X137810000Y-144472936D02*
X137810000Y-145927064D01*
%TO.C,R11*%
X143710000Y-134972936D02*
X143710000Y-136427064D01*
X141890000Y-134972936D02*
X141890000Y-136427064D01*
%TO.C,R1*%
X139206359Y-89720000D02*
X139513641Y-89720000D01*
X139206359Y-90480000D02*
X139513641Y-90480000D01*
%TO.C,C3*%
X140260000Y-118038748D02*
X140260000Y-119461252D01*
X138440000Y-118038748D02*
X138440000Y-119461252D01*
%TO.C,R4*%
X145760000Y-91827064D02*
X145760000Y-90372936D01*
X147580000Y-91827064D02*
X147580000Y-90372936D01*
%TD*%
M02*
