%TF.GenerationSoftware,KiCad,Pcbnew,7.0.2-0*%
%TF.CreationDate,2023-06-17T13:30:50-07:00*%
%TF.ProjectId,camera-clicker,63616d65-7261-42d6-936c-69636b65722e,rev?*%
%TF.SameCoordinates,Original*%
%TF.FileFunction,Copper,L1,Top*%
%TF.FilePolarity,Positive*%
%FSLAX46Y46*%
G04 Gerber Fmt 4.6, Leading zero omitted, Abs format (unit mm)*
G04 Created by KiCad (PCBNEW 7.0.2-0) date 2023-06-17 13:30:50*
%MOMM*%
%LPD*%
G01*
G04 APERTURE LIST*
G04 Aperture macros list*
%AMRoundRect*
0 Rectangle with rounded corners*
0 $1 Rounding radius*
0 $2 $3 $4 $5 $6 $7 $8 $9 X,Y pos of 4 corners*
0 Add a 4 corners polygon primitive as box body*
4,1,4,$2,$3,$4,$5,$6,$7,$8,$9,$2,$3,0*
0 Add four circle primitives for the rounded corners*
1,1,$1+$1,$2,$3*
1,1,$1+$1,$4,$5*
1,1,$1+$1,$6,$7*
1,1,$1+$1,$8,$9*
0 Add four rect primitives between the rounded corners*
20,1,$1+$1,$2,$3,$4,$5,0*
20,1,$1+$1,$4,$5,$6,$7,0*
20,1,$1+$1,$6,$7,$8,$9,0*
20,1,$1+$1,$8,$9,$2,$3,0*%
%AMFreePoly0*
4,1,6,0.500000,-0.100000,0.500000,-0.500000,-0.500000,-0.500000,-0.500000,0.500000,-0.100000,0.500000,0.500000,-0.100000,0.500000,-0.100000,$1*%
G04 Aperture macros list end*
%TA.AperFunction,SMDPad,CuDef*%
%ADD10RoundRect,0.250000X-0.625000X0.375000X-0.625000X-0.375000X0.625000X-0.375000X0.625000X0.375000X0*%
%TD*%
%TA.AperFunction,SMDPad,CuDef*%
%ADD11R,0.400000X0.800000*%
%TD*%
%TA.AperFunction,SMDPad,CuDef*%
%ADD12R,0.800000X0.400000*%
%TD*%
%TA.AperFunction,SMDPad,CuDef*%
%ADD13FreePoly0,0.000000*%
%TD*%
%TA.AperFunction,SMDPad,CuDef*%
%ADD14R,1.000000X1.000000*%
%TD*%
%TA.AperFunction,SMDPad,CuDef*%
%ADD15R,0.500000X0.250000*%
%TD*%
%TA.AperFunction,SMDPad,CuDef*%
%ADD16R,0.900000X1.600000*%
%TD*%
%TA.AperFunction,ComponentPad*%
%ADD17O,3.500000X2.200000*%
%TD*%
%TA.AperFunction,ComponentPad*%
%ADD18R,2.500000X1.500000*%
%TD*%
%TA.AperFunction,ComponentPad*%
%ADD19O,2.500000X1.500000*%
%TD*%
%TA.AperFunction,SMDPad,CuDef*%
%ADD20R,0.700000X1.200000*%
%TD*%
%TA.AperFunction,SMDPad,CuDef*%
%ADD21R,0.760000X1.200000*%
%TD*%
%TA.AperFunction,SMDPad,CuDef*%
%ADD22R,0.800000X1.200000*%
%TD*%
%TA.AperFunction,ComponentPad*%
%ADD23O,1.100000X1.700000*%
%TD*%
%TA.AperFunction,SMDPad,CuDef*%
%ADD24RoundRect,0.250000X-0.625000X0.312500X-0.625000X-0.312500X0.625000X-0.312500X0.625000X0.312500X0*%
%TD*%
%TA.AperFunction,SMDPad,CuDef*%
%ADD25RoundRect,0.140000X-0.140000X-0.170000X0.140000X-0.170000X0.140000X0.170000X-0.140000X0.170000X0*%
%TD*%
%TA.AperFunction,ComponentPad*%
%ADD26R,1.700000X1.700000*%
%TD*%
%TA.AperFunction,ComponentPad*%
%ADD27O,1.700000X1.700000*%
%TD*%
%TA.AperFunction,SMDPad,CuDef*%
%ADD28RoundRect,0.137500X-0.137500X-0.212500X0.137500X-0.212500X0.137500X0.212500X-0.137500X0.212500X0*%
%TD*%
%TA.AperFunction,SMDPad,CuDef*%
%ADD29R,1.000000X0.700000*%
%TD*%
%TA.AperFunction,SMDPad,CuDef*%
%ADD30RoundRect,0.135000X-0.135000X-0.185000X0.135000X-0.185000X0.135000X0.185000X-0.135000X0.185000X0*%
%TD*%
%TA.AperFunction,SMDPad,CuDef*%
%ADD31RoundRect,0.250000X0.325000X0.650000X-0.325000X0.650000X-0.325000X-0.650000X0.325000X-0.650000X0*%
%TD*%
%TA.AperFunction,SMDPad,CuDef*%
%ADD32RoundRect,0.250000X0.625000X-0.312500X0.625000X0.312500X-0.625000X0.312500X-0.625000X-0.312500X0*%
%TD*%
%TA.AperFunction,SMDPad,CuDef*%
%ADD33RoundRect,0.135000X-0.185000X0.135000X-0.185000X-0.135000X0.185000X-0.135000X0.185000X0.135000X0*%
%TD*%
%TA.AperFunction,SMDPad,CuDef*%
%ADD34RoundRect,0.140000X0.140000X0.170000X-0.140000X0.170000X-0.140000X-0.170000X0.140000X-0.170000X0*%
%TD*%
%TA.AperFunction,ViaPad*%
%ADD35C,0.800000*%
%TD*%
%TA.AperFunction,Conductor*%
%ADD36C,0.650000*%
%TD*%
%TA.AperFunction,Conductor*%
%ADD37C,0.250000*%
%TD*%
%TA.AperFunction,Conductor*%
%ADD38C,0.330000*%
%TD*%
G04 APERTURE END LIST*
D10*
%TO.P,D1,1,K*%
%TO.N,Net-(D1-K)*%
X143970000Y-94900000D03*
%TO.P,D1,2,A*%
%TO.N,Net-(D1-A)*%
X143970000Y-97700000D03*
%TD*%
D11*
%TO.P,U2,1,GND*%
%TO.N,GND*%
X149900000Y-67800000D03*
%TO.P,U2,2,GND*%
X149100000Y-67800000D03*
%TO.P,U2,3,3V3*%
%TO.N,+BATT*%
X148300000Y-67800000D03*
%TO.P,U2,4,SENSOR_VP/GPIO36/ADC1_CH0*%
%TO.N,unconnected-(U2-SENSOR_VP{slash}GPIO36{slash}ADC1_CH0-Pad4)*%
X147500000Y-67800000D03*
%TO.P,U2,5,SENSOR_CAPP/GPIO37/ADC1_CH1*%
%TO.N,unconnected-(U2-SENSOR_CAPP{slash}GPIO37{slash}ADC1_CH1-Pad5)*%
X146700000Y-67800000D03*
%TO.P,U2,6,SENSOR_CAPN/GPIO38/ADC1_CH2*%
%TO.N,unconnected-(U2-SENSOR_CAPN{slash}GPIO38{slash}ADC1_CH2-Pad6)*%
X145900000Y-67800000D03*
%TO.P,U2,7,SENSOR_VN/GPIO39/ADC1_CH3*%
%TO.N,unconnected-(U2-SENSOR_VN{slash}GPIO39{slash}ADC1_CH3-Pad7)*%
X145100000Y-67800000D03*
%TO.P,U2,8,EN/CHIP_PU*%
%TO.N,Net-(SW3-B)*%
X144300000Y-67800000D03*
%TO.P,U2,9,VDET_1/GPIO34/ADC1_CH6*%
%TO.N,unconnected-(U2-VDET_1{slash}GPIO34{slash}ADC1_CH6-Pad9)*%
X143500000Y-67800000D03*
%TO.P,U2,10,VDET_2/GPIO35/ADC1_CH7*%
%TO.N,unconnected-(U2-VDET_2{slash}GPIO35{slash}ADC1_CH7-Pad10)*%
X142700000Y-67800000D03*
%TO.P,U2,11,32K_XP/GPIO32/ADC1_CH4*%
%TO.N,unconnected-(U2-32K_XP{slash}GPIO32{slash}ADC1_CH4-Pad11)*%
X141900000Y-67800000D03*
%TO.P,U2,12,32K_XN/GPIO33/ADC1_CH5*%
%TO.N,unconnected-(U2-32K_XN{slash}GPIO33{slash}ADC1_CH5-Pad12)*%
X141100000Y-67800000D03*
%TO.P,U2,13,GPIO25/ADC2_CH8/DAC_1*%
%TO.N,unconnected-(U2-GPIO25{slash}ADC2_CH8{slash}DAC_1-Pad13)*%
X140300000Y-67800000D03*
D12*
%TO.P,U2,14,GPIO26/ADC2_CH9/DAC_2*%
%TO.N,unconnected-(U2-GPIO26{slash}ADC2_CH9{slash}DAC_2-Pad14)*%
X139050000Y-68500000D03*
%TO.P,U2,15,GPIO27/ADC2_CH7*%
%TO.N,unconnected-(U2-GPIO27{slash}ADC2_CH7-Pad15)*%
X139050000Y-69300000D03*
%TO.P,U2,16,MTMS/GPIO14/ADC2_CH6*%
%TO.N,unconnected-(U2-MTMS{slash}GPIO14{slash}ADC2_CH6-Pad16)*%
X139050000Y-70100000D03*
%TO.P,U2,17,MTDI/GPIO12/ADC2_CH5*%
%TO.N,unconnected-(U2-MTDI{slash}GPIO12{slash}ADC2_CH5-Pad17)*%
X139050000Y-70900000D03*
%TO.P,U2,18,MTCK/GPIO13/ADC2_CH4*%
%TO.N,unconnected-(U2-MTCK{slash}GPIO13{slash}ADC2_CH4-Pad18)*%
X139050000Y-71700000D03*
%TO.P,U2,19,MTDO/GPIO15/ADC2_CH3*%
%TO.N,unconnected-(U2-MTDO{slash}GPIO15{slash}ADC2_CH3-Pad19)*%
X139050000Y-72500000D03*
%TO.P,U2,20,GPIO2/ADC2_CH2*%
%TO.N,unconnected-(U2-GPIO2{slash}ADC2_CH2-Pad20)*%
X139050000Y-73300000D03*
%TO.P,U2,21,GPIO0/BOOT/ADC2_CH1*%
%TO.N,Net-(SW2-A)*%
X139050000Y-74100000D03*
%TO.P,U2,22,GPIO4/ADC2_CH0*%
%TO.N,unconnected-(U2-GPIO4{slash}ADC2_CH0-Pad22)*%
X139050000Y-74900000D03*
%TO.P,U2,23,NC*%
%TO.N,unconnected-(U2-NC-Pad23)*%
X139050000Y-75700000D03*
%TO.P,U2,24,NC*%
%TO.N,unconnected-(U2-NC-Pad24)*%
X139050000Y-76500000D03*
%TO.P,U2,25,SD_DATA2/GPIO9*%
%TO.N,unconnected-(U2-SD_DATA2{slash}GPIO9-Pad25)*%
X139050000Y-77300000D03*
%TO.P,U2,26,SD_DATA3/GPIO10*%
%TO.N,unconnected-(U2-SD_DATA3{slash}GPIO10-Pad26)*%
X139050000Y-78100000D03*
%TO.P,U2,27,GND*%
%TO.N,GND*%
X139050000Y-78900000D03*
D11*
%TO.P,U2,28,NC*%
%TO.N,unconnected-(U2-NC-Pad28)*%
X140300000Y-79600000D03*
%TO.P,U2,29,GPIO5*%
%TO.N,unconnected-(U2-GPIO5-Pad29)*%
X141100000Y-79600000D03*
%TO.P,U2,30,GPIO18*%
%TO.N,/SW1*%
X141900000Y-79600000D03*
%TO.P,U2,31,GPIO23*%
%TO.N,unconnected-(U2-GPIO23-Pad31)*%
X142700000Y-79600000D03*
%TO.P,U2,32,GPIO19*%
%TO.N,/SW2*%
X143500000Y-79600000D03*
%TO.P,U2,33,GPIO22*%
%TO.N,unconnected-(U2-GPIO22-Pad33)*%
X144300000Y-79600000D03*
%TO.P,U2,34,GPIO21*%
%TO.N,unconnected-(U2-GPIO21-Pad34)*%
X145100000Y-79600000D03*
%TO.P,U2,35,U0RXD/GPIO3*%
%TO.N,/TX*%
X145900000Y-79600000D03*
%TO.P,U2,36,U0TXD/GPIO1*%
%TO.N,/RX*%
X146700000Y-79600000D03*
%TO.P,U2,37,NC*%
%TO.N,unconnected-(U2-NC-Pad37)*%
X147500000Y-79600000D03*
%TO.P,U2,38,GND*%
%TO.N,GND*%
X148300000Y-79600000D03*
%TO.P,U2,39,GND*%
X149100000Y-79600000D03*
%TO.P,U2,40,GND*%
X149900000Y-79600000D03*
D12*
%TO.P,U2,41,GND*%
X151150000Y-78900000D03*
%TO.P,U2,42,GND*%
X151150000Y-78100000D03*
%TO.P,U2,43,GND*%
X151150000Y-77300000D03*
%TO.P,U2,44,GND*%
X151150000Y-76500000D03*
%TO.P,U2,45,GND*%
X151150000Y-75700000D03*
%TO.P,U2,46,GND*%
X151150000Y-74900000D03*
%TO.P,U2,47,GND*%
X151150000Y-74100000D03*
%TO.P,U2,48,GND*%
X151150000Y-73300000D03*
%TO.P,U2,49,GND*%
X151150000Y-72500000D03*
%TO.P,U2,50,GND*%
X151150000Y-71700000D03*
%TO.P,U2,51,GND*%
X151150000Y-70900000D03*
%TO.P,U2,52,GND*%
X151150000Y-70100000D03*
%TO.P,U2,53,GND*%
X151150000Y-69300000D03*
%TO.P,U2,54,GND*%
X151150000Y-68500000D03*
D13*
%TO.P,U2,55,GND*%
X146600000Y-72200000D03*
D14*
X145100000Y-72200000D03*
X143600000Y-72200000D03*
X146600000Y-73700000D03*
X145100000Y-73700000D03*
X143600000Y-73700000D03*
X146600000Y-75200000D03*
X145100000Y-75200000D03*
X143600000Y-75200000D03*
%TD*%
D15*
%TO.P,U1,1,IN*%
%TO.N,+5V*%
X135610000Y-88550000D03*
%TO.P,U1,2,ISET*%
%TO.N,Net-(U1-ISET)*%
X135610000Y-89050000D03*
%TO.P,U1,3,TS*%
%TO.N,Net-(U1-TS)*%
X135610000Y-89550000D03*
%TO.P,U1,4,GND*%
%TO.N,GND*%
X135610000Y-90050000D03*
%TO.P,U1,5,STAT*%
%TO.N,Net-(D1-K)*%
X137510000Y-90050000D03*
%TO.P,U1,6,/PG*%
%TO.N,Net-(D2-K)*%
X137510000Y-89550000D03*
%TO.P,U1,7,VSET*%
%TO.N,Net-(U1-VSET)*%
X137510000Y-89050000D03*
%TO.P,U1,8,OUT*%
%TO.N,Net-(BT1-+)*%
X137510000Y-88550000D03*
D16*
%TO.P,U1,9,THERM*%
%TO.N,GND*%
X136560000Y-89300000D03*
%TD*%
D17*
%TO.P,SW1,*%
%TO.N,*%
X155500000Y-61700000D03*
X155500000Y-53500000D03*
D18*
%TO.P,SW1,1,A*%
%TO.N,unconnected-(SW1-A-Pad1)*%
X155500000Y-59600000D03*
D19*
%TO.P,SW1,2,B*%
%TO.N,Net-(BT1-+)*%
X155500000Y-57600000D03*
%TO.P,SW1,3,C*%
%TO.N,+BATT*%
X155500000Y-55600000D03*
%TD*%
D20*
%TO.P,J3,A5,CC1*%
%TO.N,Net-(J3-CC1)*%
X144500000Y-131795000D03*
D21*
%TO.P,J3,A9,VBUS*%
%TO.N,+5V*%
X145520000Y-131795000D03*
D22*
%TO.P,J3,A12,GND*%
%TO.N,GND*%
X146750000Y-131795000D03*
D20*
%TO.P,J3,B5,CC2*%
%TO.N,Net-(J3-CC2)*%
X143500000Y-131795000D03*
D21*
%TO.P,J3,B9,VBUS*%
%TO.N,+5V*%
X142480000Y-131795000D03*
D22*
%TO.P,J3,B12,GND*%
%TO.N,GND*%
X141250000Y-131795000D03*
D23*
%TO.P,J3,S1,SHIELD*%
X139680000Y-131795000D03*
X139680000Y-135595000D03*
X148320000Y-131795000D03*
X148320000Y-135595000D03*
%TD*%
D24*
%TO.P,R7,1*%
%TO.N,Net-(J3-CC2)*%
X137240000Y-131677500D03*
%TO.P,R7,2*%
%TO.N,GND*%
X137240000Y-134602500D03*
%TD*%
D25*
%TO.P,C1,1*%
%TO.N,+5V*%
X134680000Y-87300000D03*
%TO.P,C1,2*%
%TO.N,GND*%
X135640000Y-87300000D03*
%TD*%
D26*
%TO.P,J2,1,Pin_1*%
%TO.N,+5V*%
X156000000Y-110450000D03*
D27*
%TO.P,J2,2,Pin_2*%
%TO.N,+BATT*%
X156000000Y-107910000D03*
%TO.P,J2,3,Pin_3*%
X156000000Y-105370000D03*
%TO.P,J2,4,Pin_4*%
%TO.N,/TX*%
X156000000Y-102830000D03*
%TO.P,J2,5,Pin_5*%
%TO.N,/RX*%
X156000000Y-100290000D03*
%TO.P,J2,6,Pin_6*%
%TO.N,GND*%
X156000000Y-97750000D03*
%TD*%
D28*
%TO.P,SW4,1,A*%
%TO.N,+BATT*%
X142565000Y-54450000D03*
%TO.P,SW4,2,B*%
%TO.N,/SW1*%
X142565000Y-55550000D03*
%TO.P,SW4,3,A*%
%TO.N,+BATT*%
X145615000Y-54450000D03*
%TO.P,SW4,4,B*%
%TO.N,/SW2*%
X145615000Y-55550000D03*
%TD*%
D29*
%TO.P,SW3,1,A*%
%TO.N,GND*%
X147000000Y-114890000D03*
X141000000Y-114890000D03*
%TO.P,SW3,2,B*%
%TO.N,Net-(SW3-B)*%
X147000000Y-111190000D03*
X141000000Y-111190000D03*
%TD*%
D10*
%TO.P,D2,1,K*%
%TO.N,Net-(D2-K)*%
X143970000Y-89700000D03*
%TO.P,D2,2,A*%
%TO.N,Net-(D2-A)*%
X143970000Y-92500000D03*
%TD*%
D24*
%TO.P,R10,1*%
%TO.N,+BATT*%
X138300000Y-110847500D03*
%TO.P,R10,2*%
%TO.N,Net-(SW3-B)*%
X138300000Y-113772500D03*
%TD*%
D30*
%TO.P,R6,1*%
%TO.N,Net-(U1-TS)*%
X136260000Y-91400000D03*
%TO.P,R6,2*%
%TO.N,Net-(R6-Pad2)*%
X137280000Y-91400000D03*
%TD*%
D31*
%TO.P,C6,1*%
%TO.N,+BATT*%
X147775000Y-62600000D03*
%TO.P,C6,2*%
%TO.N,GND*%
X144825000Y-62600000D03*
%TD*%
D32*
%TO.P,R3,1*%
%TO.N,Net-(D1-A)*%
X146670000Y-97662500D03*
%TO.P,R3,2*%
%TO.N,Net-(BT1-+)*%
X146670000Y-94737500D03*
%TD*%
D30*
%TO.P,R5,1*%
%TO.N,Net-(U1-TS)*%
X134050000Y-91400000D03*
%TO.P,R5,2*%
%TO.N,GND*%
X135070000Y-91400000D03*
%TD*%
D33*
%TO.P,R2,1*%
%TO.N,Net-(U1-ISET)*%
X134160000Y-89100000D03*
%TO.P,R2,2*%
%TO.N,GND*%
X134160000Y-90120000D03*
%TD*%
D31*
%TO.P,C7,1*%
%TO.N,+BATT*%
X147775000Y-65300000D03*
%TO.P,C7,2*%
%TO.N,GND*%
X144825000Y-65300000D03*
%TD*%
D34*
%TO.P,C2,1*%
%TO.N,Net-(BT1-+)*%
X138130000Y-87300000D03*
%TO.P,C2,2*%
%TO.N,GND*%
X137170000Y-87300000D03*
%TD*%
D29*
%TO.P,SW2,1,A*%
%TO.N,Net-(SW2-A)*%
X147000000Y-106880000D03*
X141000000Y-106880000D03*
%TO.P,SW2,2,B*%
%TO.N,GND*%
X147000000Y-103180000D03*
X141000000Y-103180000D03*
%TD*%
D24*
%TO.P,R8,1*%
%TO.N,Net-(J3-CC1)*%
X150930000Y-131717500D03*
%TO.P,R8,2*%
%TO.N,GND*%
X150930000Y-134642500D03*
%TD*%
D32*
%TO.P,R11,1*%
%TO.N,+BATT*%
X138190000Y-105802500D03*
%TO.P,R11,2*%
%TO.N,Net-(SW2-A)*%
X138190000Y-102877500D03*
%TD*%
D30*
%TO.P,R1,1*%
%TO.N,Net-(U1-VSET)*%
X138850000Y-90100000D03*
%TO.P,R1,2*%
%TO.N,GND*%
X139870000Y-90100000D03*
%TD*%
D32*
%TO.P,R4,1*%
%TO.N,Net-(D2-A)*%
X146670000Y-92562500D03*
%TO.P,R4,2*%
%TO.N,Net-(BT1-+)*%
X146670000Y-89637500D03*
%TD*%
D35*
%TO.N,Net-(BT1-+)*%
X132820000Y-86100000D03*
%TO.N,GND*%
X142640000Y-63890000D03*
X136550000Y-89210000D03*
X146330000Y-66440000D03*
X139230000Y-88570000D03*
X141640000Y-83800000D03*
X133210000Y-90780000D03*
X137360000Y-94050000D03*
%TO.N,+5V*%
X145480000Y-121830000D03*
%TO.N,+BATT*%
X150970000Y-61150000D03*
%TO.N,Net-(R6-Pad2)*%
X137310000Y-92320000D03*
%TO.N,Net-(SW3-B)*%
X149070000Y-109460000D03*
X144730000Y-70170000D03*
%TO.N,Net-(SW2-A)*%
X133840000Y-83920000D03*
X137810000Y-100490000D03*
%TO.N,/SW2*%
X143460000Y-78340000D03*
X140810000Y-65750000D03*
%TD*%
D36*
%TO.N,Net-(BT1-+)*%
X137220452Y-86100000D02*
X138130000Y-87009548D01*
D37*
X147870000Y-90837500D02*
X146670000Y-89637500D01*
X147870000Y-93113173D02*
X147870000Y-90837500D01*
X145782500Y-88750000D02*
X145782500Y-88142500D01*
X137510000Y-88550000D02*
X138130000Y-87930000D01*
X145782500Y-88142500D02*
X144940000Y-87300000D01*
X146670000Y-94737500D02*
X146670000Y-94313173D01*
X144940000Y-87300000D02*
X138130000Y-87300000D01*
D36*
X132820000Y-86100000D02*
X137220452Y-86100000D01*
D37*
X138130000Y-87930000D02*
X138130000Y-87300000D01*
X146670000Y-89637500D02*
X145782500Y-88750000D01*
D36*
X138130000Y-87009548D02*
X138130000Y-87300000D01*
D37*
X146670000Y-94313173D02*
X147870000Y-93113173D01*
%TO.N,GND*%
X136560000Y-89600000D02*
X136560000Y-89300000D01*
X151150000Y-74900000D02*
X151150000Y-75700000D01*
D38*
X134160000Y-90120000D02*
X133870000Y-90120000D01*
D37*
X151150000Y-73300000D02*
X151150000Y-74100000D01*
X151150000Y-74100000D02*
X151150000Y-74900000D01*
X151150000Y-75700000D02*
X151150000Y-76500000D01*
X136110000Y-90050000D02*
X136560000Y-89600000D01*
X151150000Y-77300000D02*
X151150000Y-76500000D01*
X136560000Y-89240000D02*
X136560000Y-89300000D01*
D38*
X133870000Y-90120000D02*
X133210000Y-90780000D01*
D37*
X136550000Y-89210000D02*
X136560000Y-89220000D01*
X137170000Y-87300000D02*
X136560000Y-87910000D01*
X136560000Y-87910000D02*
X136560000Y-89200000D01*
X135610000Y-90050000D02*
X136110000Y-90050000D01*
X136560000Y-89200000D02*
X136550000Y-89210000D01*
X151150000Y-78900000D02*
X151150000Y-78100000D01*
X136560000Y-89220000D02*
X136560000Y-89240000D01*
X151150000Y-78100000D02*
X151150000Y-77300000D01*
D36*
%TO.N,+5V*%
X134680000Y-87590452D02*
X135294548Y-88205000D01*
X142700000Y-130670000D02*
X142480000Y-130890000D01*
X135294548Y-88205000D02*
X135294548Y-88234548D01*
X145480000Y-121830000D02*
X145425000Y-121775000D01*
X132285000Y-89695000D02*
X132285000Y-91435000D01*
X145480000Y-121830000D02*
X145520000Y-121870000D01*
X138828984Y-121775000D02*
X145425000Y-121775000D01*
X132285000Y-91435000D02*
X135500000Y-94650000D01*
X135500000Y-118446016D02*
X138828984Y-121775000D01*
X134680000Y-87300000D02*
X134680000Y-87590452D01*
X145375000Y-130670000D02*
X142700000Y-130670000D01*
X135500000Y-94650000D02*
X135500000Y-118446016D01*
X142480000Y-130890000D02*
X142480000Y-131795000D01*
X134680000Y-87300000D02*
X132285000Y-89695000D01*
X145520000Y-130815000D02*
X145375000Y-130670000D01*
X135294548Y-88234548D02*
X135460000Y-88400000D01*
X145520000Y-131795000D02*
X145520000Y-130815000D01*
X145520000Y-121870000D02*
X145520000Y-131795000D01*
%TO.N,+BATT*%
X148300000Y-67800000D02*
X148300000Y-65825000D01*
X138190000Y-110737500D02*
X138300000Y-110847500D01*
X147775000Y-65300000D02*
X147775000Y-62600000D01*
X147775000Y-62600000D02*
X149410000Y-62600000D01*
X153725000Y-56245000D02*
X154370000Y-55600000D01*
X150970000Y-61040000D02*
X153725000Y-58285000D01*
X150860000Y-61150000D02*
X150970000Y-61150000D01*
D38*
X145615000Y-54450000D02*
X142565000Y-54450000D01*
D36*
X156000000Y-105370000D02*
X156000000Y-107910000D01*
D37*
X147775000Y-62600000D02*
X147100000Y-61925000D01*
D36*
X156000000Y-105370000D02*
X153615000Y-107755000D01*
X153615000Y-107755000D02*
X140142500Y-107755000D01*
D37*
X147100000Y-61925000D02*
X147100000Y-55935000D01*
D36*
X154370000Y-55600000D02*
X155500000Y-55600000D01*
X148300000Y-65825000D02*
X147775000Y-65300000D01*
X150970000Y-61150000D02*
X150970000Y-61040000D01*
X153725000Y-58285000D02*
X153725000Y-56245000D01*
X149410000Y-62600000D02*
X150860000Y-61150000D01*
X140142500Y-107755000D02*
X138190000Y-105802500D01*
D37*
X147100000Y-55935000D02*
X145615000Y-54450000D01*
D36*
X138190000Y-105802500D02*
X138190000Y-110737500D01*
D37*
%TO.N,Net-(D1-K)*%
X137510000Y-90050000D02*
X137510000Y-90425000D01*
X141985000Y-94900000D02*
X143970000Y-94900000D01*
X137510000Y-90425000D02*
X141985000Y-94900000D01*
%TO.N,Net-(D1-A)*%
X144007500Y-97662500D02*
X143970000Y-97700000D01*
X146670000Y-97662500D02*
X144007500Y-97662500D01*
%TO.N,Net-(D2-K)*%
X138255000Y-89906396D02*
X138255000Y-90515000D01*
X142925000Y-90745000D02*
X143970000Y-89700000D01*
X138485000Y-90745000D02*
X142925000Y-90745000D01*
X138255000Y-90515000D02*
X138485000Y-90745000D01*
X137510000Y-89550000D02*
X137898604Y-89550000D01*
X137898604Y-89550000D02*
X138255000Y-89906396D01*
%TO.N,Net-(D2-A)*%
X144032500Y-92562500D02*
X143970000Y-92500000D01*
X146670000Y-92562500D02*
X144032500Y-92562500D01*
%TO.N,Net-(J3-CC1)*%
X144500000Y-131795000D02*
X144500000Y-132645000D01*
X149677500Y-132970000D02*
X150930000Y-131717500D01*
X144825000Y-132970000D02*
X149677500Y-132970000D01*
X144500000Y-132645000D02*
X144825000Y-132970000D01*
%TO.N,Net-(J3-CC2)*%
X143500000Y-131795000D02*
X143500000Y-132645000D01*
X138532500Y-132970000D02*
X137240000Y-131677500D01*
X143500000Y-132645000D02*
X143175000Y-132970000D01*
X143175000Y-132970000D02*
X138532500Y-132970000D01*
%TO.N,/TX*%
X148320000Y-83395000D02*
X145900000Y-80975000D01*
X145900000Y-80975000D02*
X145900000Y-79600000D01*
X148320000Y-95150000D02*
X148320000Y-83395000D01*
X156000000Y-102830000D02*
X148320000Y-95150000D01*
%TO.N,/RX*%
X148770000Y-93060000D02*
X148770000Y-82320000D01*
X148770000Y-93060000D02*
X156000000Y-100290000D01*
X148770000Y-82320000D02*
X146700000Y-80250000D01*
X146700000Y-80250000D02*
X146700000Y-79600000D01*
%TO.N,Net-(U1-VSET)*%
X138850000Y-89865000D02*
X138850000Y-90100000D01*
X137510000Y-89050000D02*
X138035000Y-89050000D01*
X138035000Y-89050000D02*
X138850000Y-89865000D01*
%TO.N,Net-(U1-ISET)*%
X134210000Y-89050000D02*
X134160000Y-89100000D01*
X135610000Y-89050000D02*
X134210000Y-89050000D01*
%TO.N,Net-(U1-TS)*%
X134702500Y-90747500D02*
X135282500Y-90747500D01*
X135035000Y-90500000D02*
X135282500Y-90747500D01*
X135085000Y-89550000D02*
X135035000Y-89600000D01*
X135610000Y-89550000D02*
X135085000Y-89550000D01*
X134050000Y-91400000D02*
X134702500Y-90747500D01*
X135035000Y-89600000D02*
X135035000Y-90500000D01*
X135295000Y-90760000D02*
X135620000Y-90760000D01*
X135620000Y-90760000D02*
X136260000Y-91400000D01*
X135282500Y-90747500D02*
X135295000Y-90760000D01*
%TO.N,Net-(R6-Pad2)*%
X137310000Y-92320000D02*
X137310000Y-91430000D01*
X137310000Y-91430000D02*
X137280000Y-91400000D01*
D36*
%TO.N,Net-(SW3-B)*%
X147000000Y-111190000D02*
X141000000Y-111190000D01*
D38*
X144300000Y-68530000D02*
X144760000Y-68990000D01*
X148730000Y-109460000D02*
X147000000Y-111190000D01*
X144300000Y-67800000D02*
X144300000Y-68530000D01*
D36*
X138300000Y-113772500D02*
X138417500Y-113772500D01*
D38*
X144730000Y-70170000D02*
X144760000Y-70200000D01*
X144760000Y-68990000D02*
X144730000Y-70170000D01*
X149070000Y-109460000D02*
X148730000Y-109460000D01*
D36*
X138417500Y-113772500D02*
X141000000Y-111190000D01*
D38*
%TO.N,Net-(SW2-A)*%
X137810000Y-100490000D02*
X137810000Y-102497500D01*
X139050000Y-74100000D02*
X138320000Y-74100000D01*
X137810000Y-102497500D02*
X138190000Y-102877500D01*
D36*
X141000000Y-105687500D02*
X138190000Y-102877500D01*
X141000000Y-106880000D02*
X141000000Y-105687500D01*
X141000000Y-106880000D02*
X147000000Y-106880000D01*
D38*
X133840000Y-78580000D02*
X133840000Y-83920000D01*
X133840000Y-83920000D02*
X133840000Y-83850000D01*
X138320000Y-74100000D02*
X133840000Y-78580000D01*
D37*
%TO.N,/SW1*%
X142565000Y-57850000D02*
X142565000Y-55550000D01*
X141900000Y-79600000D02*
X141900000Y-70650000D01*
X139775000Y-68525000D02*
X139775000Y-60640000D01*
X141900000Y-70650000D02*
X139775000Y-68525000D01*
X139775000Y-60640000D02*
X142565000Y-57850000D01*
%TO.N,/SW2*%
X143460000Y-79560000D02*
X143500000Y-79600000D01*
X145615000Y-57850000D02*
X145615000Y-55550000D01*
X140770000Y-62695000D02*
X140810000Y-65750000D01*
X143460000Y-78340000D02*
X143460000Y-79560000D01*
X145615000Y-57850000D02*
X140770000Y-62695000D01*
%TD*%
%TA.AperFunction,Conductor*%
%TO.N,GND*%
G36*
X133315703Y-90332986D02*
G01*
X133353477Y-90391764D01*
X133353576Y-90392104D01*
X133387593Y-90509192D01*
X133462932Y-90636583D01*
X133480115Y-90704307D01*
X133457955Y-90770569D01*
X133443882Y-90787384D01*
X133408865Y-90822401D01*
X133341232Y-90936763D01*
X133290163Y-90984447D01*
X133221421Y-90996950D01*
X133156832Y-90970304D01*
X133116902Y-90912969D01*
X133110500Y-90873642D01*
X133110500Y-90426699D01*
X133130185Y-90359660D01*
X133182989Y-90313905D01*
X133252147Y-90303961D01*
X133315703Y-90332986D01*
G37*
%TD.AperFunction*%
%TA.AperFunction,Conductor*%
G36*
X134352539Y-89890184D02*
G01*
X134398294Y-89942988D01*
X134409500Y-89994499D01*
X134409500Y-90123352D01*
X134389815Y-90190391D01*
X134348623Y-90230083D01*
X134316079Y-90249330D01*
X134301910Y-90263498D01*
X134287122Y-90276128D01*
X134270913Y-90287905D01*
X134243072Y-90321558D01*
X134235223Y-90330184D01*
X134231737Y-90333670D01*
X134170421Y-90367162D01*
X134144046Y-90370000D01*
X134034000Y-90370000D01*
X133966961Y-90350315D01*
X133921206Y-90297511D01*
X133910000Y-90246000D01*
X133909999Y-89994499D01*
X133929683Y-89927460D01*
X133982487Y-89881705D01*
X134033995Y-89870499D01*
X134285500Y-89870499D01*
X134352539Y-89890184D01*
G37*
%TD.AperFunction*%
%TA.AperFunction,Conductor*%
G36*
X144696587Y-87945185D02*
G01*
X144717229Y-87961819D01*
X145120681Y-88365271D01*
X145154166Y-88426594D01*
X145157000Y-88452952D01*
X145157000Y-88567689D01*
X145137315Y-88634728D01*
X145084511Y-88680483D01*
X145015353Y-88690427D01*
X144967904Y-88673228D01*
X144914334Y-88640186D01*
X144747797Y-88585000D01*
X144648141Y-88574819D01*
X144648122Y-88574818D01*
X144645009Y-88574500D01*
X144641860Y-88574500D01*
X143298140Y-88574500D01*
X143298120Y-88574500D01*
X143294992Y-88574501D01*
X143291860Y-88574820D01*
X143291858Y-88574821D01*
X143192203Y-88585000D01*
X143025665Y-88640186D01*
X142876342Y-88732288D01*
X142752288Y-88856342D01*
X142660186Y-89005665D01*
X142605000Y-89172202D01*
X142594819Y-89271858D01*
X142594817Y-89271878D01*
X142594500Y-89274991D01*
X142594500Y-89685472D01*
X142594501Y-89995500D01*
X142574817Y-90062539D01*
X142522013Y-90108294D01*
X142470501Y-90119500D01*
X140764000Y-90119500D01*
X140696961Y-90099815D01*
X140651206Y-90047011D01*
X140640000Y-89995500D01*
X140640000Y-89853317D01*
X140639808Y-89848437D01*
X140637166Y-89814871D01*
X140592406Y-89660807D01*
X140510735Y-89522709D01*
X140397290Y-89409264D01*
X140259192Y-89327593D01*
X140120001Y-89287153D01*
X140120000Y-89287154D01*
X140120000Y-89995500D01*
X140100315Y-90062539D01*
X140047511Y-90108294D01*
X139996000Y-90119500D01*
X139744500Y-90119500D01*
X139677461Y-90099815D01*
X139631706Y-90047011D01*
X139620500Y-89995501D01*
X139620499Y-89853243D01*
X139620499Y-89850820D01*
X139620308Y-89848403D01*
X139620213Y-89845962D01*
X139620323Y-89847834D01*
X139620000Y-89839607D01*
X139620000Y-89287154D01*
X139619998Y-89287153D01*
X139480807Y-89327593D01*
X139423611Y-89361419D01*
X139355887Y-89378601D01*
X139297370Y-89361418D01*
X139239395Y-89327132D01*
X139239394Y-89327131D01*
X139239393Y-89327131D01*
X139209817Y-89318538D01*
X139156734Y-89287144D01*
X138535802Y-88666211D01*
X138522907Y-88650115D01*
X138512334Y-88640186D01*
X138498377Y-88627080D01*
X138462984Y-88566841D01*
X138465776Y-88497027D01*
X138495579Y-88449010D01*
X138513789Y-88430800D01*
X138529885Y-88417906D01*
X138531873Y-88415787D01*
X138531877Y-88415786D01*
X138577949Y-88366723D01*
X138580534Y-88364055D01*
X138600120Y-88344471D01*
X138602585Y-88341292D01*
X138610167Y-88332416D01*
X138640062Y-88300582D01*
X138649717Y-88283018D01*
X138660394Y-88266764D01*
X138672673Y-88250936D01*
X138690018Y-88210852D01*
X138695160Y-88200356D01*
X138704884Y-88182669D01*
X138716197Y-88162092D01*
X138721179Y-88142684D01*
X138727481Y-88124280D01*
X138735437Y-88105896D01*
X138742269Y-88062752D01*
X138744636Y-88051328D01*
X138746551Y-88043873D01*
X138753024Y-88018660D01*
X138788763Y-87958623D01*
X138851288Y-87927439D01*
X138873128Y-87925500D01*
X144629548Y-87925500D01*
X144696587Y-87945185D01*
G37*
%TD.AperFunction*%
%TA.AperFunction,Conductor*%
G36*
X137018696Y-87069685D02*
G01*
X137039338Y-87086319D01*
X137274448Y-87321429D01*
X137307933Y-87382752D01*
X137310040Y-87395703D01*
X137311877Y-87412593D01*
X137299557Y-87481367D01*
X137252009Y-87532563D01*
X137188604Y-87550000D01*
X135858343Y-87550000D01*
X135791304Y-87530315D01*
X135770662Y-87513681D01*
X135538834Y-87281852D01*
X135505349Y-87220529D01*
X135504736Y-87217535D01*
X135500866Y-87197364D01*
X135507566Y-87127817D01*
X135550803Y-87072932D01*
X135616849Y-87050136D01*
X135622645Y-87050000D01*
X136951657Y-87050000D01*
X137018696Y-87069685D01*
G37*
%TD.AperFunction*%
%TA.AperFunction,Conductor*%
G36*
X146398137Y-57884722D02*
G01*
X146452470Y-57928651D01*
X146474428Y-57994981D01*
X146474500Y-57999207D01*
X146474500Y-61842256D01*
X146472235Y-61862766D01*
X146474439Y-61932872D01*
X146474500Y-61936767D01*
X146474500Y-61964350D01*
X146474988Y-61968219D01*
X146474989Y-61968225D01*
X146475004Y-61968343D01*
X146475918Y-61979967D01*
X146477290Y-62023626D01*
X146482879Y-62042860D01*
X146486825Y-62061916D01*
X146489335Y-62081792D01*
X146505414Y-62122404D01*
X146509197Y-62133451D01*
X146521382Y-62175391D01*
X146531580Y-62192635D01*
X146540136Y-62210100D01*
X146547514Y-62228732D01*
X146547515Y-62228733D01*
X146573180Y-62264059D01*
X146579593Y-62273822D01*
X146601826Y-62311416D01*
X146601829Y-62311419D01*
X146601830Y-62311420D01*
X146615995Y-62325585D01*
X146628627Y-62340375D01*
X146640406Y-62356587D01*
X146654540Y-62368279D01*
X146693647Y-62426177D01*
X146699500Y-62463823D01*
X146699500Y-63296858D01*
X146699500Y-63296877D01*
X146699501Y-63300008D01*
X146699820Y-63303140D01*
X146699821Y-63303141D01*
X146710000Y-63402796D01*
X146765186Y-63569334D01*
X146857286Y-63718654D01*
X146857287Y-63718655D01*
X146857288Y-63718656D01*
X146913182Y-63774550D01*
X146946666Y-63835871D01*
X146949500Y-63862230D01*
X146949500Y-64037768D01*
X146929815Y-64104807D01*
X146913183Y-64125448D01*
X146857287Y-64181345D01*
X146765186Y-64330665D01*
X146710000Y-64497202D01*
X146699819Y-64596858D01*
X146699817Y-64596878D01*
X146699500Y-64599991D01*
X146699500Y-64603138D01*
X146699500Y-64603139D01*
X146699500Y-65996859D01*
X146699500Y-65996878D01*
X146699501Y-66000008D01*
X146699820Y-66003140D01*
X146699821Y-66003141D01*
X146710000Y-66102796D01*
X146765186Y-66269334D01*
X146857288Y-66418657D01*
X146981342Y-66542711D01*
X146981344Y-66542712D01*
X147130666Y-66634814D01*
X147220708Y-66664651D01*
X147278152Y-66704422D01*
X147304975Y-66768938D01*
X147292660Y-66837714D01*
X147245117Y-66888914D01*
X147194964Y-66905645D01*
X147192518Y-66905907D01*
X147143332Y-66924253D01*
X147073640Y-66929237D01*
X147056667Y-66924253D01*
X147007484Y-66905909D01*
X146951166Y-66899854D01*
X146951165Y-66899853D01*
X146947873Y-66899500D01*
X146944550Y-66899500D01*
X146455439Y-66899500D01*
X146455420Y-66899500D01*
X146452128Y-66899501D01*
X146448848Y-66899853D01*
X146448840Y-66899854D01*
X146392514Y-66905909D01*
X146343332Y-66924253D01*
X146273640Y-66929237D01*
X146256667Y-66924253D01*
X146207484Y-66905909D01*
X146151166Y-66899854D01*
X146151165Y-66899853D01*
X146147873Y-66899500D01*
X146144550Y-66899500D01*
X145655439Y-66899500D01*
X145655420Y-66899500D01*
X145652128Y-66899501D01*
X145648848Y-66899853D01*
X145648840Y-66899854D01*
X145592514Y-66905909D01*
X145543332Y-66924253D01*
X145473640Y-66929237D01*
X145456667Y-66924253D01*
X145407480Y-66905907D01*
X145403837Y-66905516D01*
X145339287Y-66878776D01*
X145299440Y-66821382D01*
X145296949Y-66751557D01*
X145332603Y-66691469D01*
X145378093Y-66664521D01*
X145469121Y-66634357D01*
X145618345Y-66542316D01*
X145742316Y-66418345D01*
X145834357Y-66269122D01*
X145889506Y-66102696D01*
X145899680Y-66003109D01*
X145900000Y-65996831D01*
X145900000Y-65550000D01*
X143750001Y-65550000D01*
X143750001Y-65996829D01*
X143750321Y-66003111D01*
X143760493Y-66102695D01*
X143815642Y-66269122D01*
X143907683Y-66418345D01*
X144031654Y-66542316D01*
X144180877Y-66634357D01*
X144251605Y-66657794D01*
X144309050Y-66697566D01*
X144335873Y-66762082D01*
X144323558Y-66830858D01*
X144276015Y-66882058D01*
X144212602Y-66899500D01*
X144055439Y-66899500D01*
X144055420Y-66899500D01*
X144052128Y-66899501D01*
X144048848Y-66899853D01*
X144048840Y-66899854D01*
X143992514Y-66905909D01*
X143943332Y-66924253D01*
X143873640Y-66929237D01*
X143856667Y-66924253D01*
X143807484Y-66905909D01*
X143751166Y-66899854D01*
X143751165Y-66899853D01*
X143747873Y-66899500D01*
X143744550Y-66899500D01*
X143255439Y-66899500D01*
X143255420Y-66899500D01*
X143252128Y-66899501D01*
X143248848Y-66899853D01*
X143248840Y-66899854D01*
X143192514Y-66905909D01*
X143143332Y-66924253D01*
X143073640Y-66929237D01*
X143056667Y-66924253D01*
X143007484Y-66905909D01*
X142951166Y-66899854D01*
X142951165Y-66899853D01*
X142947873Y-66899500D01*
X142944550Y-66899500D01*
X142455439Y-66899500D01*
X142455420Y-66899500D01*
X142452128Y-66899501D01*
X142448848Y-66899853D01*
X142448840Y-66899854D01*
X142392514Y-66905909D01*
X142343332Y-66924253D01*
X142273640Y-66929237D01*
X142256667Y-66924253D01*
X142207484Y-66905909D01*
X142151166Y-66899854D01*
X142151165Y-66899853D01*
X142147873Y-66899500D01*
X142144550Y-66899500D01*
X141655439Y-66899500D01*
X141655420Y-66899500D01*
X141652128Y-66899501D01*
X141648848Y-66899853D01*
X141648840Y-66899854D01*
X141592514Y-66905909D01*
X141543332Y-66924253D01*
X141473640Y-66929237D01*
X141456667Y-66924253D01*
X141407484Y-66905909D01*
X141351166Y-66899854D01*
X141351165Y-66899853D01*
X141347873Y-66899500D01*
X141344550Y-66899500D01*
X140855439Y-66899500D01*
X140855420Y-66899500D01*
X140852128Y-66899501D01*
X140848848Y-66899853D01*
X140848840Y-66899854D01*
X140792514Y-66905909D01*
X140743332Y-66924253D01*
X140673640Y-66929237D01*
X140656667Y-66924253D01*
X140607484Y-66905909D01*
X140551166Y-66899854D01*
X140551165Y-66899853D01*
X140547873Y-66899500D01*
X140544551Y-66899500D01*
X140524500Y-66899500D01*
X140457461Y-66879815D01*
X140411706Y-66827011D01*
X140400500Y-66775500D01*
X140400500Y-66736703D01*
X140420185Y-66669664D01*
X140472989Y-66623909D01*
X140542147Y-66613965D01*
X140550281Y-66615413D01*
X140715352Y-66650500D01*
X140715354Y-66650500D01*
X140904648Y-66650500D01*
X141029748Y-66623909D01*
X141089803Y-66611144D01*
X141262730Y-66534151D01*
X141415871Y-66422888D01*
X141542533Y-66282216D01*
X141637179Y-66118284D01*
X141695674Y-65938256D01*
X141715460Y-65750000D01*
X141695674Y-65561744D01*
X141661334Y-65456058D01*
X141637179Y-65381715D01*
X141542533Y-65217784D01*
X141458130Y-65124045D01*
X141427900Y-65061054D01*
X141426931Y-65050000D01*
X143750000Y-65050000D01*
X144575000Y-65050000D01*
X144575000Y-62850000D01*
X145075000Y-62850000D01*
X145075000Y-65050000D01*
X145899999Y-65050000D01*
X145899999Y-64603170D01*
X145899678Y-64596888D01*
X145889506Y-64497304D01*
X145834357Y-64330877D01*
X145742316Y-64181654D01*
X145618345Y-64057683D01*
X145614870Y-64055540D01*
X145568144Y-64003594D01*
X145556920Y-63934631D01*
X145584762Y-63870548D01*
X145614870Y-63844460D01*
X145618345Y-63842316D01*
X145742316Y-63718345D01*
X145834357Y-63569122D01*
X145889506Y-63402696D01*
X145899680Y-63303109D01*
X145900000Y-63296831D01*
X145900000Y-62850000D01*
X145075000Y-62850000D01*
X144575000Y-62850000D01*
X143750001Y-62850000D01*
X143750001Y-63296829D01*
X143750321Y-63303111D01*
X143760493Y-63402695D01*
X143815642Y-63569122D01*
X143907683Y-63718345D01*
X144031654Y-63842316D01*
X144035127Y-63844458D01*
X144081854Y-63896403D01*
X144093079Y-63965366D01*
X144065239Y-64029449D01*
X144035137Y-64055534D01*
X144031657Y-64057680D01*
X143907683Y-64181654D01*
X143815642Y-64330877D01*
X143760493Y-64497303D01*
X143750319Y-64596890D01*
X143750000Y-64603168D01*
X143750000Y-65050000D01*
X141426931Y-65050000D01*
X141426292Y-65042708D01*
X141399585Y-63002995D01*
X141418390Y-62935708D01*
X141435889Y-62913699D01*
X141999588Y-62350000D01*
X143750000Y-62350000D01*
X144575000Y-62350000D01*
X144575000Y-61200000D01*
X145075000Y-61200000D01*
X145075000Y-62350000D01*
X145899999Y-62350000D01*
X145899999Y-61903170D01*
X145899678Y-61896888D01*
X145889506Y-61797304D01*
X145834357Y-61630877D01*
X145742316Y-61481654D01*
X145618345Y-61357683D01*
X145469122Y-61265642D01*
X145302696Y-61210493D01*
X145203109Y-61200319D01*
X145196832Y-61200000D01*
X145075000Y-61200000D01*
X144575000Y-61200000D01*
X144453171Y-61200000D01*
X144446888Y-61200321D01*
X144347304Y-61210493D01*
X144180877Y-61265642D01*
X144031654Y-61357683D01*
X143907683Y-61481654D01*
X143815642Y-61630877D01*
X143760493Y-61797303D01*
X143750319Y-61896890D01*
X143750000Y-61903168D01*
X143750000Y-62350000D01*
X141999588Y-62350000D01*
X145998786Y-58350802D01*
X146014886Y-58337905D01*
X146016874Y-58335787D01*
X146016877Y-58335786D01*
X146062964Y-58286707D01*
X146065549Y-58284039D01*
X146085120Y-58264470D01*
X146087565Y-58261316D01*
X146095154Y-58252429D01*
X146125062Y-58220582D01*
X146134713Y-58203026D01*
X146145393Y-58186767D01*
X146157674Y-58170936D01*
X146175018Y-58130851D01*
X146180160Y-58120356D01*
X146201197Y-58082092D01*
X146206178Y-58062688D01*
X146212481Y-58044282D01*
X146220438Y-58025895D01*
X146227270Y-57982748D01*
X146229640Y-57971308D01*
X146230401Y-57968347D01*
X146266150Y-57908316D01*
X146328680Y-57877142D01*
X146398137Y-57884722D01*
G37*
%TD.AperFunction*%
%TA.AperFunction,Conductor*%
G36*
X156004042Y-42000764D02*
G01*
X156083743Y-42005988D01*
X156261590Y-42018709D01*
X156276904Y-42020772D01*
X156389441Y-42043157D01*
X156530277Y-42073794D01*
X156543690Y-42077518D01*
X156657725Y-42116228D01*
X156661074Y-42117420D01*
X156788808Y-42165062D01*
X156800300Y-42170024D01*
X156910687Y-42224461D01*
X156915187Y-42226798D01*
X157032478Y-42290844D01*
X157041942Y-42296574D01*
X157145269Y-42365615D01*
X157150688Y-42369450D01*
X157256727Y-42448830D01*
X157264145Y-42454844D01*
X157357976Y-42537131D01*
X157363898Y-42542678D01*
X157457320Y-42636100D01*
X157462867Y-42642022D01*
X157545150Y-42735848D01*
X157551173Y-42743278D01*
X157588691Y-42793396D01*
X157630548Y-42849310D01*
X157634383Y-42854729D01*
X157703424Y-42958056D01*
X157709154Y-42967520D01*
X157773183Y-43084779D01*
X157775564Y-43089363D01*
X157829969Y-43199687D01*
X157834938Y-43211196D01*
X157882556Y-43338863D01*
X157883793Y-43342338D01*
X157922470Y-43456276D01*
X157926217Y-43469777D01*
X157956847Y-43610580D01*
X157979230Y-43723107D01*
X157981290Y-43738414D01*
X157994017Y-43916350D01*
X157999235Y-43995955D01*
X157999500Y-44004051D01*
X157999500Y-53444956D01*
X157982506Y-53502828D01*
X157996851Y-53529551D01*
X157999500Y-53555043D01*
X157999500Y-61644956D01*
X157982506Y-61702828D01*
X157996851Y-61729551D01*
X157999500Y-61755043D01*
X157999500Y-134995947D01*
X157999234Y-135004058D01*
X157994017Y-135083648D01*
X157981291Y-135261574D01*
X157979225Y-135276916D01*
X157956851Y-135389402D01*
X157926212Y-135530244D01*
X157922473Y-135543714D01*
X157883793Y-135657660D01*
X157882556Y-135661135D01*
X157834938Y-135788802D01*
X157829969Y-135800311D01*
X157775564Y-135910635D01*
X157773183Y-135915219D01*
X157709154Y-136032478D01*
X157703424Y-136041942D01*
X157634383Y-136145269D01*
X157630548Y-136150688D01*
X157551181Y-136256711D01*
X157545142Y-136264160D01*
X157462867Y-136357976D01*
X157457320Y-136363898D01*
X157363898Y-136457320D01*
X157357976Y-136462867D01*
X157264160Y-136545142D01*
X157256711Y-136551181D01*
X157150688Y-136630548D01*
X157145269Y-136634383D01*
X157041942Y-136703424D01*
X157032478Y-136709154D01*
X156915219Y-136773183D01*
X156910635Y-136775564D01*
X156800311Y-136829969D01*
X156788802Y-136834938D01*
X156661135Y-136882556D01*
X156657660Y-136883793D01*
X156543722Y-136922470D01*
X156530221Y-136926217D01*
X156389419Y-136956847D01*
X156342048Y-136966270D01*
X156276896Y-136979229D01*
X156261584Y-136981290D01*
X156083649Y-136994017D01*
X156060221Y-136995552D01*
X156004030Y-136999235D01*
X155995948Y-136999500D01*
X148975846Y-136999500D01*
X148908807Y-136979815D01*
X148863052Y-136927011D01*
X148853108Y-136857853D01*
X148882133Y-136794297D01*
X148897181Y-136779647D01*
X149036639Y-136665194D01*
X149036639Y-136665193D01*
X148506820Y-136135372D01*
X148579484Y-136055666D01*
X148620000Y-135951080D01*
X148620000Y-135595000D01*
X148673553Y-135595000D01*
X149313980Y-136235427D01*
X149354807Y-136100837D01*
X149369701Y-135949622D01*
X149370000Y-135943538D01*
X149370000Y-135286157D01*
X149389685Y-135219118D01*
X149442489Y-135173363D01*
X149511647Y-135163419D01*
X149575203Y-135192444D01*
X149611706Y-135247154D01*
X149620642Y-135274121D01*
X149712683Y-135423345D01*
X149836654Y-135547316D01*
X149985877Y-135639357D01*
X150152303Y-135694506D01*
X150251890Y-135704680D01*
X150258168Y-135704999D01*
X150679999Y-135704999D01*
X150680000Y-135704998D01*
X150680000Y-134892500D01*
X151180000Y-134892500D01*
X151180000Y-135704999D01*
X151601829Y-135704999D01*
X151608111Y-135704678D01*
X151707695Y-135694506D01*
X151874122Y-135639357D01*
X152023345Y-135547316D01*
X152147316Y-135423345D01*
X152239357Y-135274122D01*
X152294506Y-135107696D01*
X152304680Y-135008109D01*
X152305000Y-135001831D01*
X152305000Y-135000000D01*
X154644340Y-135000000D01*
X154664936Y-135235407D01*
X154704576Y-135383345D01*
X154726097Y-135463663D01*
X154825965Y-135677829D01*
X154961505Y-135871401D01*
X155128599Y-136038495D01*
X155322171Y-136174035D01*
X155536337Y-136273903D01*
X155764592Y-136335063D01*
X155941034Y-136350500D01*
X155943742Y-136350500D01*
X156056258Y-136350500D01*
X156058966Y-136350500D01*
X156235408Y-136335063D01*
X156463663Y-136273903D01*
X156677829Y-136174035D01*
X156871401Y-136038495D01*
X157038495Y-135871401D01*
X157174035Y-135677830D01*
X157273903Y-135463663D01*
X157335063Y-135235408D01*
X157355659Y-135000000D01*
X157335063Y-134764592D01*
X157273903Y-134536337D01*
X157174035Y-134322171D01*
X157038495Y-134128599D01*
X156871401Y-133961505D01*
X156677829Y-133825965D01*
X156463663Y-133726097D01*
X156463663Y-133726096D01*
X156235407Y-133664936D01*
X156061667Y-133649736D01*
X156061659Y-133649735D01*
X156058966Y-133649500D01*
X155941034Y-133649500D01*
X155938341Y-133649735D01*
X155938332Y-133649736D01*
X155764592Y-133664936D01*
X155536336Y-133726097D01*
X155322170Y-133825965D01*
X155128598Y-133961505D01*
X154961508Y-134128595D01*
X154961505Y-134128598D01*
X154961505Y-134128599D01*
X154827322Y-134320233D01*
X154825964Y-134322172D01*
X154726097Y-134536337D01*
X154664936Y-134764592D01*
X154644340Y-135000000D01*
X152305000Y-135000000D01*
X152305000Y-134892500D01*
X151180000Y-134892500D01*
X150680000Y-134892500D01*
X149555001Y-134892500D01*
X149555001Y-134913170D01*
X149535316Y-134980209D01*
X149482512Y-135025964D01*
X149413354Y-135035908D01*
X149349798Y-135006883D01*
X149316211Y-134955130D01*
X149313979Y-134954571D01*
X148673553Y-135594999D01*
X148673553Y-135595000D01*
X148620000Y-135595000D01*
X148620000Y-135267198D01*
X148604588Y-135184750D01*
X148545543Y-135089390D01*
X148503674Y-135057772D01*
X149036640Y-134524805D01*
X149036639Y-134524804D01*
X148906171Y-134417731D01*
X148723764Y-134320233D01*
X148525834Y-134260191D01*
X148320000Y-134239919D01*
X148114165Y-134260191D01*
X147916235Y-134320233D01*
X147733829Y-134417731D01*
X147603358Y-134524804D01*
X147603358Y-134524805D01*
X148133180Y-135054626D01*
X148060516Y-135134334D01*
X148020000Y-135238920D01*
X148020000Y-135922802D01*
X148035412Y-136005250D01*
X148094457Y-136100610D01*
X148136325Y-136132227D01*
X147603358Y-136665193D01*
X147603359Y-136665194D01*
X147742819Y-136779647D01*
X147782153Y-136837393D01*
X147784024Y-136907238D01*
X147747836Y-136967006D01*
X147685080Y-136997722D01*
X147664154Y-136999500D01*
X140335846Y-136999500D01*
X140268807Y-136979815D01*
X140223052Y-136927011D01*
X140213108Y-136857853D01*
X140242133Y-136794297D01*
X140257181Y-136779647D01*
X140396639Y-136665194D01*
X140396639Y-136665193D01*
X139866820Y-136135372D01*
X139939484Y-136055666D01*
X139980000Y-135951080D01*
X139980000Y-135595000D01*
X140033553Y-135595000D01*
X140673980Y-136235427D01*
X140714807Y-136100837D01*
X140729701Y-135949622D01*
X140730000Y-135943538D01*
X147270000Y-135943538D01*
X147270298Y-135949622D01*
X147285191Y-136100834D01*
X147326019Y-136235426D01*
X147966447Y-135595000D01*
X147326019Y-134954572D01*
X147285191Y-135089164D01*
X147270298Y-135240377D01*
X147270000Y-135246461D01*
X147270000Y-135943538D01*
X140730000Y-135943538D01*
X140730000Y-135246461D01*
X140729701Y-135240377D01*
X140714808Y-135089165D01*
X140673979Y-134954571D01*
X140033553Y-135594999D01*
X140033553Y-135595000D01*
X139980000Y-135595000D01*
X139980000Y-135267198D01*
X139964588Y-135184750D01*
X139905543Y-135089390D01*
X139863674Y-135057772D01*
X140396640Y-134524805D01*
X140396639Y-134524804D01*
X140266171Y-134417731D01*
X140083764Y-134320233D01*
X139885834Y-134260191D01*
X139680000Y-134239919D01*
X139474165Y-134260191D01*
X139276235Y-134320233D01*
X139093829Y-134417731D01*
X138963358Y-134524804D01*
X138963358Y-134524805D01*
X139493180Y-135054626D01*
X139420516Y-135134334D01*
X139380000Y-135238920D01*
X139380000Y-135922802D01*
X139395412Y-136005250D01*
X139454457Y-136100610D01*
X139496325Y-136132227D01*
X138963358Y-136665193D01*
X138963359Y-136665194D01*
X139102819Y-136779647D01*
X139142153Y-136837393D01*
X139144024Y-136907238D01*
X139107836Y-136967006D01*
X139045080Y-136997722D01*
X139024154Y-136999500D01*
X132004053Y-136999500D01*
X131995943Y-136999234D01*
X131916352Y-136994017D01*
X131738424Y-136981291D01*
X131723082Y-136979225D01*
X131661652Y-136967006D01*
X131610600Y-136956851D01*
X131469746Y-136926210D01*
X131456284Y-136922473D01*
X131456275Y-136922470D01*
X131385362Y-136898398D01*
X131342338Y-136883793D01*
X131338863Y-136882556D01*
X131211196Y-136834938D01*
X131199687Y-136829969D01*
X131134947Y-136798043D01*
X131089348Y-136775556D01*
X131084779Y-136773183D01*
X130967520Y-136709154D01*
X130958056Y-136703424D01*
X130854729Y-136634383D01*
X130849310Y-136630548D01*
X130793396Y-136588691D01*
X130743278Y-136551173D01*
X130735848Y-136545150D01*
X130642022Y-136462867D01*
X130636100Y-136457320D01*
X130542678Y-136363898D01*
X130537131Y-136357976D01*
X130505450Y-136321851D01*
X130454844Y-136264145D01*
X130448830Y-136256727D01*
X130369450Y-136150688D01*
X130365615Y-136145269D01*
X130296574Y-136041942D01*
X130290844Y-136032478D01*
X130245601Y-135949622D01*
X130226798Y-135915187D01*
X130224461Y-135910687D01*
X130170024Y-135800300D01*
X130165060Y-135788802D01*
X130133803Y-135704999D01*
X130117420Y-135661074D01*
X130116228Y-135657725D01*
X130077522Y-135543703D01*
X130073786Y-135530240D01*
X130043157Y-135389441D01*
X130020767Y-135276879D01*
X130018709Y-135261593D01*
X130005988Y-135083743D01*
X130001322Y-135012541D01*
X130000765Y-135004041D01*
X130000633Y-135000000D01*
X130644340Y-135000000D01*
X130664936Y-135235407D01*
X130704576Y-135383345D01*
X130726097Y-135463663D01*
X130825965Y-135677829D01*
X130961505Y-135871401D01*
X131128599Y-136038495D01*
X131322171Y-136174035D01*
X131536337Y-136273903D01*
X131764592Y-136335063D01*
X131941034Y-136350500D01*
X131943742Y-136350500D01*
X132056258Y-136350500D01*
X132058966Y-136350500D01*
X132235408Y-136335063D01*
X132463663Y-136273903D01*
X132677829Y-136174035D01*
X132871401Y-136038495D01*
X133038495Y-135871401D01*
X133174035Y-135677830D01*
X133273903Y-135463663D01*
X133335063Y-135235408D01*
X133355659Y-135000000D01*
X133342754Y-134852500D01*
X135865001Y-134852500D01*
X135865001Y-134961829D01*
X135865321Y-134968111D01*
X135875493Y-135067695D01*
X135930642Y-135234122D01*
X136022683Y-135383345D01*
X136146654Y-135507316D01*
X136295877Y-135599357D01*
X136462303Y-135654506D01*
X136561890Y-135664680D01*
X136568168Y-135664999D01*
X136989999Y-135664999D01*
X136990000Y-135664998D01*
X136990000Y-134852500D01*
X137490000Y-134852500D01*
X137490000Y-135664999D01*
X137911829Y-135664999D01*
X137918111Y-135664678D01*
X138017695Y-135654506D01*
X138184122Y-135599357D01*
X138333345Y-135507316D01*
X138418319Y-135422343D01*
X138479642Y-135388858D01*
X138549334Y-135393842D01*
X138605267Y-135435714D01*
X138629684Y-135501178D01*
X138630000Y-135510024D01*
X138630000Y-135943538D01*
X138630298Y-135949622D01*
X138645191Y-136100834D01*
X138686019Y-136235426D01*
X139326447Y-135595000D01*
X138636348Y-134904901D01*
X138637452Y-134903796D01*
X138632857Y-134900574D01*
X138632440Y-134900992D01*
X138630060Y-134898612D01*
X138625039Y-134895091D01*
X138614165Y-134876665D01*
X138590000Y-134852500D01*
X137490000Y-134852500D01*
X136990000Y-134852500D01*
X135865001Y-134852500D01*
X133342754Y-134852500D01*
X133335063Y-134764592D01*
X133273903Y-134536337D01*
X133188178Y-134352500D01*
X135865000Y-134352500D01*
X136990000Y-134352500D01*
X136990000Y-133540000D01*
X136568171Y-133540000D01*
X136561888Y-133540321D01*
X136462304Y-133550493D01*
X136295877Y-133605642D01*
X136146654Y-133697683D01*
X136022683Y-133821654D01*
X135930642Y-133970877D01*
X135875493Y-134137303D01*
X135865319Y-134236890D01*
X135865000Y-134243168D01*
X135865000Y-134352500D01*
X133188178Y-134352500D01*
X133174035Y-134322171D01*
X133038495Y-134128599D01*
X132871401Y-133961505D01*
X132677829Y-133825965D01*
X132463663Y-133726097D01*
X132463663Y-133726096D01*
X132235407Y-133664936D01*
X132061667Y-133649736D01*
X132061659Y-133649735D01*
X132058966Y-133649500D01*
X131941034Y-133649500D01*
X131938341Y-133649735D01*
X131938332Y-133649736D01*
X131764592Y-133664936D01*
X131536336Y-133726097D01*
X131322170Y-133825965D01*
X131128598Y-133961505D01*
X130961508Y-134128595D01*
X130961505Y-134128598D01*
X130961505Y-134128599D01*
X130827322Y-134320233D01*
X130825964Y-134322172D01*
X130726097Y-134536337D01*
X130664936Y-134764592D01*
X130644340Y-135000000D01*
X130000633Y-135000000D01*
X130000500Y-134995936D01*
X130000500Y-114199999D01*
X131219453Y-114199999D01*
X131239613Y-114481861D01*
X131299678Y-114757979D01*
X131299680Y-114757984D01*
X131398432Y-115022749D01*
X131462456Y-115140000D01*
X131533859Y-115270765D01*
X131549106Y-115291132D01*
X131703203Y-115496982D01*
X131903018Y-115696797D01*
X131960731Y-115740000D01*
X132129234Y-115866140D01*
X132129236Y-115866141D01*
X132377251Y-116001568D01*
X132642016Y-116100320D01*
X132642019Y-116100320D01*
X132642020Y-116100321D01*
X132681320Y-116108870D01*
X132918139Y-116160387D01*
X133129447Y-116175500D01*
X133131662Y-116175500D01*
X133268338Y-116175500D01*
X133270553Y-116175500D01*
X133481861Y-116160387D01*
X133757984Y-116100320D01*
X134022749Y-116001568D01*
X134270764Y-115866141D01*
X134476192Y-115712359D01*
X134541654Y-115687944D01*
X134609927Y-115702796D01*
X134659332Y-115752201D01*
X134674500Y-115811628D01*
X134674500Y-118407421D01*
X134674091Y-118417484D01*
X134669937Y-118468502D01*
X134680318Y-118544707D01*
X134680726Y-118548035D01*
X134689087Y-118624905D01*
X134694045Y-118646058D01*
X134720699Y-118718610D01*
X134721814Y-118721776D01*
X134746499Y-118795039D01*
X134755891Y-118814638D01*
X134797518Y-118879762D01*
X134799288Y-118882615D01*
X134839147Y-118948861D01*
X134852528Y-118965977D01*
X134852799Y-118966248D01*
X134852800Y-118966249D01*
X134907190Y-119020639D01*
X134909496Y-119023009D01*
X134962692Y-119079167D01*
X134980119Y-119093568D01*
X138217975Y-122331425D01*
X138224802Y-122338830D01*
X138257940Y-122377843D01*
X138319182Y-122424397D01*
X138321828Y-122426466D01*
X138382076Y-122474895D01*
X138400540Y-122486347D01*
X138400883Y-122486506D01*
X138400885Y-122486507D01*
X138470777Y-122518842D01*
X138473670Y-122520229D01*
X138542634Y-122554432D01*
X138542636Y-122554432D01*
X138542984Y-122554605D01*
X138563469Y-122561818D01*
X138563845Y-122561900D01*
X138563846Y-122561901D01*
X138638979Y-122578438D01*
X138642212Y-122579195D01*
X138716884Y-122597766D01*
X138716890Y-122597766D01*
X138717264Y-122597859D01*
X138738816Y-122600500D01*
X138739205Y-122600500D01*
X138816098Y-122600500D01*
X138819455Y-122600544D01*
X138896375Y-122602629D01*
X138896376Y-122602628D01*
X138896758Y-122602639D01*
X138919259Y-122600500D01*
X144570500Y-122600500D01*
X144637539Y-122620185D01*
X144683294Y-122672989D01*
X144694500Y-122724500D01*
X144694500Y-129720500D01*
X144674815Y-129787539D01*
X144622011Y-129833294D01*
X144570500Y-129844500D01*
X142738595Y-129844500D01*
X142728532Y-129844091D01*
X142726333Y-129843911D01*
X142677515Y-129839937D01*
X142677514Y-129839937D01*
X142677513Y-129839937D01*
X142601307Y-129850318D01*
X142597980Y-129850726D01*
X142521111Y-129859087D01*
X142499967Y-129864042D01*
X142427403Y-129890700D01*
X142424240Y-129891813D01*
X142350981Y-129916498D01*
X142331371Y-129925894D01*
X142266214Y-129967541D01*
X142263364Y-129969309D01*
X142197157Y-130009145D01*
X142180035Y-130022531D01*
X142125389Y-130077177D01*
X142122983Y-130079518D01*
X142066850Y-130132690D01*
X142052450Y-130150115D01*
X141923566Y-130278998D01*
X141916163Y-130285823D01*
X141877154Y-130318958D01*
X141830608Y-130380189D01*
X141828541Y-130382833D01*
X141780109Y-130443085D01*
X141768653Y-130461554D01*
X141736180Y-130531740D01*
X141734731Y-130534762D01*
X141694579Y-130615726D01*
X141693037Y-130614961D01*
X141665955Y-130661242D01*
X141603666Y-130692894D01*
X141580911Y-130695000D01*
X141500000Y-130695000D01*
X141500000Y-131921000D01*
X141480315Y-131988039D01*
X141427511Y-132033794D01*
X141376000Y-132045000D01*
X141124000Y-132045000D01*
X141056961Y-132025315D01*
X141011206Y-131972511D01*
X141000000Y-131921000D01*
X141000000Y-130695000D01*
X140805482Y-130695000D01*
X140798867Y-130695354D01*
X140742628Y-130701400D01*
X140607908Y-130751648D01*
X140591566Y-130763882D01*
X140526101Y-130788297D01*
X140457829Y-130773444D01*
X140436347Y-130755655D01*
X140435496Y-130756693D01*
X140266171Y-130617731D01*
X140083764Y-130520233D01*
X139885834Y-130460191D01*
X139680000Y-130439919D01*
X139474165Y-130460191D01*
X139276235Y-130520233D01*
X139093829Y-130617731D01*
X138963358Y-130724804D01*
X138963358Y-130724805D01*
X139493179Y-131254626D01*
X139420516Y-131334334D01*
X139380000Y-131438920D01*
X139380000Y-131848553D01*
X138680207Y-131148760D01*
X138635398Y-131146960D01*
X138578183Y-131106856D01*
X138557375Y-131068485D01*
X138549814Y-131045666D01*
X138457712Y-130896344D01*
X138457711Y-130896342D01*
X138333657Y-130772288D01*
X138184334Y-130680186D01*
X138017797Y-130625000D01*
X137918141Y-130614819D01*
X137918122Y-130614818D01*
X137915009Y-130614500D01*
X137911860Y-130614500D01*
X136568140Y-130614500D01*
X136568120Y-130614500D01*
X136564992Y-130614501D01*
X136561860Y-130614820D01*
X136561858Y-130614821D01*
X136462203Y-130625000D01*
X136295665Y-130680186D01*
X136146342Y-130772288D01*
X136022288Y-130896342D01*
X135930186Y-131045665D01*
X135875000Y-131212202D01*
X135864819Y-131311858D01*
X135864817Y-131311878D01*
X135864500Y-131314991D01*
X135864500Y-131318138D01*
X135864500Y-131318139D01*
X135864500Y-132036858D01*
X135864500Y-132036877D01*
X135864501Y-132040008D01*
X135864820Y-132043140D01*
X135864821Y-132043141D01*
X135875000Y-132142796D01*
X135930186Y-132309334D01*
X136022288Y-132458657D01*
X136146342Y-132582711D01*
X136146344Y-132582712D01*
X136295666Y-132674814D01*
X136407017Y-132711712D01*
X136462202Y-132729999D01*
X136561858Y-132740180D01*
X136561859Y-132740180D01*
X136564991Y-132740500D01*
X137367046Y-132740499D01*
X137434085Y-132760183D01*
X137454727Y-132776818D01*
X138006419Y-133328510D01*
X138039904Y-133389833D01*
X138034920Y-133459525D01*
X137993048Y-133515458D01*
X137927584Y-133539875D01*
X137912446Y-133540031D01*
X137911836Y-133540000D01*
X137490000Y-133540000D01*
X137490000Y-134352500D01*
X138614999Y-134352500D01*
X138614999Y-134243170D01*
X138614678Y-134236888D01*
X138604506Y-134137304D01*
X138549357Y-133970877D01*
X138457316Y-133821654D01*
X138446066Y-133810404D01*
X138412581Y-133749081D01*
X138417565Y-133679389D01*
X138459437Y-133623456D01*
X138522077Y-133599273D01*
X138556174Y-133596050D01*
X138567844Y-133595500D01*
X143092256Y-133595500D01*
X143112762Y-133597764D01*
X143115665Y-133597672D01*
X143115667Y-133597673D01*
X143182872Y-133595561D01*
X143186768Y-133595500D01*
X143210448Y-133595500D01*
X143214350Y-133595500D01*
X143218313Y-133594999D01*
X143229962Y-133594080D01*
X143273627Y-133592709D01*
X143292859Y-133587120D01*
X143311918Y-133583174D01*
X143319099Y-133582267D01*
X143331792Y-133580664D01*
X143372407Y-133564582D01*
X143383444Y-133560803D01*
X143425390Y-133548618D01*
X143442629Y-133538422D01*
X143460102Y-133529862D01*
X143478732Y-133522486D01*
X143514064Y-133496814D01*
X143523830Y-133490400D01*
X143541311Y-133480062D01*
X143561420Y-133468170D01*
X143575587Y-133454002D01*
X143590376Y-133441371D01*
X143606587Y-133429594D01*
X143634436Y-133395929D01*
X143642279Y-133387310D01*
X143883786Y-133145802D01*
X143899881Y-133132910D01*
X143901873Y-133130788D01*
X143901877Y-133130786D01*
X143910811Y-133121271D01*
X143971049Y-133085877D01*
X144040863Y-133088668D01*
X144088881Y-133118472D01*
X144298920Y-133328510D01*
X144324194Y-133353784D01*
X144337094Y-133369887D01*
X144388224Y-133417901D01*
X144391021Y-133420612D01*
X144410529Y-133440120D01*
X144413709Y-133442587D01*
X144422571Y-133450155D01*
X144454418Y-133480062D01*
X144471970Y-133489711D01*
X144488238Y-133500397D01*
X144504064Y-133512673D01*
X144544146Y-133530017D01*
X144554633Y-133535155D01*
X144592907Y-133556197D01*
X144601410Y-133558379D01*
X144612308Y-133561178D01*
X144630713Y-133567478D01*
X144649104Y-133575437D01*
X144692250Y-133582270D01*
X144703668Y-133584635D01*
X144745981Y-133595500D01*
X144766016Y-133595500D01*
X144785415Y-133597027D01*
X144805196Y-133600160D01*
X144848674Y-133596050D01*
X144860344Y-133595500D01*
X149594756Y-133595500D01*
X149615261Y-133597764D01*
X149618165Y-133597672D01*
X149618167Y-133597673D01*
X149675264Y-133595878D01*
X149742887Y-133613447D01*
X149790278Y-133664787D01*
X149802390Y-133733599D01*
X149775376Y-133798035D01*
X149766840Y-133807498D01*
X149712682Y-133861656D01*
X149620642Y-134010877D01*
X149565493Y-134177303D01*
X149555319Y-134276890D01*
X149555000Y-134283168D01*
X149555000Y-134392500D01*
X150680000Y-134392500D01*
X150680000Y-133580000D01*
X151180000Y-133580000D01*
X151180000Y-134392500D01*
X152304999Y-134392500D01*
X152304999Y-134283170D01*
X152304678Y-134276888D01*
X152294506Y-134177304D01*
X152239357Y-134010877D01*
X152147316Y-133861654D01*
X152023345Y-133737683D01*
X151874122Y-133645642D01*
X151707696Y-133590493D01*
X151608109Y-133580319D01*
X151601832Y-133580000D01*
X151180000Y-133580000D01*
X150680000Y-133580000D01*
X150258172Y-133580000D01*
X150257542Y-133580033D01*
X150257408Y-133580000D01*
X150255022Y-133580001D01*
X150257180Y-133579946D01*
X150189591Y-133563771D01*
X150141219Y-133513354D01*
X150127784Y-133444788D01*
X150153550Y-133379843D01*
X150163569Y-133368519D01*
X150715271Y-132816817D01*
X150776594Y-132783333D01*
X150802952Y-132780499D01*
X151601859Y-132780499D01*
X151605008Y-132780499D01*
X151707797Y-132769999D01*
X151874334Y-132714814D01*
X152023656Y-132622712D01*
X152147712Y-132498656D01*
X152239814Y-132349334D01*
X152294999Y-132182797D01*
X152305500Y-132080009D01*
X152305499Y-131354992D01*
X152294999Y-131252203D01*
X152239814Y-131085666D01*
X152162956Y-130961059D01*
X152147711Y-130936342D01*
X152023657Y-130812288D01*
X151874334Y-130720186D01*
X151707797Y-130665000D01*
X151608141Y-130654819D01*
X151608122Y-130654818D01*
X151605009Y-130654500D01*
X151601860Y-130654500D01*
X150258140Y-130654500D01*
X150258120Y-130654500D01*
X150254992Y-130654501D01*
X150251860Y-130654820D01*
X150251858Y-130654821D01*
X150152203Y-130665000D01*
X149985665Y-130720186D01*
X149836342Y-130812288D01*
X149712288Y-130936342D01*
X149620187Y-131085664D01*
X149572335Y-131230068D01*
X149532562Y-131287513D01*
X149468045Y-131314335D01*
X149399270Y-131302020D01*
X149348070Y-131254476D01*
X149335968Y-131227058D01*
X149313979Y-131154571D01*
X148620000Y-131848550D01*
X148620000Y-131467198D01*
X148604588Y-131384750D01*
X148545543Y-131289390D01*
X148503673Y-131257771D01*
X149036640Y-130724805D01*
X149036639Y-130724804D01*
X148906171Y-130617731D01*
X148723764Y-130520233D01*
X148525834Y-130460191D01*
X148320000Y-130439919D01*
X148114165Y-130460191D01*
X147916235Y-130520233D01*
X147733828Y-130617731D01*
X147564505Y-130756692D01*
X147562497Y-130754246D01*
X147520831Y-130782619D01*
X147450986Y-130784479D01*
X147408429Y-130763880D01*
X147392089Y-130751647D01*
X147257371Y-130701400D01*
X147201132Y-130695354D01*
X147194518Y-130695000D01*
X147000000Y-130695000D01*
X147000000Y-131921000D01*
X146980315Y-131988039D01*
X146927511Y-132033794D01*
X146876000Y-132045000D01*
X146624000Y-132045000D01*
X146556961Y-132025315D01*
X146511206Y-131972511D01*
X146500000Y-131921000D01*
X146500000Y-130695000D01*
X146469500Y-130695000D01*
X146402461Y-130675315D01*
X146356706Y-130622511D01*
X146345500Y-130571000D01*
X146345500Y-122099984D01*
X146351569Y-122061666D01*
X146352241Y-122059594D01*
X146365674Y-122018256D01*
X146385460Y-121830000D01*
X146365674Y-121641744D01*
X146307179Y-121461716D01*
X146307179Y-121461715D01*
X146212533Y-121297783D01*
X146085870Y-121157110D01*
X145932730Y-121045848D01*
X145759802Y-120968855D01*
X145574648Y-120929500D01*
X145574646Y-120929500D01*
X145385354Y-120929500D01*
X145385353Y-120929500D01*
X145304010Y-120946790D01*
X145278229Y-120949500D01*
X139222280Y-120949500D01*
X139155241Y-120929815D01*
X139134599Y-120913181D01*
X136361819Y-118140400D01*
X136328334Y-118079077D01*
X136325500Y-118052719D01*
X136325500Y-115140000D01*
X140000000Y-115140000D01*
X140000000Y-115284518D01*
X140000354Y-115291132D01*
X140006400Y-115347371D01*
X140056647Y-115482089D01*
X140142811Y-115597188D01*
X140257910Y-115683352D01*
X140392628Y-115733599D01*
X140448867Y-115739645D01*
X140455482Y-115740000D01*
X140750000Y-115740000D01*
X140750000Y-115140000D01*
X141250000Y-115140000D01*
X141250000Y-115740000D01*
X141544518Y-115740000D01*
X141551132Y-115739645D01*
X141607371Y-115733599D01*
X141742089Y-115683352D01*
X141857188Y-115597188D01*
X141943352Y-115482089D01*
X141993599Y-115347371D01*
X141999645Y-115291132D01*
X142000000Y-115284518D01*
X142000000Y-115140000D01*
X146000000Y-115140000D01*
X146000000Y-115284518D01*
X146000354Y-115291132D01*
X146006400Y-115347371D01*
X146056647Y-115482089D01*
X146142811Y-115597188D01*
X146257910Y-115683352D01*
X146392628Y-115733599D01*
X146448867Y-115739645D01*
X146455482Y-115740000D01*
X146750000Y-115740000D01*
X146750000Y-115140000D01*
X147250000Y-115140000D01*
X147250000Y-115740000D01*
X147544518Y-115740000D01*
X147551132Y-115739645D01*
X147607371Y-115733599D01*
X147742089Y-115683352D01*
X147857188Y-115597188D01*
X147943352Y-115482089D01*
X147993599Y-115347371D01*
X147999645Y-115291132D01*
X148000000Y-115284518D01*
X148000000Y-115140000D01*
X147250000Y-115140000D01*
X146750000Y-115140000D01*
X146000000Y-115140000D01*
X142000000Y-115140000D01*
X141250000Y-115140000D01*
X140750000Y-115140000D01*
X140000000Y-115140000D01*
X136325500Y-115140000D01*
X136325500Y-98121877D01*
X142594500Y-98121877D01*
X142594501Y-98125008D01*
X142594820Y-98128140D01*
X142594821Y-98128141D01*
X142605000Y-98227796D01*
X142660186Y-98394334D01*
X142752288Y-98543657D01*
X142876342Y-98667711D01*
X142876344Y-98667712D01*
X143025666Y-98759814D01*
X143111055Y-98788109D01*
X143192202Y-98814999D01*
X143291858Y-98825180D01*
X143291859Y-98825180D01*
X143294991Y-98825500D01*
X144645008Y-98825499D01*
X144747797Y-98814999D01*
X144914334Y-98759814D01*
X145063656Y-98667712D01*
X145187712Y-98543656D01*
X145245301Y-98450287D01*
X145297247Y-98403564D01*
X145366209Y-98392341D01*
X145430292Y-98420184D01*
X145441885Y-98433561D01*
X145442039Y-98433408D01*
X145576342Y-98567711D01*
X145576344Y-98567712D01*
X145725666Y-98659814D01*
X145837016Y-98696712D01*
X145892202Y-98714999D01*
X145991858Y-98725180D01*
X145991859Y-98725180D01*
X145994991Y-98725500D01*
X147345008Y-98725499D01*
X147447797Y-98714999D01*
X147614334Y-98659814D01*
X147763656Y-98567712D01*
X147887712Y-98443656D01*
X147979814Y-98294334D01*
X148034999Y-98127797D01*
X148045500Y-98025009D01*
X148045499Y-97299992D01*
X148034999Y-97197203D01*
X147979814Y-97030666D01*
X147887712Y-96881344D01*
X147887711Y-96881342D01*
X147763657Y-96757288D01*
X147614334Y-96665186D01*
X147447797Y-96610000D01*
X147348141Y-96599819D01*
X147348122Y-96599818D01*
X147345009Y-96599500D01*
X147341860Y-96599500D01*
X145998140Y-96599500D01*
X145998120Y-96599500D01*
X145994992Y-96599501D01*
X145991860Y-96599820D01*
X145991858Y-96599821D01*
X145892203Y-96610000D01*
X145725665Y-96665186D01*
X145576342Y-96757288D01*
X145452286Y-96881344D01*
X145433246Y-96912213D01*
X145381298Y-96958936D01*
X145312335Y-96970157D01*
X145248253Y-96942313D01*
X145222170Y-96912210D01*
X145187711Y-96856342D01*
X145063657Y-96732288D01*
X144914334Y-96640186D01*
X144747797Y-96585000D01*
X144648141Y-96574819D01*
X144648122Y-96574818D01*
X144645009Y-96574500D01*
X144641860Y-96574500D01*
X143298140Y-96574500D01*
X143298120Y-96574500D01*
X143294992Y-96574501D01*
X143291860Y-96574820D01*
X143291858Y-96574821D01*
X143192203Y-96585000D01*
X143025665Y-96640186D01*
X142876342Y-96732288D01*
X142752288Y-96856342D01*
X142660186Y-97005665D01*
X142605000Y-97172202D01*
X142594819Y-97271858D01*
X142594817Y-97271878D01*
X142594500Y-97274991D01*
X142594500Y-97278138D01*
X142594500Y-97278139D01*
X142594500Y-98121858D01*
X142594500Y-98121877D01*
X136325500Y-98121877D01*
X136325500Y-94688603D01*
X136325909Y-94678540D01*
X136330064Y-94627515D01*
X136319676Y-94551274D01*
X136319268Y-94547940D01*
X136310912Y-94471107D01*
X136305960Y-94449975D01*
X136305823Y-94449601D01*
X136279279Y-94377350D01*
X136278197Y-94374277D01*
X136253622Y-94301338D01*
X136253620Y-94301335D01*
X136253496Y-94300966D01*
X136244116Y-94281391D01*
X136243905Y-94281061D01*
X136243904Y-94281058D01*
X136202458Y-94216218D01*
X136200700Y-94213382D01*
X136196057Y-94205666D01*
X136161050Y-94147483D01*
X136161049Y-94147482D01*
X136160852Y-94147154D01*
X136147474Y-94130041D01*
X136123099Y-94105666D01*
X136092789Y-94075356D01*
X136090483Y-94072986D01*
X136037308Y-94016849D01*
X136019879Y-94002446D01*
X134394638Y-92377205D01*
X134361153Y-92315882D01*
X134366137Y-92246190D01*
X134408009Y-92190257D01*
X134426131Y-92181219D01*
X134425909Y-92180843D01*
X134439391Y-92172869D01*
X134439393Y-92172869D01*
X134497372Y-92138580D01*
X134565093Y-92121398D01*
X134623612Y-92138581D01*
X134680804Y-92172404D01*
X134820000Y-92212844D01*
X134820000Y-91660409D01*
X134820323Y-91652179D01*
X134820213Y-91654046D01*
X134820307Y-91651623D01*
X134820500Y-91649181D01*
X134820499Y-91565452D01*
X134840183Y-91498415D01*
X134856815Y-91477773D01*
X134925273Y-91409317D01*
X134986596Y-91375834D01*
X135012953Y-91373000D01*
X135151633Y-91373000D01*
X135182472Y-91376896D01*
X135226839Y-91388288D01*
X135286876Y-91424027D01*
X135318061Y-91486551D01*
X135320000Y-91508392D01*
X135320000Y-92212843D01*
X135459193Y-92172405D01*
X135601386Y-92088312D01*
X135669110Y-92071129D01*
X135727629Y-92088312D01*
X135732401Y-92091134D01*
X135732402Y-92091135D01*
X135870607Y-92172869D01*
X136024796Y-92217665D01*
X136060819Y-92220500D01*
X136282431Y-92220499D01*
X136349470Y-92240183D01*
X136395225Y-92292987D01*
X136405752Y-92331537D01*
X136424326Y-92508257D01*
X136482820Y-92688284D01*
X136577466Y-92852216D01*
X136704129Y-92992889D01*
X136857269Y-93104151D01*
X137030197Y-93181144D01*
X137215352Y-93220500D01*
X137215354Y-93220500D01*
X137404648Y-93220500D01*
X137528083Y-93194262D01*
X137589803Y-93181144D01*
X137762730Y-93104151D01*
X137915871Y-92992888D01*
X138042533Y-92852216D01*
X138137179Y-92688284D01*
X138195674Y-92508256D01*
X138215460Y-92320000D01*
X138215459Y-92319998D01*
X138216822Y-92307039D01*
X138219925Y-92307365D01*
X138228806Y-92258766D01*
X138276531Y-92207735D01*
X138344268Y-92190607D01*
X138410513Y-92212820D01*
X138427247Y-92226837D01*
X141484197Y-95283787D01*
X141497098Y-95299889D01*
X141499212Y-95301874D01*
X141499214Y-95301877D01*
X141546561Y-95346339D01*
X141548240Y-95347916D01*
X141551036Y-95350626D01*
X141570530Y-95370120D01*
X141573615Y-95372513D01*
X141573701Y-95372580D01*
X141582573Y-95380158D01*
X141614418Y-95410062D01*
X141631974Y-95419714D01*
X141648231Y-95430392D01*
X141664064Y-95442674D01*
X141680185Y-95449649D01*
X141704156Y-95460023D01*
X141714643Y-95465160D01*
X141752908Y-95486197D01*
X141772316Y-95491180D01*
X141790710Y-95497478D01*
X141809105Y-95505438D01*
X141852254Y-95512271D01*
X141863680Y-95514638D01*
X141879222Y-95518629D01*
X141905980Y-95525500D01*
X141905981Y-95525500D01*
X141926016Y-95525500D01*
X141945413Y-95527026D01*
X141965196Y-95530160D01*
X142008674Y-95526050D01*
X142020344Y-95525500D01*
X142548522Y-95525500D01*
X142615561Y-95545185D01*
X142654061Y-95584404D01*
X142752288Y-95743657D01*
X142876342Y-95867711D01*
X142876344Y-95867712D01*
X143025666Y-95959814D01*
X143137017Y-95996712D01*
X143192202Y-96014999D01*
X143291858Y-96025180D01*
X143291859Y-96025180D01*
X143294991Y-96025500D01*
X144645008Y-96025499D01*
X144747797Y-96014999D01*
X144914334Y-95959814D01*
X145063656Y-95867712D01*
X145187712Y-95743656D01*
X145279814Y-95594334D01*
X145279814Y-95594333D01*
X145287422Y-95581999D01*
X145289198Y-95583094D01*
X145318114Y-95541330D01*
X145382630Y-95514507D01*
X145451406Y-95526822D01*
X145483729Y-95550098D01*
X145576342Y-95642711D01*
X145632895Y-95677592D01*
X145725666Y-95734814D01*
X145837016Y-95771712D01*
X145892202Y-95789999D01*
X145991858Y-95800180D01*
X145991859Y-95800180D01*
X145994991Y-95800500D01*
X147345008Y-95800499D01*
X147447797Y-95789999D01*
X147614334Y-95734814D01*
X147723760Y-95667319D01*
X147775993Y-95635103D01*
X147777537Y-95637606D01*
X147819518Y-95614678D01*
X147889210Y-95619655D01*
X147933570Y-95648160D01*
X154659761Y-102374352D01*
X154693246Y-102435675D01*
X154691855Y-102494125D01*
X154664936Y-102594591D01*
X154644340Y-102830000D01*
X154664936Y-103065407D01*
X154709709Y-103232502D01*
X154726097Y-103293663D01*
X154825965Y-103507830D01*
X154961505Y-103701401D01*
X155128599Y-103868495D01*
X155314160Y-103998426D01*
X155357783Y-104053002D01*
X155364976Y-104122501D01*
X155333454Y-104184855D01*
X155314159Y-104201575D01*
X155128595Y-104331508D01*
X154961505Y-104498598D01*
X154825965Y-104692170D01*
X154726097Y-104906336D01*
X154664936Y-105134592D01*
X154644340Y-105369999D01*
X154654444Y-105485478D01*
X154640678Y-105553978D01*
X154618597Y-105583967D01*
X153309385Y-106893181D01*
X153248062Y-106926666D01*
X153221704Y-106929500D01*
X148124500Y-106929500D01*
X148057461Y-106909815D01*
X148011706Y-106857011D01*
X148000500Y-106805500D01*
X148000499Y-106485439D01*
X148000499Y-106482128D01*
X147994091Y-106422517D01*
X147943796Y-106287669D01*
X147857546Y-106172454D01*
X147742331Y-106086204D01*
X147607483Y-106035909D01*
X147547873Y-106029500D01*
X147544550Y-106029500D01*
X146455439Y-106029500D01*
X146455420Y-106029500D01*
X146452128Y-106029501D01*
X146448848Y-106029853D01*
X146448840Y-106029854D01*
X146392515Y-106035909D01*
X146363633Y-106046682D01*
X146320300Y-106054500D01*
X141949500Y-106054500D01*
X141882461Y-106034815D01*
X141836706Y-105982011D01*
X141825500Y-105930500D01*
X141825500Y-105726093D01*
X141825909Y-105716030D01*
X141830063Y-105665015D01*
X141819672Y-105588752D01*
X141819270Y-105585462D01*
X141819107Y-105583967D01*
X141810954Y-105508995D01*
X141810912Y-105508607D01*
X141805959Y-105487472D01*
X141805823Y-105487102D01*
X141805823Y-105487100D01*
X141779285Y-105414867D01*
X141778176Y-105411713D01*
X141753500Y-105338475D01*
X141744113Y-105318885D01*
X141702470Y-105253736D01*
X141700700Y-105250882D01*
X141660852Y-105184654D01*
X141647474Y-105167541D01*
X141647200Y-105167267D01*
X141592789Y-105112856D01*
X141590483Y-105110486D01*
X141537308Y-105054349D01*
X141519879Y-105039946D01*
X140717647Y-104237714D01*
X140684162Y-104176391D01*
X140689146Y-104106699D01*
X140717647Y-104062351D01*
X140750000Y-104029998D01*
X140750000Y-103430000D01*
X141250000Y-103430000D01*
X141250000Y-104030000D01*
X141544518Y-104030000D01*
X141551132Y-104029645D01*
X141607371Y-104023599D01*
X141742089Y-103973352D01*
X141857188Y-103887188D01*
X141943352Y-103772089D01*
X141993599Y-103637371D01*
X141999645Y-103581132D01*
X142000000Y-103574518D01*
X142000000Y-103430000D01*
X146000000Y-103430000D01*
X146000000Y-103574518D01*
X146000354Y-103581132D01*
X146006400Y-103637371D01*
X146056647Y-103772089D01*
X146142811Y-103887188D01*
X146257910Y-103973352D01*
X146392628Y-104023599D01*
X146448867Y-104029645D01*
X146455482Y-104030000D01*
X146750000Y-104030000D01*
X146750000Y-103430000D01*
X147250000Y-103430000D01*
X147250000Y-104030000D01*
X147544518Y-104030000D01*
X147551132Y-104029645D01*
X147607371Y-104023599D01*
X147742089Y-103973352D01*
X147857188Y-103887188D01*
X147943352Y-103772089D01*
X147993599Y-103637371D01*
X147999645Y-103581132D01*
X148000000Y-103574518D01*
X148000000Y-103430000D01*
X147250000Y-103430000D01*
X146750000Y-103430000D01*
X146000000Y-103430000D01*
X142000000Y-103430000D01*
X141250000Y-103430000D01*
X140750000Y-103430000D01*
X139961295Y-103430000D01*
X139894256Y-103410315D01*
X139873614Y-103393681D01*
X139601818Y-103121884D01*
X139568333Y-103060561D01*
X139565499Y-103034203D01*
X139565499Y-102930000D01*
X140000000Y-102930000D01*
X140750000Y-102930000D01*
X140750000Y-102330000D01*
X141250000Y-102330000D01*
X141250000Y-102930000D01*
X142000000Y-102930000D01*
X146000000Y-102930000D01*
X146750000Y-102930000D01*
X146750000Y-102330000D01*
X147250000Y-102330000D01*
X147250000Y-102930000D01*
X148000000Y-102930000D01*
X148000000Y-102785481D01*
X147999645Y-102778867D01*
X147993599Y-102722628D01*
X147943352Y-102587910D01*
X147857188Y-102472811D01*
X147742089Y-102386647D01*
X147607371Y-102336400D01*
X147551132Y-102330354D01*
X147544518Y-102330000D01*
X147250000Y-102330000D01*
X146750000Y-102330000D01*
X146455482Y-102330000D01*
X146448867Y-102330354D01*
X146392628Y-102336400D01*
X146257910Y-102386647D01*
X146142811Y-102472811D01*
X146056647Y-102587910D01*
X146006400Y-102722628D01*
X146000354Y-102778867D01*
X146000000Y-102785481D01*
X146000000Y-102930000D01*
X142000000Y-102930000D01*
X142000000Y-102785481D01*
X141999645Y-102778867D01*
X141993599Y-102722628D01*
X141943352Y-102587910D01*
X141857188Y-102472811D01*
X141742089Y-102386647D01*
X141607371Y-102336400D01*
X141551132Y-102330354D01*
X141544518Y-102330000D01*
X141250000Y-102330000D01*
X140750000Y-102330000D01*
X140455482Y-102330000D01*
X140448867Y-102330354D01*
X140392628Y-102336400D01*
X140257910Y-102386647D01*
X140142811Y-102472811D01*
X140056647Y-102587910D01*
X140006400Y-102722628D01*
X140000354Y-102778867D01*
X140000000Y-102785481D01*
X140000000Y-102930000D01*
X139565499Y-102930000D01*
X139565499Y-102518140D01*
X139565499Y-102518139D01*
X139565499Y-102514992D01*
X139554999Y-102412203D01*
X139499814Y-102245666D01*
X139407712Y-102096344D01*
X139407711Y-102096342D01*
X139283657Y-101972288D01*
X139134334Y-101880186D01*
X138967797Y-101825000D01*
X138868141Y-101814819D01*
X138868122Y-101814818D01*
X138865009Y-101814500D01*
X138861860Y-101814500D01*
X138599500Y-101814500D01*
X138532461Y-101794815D01*
X138486706Y-101742011D01*
X138475500Y-101690500D01*
X138475500Y-101144263D01*
X138495185Y-101077224D01*
X138507350Y-101061290D01*
X138542533Y-101022216D01*
X138573935Y-100967827D01*
X138637179Y-100858284D01*
X138637178Y-100858284D01*
X138695674Y-100678256D01*
X138715460Y-100490000D01*
X138695674Y-100301744D01*
X138637179Y-100121716D01*
X138637179Y-100121715D01*
X138542533Y-99957783D01*
X138415870Y-99817110D01*
X138262730Y-99705848D01*
X138089802Y-99628855D01*
X137904648Y-99589500D01*
X137904646Y-99589500D01*
X137715354Y-99589500D01*
X137715352Y-99589500D01*
X137530197Y-99628855D01*
X137357269Y-99705848D01*
X137204129Y-99817110D01*
X137077466Y-99957783D01*
X136982820Y-100121715D01*
X136924326Y-100301742D01*
X136904540Y-100490000D01*
X136924326Y-100678257D01*
X136982820Y-100858284D01*
X137077464Y-101022213D01*
X137112650Y-101061290D01*
X137142880Y-101124282D01*
X137144500Y-101144263D01*
X137144500Y-101873377D01*
X137124815Y-101940416D01*
X137104711Y-101960158D01*
X137106592Y-101962039D01*
X136972288Y-102096342D01*
X136880186Y-102245665D01*
X136825000Y-102412202D01*
X136814819Y-102511858D01*
X136814817Y-102511878D01*
X136814500Y-102514991D01*
X136814500Y-102518138D01*
X136814500Y-102518139D01*
X136814500Y-103236858D01*
X136814500Y-103236877D01*
X136814501Y-103240008D01*
X136814820Y-103243140D01*
X136814821Y-103243141D01*
X136825000Y-103342796D01*
X136880186Y-103509334D01*
X136972288Y-103658657D01*
X137096342Y-103782711D01*
X137096344Y-103782712D01*
X137245666Y-103874814D01*
X137357016Y-103911712D01*
X137412202Y-103929999D01*
X137511858Y-103940180D01*
X137511859Y-103940180D01*
X137514991Y-103940500D01*
X138034204Y-103940499D01*
X138101243Y-103960183D01*
X138121885Y-103976818D01*
X138672885Y-104527819D01*
X138706370Y-104589142D01*
X138701386Y-104658834D01*
X138659514Y-104714767D01*
X138594050Y-104739184D01*
X138585204Y-104739500D01*
X137518140Y-104739500D01*
X137518120Y-104739500D01*
X137514992Y-104739501D01*
X137511860Y-104739820D01*
X137511858Y-104739821D01*
X137412203Y-104750000D01*
X137245665Y-104805186D01*
X137096342Y-104897288D01*
X136972288Y-105021342D01*
X136880186Y-105170665D01*
X136825000Y-105337202D01*
X136814819Y-105436858D01*
X136814817Y-105436878D01*
X136814500Y-105439991D01*
X136814500Y-105443138D01*
X136814500Y-105443139D01*
X136814500Y-106161858D01*
X136814500Y-106161877D01*
X136814501Y-106165008D01*
X136814820Y-106168140D01*
X136814821Y-106168141D01*
X136825000Y-106267796D01*
X136880186Y-106434334D01*
X136972288Y-106583657D01*
X137096342Y-106707711D01*
X137096344Y-106707712D01*
X137245666Y-106799814D01*
X137279503Y-106811026D01*
X137336948Y-106850798D01*
X137363772Y-106915313D01*
X137364500Y-106928732D01*
X137364500Y-109775529D01*
X137344815Y-109842568D01*
X137305597Y-109881068D01*
X137206341Y-109942289D01*
X137082288Y-110066342D01*
X136990186Y-110215665D01*
X136935000Y-110382202D01*
X136924819Y-110481858D01*
X136924817Y-110481878D01*
X136924500Y-110484991D01*
X136924500Y-110488138D01*
X136924500Y-110488139D01*
X136924500Y-111206858D01*
X136924500Y-111206877D01*
X136924501Y-111210008D01*
X136924820Y-111213140D01*
X136924821Y-111213141D01*
X136935000Y-111312796D01*
X136990186Y-111479334D01*
X137082288Y-111628657D01*
X137206342Y-111752711D01*
X137206344Y-111752712D01*
X137355666Y-111844814D01*
X137455244Y-111877811D01*
X137522202Y-111899999D01*
X137621858Y-111910180D01*
X137621859Y-111910180D01*
X137624991Y-111910500D01*
X138812704Y-111910499D01*
X138879743Y-111930184D01*
X138925498Y-111982987D01*
X138935442Y-112052146D01*
X138906417Y-112115702D01*
X138900385Y-112122180D01*
X138349383Y-112673181D01*
X138288060Y-112706666D01*
X138261702Y-112709500D01*
X137628141Y-112709500D01*
X137628121Y-112709500D01*
X137624992Y-112709501D01*
X137621860Y-112709820D01*
X137621858Y-112709821D01*
X137522203Y-112720000D01*
X137355665Y-112775186D01*
X137206342Y-112867288D01*
X137082288Y-112991342D01*
X136990186Y-113140665D01*
X136935000Y-113307202D01*
X136924819Y-113406858D01*
X136924817Y-113406878D01*
X136924500Y-113409991D01*
X136924500Y-113413138D01*
X136924500Y-113413139D01*
X136924500Y-114131858D01*
X136924500Y-114131877D01*
X136924501Y-114135008D01*
X136924820Y-114138140D01*
X136924821Y-114138141D01*
X136935000Y-114237796D01*
X136990186Y-114404334D01*
X137082288Y-114553657D01*
X137206342Y-114677711D01*
X137206344Y-114677712D01*
X137355666Y-114769814D01*
X137467016Y-114806712D01*
X137522202Y-114824999D01*
X137621858Y-114835180D01*
X137621859Y-114835180D01*
X137624991Y-114835500D01*
X138975008Y-114835499D01*
X139077797Y-114824999D01*
X139244334Y-114769814D01*
X139393656Y-114677712D01*
X139431368Y-114640000D01*
X140000000Y-114640000D01*
X140750000Y-114640000D01*
X140750000Y-114040000D01*
X141250000Y-114040000D01*
X141250000Y-114640000D01*
X142000000Y-114640000D01*
X146000000Y-114640000D01*
X146750000Y-114640000D01*
X146750000Y-114040000D01*
X147250000Y-114040000D01*
X147250000Y-114640000D01*
X148000000Y-114640000D01*
X148000000Y-114495481D01*
X147999645Y-114488867D01*
X147993599Y-114432628D01*
X147943352Y-114297910D01*
X147857188Y-114182811D01*
X147742089Y-114096647D01*
X147607371Y-114046400D01*
X147551132Y-114040354D01*
X147544518Y-114040000D01*
X147250000Y-114040000D01*
X146750000Y-114040000D01*
X146455482Y-114040000D01*
X146448867Y-114040354D01*
X146392628Y-114046400D01*
X146257910Y-114096647D01*
X146142811Y-114182811D01*
X146056647Y-114297910D01*
X146006400Y-114432628D01*
X146000354Y-114488867D01*
X146000000Y-114495481D01*
X146000000Y-114640000D01*
X142000000Y-114640000D01*
X142000000Y-114495481D01*
X141999645Y-114488867D01*
X141993599Y-114432628D01*
X141943352Y-114297910D01*
X141857188Y-114182811D01*
X141742089Y-114096647D01*
X141607371Y-114046400D01*
X141551132Y-114040354D01*
X141544518Y-114040000D01*
X141250000Y-114040000D01*
X140750000Y-114040000D01*
X140455482Y-114040000D01*
X140448867Y-114040354D01*
X140392628Y-114046400D01*
X140257910Y-114096647D01*
X140142811Y-114182811D01*
X140056647Y-114297910D01*
X140006400Y-114432628D01*
X140000354Y-114488867D01*
X140000000Y-114495481D01*
X140000000Y-114640000D01*
X139431368Y-114640000D01*
X139517712Y-114553656D01*
X139609814Y-114404334D01*
X139664999Y-114237797D01*
X139675500Y-114135009D01*
X139675499Y-113733293D01*
X139695183Y-113666255D01*
X139711813Y-113645618D01*
X141280614Y-112076818D01*
X141341937Y-112043333D01*
X141368295Y-112040499D01*
X141544561Y-112040499D01*
X141547872Y-112040499D01*
X141607483Y-112034091D01*
X141636366Y-112023318D01*
X141679700Y-112015500D01*
X146320300Y-112015500D01*
X146363632Y-112023317D01*
X146392517Y-112034091D01*
X146452127Y-112040500D01*
X147547872Y-112040499D01*
X147607483Y-112034091D01*
X147742331Y-111983796D01*
X147857546Y-111897546D01*
X147943796Y-111782331D01*
X147994091Y-111647483D01*
X148000500Y-111587873D01*
X148000499Y-111182020D01*
X148020183Y-111114982D01*
X148036813Y-111094345D01*
X148758936Y-110372222D01*
X148820257Y-110338739D01*
X148872392Y-110338615D01*
X148975354Y-110360500D01*
X149164648Y-110360500D01*
X149288083Y-110334262D01*
X149349803Y-110321144D01*
X149522730Y-110244151D01*
X149675871Y-110132888D01*
X149802533Y-109992216D01*
X149897179Y-109828284D01*
X149955674Y-109648256D01*
X149975460Y-109460000D01*
X149955674Y-109271744D01*
X149897179Y-109091716D01*
X149897179Y-109091715D01*
X149802535Y-108927786D01*
X149777991Y-108900527D01*
X149676193Y-108787470D01*
X149645965Y-108724481D01*
X149654590Y-108655146D01*
X149699331Y-108601480D01*
X149765984Y-108580522D01*
X149768345Y-108580500D01*
X153576405Y-108580500D01*
X153586467Y-108580909D01*
X153591357Y-108581307D01*
X153637485Y-108585063D01*
X153713747Y-108574672D01*
X153716998Y-108574274D01*
X153793505Y-108565954D01*
X153793510Y-108565952D01*
X153793899Y-108565910D01*
X153815033Y-108560957D01*
X153815396Y-108560823D01*
X153815400Y-108560823D01*
X153887647Y-108534280D01*
X153890693Y-108533207D01*
X153963662Y-108508622D01*
X153963667Y-108508618D01*
X153964035Y-108508495D01*
X153983617Y-108499111D01*
X153983939Y-108498905D01*
X153983942Y-108498904D01*
X154048816Y-108457435D01*
X154051585Y-108455719D01*
X154117517Y-108416050D01*
X154117516Y-108416050D01*
X154117848Y-108415851D01*
X154134955Y-108402478D01*
X154163770Y-108373662D01*
X154189641Y-108347790D01*
X154191972Y-108345521D01*
X154247875Y-108292569D01*
X154247876Y-108292567D01*
X154248153Y-108292305D01*
X154262550Y-108274881D01*
X154455396Y-108082036D01*
X154516718Y-108048552D01*
X154586410Y-108053536D01*
X154642343Y-108095408D01*
X154662851Y-108137624D01*
X154726097Y-108373664D01*
X154769391Y-108466507D01*
X154825965Y-108587830D01*
X154961505Y-108781401D01*
X154961508Y-108781404D01*
X155083430Y-108903326D01*
X155116915Y-108964649D01*
X155111931Y-109034341D01*
X155070059Y-109090274D01*
X155039083Y-109107189D01*
X154907669Y-109156204D01*
X154792454Y-109242454D01*
X154706204Y-109357668D01*
X154655910Y-109492515D01*
X154655909Y-109492517D01*
X154649500Y-109552127D01*
X154649500Y-109555448D01*
X154649500Y-109555449D01*
X154649500Y-111344560D01*
X154649500Y-111344578D01*
X154649501Y-111347872D01*
X154655909Y-111407483D01*
X154706204Y-111542331D01*
X154792454Y-111657546D01*
X154907669Y-111743796D01*
X155042517Y-111794091D01*
X155102127Y-111800500D01*
X156897872Y-111800499D01*
X156957483Y-111794091D01*
X157092331Y-111743796D01*
X157207546Y-111657546D01*
X157293796Y-111542331D01*
X157344091Y-111407483D01*
X157350500Y-111347873D01*
X157350499Y-109552128D01*
X157344091Y-109492517D01*
X157293796Y-109357669D01*
X157207546Y-109242454D01*
X157092331Y-109156204D01*
X157030898Y-109133291D01*
X156960916Y-109107189D01*
X156904983Y-109065317D01*
X156880566Y-108999853D01*
X156895418Y-108931580D01*
X156916563Y-108903332D01*
X157038495Y-108781401D01*
X157174035Y-108587830D01*
X157273903Y-108373663D01*
X157335063Y-108145408D01*
X157355659Y-107910000D01*
X157335063Y-107674592D01*
X157273903Y-107446337D01*
X157174035Y-107232171D01*
X157038495Y-107038599D01*
X157038492Y-107038596D01*
X156863731Y-106863834D01*
X156866292Y-106861272D01*
X156834748Y-106821804D01*
X156825500Y-106774814D01*
X156825500Y-106505186D01*
X156845185Y-106438147D01*
X156865045Y-106417482D01*
X156863730Y-106416167D01*
X156992227Y-106287669D01*
X157038495Y-106241401D01*
X157174035Y-106047830D01*
X157273903Y-105833663D01*
X157335063Y-105605408D01*
X157355659Y-105370000D01*
X157335063Y-105134592D01*
X157273903Y-104906337D01*
X157174035Y-104692171D01*
X157038495Y-104498599D01*
X156871401Y-104331505D01*
X156685839Y-104201573D01*
X156642216Y-104146998D01*
X156635022Y-104077500D01*
X156666545Y-104015145D01*
X156685837Y-103998428D01*
X156871401Y-103868495D01*
X157038495Y-103701401D01*
X157174035Y-103507830D01*
X157273903Y-103293663D01*
X157335063Y-103065408D01*
X157355659Y-102830000D01*
X157335063Y-102594592D01*
X157273903Y-102366337D01*
X157174035Y-102152171D01*
X157038495Y-101958599D01*
X156871401Y-101791505D01*
X156685839Y-101661573D01*
X156642216Y-101606998D01*
X156635022Y-101537500D01*
X156666545Y-101475145D01*
X156685837Y-101458428D01*
X156871401Y-101328495D01*
X157038495Y-101161401D01*
X157174035Y-100967830D01*
X157273903Y-100753663D01*
X157335063Y-100525408D01*
X157355659Y-100290000D01*
X157335063Y-100054592D01*
X157273903Y-99826337D01*
X157174035Y-99612171D01*
X157038495Y-99418599D01*
X156871401Y-99251505D01*
X156685402Y-99121267D01*
X156641780Y-99066692D01*
X156634587Y-98997193D01*
X156666109Y-98934839D01*
X156685405Y-98918119D01*
X156871078Y-98788109D01*
X157038106Y-98621081D01*
X157173600Y-98427576D01*
X157273430Y-98213492D01*
X157330636Y-98000000D01*
X156433686Y-98000000D01*
X156459493Y-97959844D01*
X156500000Y-97821889D01*
X156500000Y-97678111D01*
X156459493Y-97540156D01*
X156433686Y-97500000D01*
X157330636Y-97500000D01*
X157330635Y-97499999D01*
X157273430Y-97286507D01*
X157173599Y-97072421D01*
X157038109Y-96878921D01*
X156871081Y-96711893D01*
X156677576Y-96576399D01*
X156463492Y-96476569D01*
X156250000Y-96419364D01*
X156250000Y-97314498D01*
X156142315Y-97265320D01*
X156035763Y-97250000D01*
X155964237Y-97250000D01*
X155857685Y-97265320D01*
X155750000Y-97314498D01*
X155750000Y-96419364D01*
X155749999Y-96419364D01*
X155536507Y-96476569D01*
X155322421Y-96576400D01*
X155128921Y-96711890D01*
X154961890Y-96878921D01*
X154826400Y-97072421D01*
X154726569Y-97286507D01*
X154669364Y-97499999D01*
X154669364Y-97500000D01*
X155566314Y-97500000D01*
X155540507Y-97540156D01*
X155500000Y-97678111D01*
X155500000Y-97821889D01*
X155540507Y-97959844D01*
X155566314Y-98000000D01*
X154645952Y-98000000D01*
X154578913Y-97980315D01*
X154558271Y-97963681D01*
X152462302Y-95867712D01*
X149431819Y-92837228D01*
X149398334Y-92775905D01*
X149395500Y-92749547D01*
X149395500Y-82402740D01*
X149397763Y-82382239D01*
X149395561Y-82312144D01*
X149395500Y-82308250D01*
X149395500Y-82284544D01*
X149395500Y-82280650D01*
X149394998Y-82276681D01*
X149394080Y-82265024D01*
X149392709Y-82221373D01*
X149387120Y-82202140D01*
X149383174Y-82183082D01*
X149380664Y-82163206D01*
X149364588Y-82122604D01*
X149360804Y-82111553D01*
X149354881Y-82091168D01*
X149348618Y-82069610D01*
X149338414Y-82052355D01*
X149329861Y-82034895D01*
X149322486Y-82016269D01*
X149322486Y-82016268D01*
X149296808Y-81980925D01*
X149290401Y-81971171D01*
X149268169Y-81933579D01*
X149254006Y-81919416D01*
X149241367Y-81904617D01*
X149229595Y-81888413D01*
X149195941Y-81860573D01*
X149187299Y-81852709D01*
X148046271Y-80711681D01*
X148012786Y-80650358D01*
X148017770Y-80580666D01*
X148059642Y-80524733D01*
X148084561Y-80515438D01*
X148100000Y-80500000D01*
X148100000Y-80342106D01*
X148119685Y-80275067D01*
X148124734Y-80267794D01*
X148143796Y-80242331D01*
X148194091Y-80107483D01*
X148200500Y-80047873D01*
X148200500Y-79800000D01*
X148500000Y-79800000D01*
X148500000Y-80500000D01*
X148544518Y-80500000D01*
X148551114Y-80499646D01*
X148607376Y-80493597D01*
X148656663Y-80475214D01*
X148726355Y-80470228D01*
X148743333Y-80475214D01*
X148792620Y-80493597D01*
X148848885Y-80499646D01*
X148855482Y-80500000D01*
X148900000Y-80500000D01*
X148900000Y-79800000D01*
X149300000Y-79800000D01*
X149300000Y-80500000D01*
X149344518Y-80500000D01*
X149351114Y-80499646D01*
X149407378Y-80493597D01*
X149456665Y-80475214D01*
X149526357Y-80470228D01*
X149543335Y-80475214D01*
X149592621Y-80493597D01*
X149648885Y-80499646D01*
X149655482Y-80500000D01*
X149700000Y-80500000D01*
X150100000Y-80500000D01*
X150144518Y-80500000D01*
X150151132Y-80499645D01*
X150207371Y-80493599D01*
X150342089Y-80443352D01*
X150457188Y-80357188D01*
X150543352Y-80242089D01*
X150593599Y-80107371D01*
X150599645Y-80051132D01*
X150600000Y-80044518D01*
X150600000Y-79724000D01*
X150619685Y-79656961D01*
X150672489Y-79611206D01*
X150724000Y-79600000D01*
X150950000Y-79600000D01*
X151350000Y-79600000D01*
X151594518Y-79600000D01*
X151601132Y-79599645D01*
X151657371Y-79593599D01*
X151732666Y-79565516D01*
X151802358Y-79560532D01*
X151863681Y-79594017D01*
X151897166Y-79655340D01*
X151900000Y-79681698D01*
X151900000Y-80300000D01*
X157300000Y-80300000D01*
X157300000Y-67100000D01*
X151900000Y-67100000D01*
X151900000Y-67718302D01*
X151880315Y-67785341D01*
X151827511Y-67831096D01*
X151758353Y-67841040D01*
X151732666Y-67834484D01*
X151657371Y-67806400D01*
X151601132Y-67800354D01*
X151594518Y-67800000D01*
X151350000Y-67800000D01*
X151350000Y-79600000D01*
X150950000Y-79600000D01*
X150950000Y-78300000D01*
X150250000Y-78300000D01*
X150250000Y-78344518D01*
X150250354Y-78351132D01*
X150256400Y-78407373D01*
X150274786Y-78456667D01*
X150279770Y-78526359D01*
X150274786Y-78543333D01*
X150250959Y-78607217D01*
X150249542Y-78606688D01*
X150230023Y-78653809D01*
X150172629Y-78693656D01*
X150133474Y-78700000D01*
X150100000Y-78700000D01*
X150100000Y-80500000D01*
X149700000Y-80500000D01*
X149700000Y-79800000D01*
X149300000Y-79800000D01*
X148900000Y-79800000D01*
X148500000Y-79800000D01*
X148200500Y-79800000D01*
X148200499Y-79152128D01*
X148194091Y-79092517D01*
X148143796Y-78957669D01*
X148124731Y-78932202D01*
X148100316Y-78866738D01*
X148100000Y-78857893D01*
X148100000Y-78700000D01*
X148500000Y-78700000D01*
X148500000Y-79400000D01*
X148900000Y-79400000D01*
X148900000Y-78700000D01*
X149300000Y-78700000D01*
X149300000Y-79400000D01*
X149700000Y-79400000D01*
X149700000Y-78700000D01*
X149655482Y-78700000D01*
X149648867Y-78700354D01*
X149592626Y-78706400D01*
X149543333Y-78724786D01*
X149473641Y-78729770D01*
X149456667Y-78724786D01*
X149407373Y-78706400D01*
X149351132Y-78700354D01*
X149344518Y-78700000D01*
X149300000Y-78700000D01*
X148900000Y-78700000D01*
X148855482Y-78700000D01*
X148848867Y-78700354D01*
X148792626Y-78706400D01*
X148743333Y-78724786D01*
X148673641Y-78729770D01*
X148656667Y-78724786D01*
X148607373Y-78706400D01*
X148551132Y-78700354D01*
X148544518Y-78700000D01*
X148500000Y-78700000D01*
X148100000Y-78700000D01*
X148055482Y-78700000D01*
X148048867Y-78700354D01*
X147992624Y-78706401D01*
X147944046Y-78724519D01*
X147874354Y-78729503D01*
X147857381Y-78724519D01*
X147807485Y-78705909D01*
X147751166Y-78699854D01*
X147751165Y-78699853D01*
X147747873Y-78699500D01*
X147744550Y-78699500D01*
X147255439Y-78699500D01*
X147255420Y-78699500D01*
X147252128Y-78699501D01*
X147248848Y-78699853D01*
X147248840Y-78699854D01*
X147192514Y-78705909D01*
X147143332Y-78724253D01*
X147073640Y-78729237D01*
X147056667Y-78724253D01*
X147007484Y-78705909D01*
X146951166Y-78699854D01*
X146951165Y-78699853D01*
X146947873Y-78699500D01*
X146944550Y-78699500D01*
X146455439Y-78699500D01*
X146455420Y-78699500D01*
X146452128Y-78699501D01*
X146448848Y-78699853D01*
X146448840Y-78699854D01*
X146392514Y-78705909D01*
X146343332Y-78724253D01*
X146273640Y-78729237D01*
X146256667Y-78724253D01*
X146207484Y-78705909D01*
X146151166Y-78699854D01*
X146151165Y-78699853D01*
X146147873Y-78699500D01*
X146144550Y-78699500D01*
X145655439Y-78699500D01*
X145655420Y-78699500D01*
X145652128Y-78699501D01*
X145648848Y-78699853D01*
X145648840Y-78699854D01*
X145592514Y-78705909D01*
X145543332Y-78724253D01*
X145473640Y-78729237D01*
X145456667Y-78724253D01*
X145407484Y-78705909D01*
X145351166Y-78699854D01*
X145351165Y-78699853D01*
X145347873Y-78699500D01*
X145344550Y-78699500D01*
X144855439Y-78699500D01*
X144855420Y-78699500D01*
X144852128Y-78699501D01*
X144848848Y-78699853D01*
X144848840Y-78699854D01*
X144792514Y-78705909D01*
X144743332Y-78724253D01*
X144673640Y-78729237D01*
X144656667Y-78724253D01*
X144607484Y-78705909D01*
X144551166Y-78699854D01*
X144551165Y-78699853D01*
X144547873Y-78699500D01*
X144544551Y-78699500D01*
X144460704Y-78699500D01*
X144393665Y-78679815D01*
X144347910Y-78627011D01*
X144337966Y-78557853D01*
X144342774Y-78537180D01*
X144345674Y-78528256D01*
X144365460Y-78340000D01*
X144345674Y-78151744D01*
X144287179Y-77971716D01*
X144287179Y-77971715D01*
X144192533Y-77807783D01*
X144065870Y-77667110D01*
X143912730Y-77555848D01*
X143787294Y-77500000D01*
X150250000Y-77500000D01*
X150250000Y-77544518D01*
X150250354Y-77551132D01*
X150256400Y-77607373D01*
X150274786Y-77656667D01*
X150279770Y-77726359D01*
X150274786Y-77743333D01*
X150256400Y-77792626D01*
X150250354Y-77848867D01*
X150250000Y-77855481D01*
X150250000Y-77900000D01*
X150950000Y-77900000D01*
X150950000Y-77500000D01*
X150250000Y-77500000D01*
X143787294Y-77500000D01*
X143739802Y-77478855D01*
X143554648Y-77439500D01*
X143554646Y-77439500D01*
X143365354Y-77439500D01*
X143365352Y-77439500D01*
X143180197Y-77478855D01*
X143007269Y-77555848D01*
X142854132Y-77667109D01*
X142854129Y-77667111D01*
X142854129Y-77667112D01*
X142816360Y-77709059D01*
X142741650Y-77792032D01*
X142682163Y-77828680D01*
X142612306Y-77827349D01*
X142554258Y-77788462D01*
X142526448Y-77724365D01*
X142525500Y-77709059D01*
X142525500Y-76700000D01*
X150250000Y-76700000D01*
X150250000Y-76744518D01*
X150250354Y-76751132D01*
X150256400Y-76807373D01*
X150274786Y-76856667D01*
X150279770Y-76926359D01*
X150274786Y-76943333D01*
X150256400Y-76992626D01*
X150250354Y-77048867D01*
X150250000Y-77055481D01*
X150250000Y-77100000D01*
X150950000Y-77100000D01*
X150950000Y-76700000D01*
X150250000Y-76700000D01*
X142525500Y-76700000D01*
X142525500Y-75900000D01*
X150250000Y-75900000D01*
X150250000Y-75944518D01*
X150250354Y-75951132D01*
X150256400Y-76007373D01*
X150274786Y-76056667D01*
X150279770Y-76126359D01*
X150274786Y-76143333D01*
X150256400Y-76192626D01*
X150250354Y-76248867D01*
X150250000Y-76255481D01*
X150250000Y-76300000D01*
X150950000Y-76300000D01*
X150950000Y-75900000D01*
X150250000Y-75900000D01*
X142525500Y-75900000D01*
X142525500Y-75100000D01*
X150250000Y-75100000D01*
X150250000Y-75144518D01*
X150250354Y-75151132D01*
X150256400Y-75207373D01*
X150274786Y-75256667D01*
X150279770Y-75326359D01*
X150274786Y-75343333D01*
X150256400Y-75392626D01*
X150250354Y-75448867D01*
X150250000Y-75455481D01*
X150250000Y-75500000D01*
X150950000Y-75500000D01*
X150950000Y-75100000D01*
X150250000Y-75100000D01*
X142525500Y-75100000D01*
X142525500Y-74300000D01*
X150250000Y-74300000D01*
X150250000Y-74344518D01*
X150250354Y-74351132D01*
X150256400Y-74407373D01*
X150274786Y-74456667D01*
X150279770Y-74526359D01*
X150274786Y-74543333D01*
X150256400Y-74592626D01*
X150250354Y-74648867D01*
X150250000Y-74655481D01*
X150250000Y-74700000D01*
X150950000Y-74700000D01*
X150950000Y-74300000D01*
X150250000Y-74300000D01*
X142525500Y-74300000D01*
X142525500Y-73500000D01*
X150250000Y-73500000D01*
X150250000Y-73544518D01*
X150250354Y-73551132D01*
X150256400Y-73607373D01*
X150274786Y-73656667D01*
X150279770Y-73726359D01*
X150274786Y-73743333D01*
X150256400Y-73792626D01*
X150250354Y-73848867D01*
X150250000Y-73855481D01*
X150250000Y-73900000D01*
X150950000Y-73900000D01*
X150950000Y-73500000D01*
X150250000Y-73500000D01*
X142525500Y-73500000D01*
X142525500Y-72700000D01*
X150250000Y-72700000D01*
X150250000Y-72744518D01*
X150250354Y-72751132D01*
X150256400Y-72807373D01*
X150274786Y-72856667D01*
X150279770Y-72926359D01*
X150274786Y-72943333D01*
X150256400Y-72992626D01*
X150250354Y-73048867D01*
X150250000Y-73055481D01*
X150250000Y-73100000D01*
X150950000Y-73100000D01*
X150950000Y-72700000D01*
X150250000Y-72700000D01*
X142525500Y-72700000D01*
X142525500Y-71900000D01*
X150250000Y-71900000D01*
X150250000Y-71944518D01*
X150250354Y-71951132D01*
X150256400Y-72007373D01*
X150274786Y-72056667D01*
X150279770Y-72126359D01*
X150274786Y-72143333D01*
X150256400Y-72192626D01*
X150250354Y-72248867D01*
X150250000Y-72255481D01*
X150250000Y-72300000D01*
X150950000Y-72300000D01*
X150950000Y-71900000D01*
X150250000Y-71900000D01*
X142525500Y-71900000D01*
X142525500Y-71100000D01*
X150250000Y-71100000D01*
X150250000Y-71144518D01*
X150250354Y-71151132D01*
X150256400Y-71207373D01*
X150274786Y-71256667D01*
X150279770Y-71326359D01*
X150274786Y-71343333D01*
X150256400Y-71392626D01*
X150250354Y-71448867D01*
X150250000Y-71455481D01*
X150250000Y-71500000D01*
X150950000Y-71500000D01*
X150950000Y-71100000D01*
X150250000Y-71100000D01*
X142525500Y-71100000D01*
X142525500Y-70732743D01*
X142527764Y-70712239D01*
X142527379Y-70700000D01*
X142525561Y-70642126D01*
X142525500Y-70638231D01*
X142525500Y-70614540D01*
X142525500Y-70610650D01*
X142524998Y-70606677D01*
X142524080Y-70595018D01*
X142524005Y-70592626D01*
X142522709Y-70551373D01*
X142517120Y-70532140D01*
X142513174Y-70513082D01*
X142510664Y-70493206D01*
X142494588Y-70452604D01*
X142490804Y-70441553D01*
X142480873Y-70407373D01*
X142478618Y-70399610D01*
X142468414Y-70382355D01*
X142459861Y-70364895D01*
X142454425Y-70351166D01*
X142452486Y-70346268D01*
X142426808Y-70310925D01*
X142420401Y-70301171D01*
X142398170Y-70263580D01*
X142384006Y-70249416D01*
X142371367Y-70234617D01*
X142359595Y-70218413D01*
X142325941Y-70190573D01*
X142317299Y-70182709D01*
X141046771Y-68912180D01*
X141013286Y-68850857D01*
X141018270Y-68781165D01*
X141060142Y-68725232D01*
X141125606Y-68700815D01*
X141134439Y-68700499D01*
X141347872Y-68700499D01*
X141407483Y-68694091D01*
X141456665Y-68675746D01*
X141526356Y-68670762D01*
X141543328Y-68675744D01*
X141592517Y-68694091D01*
X141652127Y-68700500D01*
X142147872Y-68700499D01*
X142207483Y-68694091D01*
X142256665Y-68675746D01*
X142326356Y-68670762D01*
X142343328Y-68675744D01*
X142392517Y-68694091D01*
X142452127Y-68700500D01*
X142947872Y-68700499D01*
X143007483Y-68694091D01*
X143056665Y-68675746D01*
X143126356Y-68670762D01*
X143143328Y-68675744D01*
X143192517Y-68694091D01*
X143252127Y-68700500D01*
X143566768Y-68700499D01*
X143633807Y-68720183D01*
X143679562Y-68772987D01*
X143679840Y-68773600D01*
X143683334Y-68781362D01*
X143686204Y-68788290D01*
X143706400Y-68841545D01*
X143711551Y-68849007D01*
X143722573Y-68868548D01*
X143726295Y-68876818D01*
X143761420Y-68921653D01*
X143765849Y-68927670D01*
X143798207Y-68974549D01*
X143818489Y-68992517D01*
X143840838Y-69012317D01*
X143846291Y-69017451D01*
X144049823Y-69220983D01*
X144083308Y-69282306D01*
X144086102Y-69311816D01*
X144081313Y-69500169D01*
X144059931Y-69566686D01*
X144049505Y-69579987D01*
X143997466Y-69637784D01*
X143902820Y-69801715D01*
X143844326Y-69981742D01*
X143824540Y-70169999D01*
X143844326Y-70358257D01*
X143902820Y-70538284D01*
X143997466Y-70702216D01*
X144124129Y-70842889D01*
X144277269Y-70954151D01*
X144450197Y-71031144D01*
X144635352Y-71070500D01*
X144635354Y-71070500D01*
X144824648Y-71070500D01*
X144948083Y-71044262D01*
X145009803Y-71031144D01*
X145182730Y-70954151D01*
X145210336Y-70934094D01*
X145335870Y-70842889D01*
X145462533Y-70702216D01*
X145557179Y-70538284D01*
X145583698Y-70456666D01*
X145615674Y-70358256D01*
X145621797Y-70300000D01*
X150250000Y-70300000D01*
X150250000Y-70344518D01*
X150250354Y-70351132D01*
X150256400Y-70407373D01*
X150274786Y-70456667D01*
X150279770Y-70526359D01*
X150274786Y-70543333D01*
X150256400Y-70592626D01*
X150250354Y-70648867D01*
X150250000Y-70655481D01*
X150250000Y-70700000D01*
X150950000Y-70700000D01*
X150950000Y-70300000D01*
X150250000Y-70300000D01*
X145621797Y-70300000D01*
X145635460Y-70170000D01*
X145615674Y-69981744D01*
X145584061Y-69884451D01*
X145557179Y-69801715D01*
X145462533Y-69637784D01*
X145443775Y-69616951D01*
X145413545Y-69553960D01*
X145411964Y-69530836D01*
X145412748Y-69500000D01*
X150250000Y-69500000D01*
X150250000Y-69544518D01*
X150250354Y-69551132D01*
X150256400Y-69607373D01*
X150274786Y-69656667D01*
X150279770Y-69726359D01*
X150274786Y-69743333D01*
X150256400Y-69792626D01*
X150250354Y-69848867D01*
X150250000Y-69855481D01*
X150250000Y-69900000D01*
X150950000Y-69900000D01*
X150950000Y-69500000D01*
X150250000Y-69500000D01*
X145412748Y-69500000D01*
X145424933Y-69020704D01*
X145425116Y-69016445D01*
X145429165Y-68949522D01*
X145420709Y-68903381D01*
X145419242Y-68892840D01*
X145416917Y-68868548D01*
X145414775Y-68846161D01*
X145414226Y-68844596D01*
X145413760Y-68835554D01*
X145413341Y-68831171D01*
X145413533Y-68831152D01*
X145410628Y-68774823D01*
X145445325Y-68714177D01*
X145507302Y-68681917D01*
X145574582Y-68687402D01*
X145592514Y-68694090D01*
X145592517Y-68694091D01*
X145652127Y-68700500D01*
X146147872Y-68700499D01*
X146207483Y-68694091D01*
X146256665Y-68675746D01*
X146326356Y-68670762D01*
X146343328Y-68675744D01*
X146392517Y-68694091D01*
X146452127Y-68700500D01*
X146947872Y-68700499D01*
X147007483Y-68694091D01*
X147056665Y-68675746D01*
X147126356Y-68670762D01*
X147143328Y-68675744D01*
X147192517Y-68694091D01*
X147252127Y-68700500D01*
X147747872Y-68700499D01*
X147807483Y-68694091D01*
X147856665Y-68675746D01*
X147926356Y-68670762D01*
X147943328Y-68675744D01*
X147992517Y-68694091D01*
X148052127Y-68700500D01*
X148547872Y-68700499D01*
X148607483Y-68694091D01*
X148657382Y-68675479D01*
X148727069Y-68670494D01*
X148744048Y-68675480D01*
X148792621Y-68693597D01*
X148848885Y-68699646D01*
X148855482Y-68700000D01*
X148900000Y-68700000D01*
X148900000Y-68542106D01*
X148919685Y-68475067D01*
X148924734Y-68467794D01*
X148943796Y-68442331D01*
X148994091Y-68307483D01*
X148997756Y-68273394D01*
X149008506Y-68234584D01*
X149011505Y-68228101D01*
X149011507Y-68228099D01*
X149063461Y-68115801D01*
X149109475Y-68063224D01*
X149176611Y-68043871D01*
X149243553Y-68063885D01*
X149289047Y-68116914D01*
X149300000Y-68167869D01*
X149300000Y-68700000D01*
X149344518Y-68700000D01*
X149351114Y-68699646D01*
X149407376Y-68693597D01*
X149456663Y-68675214D01*
X149526355Y-68670228D01*
X149543333Y-68675214D01*
X149592620Y-68693597D01*
X149648885Y-68699646D01*
X149655482Y-68700000D01*
X149700000Y-68700000D01*
X149700000Y-68000000D01*
X149249500Y-68000000D01*
X149182461Y-67980315D01*
X149136706Y-67927511D01*
X149125500Y-67876000D01*
X149125500Y-67724000D01*
X149145185Y-67656961D01*
X149197989Y-67611206D01*
X149249500Y-67600000D01*
X149700000Y-67600000D01*
X149700000Y-66900000D01*
X150100000Y-66900000D01*
X150100000Y-68700000D01*
X150133474Y-68700000D01*
X150200513Y-68719685D01*
X150246268Y-68772489D01*
X150254275Y-68801676D01*
X150274786Y-68856667D01*
X150279770Y-68926359D01*
X150274786Y-68943333D01*
X150256400Y-68992626D01*
X150250354Y-69048867D01*
X150250000Y-69055481D01*
X150250000Y-69100000D01*
X150950000Y-69100000D01*
X150950000Y-67800000D01*
X150724000Y-67800000D01*
X150656961Y-67780315D01*
X150611206Y-67727511D01*
X150600000Y-67676000D01*
X150600000Y-67355481D01*
X150599645Y-67348867D01*
X150593599Y-67292628D01*
X150543352Y-67157910D01*
X150457188Y-67042811D01*
X150342089Y-66956647D01*
X150207371Y-66906400D01*
X150151132Y-66900354D01*
X150144518Y-66900000D01*
X150100000Y-66900000D01*
X149700000Y-66900000D01*
X149655482Y-66900000D01*
X149648867Y-66900354D01*
X149592626Y-66906400D01*
X149543333Y-66924786D01*
X149473641Y-66929770D01*
X149456667Y-66924786D01*
X149407373Y-66906400D01*
X149351132Y-66900354D01*
X149344518Y-66900000D01*
X149249500Y-66900000D01*
X149182461Y-66880315D01*
X149136706Y-66827511D01*
X149125500Y-66776000D01*
X149125500Y-65863593D01*
X149125909Y-65853530D01*
X149130063Y-65802515D01*
X149119672Y-65726252D01*
X149119270Y-65722962D01*
X149110912Y-65646107D01*
X149105959Y-65624972D01*
X149105823Y-65624602D01*
X149105823Y-65624600D01*
X149079285Y-65552367D01*
X149078176Y-65549213D01*
X149053500Y-65475975D01*
X149044113Y-65456385D01*
X149002470Y-65391236D01*
X149000700Y-65388382D01*
X148996689Y-65381716D01*
X148961050Y-65322483D01*
X148961049Y-65322482D01*
X148960852Y-65322154D01*
X148947474Y-65305041D01*
X148947200Y-65304767D01*
X148892787Y-65250354D01*
X148890478Y-65247981D01*
X148884472Y-65241640D01*
X148852662Y-65179431D01*
X148850499Y-65156369D01*
X148850499Y-64603140D01*
X148850499Y-64603139D01*
X148850499Y-64599992D01*
X148839999Y-64497203D01*
X148784814Y-64330666D01*
X148692712Y-64181344D01*
X148636817Y-64125448D01*
X148603333Y-64064124D01*
X148600500Y-64037768D01*
X148600500Y-63862230D01*
X148620185Y-63795191D01*
X148636814Y-63774553D01*
X148692712Y-63718656D01*
X148784814Y-63569334D01*
X148804311Y-63510495D01*
X148844084Y-63453051D01*
X148908600Y-63426228D01*
X148922017Y-63425500D01*
X149371405Y-63425500D01*
X149381467Y-63425909D01*
X149385386Y-63426228D01*
X149432485Y-63430063D01*
X149508747Y-63419672D01*
X149511998Y-63419274D01*
X149588505Y-63410954D01*
X149588510Y-63410952D01*
X149588899Y-63410910D01*
X149610033Y-63405957D01*
X149610396Y-63405823D01*
X149610400Y-63405823D01*
X149682647Y-63379280D01*
X149685693Y-63378207D01*
X149758662Y-63353622D01*
X149758667Y-63353618D01*
X149759035Y-63353495D01*
X149778617Y-63344111D01*
X149778939Y-63343905D01*
X149778942Y-63343904D01*
X149843816Y-63302435D01*
X149846585Y-63300719D01*
X149912517Y-63261050D01*
X149912516Y-63261050D01*
X149912848Y-63260851D01*
X149929955Y-63247478D01*
X149930233Y-63247200D01*
X149984641Y-63192790D01*
X149986972Y-63190521D01*
X150042875Y-63137569D01*
X150042876Y-63137567D01*
X150043153Y-63137305D01*
X150057550Y-63119881D01*
X151117774Y-62059657D01*
X151179095Y-62026174D01*
X151179481Y-62026090D01*
X151249803Y-62011144D01*
X151249804Y-62011143D01*
X151249806Y-62011143D01*
X151422730Y-61934151D01*
X151575870Y-61822889D01*
X151702533Y-61682216D01*
X151797179Y-61518284D01*
X151809081Y-61481654D01*
X151854416Y-61342126D01*
X151884663Y-61292768D01*
X153537821Y-59639610D01*
X153599142Y-59606127D01*
X153668834Y-59611111D01*
X153724767Y-59652983D01*
X153749184Y-59718447D01*
X153749500Y-59727293D01*
X153749500Y-60394560D01*
X153749500Y-60394578D01*
X153749501Y-60397872D01*
X153749853Y-60401150D01*
X153749854Y-60401161D01*
X153756021Y-60458524D01*
X153743614Y-60527283D01*
X153720495Y-60556828D01*
X153721113Y-60557355D01*
X153551165Y-60756338D01*
X153426124Y-60960387D01*
X153419534Y-60971141D01*
X153413498Y-60985714D01*
X153323126Y-61203889D01*
X153264317Y-61448850D01*
X153244551Y-61699999D01*
X153264317Y-61951149D01*
X153323126Y-62196110D01*
X153336639Y-62228732D01*
X153419534Y-62428859D01*
X153551164Y-62643659D01*
X153714776Y-62835224D01*
X153906341Y-62998836D01*
X154121141Y-63130466D01*
X154353889Y-63226873D01*
X154598852Y-63285683D01*
X154787118Y-63300500D01*
X154789563Y-63300500D01*
X156210437Y-63300500D01*
X156212882Y-63300500D01*
X156401148Y-63285683D01*
X156646111Y-63226873D01*
X156878859Y-63130466D01*
X157093659Y-62998836D01*
X157285224Y-62835224D01*
X157448836Y-62643659D01*
X157580466Y-62428859D01*
X157676873Y-62196111D01*
X157735683Y-61951148D01*
X157751882Y-61745311D01*
X157769262Y-61699713D01*
X157756523Y-61679891D01*
X157751883Y-61654690D01*
X157735683Y-61448852D01*
X157676873Y-61203889D01*
X157580466Y-60971141D01*
X157448836Y-60756341D01*
X157285224Y-60564776D01*
X157285221Y-60564773D01*
X157278886Y-60557356D01*
X157280274Y-60556169D01*
X157248543Y-60507560D01*
X157243979Y-60458522D01*
X157244091Y-60457483D01*
X157250500Y-60397873D01*
X157250499Y-58802128D01*
X157244091Y-58742517D01*
X157193796Y-58607669D01*
X157107546Y-58492454D01*
X157107547Y-58492454D01*
X157107545Y-58492452D01*
X157068401Y-58463149D01*
X157026531Y-58407215D01*
X157021547Y-58337523D01*
X157039222Y-58295578D01*
X157105635Y-58194968D01*
X157194103Y-57987988D01*
X157244191Y-57768537D01*
X157254290Y-57543670D01*
X157224075Y-57320613D01*
X157154517Y-57106536D01*
X157047852Y-56908319D01*
X156907508Y-56732334D01*
X156863488Y-56693874D01*
X156825955Y-56634944D01*
X156826241Y-56565075D01*
X156855448Y-56514803D01*
X156981632Y-56382825D01*
X157105635Y-56194968D01*
X157194103Y-55987988D01*
X157244191Y-55768537D01*
X157254290Y-55543670D01*
X157224075Y-55320613D01*
X157154517Y-55106536D01*
X157069311Y-54948197D01*
X157054878Y-54879837D01*
X157079695Y-54814523D01*
X157097970Y-54795153D01*
X157285224Y-54635224D01*
X157448836Y-54443659D01*
X157580466Y-54228859D01*
X157676873Y-53996111D01*
X157735683Y-53751148D01*
X157751882Y-53545311D01*
X157769262Y-53499713D01*
X157756523Y-53479891D01*
X157751883Y-53454690D01*
X157735683Y-53248852D01*
X157676873Y-53003889D01*
X157580466Y-52771141D01*
X157448836Y-52556341D01*
X157285224Y-52364776D01*
X157093659Y-52201164D01*
X156878859Y-52069534D01*
X156762484Y-52021330D01*
X156646110Y-51973126D01*
X156401149Y-51914317D01*
X156215316Y-51899691D01*
X156215301Y-51899690D01*
X156212882Y-51899500D01*
X154787118Y-51899500D01*
X154784699Y-51899690D01*
X154784683Y-51899691D01*
X154598850Y-51914317D01*
X154353889Y-51973126D01*
X154121139Y-52069535D01*
X153906342Y-52201163D01*
X153714776Y-52364776D01*
X153551163Y-52556342D01*
X153419535Y-52771139D01*
X153323126Y-53003889D01*
X153264317Y-53248850D01*
X153244551Y-53500000D01*
X153264317Y-53751149D01*
X153323126Y-53996110D01*
X153371330Y-54112485D01*
X153419534Y-54228859D01*
X153551164Y-54443659D01*
X153714776Y-54635224D01*
X153819316Y-54724510D01*
X153858004Y-54757552D01*
X153896198Y-54816058D01*
X153896697Y-54885926D01*
X153859343Y-54944973D01*
X153852279Y-54950287D01*
X153795391Y-55007175D01*
X153792985Y-55009516D01*
X153736848Y-55062691D01*
X153722448Y-55080117D01*
X153168572Y-55633992D01*
X153161169Y-55640818D01*
X153122154Y-55673958D01*
X153075608Y-55735189D01*
X153073541Y-55737833D01*
X153025109Y-55798085D01*
X153013653Y-55816554D01*
X152981180Y-55886740D01*
X152979731Y-55889762D01*
X152945400Y-55958988D01*
X152938176Y-55979507D01*
X152921557Y-56055003D01*
X152920792Y-56058268D01*
X152902140Y-56133273D01*
X152899499Y-56154842D01*
X152899500Y-56232114D01*
X152899455Y-56235472D01*
X152897360Y-56312782D01*
X152899499Y-56335276D01*
X152899500Y-57891703D01*
X152879815Y-57958742D01*
X152863181Y-57979384D01*
X151347706Y-59494858D01*
X151286383Y-59528343D01*
X151216691Y-59523359D01*
X151160758Y-59481487D01*
X151136341Y-59416023D01*
X151138858Y-59380826D01*
X151160387Y-59281861D01*
X151180546Y-59000000D01*
X151160387Y-58718139D01*
X151100320Y-58442016D01*
X151001568Y-58177251D01*
X150866141Y-57929236D01*
X150865977Y-57929017D01*
X150696796Y-57703017D01*
X150496982Y-57503203D01*
X150270765Y-57333859D01*
X150177621Y-57282999D01*
X150022749Y-57198432D01*
X149757984Y-57099680D01*
X149757979Y-57099678D01*
X149481861Y-57039613D01*
X149272763Y-57024658D01*
X149272761Y-57024657D01*
X149270553Y-57024500D01*
X149129447Y-57024500D01*
X149127239Y-57024657D01*
X149127236Y-57024658D01*
X148918138Y-57039613D01*
X148642020Y-57099678D01*
X148545179Y-57135798D01*
X148377251Y-57198432D01*
X148332373Y-57222937D01*
X148129233Y-57333859D01*
X147923810Y-57487637D01*
X147858346Y-57512054D01*
X147790073Y-57497202D01*
X147740668Y-57447796D01*
X147725500Y-57388370D01*
X147725500Y-56017740D01*
X147727763Y-55997239D01*
X147727472Y-55987988D01*
X147725561Y-55927144D01*
X147725500Y-55923250D01*
X147725500Y-55899544D01*
X147725500Y-55895650D01*
X147724998Y-55891681D01*
X147724080Y-55880024D01*
X147722709Y-55836373D01*
X147717120Y-55817140D01*
X147713174Y-55798082D01*
X147710664Y-55778208D01*
X147694588Y-55737606D01*
X147690804Y-55726552D01*
X147678619Y-55684613D01*
X147678618Y-55684612D01*
X147678618Y-55684610D01*
X147668417Y-55667361D01*
X147659860Y-55649895D01*
X147652486Y-55631268D01*
X147626813Y-55595932D01*
X147620402Y-55586172D01*
X147598169Y-55548578D01*
X147584006Y-55534415D01*
X147571369Y-55519620D01*
X147559595Y-55503414D01*
X147559594Y-55503413D01*
X147525935Y-55475568D01*
X147517305Y-55467714D01*
X146426818Y-54377226D01*
X146393333Y-54315903D01*
X146390499Y-54289545D01*
X146390499Y-54175489D01*
X146390499Y-54173066D01*
X146387654Y-54136902D01*
X146342681Y-53982106D01*
X146260626Y-53843357D01*
X146146643Y-53729374D01*
X146146642Y-53729373D01*
X146007893Y-53647318D01*
X145853101Y-53602346D01*
X145819369Y-53599691D01*
X145819354Y-53599690D01*
X145816935Y-53599500D01*
X145814489Y-53599500D01*
X145415489Y-53599500D01*
X145415463Y-53599500D01*
X145413066Y-53599501D01*
X145410675Y-53599689D01*
X145410652Y-53599690D01*
X145376900Y-53602346D01*
X145222106Y-53647318D01*
X145083356Y-53729374D01*
X145064550Y-53748181D01*
X145003227Y-53781666D01*
X144976869Y-53784500D01*
X143203131Y-53784500D01*
X143136092Y-53764815D01*
X143115450Y-53748181D01*
X143096643Y-53729374D01*
X142957893Y-53647318D01*
X142803101Y-53602346D01*
X142769369Y-53599691D01*
X142769354Y-53599690D01*
X142766935Y-53599500D01*
X142764489Y-53599500D01*
X142365489Y-53599500D01*
X142365463Y-53599500D01*
X142363066Y-53599501D01*
X142360675Y-53599689D01*
X142360652Y-53599690D01*
X142326900Y-53602346D01*
X142172106Y-53647318D01*
X142033356Y-53729374D01*
X141919374Y-53843356D01*
X141837318Y-53982106D01*
X141792346Y-54136898D01*
X141789691Y-54170630D01*
X141789690Y-54170645D01*
X141789500Y-54173065D01*
X141789500Y-54175509D01*
X141789500Y-54175510D01*
X141789500Y-54724510D01*
X141789500Y-54724535D01*
X141789501Y-54726934D01*
X141789689Y-54729325D01*
X141789690Y-54729347D01*
X141792346Y-54763099D01*
X141837318Y-54917892D01*
X141848548Y-54936882D01*
X141865728Y-55004606D01*
X141848548Y-55063118D01*
X141837319Y-55082106D01*
X141792346Y-55236900D01*
X141789691Y-55270630D01*
X141789690Y-55270645D01*
X141789500Y-55273065D01*
X141789500Y-55275509D01*
X141789500Y-55275510D01*
X141789500Y-55824510D01*
X141789500Y-55824535D01*
X141789501Y-55826934D01*
X141789689Y-55829325D01*
X141789690Y-55829347D01*
X141792346Y-55863099D01*
X141837318Y-56017893D01*
X141922232Y-56161475D01*
X141939500Y-56224596D01*
X141939500Y-57539546D01*
X141919815Y-57606585D01*
X141903181Y-57627227D01*
X139391208Y-60139199D01*
X139375110Y-60152096D01*
X139327096Y-60203225D01*
X139324392Y-60206016D01*
X139307628Y-60222780D01*
X139307621Y-60222787D01*
X139304880Y-60225529D01*
X139302499Y-60228597D01*
X139302490Y-60228608D01*
X139302411Y-60228711D01*
X139294842Y-60237572D01*
X139264935Y-60269420D01*
X139255285Y-60286974D01*
X139244609Y-60303228D01*
X139232326Y-60319063D01*
X139214975Y-60359158D01*
X139209838Y-60369644D01*
X139188802Y-60407907D01*
X139183821Y-60427309D01*
X139177520Y-60445711D01*
X139169561Y-60464102D01*
X139162728Y-60507242D01*
X139160360Y-60518674D01*
X139149500Y-60560977D01*
X139149500Y-60581016D01*
X139147973Y-60600414D01*
X139144840Y-60620194D01*
X139148950Y-60663673D01*
X139149500Y-60675343D01*
X139149500Y-67675500D01*
X139129815Y-67742539D01*
X139077011Y-67788294D01*
X139025500Y-67799500D01*
X138605439Y-67799500D01*
X138605420Y-67799500D01*
X138602128Y-67799501D01*
X138598848Y-67799853D01*
X138598840Y-67799854D01*
X138542515Y-67805909D01*
X138407669Y-67856204D01*
X138292454Y-67942454D01*
X138206204Y-68057668D01*
X138184522Y-68115802D01*
X138155909Y-68192517D01*
X138149500Y-68252127D01*
X138149500Y-68255448D01*
X138149500Y-68255449D01*
X138149500Y-68744560D01*
X138149500Y-68744578D01*
X138149501Y-68747872D01*
X138149853Y-68751152D01*
X138149854Y-68751159D01*
X138152398Y-68774823D01*
X138155909Y-68807483D01*
X138160179Y-68818933D01*
X138174253Y-68856666D01*
X138179237Y-68926358D01*
X138174253Y-68943331D01*
X138155909Y-68992513D01*
X138153228Y-69017451D01*
X138149500Y-69052127D01*
X138149500Y-69055448D01*
X138149500Y-69055449D01*
X138149500Y-69544560D01*
X138149500Y-69544578D01*
X138149501Y-69547872D01*
X138149853Y-69551152D01*
X138149854Y-69551159D01*
X138155909Y-69607483D01*
X138174253Y-69656666D01*
X138179237Y-69726358D01*
X138174253Y-69743331D01*
X138155909Y-69792513D01*
X138154920Y-69801715D01*
X138149500Y-69852127D01*
X138149500Y-69855448D01*
X138149500Y-69855449D01*
X138149500Y-70344560D01*
X138149500Y-70344578D01*
X138149501Y-70347872D01*
X138155909Y-70407483D01*
X138174252Y-70456665D01*
X138174253Y-70456666D01*
X138179237Y-70526358D01*
X138174253Y-70543331D01*
X138155909Y-70592513D01*
X138154374Y-70606792D01*
X138149500Y-70652127D01*
X138149500Y-70655448D01*
X138149500Y-70655449D01*
X138149500Y-71144560D01*
X138149500Y-71144578D01*
X138149501Y-71147872D01*
X138155909Y-71207483D01*
X138174252Y-71256665D01*
X138174253Y-71256666D01*
X138179237Y-71326358D01*
X138174253Y-71343331D01*
X138155909Y-71392513D01*
X138155909Y-71392517D01*
X138149500Y-71452127D01*
X138149500Y-71455448D01*
X138149500Y-71455449D01*
X138149500Y-71944560D01*
X138149500Y-71944578D01*
X138149501Y-71947872D01*
X138155909Y-72007483D01*
X138174252Y-72056665D01*
X138174253Y-72056666D01*
X138179237Y-72126358D01*
X138174253Y-72143331D01*
X138155909Y-72192513D01*
X138155909Y-72192517D01*
X138149500Y-72252127D01*
X138149500Y-72255448D01*
X138149500Y-72255449D01*
X138149500Y-72744560D01*
X138149500Y-72744578D01*
X138149501Y-72747872D01*
X138155909Y-72807483D01*
X138174252Y-72856665D01*
X138174253Y-72856666D01*
X138179237Y-72926358D01*
X138174253Y-72943331D01*
X138155909Y-72992513D01*
X138155909Y-72992517D01*
X138149500Y-73052127D01*
X138149500Y-73055449D01*
X138149500Y-73366767D01*
X138129815Y-73433806D01*
X138077011Y-73479561D01*
X138076383Y-73479846D01*
X138068616Y-73483341D01*
X138061708Y-73486203D01*
X138008454Y-73506401D01*
X138000992Y-73511552D01*
X137981452Y-73522572D01*
X137973184Y-73526293D01*
X137928351Y-73561417D01*
X137922321Y-73565854D01*
X137875450Y-73598207D01*
X137837674Y-73640846D01*
X137832542Y-73646297D01*
X133386289Y-78092549D01*
X133380838Y-78097681D01*
X133338204Y-78135452D01*
X133305860Y-78182310D01*
X133301426Y-78188337D01*
X133266293Y-78233184D01*
X133262573Y-78241450D01*
X133251557Y-78260984D01*
X133246400Y-78268455D01*
X133226198Y-78321722D01*
X133223333Y-78328637D01*
X133199967Y-78380554D01*
X133198332Y-78389478D01*
X133192308Y-78411086D01*
X133189092Y-78419566D01*
X133182226Y-78476107D01*
X133181099Y-78483510D01*
X133170835Y-78539521D01*
X133174274Y-78596374D01*
X133174500Y-78603861D01*
X133174500Y-83265736D01*
X133154815Y-83332775D01*
X133142651Y-83348708D01*
X133107464Y-83387786D01*
X133012820Y-83551715D01*
X132954326Y-83731742D01*
X132934540Y-83919999D01*
X132954326Y-84108257D01*
X133012820Y-84288284D01*
X133107466Y-84452216D01*
X133234129Y-84592889D01*
X133387269Y-84704151D01*
X133560197Y-84781144D01*
X133745352Y-84820500D01*
X133745354Y-84820500D01*
X133934648Y-84820500D01*
X134058083Y-84794262D01*
X134119803Y-84781144D01*
X134292730Y-84704151D01*
X134445871Y-84592888D01*
X134572533Y-84452216D01*
X134667179Y-84288284D01*
X134725674Y-84108256D01*
X134745460Y-83920000D01*
X134725674Y-83731744D01*
X134667179Y-83551716D01*
X134667179Y-83551715D01*
X134572535Y-83387786D01*
X134537349Y-83348708D01*
X134507120Y-83285716D01*
X134505500Y-83265736D01*
X134505500Y-79100000D01*
X138150000Y-79100000D01*
X138150000Y-79144518D01*
X138150354Y-79151132D01*
X138156400Y-79207371D01*
X138206647Y-79342089D01*
X138292811Y-79457188D01*
X138407910Y-79543352D01*
X138542628Y-79593599D01*
X138598867Y-79599645D01*
X138605482Y-79600000D01*
X138850000Y-79600000D01*
X138850000Y-79100000D01*
X138150000Y-79100000D01*
X134505500Y-79100000D01*
X134505500Y-78907020D01*
X134525185Y-78839981D01*
X134541814Y-78819344D01*
X137937821Y-75423336D01*
X137999142Y-75389853D01*
X138068834Y-75394837D01*
X138124767Y-75436709D01*
X138149184Y-75502173D01*
X138149500Y-75511019D01*
X138149500Y-75944560D01*
X138149500Y-75944578D01*
X138149501Y-75947872D01*
X138155909Y-76007483D01*
X138174252Y-76056665D01*
X138174253Y-76056666D01*
X138179237Y-76126358D01*
X138174253Y-76143331D01*
X138155909Y-76192513D01*
X138155909Y-76192517D01*
X138149500Y-76252127D01*
X138149500Y-76255448D01*
X138149500Y-76255449D01*
X138149500Y-76744560D01*
X138149500Y-76744578D01*
X138149501Y-76747872D01*
X138155909Y-76807483D01*
X138174252Y-76856665D01*
X138174253Y-76856666D01*
X138179237Y-76926358D01*
X138174253Y-76943331D01*
X138155909Y-76992513D01*
X138155909Y-76992517D01*
X138149500Y-77052127D01*
X138149500Y-77055448D01*
X138149500Y-77055449D01*
X138149500Y-77544560D01*
X138149500Y-77544578D01*
X138149501Y-77547872D01*
X138149853Y-77551152D01*
X138149854Y-77551159D01*
X138155897Y-77607373D01*
X138155909Y-77607483D01*
X138174252Y-77656665D01*
X138174253Y-77656666D01*
X138179237Y-77726358D01*
X138174253Y-77743331D01*
X138155909Y-77792513D01*
X138152164Y-77827349D01*
X138149500Y-77852127D01*
X138149500Y-77855448D01*
X138149500Y-77855449D01*
X138149500Y-78344560D01*
X138149500Y-78344578D01*
X138149501Y-78347872D01*
X138149853Y-78351152D01*
X138149854Y-78351159D01*
X138155909Y-78407486D01*
X138174519Y-78457382D01*
X138179503Y-78527074D01*
X138174519Y-78544046D01*
X138156401Y-78592624D01*
X138150354Y-78648867D01*
X138150000Y-78655481D01*
X138150000Y-78700000D01*
X138307894Y-78700000D01*
X138374933Y-78719685D01*
X138382193Y-78724724D01*
X138407669Y-78743796D01*
X138542517Y-78794091D01*
X138602127Y-78800500D01*
X139126001Y-78800499D01*
X139193039Y-78820183D01*
X139238794Y-78872987D01*
X139250000Y-78924499D01*
X139250000Y-79600000D01*
X139475500Y-79600000D01*
X139542539Y-79619685D01*
X139588294Y-79672489D01*
X139599500Y-79724000D01*
X139599500Y-80044560D01*
X139599500Y-80044578D01*
X139599501Y-80047872D01*
X139599853Y-80051152D01*
X139599854Y-80051159D01*
X139605909Y-80107484D01*
X139631056Y-80174906D01*
X139656204Y-80242331D01*
X139742454Y-80357546D01*
X139857669Y-80443796D01*
X139992517Y-80494091D01*
X140052127Y-80500500D01*
X140547872Y-80500499D01*
X140607483Y-80494091D01*
X140656665Y-80475746D01*
X140726356Y-80470762D01*
X140743328Y-80475744D01*
X140792517Y-80494091D01*
X140852127Y-80500500D01*
X141347872Y-80500499D01*
X141407483Y-80494091D01*
X141456665Y-80475746D01*
X141526356Y-80470762D01*
X141543328Y-80475744D01*
X141592517Y-80494091D01*
X141652127Y-80500500D01*
X142147872Y-80500499D01*
X142207483Y-80494091D01*
X142256665Y-80475746D01*
X142326356Y-80470762D01*
X142343328Y-80475744D01*
X142392517Y-80494091D01*
X142452127Y-80500500D01*
X142947872Y-80500499D01*
X143007483Y-80494091D01*
X143056665Y-80475746D01*
X143126356Y-80470762D01*
X143143328Y-80475744D01*
X143192517Y-80494091D01*
X143252127Y-80500500D01*
X143747872Y-80500499D01*
X143807483Y-80494091D01*
X143856665Y-80475746D01*
X143926356Y-80470762D01*
X143943328Y-80475744D01*
X143992517Y-80494091D01*
X144052127Y-80500500D01*
X144547872Y-80500499D01*
X144607483Y-80494091D01*
X144656665Y-80475746D01*
X144726356Y-80470762D01*
X144743328Y-80475744D01*
X144792517Y-80494091D01*
X144852127Y-80500500D01*
X145150500Y-80500499D01*
X145217539Y-80520183D01*
X145263294Y-80572987D01*
X145274500Y-80624499D01*
X145274500Y-80892256D01*
X145272235Y-80912766D01*
X145274439Y-80982872D01*
X145274500Y-80986767D01*
X145274500Y-81014350D01*
X145274988Y-81018219D01*
X145274989Y-81018225D01*
X145275004Y-81018343D01*
X145275918Y-81029967D01*
X145277290Y-81073626D01*
X145282879Y-81092860D01*
X145286825Y-81111916D01*
X145289335Y-81131792D01*
X145305414Y-81172404D01*
X145309197Y-81183451D01*
X145321382Y-81225391D01*
X145331580Y-81242635D01*
X145340136Y-81260100D01*
X145347514Y-81278732D01*
X145347515Y-81278733D01*
X145373180Y-81314059D01*
X145379593Y-81323822D01*
X145401826Y-81361416D01*
X145401829Y-81361419D01*
X145401830Y-81361420D01*
X145415995Y-81375585D01*
X145428627Y-81390375D01*
X145440406Y-81406587D01*
X145474058Y-81434426D01*
X145482699Y-81442289D01*
X147658181Y-83617771D01*
X147691666Y-83679094D01*
X147694500Y-83705452D01*
X147694500Y-88495030D01*
X147674815Y-88562069D01*
X147622011Y-88607824D01*
X147552853Y-88617768D01*
X147531496Y-88612736D01*
X147447797Y-88585000D01*
X147348141Y-88574819D01*
X147348122Y-88574818D01*
X147345009Y-88574500D01*
X147341860Y-88574500D01*
X146542953Y-88574500D01*
X146475914Y-88554815D01*
X146455272Y-88538181D01*
X146444319Y-88527228D01*
X146410834Y-88465905D01*
X146408000Y-88439547D01*
X146408000Y-88225243D01*
X146410264Y-88204739D01*
X146410126Y-88200356D01*
X146408061Y-88134626D01*
X146408000Y-88130731D01*
X146408000Y-88107040D01*
X146408000Y-88103150D01*
X146407498Y-88099177D01*
X146406580Y-88087518D01*
X146405209Y-88043873D01*
X146399620Y-88024640D01*
X146395674Y-88005582D01*
X146393164Y-87985706D01*
X146377088Y-87945104D01*
X146373304Y-87934053D01*
X146367381Y-87913668D01*
X146361118Y-87892110D01*
X146350914Y-87874855D01*
X146342361Y-87857395D01*
X146334986Y-87838769D01*
X146334986Y-87838768D01*
X146309308Y-87803425D01*
X146302901Y-87793671D01*
X146287102Y-87766956D01*
X146280670Y-87756080D01*
X146266505Y-87741916D01*
X146253867Y-87727117D01*
X146242095Y-87710913D01*
X146208441Y-87683073D01*
X146199799Y-87675209D01*
X145440802Y-86916211D01*
X145427906Y-86900113D01*
X145376775Y-86852098D01*
X145373978Y-86849387D01*
X145357227Y-86832636D01*
X145354471Y-86829880D01*
X145351290Y-86827412D01*
X145342422Y-86819837D01*
X145310582Y-86789938D01*
X145293024Y-86780285D01*
X145276764Y-86769604D01*
X145260936Y-86757327D01*
X145220851Y-86739980D01*
X145210361Y-86734841D01*
X145172091Y-86713802D01*
X145152691Y-86708821D01*
X145134284Y-86702519D01*
X145115897Y-86694562D01*
X145072758Y-86687729D01*
X145061324Y-86685361D01*
X145019019Y-86674500D01*
X144998984Y-86674500D01*
X144979586Y-86672973D01*
X144972162Y-86671797D01*
X144959805Y-86669840D01*
X144959804Y-86669840D01*
X144926751Y-86672964D01*
X144916325Y-86673950D01*
X144904656Y-86674500D01*
X138963476Y-86674500D01*
X138896437Y-86654815D01*
X138858996Y-86617283D01*
X138832470Y-86575784D01*
X138830700Y-86572930D01*
X138790852Y-86506702D01*
X138777474Y-86489589D01*
X138756169Y-86468284D01*
X138722788Y-86434903D01*
X138720518Y-86432571D01*
X138667569Y-86376673D01*
X138667563Y-86376669D01*
X138667301Y-86376392D01*
X138649883Y-86361997D01*
X137831459Y-85543573D01*
X137824644Y-85536182D01*
X137791496Y-85497157D01*
X137789071Y-85495314D01*
X137730252Y-85450600D01*
X137727607Y-85448532D01*
X137667364Y-85400107D01*
X137648896Y-85388652D01*
X137578742Y-85356195D01*
X137575715Y-85354745D01*
X137506455Y-85320396D01*
X137485954Y-85313179D01*
X137410447Y-85296557D01*
X137407182Y-85295792D01*
X137332177Y-85277140D01*
X137310615Y-85274500D01*
X137310231Y-85274500D01*
X137233338Y-85274500D01*
X137229980Y-85274455D01*
X137152676Y-85272360D01*
X137130176Y-85274500D01*
X133206217Y-85274500D01*
X133155781Y-85263779D01*
X133099802Y-85238855D01*
X132914648Y-85199500D01*
X132914646Y-85199500D01*
X132725354Y-85199500D01*
X132725352Y-85199500D01*
X132540197Y-85238855D01*
X132367269Y-85315848D01*
X132214129Y-85427110D01*
X132087466Y-85567783D01*
X131992820Y-85731715D01*
X131934326Y-85911742D01*
X131914540Y-86100000D01*
X131934326Y-86288257D01*
X131992820Y-86468284D01*
X132087466Y-86632216D01*
X132214129Y-86772889D01*
X132367269Y-86884151D01*
X132540197Y-86961144D01*
X132725352Y-87000500D01*
X132725354Y-87000500D01*
X132914648Y-87000500D01*
X133038084Y-86974262D01*
X133099803Y-86961144D01*
X133136169Y-86944952D01*
X133155781Y-86936221D01*
X133206217Y-86925500D01*
X133587704Y-86925500D01*
X133654743Y-86945185D01*
X133700498Y-86997989D01*
X133710442Y-87067147D01*
X133681417Y-87130703D01*
X133675385Y-87137181D01*
X131728572Y-89083992D01*
X131721169Y-89090818D01*
X131682154Y-89123958D01*
X131635608Y-89185189D01*
X131633541Y-89187833D01*
X131585109Y-89248085D01*
X131573653Y-89266554D01*
X131541180Y-89336740D01*
X131539731Y-89339762D01*
X131505400Y-89408988D01*
X131498176Y-89429507D01*
X131481557Y-89505003D01*
X131480792Y-89508268D01*
X131462140Y-89583273D01*
X131459500Y-89604842D01*
X131459500Y-89682114D01*
X131459455Y-89685472D01*
X131457360Y-89762775D01*
X131459500Y-89785276D01*
X131459500Y-91396405D01*
X131459091Y-91406468D01*
X131454937Y-91457486D01*
X131465318Y-91533691D01*
X131465726Y-91537019D01*
X131474087Y-91613889D01*
X131479045Y-91635042D01*
X131505699Y-91707594D01*
X131506814Y-91710760D01*
X131531499Y-91784023D01*
X131540891Y-91803622D01*
X131582518Y-91868746D01*
X131584288Y-91871599D01*
X131624147Y-91937845D01*
X131637528Y-91954961D01*
X131637799Y-91955232D01*
X131637800Y-91955233D01*
X131692190Y-92009623D01*
X131694496Y-92011993D01*
X131747692Y-92068151D01*
X131765119Y-92082552D01*
X134638181Y-94955614D01*
X134671666Y-95016937D01*
X134674500Y-95043295D01*
X134674500Y-112588371D01*
X134654815Y-112655410D01*
X134602011Y-112701165D01*
X134532853Y-112711109D01*
X134476190Y-112687638D01*
X134270765Y-112533859D01*
X134177621Y-112482999D01*
X134022749Y-112398432D01*
X133757984Y-112299680D01*
X133757979Y-112299678D01*
X133481861Y-112239613D01*
X133272763Y-112224658D01*
X133272761Y-112224657D01*
X133270553Y-112224500D01*
X133129447Y-112224500D01*
X133127239Y-112224657D01*
X133127236Y-112224658D01*
X132918138Y-112239613D01*
X132642020Y-112299678D01*
X132545179Y-112335798D01*
X132377251Y-112398432D01*
X132315520Y-112432139D01*
X132129234Y-112533859D01*
X131903017Y-112703203D01*
X131703203Y-112903017D01*
X131533859Y-113129234D01*
X131436682Y-113307202D01*
X131398432Y-113377251D01*
X131386221Y-113409991D01*
X131299678Y-113642020D01*
X131239613Y-113918138D01*
X131219453Y-114199999D01*
X130000500Y-114199999D01*
X130000500Y-50789776D01*
X131754499Y-50789776D01*
X131793930Y-51026068D01*
X131871711Y-51252636D01*
X131871713Y-51252641D01*
X131985729Y-51463323D01*
X131985730Y-51463324D01*
X132132866Y-51652366D01*
X132309115Y-51814614D01*
X132509658Y-51945635D01*
X132509660Y-51945636D01*
X132729038Y-52041864D01*
X132961263Y-52100672D01*
X133140213Y-52115500D01*
X133142783Y-52115500D01*
X133257217Y-52115500D01*
X133259787Y-52115500D01*
X133438737Y-52100672D01*
X133670962Y-52041864D01*
X133890340Y-51945636D01*
X134090887Y-51814612D01*
X134267134Y-51652366D01*
X134414271Y-51463323D01*
X134528287Y-51252641D01*
X134606070Y-51026065D01*
X134645500Y-50789778D01*
X134645500Y-50550222D01*
X134606070Y-50313935D01*
X134528287Y-50087359D01*
X134414271Y-49876677D01*
X134267134Y-49687634D01*
X134090887Y-49525388D01*
X134090884Y-49525385D01*
X133890341Y-49394364D01*
X133670965Y-49298137D01*
X133670963Y-49298136D01*
X133670962Y-49298136D01*
X133438737Y-49239328D01*
X133259787Y-49224500D01*
X133140213Y-49224500D01*
X133137666Y-49224711D01*
X133137667Y-49224711D01*
X132961263Y-49239328D01*
X132729034Y-49298137D01*
X132509658Y-49394364D01*
X132309115Y-49525385D01*
X132132866Y-49687633D01*
X131985730Y-49876675D01*
X131871711Y-50087363D01*
X131793930Y-50313931D01*
X131754499Y-50550223D01*
X131754499Y-50789776D01*
X130000500Y-50789776D01*
X130000500Y-44004065D01*
X130000633Y-44000000D01*
X130644340Y-44000000D01*
X130664936Y-44235407D01*
X130726097Y-44463662D01*
X130726097Y-44463663D01*
X130825965Y-44677829D01*
X130961505Y-44871401D01*
X131128599Y-45038495D01*
X131322171Y-45174035D01*
X131536337Y-45273903D01*
X131764592Y-45335063D01*
X131941034Y-45350500D01*
X131943742Y-45350500D01*
X132056258Y-45350500D01*
X132058966Y-45350500D01*
X132235408Y-45335063D01*
X132463663Y-45273903D01*
X132677829Y-45174035D01*
X132871401Y-45038495D01*
X133038495Y-44871401D01*
X133174035Y-44677830D01*
X133273903Y-44463663D01*
X133335063Y-44235408D01*
X133355659Y-44000000D01*
X154644340Y-44000000D01*
X154664936Y-44235407D01*
X154726097Y-44463662D01*
X154726097Y-44463663D01*
X154825965Y-44677829D01*
X154961505Y-44871401D01*
X155128599Y-45038495D01*
X155322171Y-45174035D01*
X155536337Y-45273903D01*
X155764592Y-45335063D01*
X155941034Y-45350500D01*
X155943742Y-45350500D01*
X156056258Y-45350500D01*
X156058966Y-45350500D01*
X156235408Y-45335063D01*
X156463663Y-45273903D01*
X156677829Y-45174035D01*
X156871401Y-45038495D01*
X157038495Y-44871401D01*
X157174035Y-44677830D01*
X157273903Y-44463663D01*
X157335063Y-44235408D01*
X157355659Y-44000000D01*
X157335063Y-43764592D01*
X157273903Y-43536337D01*
X157174035Y-43322171D01*
X157038495Y-43128599D01*
X156871401Y-42961505D01*
X156677829Y-42825965D01*
X156463663Y-42726097D01*
X156463662Y-42726097D01*
X156235407Y-42664936D01*
X156061667Y-42649736D01*
X156061659Y-42649735D01*
X156058966Y-42649500D01*
X155941034Y-42649500D01*
X155938341Y-42649735D01*
X155938332Y-42649736D01*
X155764592Y-42664936D01*
X155536336Y-42726097D01*
X155322170Y-42825965D01*
X155128598Y-42961505D01*
X154961508Y-43128595D01*
X154961505Y-43128598D01*
X154961505Y-43128599D01*
X154887126Y-43234824D01*
X154825964Y-43322172D01*
X154726097Y-43536337D01*
X154664936Y-43764592D01*
X154644340Y-44000000D01*
X133355659Y-44000000D01*
X133335063Y-43764592D01*
X133273903Y-43536337D01*
X133174035Y-43322171D01*
X133038495Y-43128599D01*
X132871401Y-42961505D01*
X132677829Y-42825965D01*
X132463663Y-42726097D01*
X132235407Y-42664936D01*
X132061667Y-42649736D01*
X132061659Y-42649735D01*
X132058966Y-42649500D01*
X131941034Y-42649500D01*
X131938341Y-42649735D01*
X131938332Y-42649736D01*
X131764592Y-42664936D01*
X131536336Y-42726097D01*
X131322170Y-42825965D01*
X131128598Y-42961505D01*
X130961508Y-43128595D01*
X130961505Y-43128598D01*
X130961505Y-43128599D01*
X130887126Y-43234824D01*
X130825964Y-43322172D01*
X130726097Y-43536337D01*
X130664936Y-43764592D01*
X130644340Y-44000000D01*
X130000633Y-44000000D01*
X130000765Y-43995955D01*
X130005982Y-43916359D01*
X130005983Y-43916350D01*
X130018709Y-43738407D01*
X130020770Y-43723101D01*
X130043163Y-43610523D01*
X130073795Y-43469717D01*
X130077515Y-43456318D01*
X130116243Y-43342230D01*
X130117404Y-43338967D01*
X130165068Y-43211177D01*
X130170017Y-43199713D01*
X130224481Y-43089272D01*
X130226777Y-43084851D01*
X130290855Y-42967501D01*
X130296562Y-42958075D01*
X130365639Y-42854694D01*
X130369425Y-42849344D01*
X130448850Y-42743246D01*
X130454823Y-42735878D01*
X130537161Y-42641989D01*
X130542648Y-42636131D01*
X130636131Y-42542648D01*
X130641989Y-42537161D01*
X130735878Y-42454823D01*
X130743246Y-42448850D01*
X130849344Y-42369425D01*
X130854694Y-42365639D01*
X130958075Y-42296562D01*
X130967501Y-42290855D01*
X131084851Y-42226777D01*
X131089272Y-42224481D01*
X131199713Y-42170017D01*
X131211177Y-42165068D01*
X131338967Y-42117404D01*
X131342230Y-42116243D01*
X131456305Y-42077519D01*
X131469754Y-42073787D01*
X131610546Y-42043159D01*
X131723125Y-42020766D01*
X131738402Y-42018709D01*
X131916208Y-42005991D01*
X131992267Y-42001006D01*
X131995958Y-42000765D01*
X132004063Y-42000500D01*
X155995935Y-42000500D01*
X156004042Y-42000764D01*
G37*
%TD.AperFunction*%
%TD*%
M02*
